<?xml version="1.0" encoding="utf-8"?>
<svg xmlns="http://www.w3.org/2000/svg" fill="none" height="11" viewBox="0 0 83 11" width="83">
<path clip-rule="evenodd" d="M29.1925 5.11994V5.70176C29.1912 5.78286 29.2077 5.86341 29.2411 5.9388C29.2746 6.01418 29.3243 6.08293 29.3874 6.14111C29.4505 6.1993 29.5258 6.24578 29.6089 6.2779C29.6921 6.31002 29.7815 6.32715 29.8721 6.32832H35.3288C35.4194 6.32715 35.5088 6.31002 35.5919 6.2779C35.6751 6.24578 35.7504 6.1993 35.8135 6.14111C35.8766 6.08293 35.9263 6.01418 35.9598 5.9388C35.9932 5.86341 36.0097 5.78286 36.0084 5.70176V5.38847C36.0097 5.30736 35.9932 5.22682 35.9598 5.15143C35.9263 5.07604 35.8766 5.00729 35.8135 4.94911C35.7504 4.89093 35.6751 4.84445 35.5919 4.81233C35.5088 4.78021 35.4194 4.76307 35.3288 4.7619H29.8321C29.5105 4.7584 29.1929 4.6982 28.8973 4.58474C28.6018 4.47128 28.334 4.30679 28.1095 4.10065C27.8849 3.89452 27.7078 3.65078 27.5884 3.38336C27.469 3.11593 27.4096 2.83006 27.4136 2.54207V2.21983C27.4096 1.93184 27.469 1.64597 27.5884 1.37855C27.7078 1.11112 27.8849 0.867385 28.1095 0.66125C28.334 0.455115 28.6018 0.290622 28.8973 0.177164C29.1929 0.0637058 29.5105 0.00350485 29.8321 0H35.3288C35.6512 0.00233546 35.9699 0.0616737 36.2666 0.17461C36.5634 0.287546 36.8323 0.451856 37.0579 0.658109C37.2836 0.864361 37.4615 1.1085 37.5815 1.3765C37.7016 1.6445 37.7613 1.9311 37.7573 2.21983V2.77479H36.0584V2.21983C36.0597 2.13873 36.0432 2.05818 36.0097 1.98279C35.9763 1.90741 35.9266 1.83866 35.8635 1.78048C35.8004 1.72229 35.7251 1.67581 35.6419 1.64369C35.5588 1.61157 35.4693 1.59444 35.3788 1.59327H29.8821C29.7915 1.59444 29.7021 1.61157 29.6189 1.64369C29.5358 1.67581 29.4605 1.72229 29.3974 1.78048C29.3343 1.83866 29.2846 1.90741 29.2511 1.98279C29.2177 2.05818 29.2012 2.13873 29.2025 2.21983V2.54207C29.2025 2.70433 29.2737 2.86008 29.4009 2.97566C29.5281 3.09123 29.7009 3.15733 29.8821 3.15969H35.3888C36.0383 3.17604 36.6549 3.41928 37.1069 3.83743C37.5588 4.25558 37.8102 4.81546 37.8073 5.39742V5.71071C37.81 6.00288 37.7477 6.29261 37.6241 6.56301C37.5005 6.83341 37.318 7.07907 37.0873 7.28568C36.8566 7.49229 36.5823 7.65571 36.2804 7.76642C35.9785 7.87714 35.655 7.93293 35.3288 7.93054H29.8321C29.1818 7.92111 28.5621 7.68128 28.1088 7.26354C27.6555 6.84581 27.4055 6.28423 27.4136 5.70176V5.11994H29.1925Z" fill="#E21E26" fill-rule="evenodd"/>
<path clip-rule="evenodd" d="M68.0092 2.62261V1.45898H69.6782V2.62261H73.8657V3.87574H69.6782V5.76439C69.6782 6.35515 69.998 6.48047 70.3278 6.48047H71.8469C72.3566 6.48047 72.5265 6.30145 72.5265 5.8181V4.923H74.0656C74.0656 4.923 74.0656 5.3437 74.0656 5.70173C74.0755 6.03085 74.0555 6.36014 74.0056 6.68634C73.7757 7.58143 73.1461 7.85891 72.0068 7.87681H69.928C69.5678 7.88755 69.2123 7.80113 68.9076 7.62876C68.6029 7.45639 68.363 7.20603 68.2191 6.91011C68.1277 6.7089 68.064 6.49851 68.0292 6.28355C68.0101 6.18884 68.0101 6.09183 68.0292 5.99712V3.88469H66.72V2.62261H68.0092Z" fill="#E21E26" fill-rule="evenodd"/>
<path clip-rule="evenodd" d="M63.9117 3.71463H61.5831C61.1933 3.71463 60.8935 3.8131 60.8735 4.18008V7.76046H59.2045V2.41675H60.8735V2.62262C61.1524 2.49864 61.4619 2.44012 61.7729 2.45255H63.7717C64.1001 2.42513 64.4311 2.46272 64.7414 2.56266C65.0517 2.66259 65.3336 2.82242 65.5673 3.03082C65.8009 3.23922 65.9805 3.4911 66.0934 3.76859C66.2062 4.04609 66.2495 4.34242 66.2203 4.63658V5.3079H64.6512V4.41281C64.6552 4.32317 64.6391 4.23371 64.6039 4.14973C64.5687 4.06575 64.515 3.98894 64.446 3.92386C64.3771 3.85877 64.2943 3.80673 64.2025 3.77079C64.1107 3.73485 64.0118 3.71576 63.9117 3.71463Z" fill="#E21E26" fill-rule="evenodd"/>
<path clip-rule="evenodd" d="M52.4086 6.37309H56.0064C56.1787 6.37309 56.3439 6.31179 56.4657 6.20268C56.5876 6.09357 56.656 5.94558 56.656 5.79128V4.65451C56.6534 4.50092 56.5842 4.35427 56.4629 4.24566C56.3416 4.13704 56.1779 4.075 56.0064 4.07269H52.4086C52.2371 4.075 52.0733 4.13704 51.9521 4.24566C51.8308 4.35427 51.7615 4.50092 51.7589 4.65451V5.79128C51.7589 5.94558 51.8274 6.09357 51.9492 6.20268C52.071 6.31179 52.2363 6.37309 52.4086 6.37309ZM50.09 5.79128V4.65451C50.1005 4.1108 50.3497 3.59269 50.7837 3.21239C51.2176 2.83208 51.8014 2.6202 52.4086 2.62264H56.0064C56.6118 2.62256 57.193 2.83548 57.6249 3.21553C58.0567 3.59559 58.3045 4.11235 58.315 4.65451V5.79128C58.315 6.06356 58.255 6.33317 58.1383 6.58461C58.0217 6.83606 57.8507 7.06439 57.6353 7.25651C57.4199 7.44863 57.1642 7.60075 56.8829 7.70413C56.6017 7.80751 56.3004 7.86012 55.9964 7.85895H52.3986C51.7863 7.85895 51.1991 7.6411 50.7661 7.25334C50.3332 6.86558 50.09 6.33966 50.09 5.79128Z" fill="#E21E26" fill-rule="evenodd"/>
<path clip-rule="evenodd" d="M49.2504 8.45867C49.2558 8.74848 49.1966 9.03633 49.0764 9.30546C48.9563 9.57459 48.7775 9.81959 48.5505 10.0262C48.3235 10.2328 48.0529 10.3969 47.7544 10.5089C47.4559 10.6209 47.1355 10.6785 46.8119 10.6785H43.5439C42.8962 10.6785 42.2749 10.4487 41.816 10.0394C41.3571 9.63003 41.098 9.07453 41.0953 8.49447V8.17224H42.7643V8.44076C42.7643 8.53203 42.7846 8.62239 42.8239 8.7066C42.8632 8.79081 42.9207 8.86719 42.9933 8.93131C43.0658 8.99543 43.1518 9.04601 43.2463 9.08012C43.3408 9.11422 43.442 9.13117 43.5439 9.12999H46.8119C46.9133 9.13119 47.014 9.11419 47.108 9.07998C47.202 9.04576 47.2873 8.99504 47.359 8.9308C47.4308 8.86656 47.4874 8.7901 47.5256 8.70594C47.5638 8.62177 47.5828 8.53161 47.5814 8.44076V7.76049C47.3431 7.83228 47.0933 7.86857 46.8419 7.8679H43.4439C42.8184 7.8679 42.2185 7.64535 41.7762 7.24919C41.3338 6.85303 41.0853 6.31573 41.0853 5.75548V4.68137C41.101 4.12892 41.3578 3.60398 41.8006 3.21912C42.2434 2.83426 42.8369 2.62013 43.4539 2.62265H46.3222C46.7589 2.61933 47.1903 2.70827 47.5814 2.88223V2.62265H49.2504V8.49447V8.45867ZM43.4539 4.0727C43.2684 4.0727 43.0904 4.13871 42.9592 4.25622C42.828 4.37372 42.7543 4.53309 42.7543 4.69927V5.77338C42.7543 5.93956 42.828 6.09893 42.9592 6.21643C43.0904 6.33394 43.2684 6.39995 43.4539 6.39995H46.8519C47.0374 6.39995 47.2154 6.33394 47.3466 6.21643C47.4778 6.09893 47.5515 5.93956 47.5515 5.77338V4.69927C47.5515 4.53309 47.4778 4.37372 47.3466 4.25622C47.2154 4.13871 47.0374 4.0727 46.8519 4.0727H43.4539Z" fill="#E21E26" fill-rule="evenodd"/>
<path clip-rule="evenodd" d="M38.6068 0.635498H40.3258V2.14821H38.6068V0.635498ZM38.6068 2.66736H40.3258V7.86786H38.6068V2.66736Z" fill="#E21E26" fill-rule="evenodd"/>
<path clip-rule="evenodd" d="M80.4717 4.53813C80.6933 4.54254 80.9126 4.57881 81.1213 4.64555V4.41282C81.1213 3.92052 80.9514 3.87576 80.5317 3.87576H77.4635C77.1137 3.87576 76.9838 3.97423 76.9738 4.31436V4.41282H75.5047C75.5047 3.31186 75.8345 2.67634 77.2936 2.62263H80.3818C80.6678 2.59418 80.9574 2.61872 81.2324 2.69475C81.5074 2.77077 81.762 2.89664 81.9804 3.06454C82.1988 3.23243 82.3763 3.43877 82.5019 3.67072C82.6275 3.90266 82.6984 4.15527 82.7104 4.41282V7.90369H81.1213V7.76048C80.8594 7.8606 80.5766 7.90943 80.2918 7.90369H76.8939C76.6668 7.90606 76.4415 7.86834 76.2307 7.7927C76.0199 7.71705 75.8278 7.60497 75.6654 7.46283C75.503 7.3207 75.3735 7.15131 75.2841 6.96432C75.1948 6.77734 75.1475 6.57644 75.1449 6.37308V6.0777C75.1528 5.66856 75.3412 5.27885 75.6689 4.99373C75.9966 4.7086 76.437 4.55125 76.8939 4.55604L80.4717 4.53813ZM76.614 6.08665V6.33728C76.6166 6.40693 76.6494 6.47295 76.7053 6.52139C76.7613 6.56983 76.836 6.59689 76.9139 6.59685H80.6216C80.661 6.59805 80.7003 6.59228 80.7372 6.57988C80.774 6.56748 80.8078 6.54869 80.8366 6.52458C80.8654 6.50047 80.8886 6.47152 80.9048 6.43938C80.9211 6.40724 80.9302 6.37255 80.9314 6.33728V6.08665C80.9302 6.05138 80.9211 6.01668 80.9048 5.98454C80.8886 5.95241 80.8654 5.92345 80.8366 5.89935C80.8078 5.87524 80.774 5.85645 80.7372 5.84405C80.7003 5.83165 80.661 5.82588 80.6216 5.82707H76.9139C76.836 5.82703 76.7613 5.85409 76.7053 5.90253C76.6494 5.95097 76.6166 6.01699 76.614 6.08665Z" fill="#E21E26" fill-rule="evenodd"/>
<path clip-rule="evenodd" d="M15.051 0.0626221H17.9392V2.94483H19.2884L22.9362 0.0626221H26.8639L21.7669 3.90258L27.4635 7.90365H23.376L19.2185 4.89614H17.9392V7.90365H15.051V0.0626221Z" fill="#E21E26" fill-rule="evenodd"/>
<path clip-rule="evenodd" d="M5.14691 4.82455H8.8347L6.96582 1.88864L5.14691 4.82455ZM5.09694 0.0715942H8.85469L14.0316 7.90367H10.8135L9.91405 6.51628H4.06756L3.21807 7.90367H0L5.09694 0.0715942Z" fill="#E21E26" fill-rule="evenodd"/>
</svg>