<?xml version="1.0" encoding="utf-8"?>
<svg xmlns="http://www.w3.org/2000/svg" fill="none" height="19" viewBox="0 0 83 19" width="83">
<path d="M7.34559 10.1081H4.59724L6.06636 5.75795L7.34559 10.1081ZM3.15811 14.9685L4.10754 12.131H7.8253L8.70478 15.0132H12.1527L8.72476 4.02147C8.67294 3.73579 8.5014 3.47858 8.24512 3.30227C7.98885 3.12597 7.66714 3.04385 7.34559 3.07267H2.48851V4.07517H2.89826C3.39796 4.07517 3.67779 4.25419 3.67779 4.60328C3.65138 4.93522 3.56708 5.26141 3.42794 5.56998L0 14.9685H3.15811Z" fill="#3A5896"/>
<path d="M16.3902 14.9685V3.98568C16.4025 3.86538 16.385 3.74413 16.3392 3.63054C16.2933 3.51694 16.2201 3.41377 16.1247 3.32835C16.0293 3.24293 15.9141 3.17735 15.7873 3.13626C15.6605 3.09517 15.5251 3.07958 15.3908 3.09058H12.3926V4.07519H12.5824C13.0921 4.07519 13.312 4.27211 13.312 4.73756V14.9685H16.3902Z" fill="#3A5896"/>
<path d="M21.717 14.9685V3.98566C21.7311 3.86501 21.715 3.74305 21.6697 3.62869C21.6245 3.51434 21.5513 3.41048 21.4556 3.32469C21.3598 3.23891 21.2438 3.17337 21.1161 3.13286C20.9885 3.09236 20.8523 3.07791 20.7176 3.09057H17.7194V4.07517H17.9192C18.4289 4.07517 18.6388 4.27209 18.6388 4.73754V14.9685H21.717Z" fill="#3A5896"/>
<path d="M27.0538 4.15576C27.0538 3.36808 26.4241 2.89368 25.3348 2.89368C24.2455 2.89368 23.6258 3.36808 23.6258 4.15576C23.6258 4.94344 24.2654 5.41784 25.3348 5.41784C26.4042 5.41784 27.0538 4.9703 27.0538 4.15576ZM27.0538 14.9685V6.91265C27.0661 6.79235 27.0486 6.67111 27.0028 6.55751C26.9569 6.44391 26.8837 6.34075 26.7883 6.25533C26.6929 6.16991 26.5777 6.10433 26.4509 6.06324C26.3241 6.02215 26.1887 6.00655 26.0544 6.01756H23.1361V7.09167H23.336C23.8457 7.09167 24.0556 7.30649 24.0556 7.77194V15.0222L27.0538 14.9685Z" fill="#3A5896"/>
<path d="M33.8597 10.7079V12.4265C33.4334 12.8679 32.8303 13.1412 32.1807 13.1873C31.621 13.1873 31.4211 12.9456 31.4211 12.2922C31.4211 11.6388 31.581 11.3344 32.1307 11.1465C32.6868 10.9425 33.2668 10.7954 33.8597 10.7079ZM29.7621 8.63125C30.6948 8.21156 31.7173 7.9765 32.7603 7.94203C33.5798 7.94203 33.8697 8.21055 33.8697 8.98929V9.18621C32.6404 9.36523 32.2506 9.42788 31.5511 9.5711C31.161 9.65472 30.7798 9.76853 30.4117 9.91124C29.8223 10.1174 29.3259 10.4928 29.0004 10.9788C28.6748 11.4647 28.5385 12.0337 28.6128 12.5965C28.6128 14.2793 29.4024 15.0938 31.0514 15.0938C31.6025 15.0931 32.1484 14.9989 32.6604 14.8164C33.128 14.6099 33.5646 14.3512 33.9596 14.0466V14.1719C33.9433 14.2847 33.956 14.3993 33.997 14.507C34.0379 14.6147 34.1059 14.7125 34.1957 14.7929C34.2855 14.8733 34.3947 14.9342 34.5149 14.9709C34.6351 15.0075 34.7631 15.019 34.8891 15.0043H37.7174V13.9213H37.5774C37.0478 13.9213 36.8579 13.7243 36.8579 13.1962V9.00719C36.8579 6.7426 35.9884 5.96387 33.5099 5.96387C32.7221 5.96555 31.9373 6.04966 31.1713 6.21449C30.4433 6.35721 29.7428 6.5955 29.0925 6.92162L29.7621 8.63125Z" fill="#3A5896"/>
<path d="M42.3746 14.9685V8.91762C42.5893 8.68547 42.8578 8.49795 43.1616 8.36811C43.4653 8.23827 43.797 8.16922 44.1335 8.16574C44.8231 8.16574 44.993 8.39847 44.993 9.29356V14.9685H47.9912V8.84601C47.9912 7.42281 47.8713 6.96632 47.3616 6.48296C47.1181 6.26824 46.8265 6.10217 46.5061 5.99571C46.1857 5.88926 45.8437 5.84483 45.5027 5.86535C44.883 5.8698 44.2717 5.99453 43.7109 6.23096C43.1502 6.46738 42.6534 6.80988 42.2547 7.23484V6.84995C42.2547 6.25322 41.9448 5.95486 41.3252 5.95486H38.4569V7.02897H38.6368C39.1465 7.02897 39.3564 7.24379 39.3564 7.70924V14.9595L42.3746 14.9685Z" fill="#3A5896"/>
<path d="M57.3156 13.1515H53.0482L57.1157 7.95992V6.16973H50.6696C50.5237 6.148 50.3741 6.15775 50.2333 6.1982C50.0925 6.23864 49.9645 6.3086 49.8599 6.40226C49.7553 6.49593 49.6772 6.61059 49.632 6.73672C49.5869 6.86286 49.576 6.99682 49.6002 7.12748V8.73865H50.8095V8.55068C50.8095 8.13894 51.0494 7.94202 51.5291 7.94202H53.7278L49.6002 13.1873V14.9775H57.3156V13.1515Z" fill="#3A5896"/>
<path d="M73.6558 14.4135V4.49588C73.6558 3.69924 73.376 3.43967 72.5165 3.43967H70.028V4.51378H70.4377C70.539 4.52434 70.632 4.56917 70.6976 4.63909C70.8145 4.79063 70.8643 4.97565 70.8375 5.15825V14.4135H73.6558ZM75.065 14.4135H77.8833V6.90368C77.8833 6.14285 77.5735 5.84747 76.724 5.84747H75.065V14.4135ZM69.6382 14.4135V5.86537H67.9692C67.1397 5.86537 66.8199 6.16076 66.8199 6.92159V14.4314L69.6382 14.4135ZM80.7016 9.37415C80.7406 10.3899 80.5509 11.4023 80.1438 12.351C79.7367 13.2997 79.1206 14.1653 78.3321 14.8962C77.5436 15.6271 76.5989 16.2084 75.5542 16.6054C74.5096 17.0024 73.3864 17.207 72.2517 17.207C71.1169 17.207 69.9937 17.0024 68.9491 16.6054C67.9044 16.2084 66.9597 15.6271 66.1712 14.8962C65.3827 14.1653 64.7666 13.2997 64.3595 12.351C63.9524 11.4023 63.7627 10.3899 63.8017 9.37415C63.7627 8.3584 63.9524 7.34601 64.3595 6.39731C64.7666 5.44862 65.3827 4.58302 66.1712 3.85211C66.9597 3.12119 67.9044 2.53992 68.9491 2.14292C69.9937 1.74593 71.1169 1.54133 72.2517 1.54133C73.3864 1.54133 74.5096 1.74593 75.5542 2.14292C76.5989 2.53992 77.5436 3.12119 78.3321 3.85211C79.1206 4.58302 79.7367 5.44862 80.1438 6.39731C80.5509 7.34601 80.7406 8.3584 80.7016 9.37415ZM82.7004 9.37415C82.7004 6.88863 81.598 4.50492 79.6356 2.74739C77.6733 0.989869 75.0118 0.00250244 72.2367 0.00250244C69.4615 0.00250244 66.8 0.989869 64.8377 2.74739C62.8754 4.50492 61.7729 6.88863 61.7729 9.37415C61.7729 11.8597 62.8754 14.2434 64.8377 16.0009C66.8 17.7584 69.4615 18.7458 72.2367 18.7458C75.0118 18.7458 77.6733 17.7584 79.6356 16.0009C81.598 14.2434 82.7004 11.8597 82.7004 9.37415Z" fill="#3A5896"/>
</svg>