<?xml version="1.0" encoding="utf-8"?>
<svg xmlns="http://www.w3.org/2000/svg" fill="none" height="22" viewBox="0 0 83 22" width="83">
<path clip-rule="evenodd" d="M50.9994 17.9137C51.5191 18.1822 51.8189 19.4443 51.8189 19.4443L52.2487 21.1092H48.321C48.2129 20.8864 48.126 20.6558 48.0612 20.4199C47.9812 20.0708 47.6314 18.7372 47.1217 18.4686C46.657 18.3087 46.1516 18.2684 45.6626 18.3523V21.1092H41.5451V13.116H48.8207C49.5393 13.0714 50.2485 13.2823 50.7947 13.7028C51.341 14.1233 51.6802 14.7197 51.739 15.3627C51.7092 15.863 51.4978 16.3409 51.1371 16.7238C50.7763 17.1067 50.2858 17.3736 49.7402 17.484C50.1676 17.5827 50.5803 17.7269 50.9694 17.9137M45.6626 16.7321H47.3216C47.5867 16.7321 47.8409 16.6378 48.0283 16.47C48.2157 16.3021 48.321 16.0744 48.321 15.8371C48.321 15.5997 48.2157 15.372 48.0283 15.2041C47.8409 15.0363 47.5867 14.942 47.3216 14.942H45.6926L45.6626 16.7321Z" fill="#002D9A" fill-rule="evenodd"/>
<path clip-rule="evenodd" d="M28.6228 17.2513C28.6228 14.8704 31.2013 12.9459 34.6192 12.9459C38.0372 12.9459 40.6156 14.8704 40.6156 17.2513C40.6156 19.6323 38.0272 21.5657 34.6192 21.5657C31.2113 21.5657 28.6228 19.6323 28.6228 17.2513ZM32.6804 17.126C32.6804 18.415 33.6798 19.4622 34.6292 19.4622C35.5787 19.4622 36.628 18.415 36.628 17.126C36.628 15.8371 35.6286 14.7898 34.6292 14.7898C33.6298 14.7898 32.6804 15.8371 32.6804 17.126Z" fill="#002D9A" fill-rule="evenodd"/>
<path clip-rule="evenodd" d="M82.7104 1.10382V6.47439C82.7104 8.38989 80.2119 9.31184 77.1237 9.31184C74.0356 9.31184 71.5471 8.41675 71.5471 6.47439V1.10382H75.6946V6.08055C75.7247 6.40269 75.8888 6.70297 76.1544 6.92183C76.42 7.14069 76.7678 7.26217 77.1287 7.26217C77.4897 7.26217 77.8374 7.14069 78.1031 6.92183C78.3687 6.70297 78.5328 6.40269 78.5629 6.08055V1.10382H82.7104Z" fill="#002D9A" fill-rule="evenodd"/>
<path clip-rule="evenodd" d="M0.129929 9.03436L3.41796 1.10382H9.41436L12.5325 9.03436H8.12513L7.74536 7.96025H4.74716L4.18749 9.03436H0.129929ZM7.27564 5.69566L6.20628 2.85821L5.20688 5.69566H7.27564Z" fill="#002D9A" fill-rule="evenodd"/>
<path clip-rule="evenodd" d="M12.9622 9.03436V1.10382H18.0492L20.7076 5.08699V1.10382H24.2155V9.03436H19.1685L16.5101 5.08699V9.03436H12.9622Z" fill="#002D9A" fill-rule="evenodd"/>
<path clip-rule="evenodd" d="M24.7252 9.03436L28.0232 1.10382H34.0196L37.1377 9.03436H32.7304L32.3306 7.96025H29.3324L28.7727 9.03436H24.7252ZM31.8809 5.57034L30.8115 2.73289L29.8121 5.57034H31.8809Z" fill="#002D9A" fill-rule="evenodd"/>
<path clip-rule="evenodd" d="M37.5675 9.03436V1.10382H44.4633C45.6375 1.10382 46.7637 1.52159 47.5939 2.26522C48.4242 3.00885 48.8907 4.01744 48.8907 5.06909C48.8907 6.12075 48.4242 7.12933 47.5939 7.87296C46.7637 8.61659 45.6375 9.03436 44.4633 9.03436H37.5675ZM41.765 7.14571H42.8543C43.1641 7.13308 43.4682 7.06584 43.749 6.94783C44.0297 6.82983 44.2818 6.66338 44.4907 6.45802C44.6995 6.25265 44.8611 6.01241 44.9662 5.75104C45.0713 5.48967 45.1177 5.21231 45.103 4.93483C45.1328 4.37353 44.9129 3.82453 44.4913 3.40835C44.0697 2.99217 43.481 2.74281 42.8543 2.71499H41.765V7.14571Z" fill="#002D9A" fill-rule="evenodd"/>
<path clip-rule="evenodd" d="M49.97 5.06015C49.97 2.67919 52.5585 0.745789 55.9664 0.745789C59.3744 0.745789 61.9628 2.67919 61.9628 5.06015C61.9628 7.4411 59.3844 9.3745 55.9664 9.3745C52.5485 9.3745 49.97 7.4411 49.97 5.06015ZM54.0376 4.93483C54.0376 6.22377 55.037 7.27103 56.0364 7.27103C57.0358 7.27103 58.0352 6.22377 58.0352 4.93483C58.0352 3.6459 57.0358 2.59863 56.0364 2.59863C55.037 2.59863 54.0376 3.6459 54.0376 4.93483Z" fill="#002D9A" fill-rule="evenodd"/>
<path clip-rule="evenodd" d="M62.8523 1.10382V9.03436H71.1973V6.92194H67.1397V1.10382H62.8523Z" fill="#002D9A" fill-rule="evenodd"/>
<path clip-rule="evenodd" d="M61.2333 21.2166L64.5213 13.2861H70.5177L73.6358 21.2166H69.2285L68.8487 20.1514H65.8505L65.3108 21.2166H61.2333ZM68.379 17.8869L67.3096 15.0494L66.3102 17.8869H68.379Z" fill="#002D9A" fill-rule="evenodd"/>
<path clip-rule="evenodd" d="M52.3286 15.7386V13.2502H63.0322V15.7386H59.7741V21.2166H55.6666V15.7386H52.3286Z" fill="#002D9A" fill-rule="evenodd"/>
<path clip-rule="evenodd" d="M28.0632 20.7243C26.1621 21.285 24.1778 21.5867 22.1767 21.6194C18.7488 21.6194 16.1803 19.5965 16.1803 17.2156C16.1803 14.8346 18.7588 12.9102 22.1767 12.9102C24.9251 12.9102 27.6434 14.405 27.8933 15.855H23.9656C23.8757 15.3627 23.406 15.2464 22.4765 15.2464C21.8998 15.3072 21.3727 15.5681 21.0083 15.973C20.6439 16.378 20.4714 16.8948 20.5277 17.4125C20.4768 17.94 20.6569 18.4647 21.0298 18.8755C21.4028 19.2864 21.9395 19.5514 22.5265 19.6144H24.0456V18.4239H22.3366V16.6338H28.1131L28.0632 20.7243Z" fill="#002D9A" fill-rule="evenodd"/>
<path d="M15.4008 13.2502H11.3832V21.2255H15.4008V13.2502Z" fill="#002D9A"/>
<path clip-rule="evenodd" d="M13.5019 10.2249L11.0834 11.3885L13.5019 12.6148L15.9105 11.3885L13.5019 10.2249Z" fill="#002D9A" fill-rule="evenodd"/>
<path clip-rule="evenodd" d="M6.5061 15.7386C6.5061 15.7386 6.43614 15.5507 6.34619 15.3537C6.25625 15.1568 5.94643 14.9957 5.42674 14.9957C4.90706 14.9957 4.5073 15.2016 4.5073 15.5686C4.5073 15.9356 4.93704 16.1683 5.40676 16.2667C5.87647 16.3652 7.05577 16.5084 7.05577 16.5084C9.32441 16.7769 10.5037 17.7347 10.5037 18.9341C10.5037 20.5095 8.01519 21.5657 5.17689 21.5657C2.3386 21.5657 0.039976 20.3752 0.039976 18.8088H4.36738C4.35977 18.9505 4.37662 19.0924 4.41735 19.2295C4.47731 19.5159 4.85709 19.7487 5.47671 19.7487C6.09634 19.7487 6.47611 19.5696 6.47611 19.0773C6.47611 18.585 4.86708 18.3255 4.86708 18.3255L2.17869 17.7168C0.879473 17.2603 0 16.6337 0 15.7386C0 14.2707 2.29862 13.0533 5.12692 13.0533C7.95523 13.0533 10.2638 14.2528 10.2638 15.7386H6.5061Z" fill="#002D9A" fill-rule="evenodd"/>
</svg>