<?xml version="1.0" encoding="utf-8"?>
<svg xmlns="http://www.w3.org/2000/svg" fill="none" height="37" viewBox="0 0 55 37" width="55">
<path clip-rule="evenodd" d="M35.6488 0.951843C43.8539 5.53473 45.1231 10.6994 46.1725 15.8641H54.6174C53.5724 11.9206 51.1828 8.36617 47.7802 5.69402C44.3776 3.02186 40.1307 1.36449 35.6288 0.951843M20.4979 36.863C12.9025 32.3876 8.2053 26.1935 9.87429 16.1953H0.0202062C-0.509476 28.8967 9.45454 35.404 20.4979 36.863Z" fill="#E92429" fill-rule="evenodd"/>
<path clip-rule="evenodd" d="M54.7074 19.0507C54.4288 18.9526 54.1308 18.9068 53.8317 18.9161C53.5326 18.9253 53.2388 18.9894 52.9684 19.1044C52.733 19.1627 52.4843 19.1627 52.2489 19.1044C50.0402 17.5558 47.7616 20.8945 47.4917 22.8459C47.1419 24.4391 47.3818 25.6027 48.8009 25.6117C50.2201 25.6206 50.8997 24.5018 51.5293 23.2218L51.7492 23.2755C51.4194 24.3317 51.5393 25.0657 52.089 25.379C52.6927 25.521 53.3337 25.4572 53.8879 25.2C53.4482 23.5888 54.0078 21.36 54.7074 19.0417M52.3088 20.7513C52.3088 20.4022 52.089 19.7309 51.4693 19.7757C49.4705 19.8294 49.3206 23.4903 49.4705 24.1079C50.5299 24.5107 51.4494 22.085 52.3088 20.7513ZM20.0282 16.8308V17.6275V17.9139C20.2426 17.9675 20.4656 17.9887 20.6878 17.9765H20.9277H21.1175C21.1175 17.9765 21.1175 17.9765 21.1975 17.9765C21.1975 17.9049 21.4673 17.9049 21.5473 17.9049C21.6272 17.9049 21.8171 17.7975 21.8171 17.7617C21.8171 17.7259 21.8971 17.6901 21.8971 17.6275C21.8971 17.5648 21.8971 17.171 21.8171 17.0993C21.6968 17.0491 21.58 16.9923 21.4673 16.9293C21.3274 16.6518 20.2581 16.8308 20.0282 16.8308ZM27.3238 18.9611V19.2207C26.738 18.8627 26.0314 18.6981 25.325 18.7553C24.501 18.8695 23.7461 19.2344 23.1873 19.7887C22.6284 20.343 22.2999 21.0528 22.2569 21.7986C21.967 23.4277 22.087 24.4839 23.4461 24.5376C24.8053 24.5913 25.6848 23.3829 26.4444 22.7474C26.0846 25.2984 25.445 26.2562 24.5855 26.3278C24.1147 26.3454 23.6487 26.2374 23.2466 26.0175C22.8445 25.7976 22.5244 25.4756 22.3268 25.0925L21.1975 26.0682C23.646 28.1806 27.1939 26.9633 27.6037 25.1731L28.8029 19.9457C28.9329 19.5967 29.0528 19.2476 29.1727 18.8985L27.3238 18.9611ZM26.8541 20.5634C26.7388 20.3587 26.5655 20.1848 26.3515 20.0591C26.1375 19.9335 25.8903 19.8604 25.6348 19.8473C24.4356 20.1695 24.1157 21.3152 24.1757 23.0249C24.8353 23.0875 25.6348 22.6937 26.8141 20.5276L26.8541 20.5634ZM33.3202 19.8562C32.7806 19.7936 32.041 20.7961 31.6712 22.1029C31.3014 23.4098 31.4414 24.5197 31.981 24.5913C32.5207 24.6629 33.2603 23.6514 33.63 22.3446C33.9998 21.0378 33.8799 19.9189 33.3202 19.8562ZM33.5201 18.7821C31.8211 18.7821 30.0222 20.3306 29.5225 22.2282C29.0228 24.1258 29.9922 25.6654 31.6912 25.6654C33.3902 25.6654 35.1891 24.1169 35.6888 22.2282C36.1885 20.3396 35.2491 18.7732 33.5401 18.7732L33.5201 18.7821ZM19.3286 18.9611C19.5331 20.0265 19.4264 21.1212 19.0188 22.1387C18.5091 23.6783 18.4691 24.6987 18.8989 25.2089C19.1886 25.3088 19.5025 25.3391 19.8093 25.2967C20.1161 25.2543 20.4052 25.1407 20.6478 24.9672C20.3936 23.8824 20.4907 22.7551 20.9277 21.718C21.5073 20.1606 21.5173 19.2565 20.9277 19.0328L19.3286 18.9611ZM17.6396 18.6389C18.1193 18.2898 18.4791 17.8065 18.0194 17.35C16.1905 16.4549 13.0224 17.4932 12.7925 19.4534C12.5527 20.3485 12.7925 20.993 14.0018 21.718C15.0012 22.2551 15.421 22.7922 15.4709 23.3292C15.351 24.4033 14.6214 24.6092 13.7919 24.6987C13.4491 24.6753 13.1232 24.5553 12.8611 24.356C12.599 24.1566 12.4141 23.888 12.3328 23.5888C12.0224 23.6266 11.7296 23.7402 11.4864 23.917C11.2432 24.0938 11.0589 24.327 10.9536 24.5913C12.9524 26.8738 16.8801 24.8688 17.06 23.2218C17.5097 21.9687 17.2599 20.9483 15.5109 20.0084C14.5115 19.4803 14.3416 19.1133 14.6015 18.3525C15.2311 17.4663 16.9101 17.8065 17.6796 18.6658L17.6396 18.6389ZM0.340014 14.8258L4.68741 7.37862C5.23708 6.85946 6.82612 6.89526 6.92606 7.28015C6.85458 9.4435 6.94808 11.6087 7.20589 13.7606C7.29584 14.3783 8.2053 15.148 7.62564 15.2734C6.3564 15.5329 5.62684 15.3718 5.48693 14.799C5.37699 14.056 5.25706 13.3131 5.13713 12.5702H2.94845C2.6479 13.2341 2.2869 13.8747 1.8691 14.4857C1.966 14.5773 2.03591 14.6891 2.07255 14.811C2.10919 14.9329 2.11139 15.061 2.07897 15.1838C1.04959 15.3808 0.150128 15.694 0.340014 14.8258ZM5.26706 8.37217L3.50811 11.6303H5.23707L5.26706 8.37217ZM8.5351 14.2082C9.02341 12.5375 9.36096 10.8343 9.54449 9.1151C9.81711 8.92987 10.1473 8.82518 10.4894 8.81556C10.8314 8.80594 11.1683 8.89185 11.4533 9.06139L11.0636 11.2275C12.2529 9.43733 13.3622 8.54224 14.4016 8.71231C15.9606 9.07034 14.4715 12.2927 14.4016 13.689C14.2816 14.2887 14.3416 14.7721 14.7814 15.0227C14.4715 15.3718 12.3828 15.9178 12.5227 13.9755C12.8525 12.7044 13.1323 11.4334 13.3822 10.1624C13.1723 10.0281 12.9924 10.0818 12.7726 10.2608C11.2834 11.5229 10.8637 13.1699 10.1941 14.7363C10.1763 14.7768 10.1676 14.8201 10.1686 14.8637C10.1695 14.9072 10.18 14.9502 10.1995 14.9901C10.219 15.03 10.2471 15.0661 10.2822 15.0963C10.3173 15.1264 10.3587 15.1501 10.404 15.1659C9.77435 15.703 7.98543 15.3808 8.48513 14.2082H8.5351ZM17.3298 7.57554C17.0429 9.79477 16.5821 11.9932 15.9506 14.1545C15.5209 15.3539 16.8001 15.4166 17.7296 15.2465L18.3892 12.0242C19.2587 14.1903 20.2281 15.2017 21.2575 15.4971L22.2569 14.4946C21.6346 14.211 21.1006 13.7935 20.7029 13.2796C20.3052 12.7656 20.0562 12.1712 19.9782 11.5498C20.9776 10.5114 21.8471 9.64321 22.6266 9.95649L22.5067 9.39258C22.4398 9.24353 22.3293 9.11335 22.1869 9.0157C22.0445 8.91806 21.8753 8.85655 21.6972 8.83762C20.338 9.01664 19.3886 10.2698 18.3892 11.3797L19.1387 7.79931C19.1887 6.96687 17.9894 6.89526 17.3298 7.57554ZM30.0122 8.96293C29.732 8.8647 29.4323 8.8188 29.1315 8.82803C28.8308 8.83727 28.5353 8.90145 28.2633 9.01664C28.0312 9.07468 27.7858 9.07468 27.5537 9.01664C25.345 7.46812 23.0664 10.8068 22.7965 12.7581C22.4468 14.3514 22.6866 15.515 24.1058 15.524C25.5249 15.5329 26.2045 14.4141 26.8241 13.1341L27.054 13.1878C26.7275 14.244 26.8375 14.9422 27.3838 15.2823C27.9897 15.426 28.6333 15.3655 29.1927 15.1122C28.753 13.51 29.3226 11.2812 30.0122 8.96293ZM27.5737 10.6189C27.5737 10.2608 27.3438 9.59845 26.7342 9.64321C24.7354 9.69691 24.5755 13.3578 24.7354 13.9665C25.8347 14.423 26.7542 11.9973 27.5737 10.6189ZM31.4214 8.98979C31.2051 10.8168 30.8377 12.6269 30.322 14.4051C29.8323 14.969 30.4819 15.1301 31.3214 15.2465C31.7512 15.3271 32.1409 15.336 32.2609 14.8706C32.6206 12.1405 33.9798 10.3324 34.9193 10.9411C35.2191 10.9411 35.5489 10.8963 36.0486 10.046C36.5583 8.84657 36.1985 8.66755 35.7088 8.6407C34.2097 9.1151 33.71 10.1176 33.0104 11.0575L33.1603 9.75062C33.3202 8.88237 32.9604 8.32742 31.4214 8.98979ZM43.0044 8.98979C42.7242 8.89156 42.4245 8.84565 42.1238 8.85488C41.823 8.86412 41.5275 8.9283 41.2555 9.04349C41.02 9.10183 40.7713 9.10183 40.5359 9.04349C38.3272 7.49498 36.0586 10.8337 35.7788 12.785C35.429 14.3783 35.6688 15.5419 37.098 15.5508C38.5271 15.5598 39.1967 14.4409 39.8163 13.1609L40.0462 13.2146C39.7197 14.2708 39.8297 14.969 40.376 15.3092C40.9819 15.4528 41.6256 15.3923 42.1849 15.1391C41.7452 13.51 42.3148 11.2812 43.0044 8.96293V8.98979ZM40.5659 10.6457C40.5059 10.2877 40.336 9.6253 39.7164 9.67006C37.7176 9.72376 37.5677 13.3847 37.7176 13.9934C38.8269 14.423 39.7464 11.9973 40.5659 10.6189V10.6457ZM43.5641 17.4216C43.4442 18.1556 43.4841 19.0954 43.3642 19.8204L42.2549 19.8562C42.178 19.8927 42.1045 19.9346 42.035 19.9816C42.3948 19.0148 42.035 18.8627 41.5953 18.8269C40.0962 19.3013 39.5965 20.3127 38.8969 21.2526L39.0468 19.9368C39.2367 19.0865 38.8969 18.5404 37.3578 19.2028C37.133 21.0153 36.7589 22.8104 36.2385 24.5734C35.7488 25.1373 36.3984 25.3074 37.2379 25.4148C37.6676 25.4953 38.0574 25.5132 38.1773 25.0478C38.5371 22.3177 39.8963 20.5097 40.8357 21.1183C40.969 21.132 41.1038 21.1124 41.2255 21.0619C41.3471 21.0114 41.4509 20.9318 41.5253 20.8319C42.0652 20.63 42.6593 20.574 43.2343 20.6708C43.0444 21.7628 42.8445 22.8548 42.6446 23.9468C42.8745 25.8981 44.4635 25.6744 46.2625 25.1283C46.4073 24.9652 46.5108 24.7759 46.566 24.5735C46.6213 24.3711 46.6268 24.1603 46.5823 23.9558C46.1625 23.8036 45.7428 24.4839 45.1831 24.3586C43.8439 23.92 44.9433 21.8433 45.1831 20.5902C45.7995 20.6316 46.419 20.6166 47.032 20.5455C47.3012 20.2515 47.4895 19.9051 47.5817 19.534L46.5823 19.4892C46.4623 19.6951 46.0126 19.7488 45.403 19.7399C45.4625 19.18 45.614 18.631 45.8527 18.1108C45.9027 17.2963 45.5029 16.8308 43.5841 17.3947L43.5641 17.4216Z" fill="#221F1F" fill-rule="evenodd"/>
</svg>