<?xml version="1.0" encoding="utf-8"?>
<svg xmlns="http://www.w3.org/2000/svg" fill="none" height="22" viewBox="0 0 65 22" width="65">
<path d="M12.8723 12.7822C12.8723 12.5448 12.767 12.3172 12.5796 12.1493C12.3921 11.9815 12.1379 11.8871 11.8729 11.8871H0.9994C0.734343 11.8871 0.480141 11.9815 0.292717 12.1493C0.105293 12.3172 0 12.5448 0 12.7822C0 13.0196 0.105293 13.2473 0.292717 13.4152C0.480141 13.583 0.734343 13.6773 0.9994 13.6773H11.8729C12.1379 13.6773 12.3921 13.583 12.5796 13.4152C12.767 13.2473 12.8723 13.0196 12.8723 12.7822Z" fill="#254A9A"/>
<path d="M26.1243 11.1979C27.0616 11.101 27.9218 10.686 28.5278 10.0383C29.1339 9.39061 29.4397 8.5595 29.3823 7.71599C29.3787 7.21235 29.259 6.71481 29.0308 6.25448C28.8027 5.79414 28.4709 5.38093 28.0563 5.04068C27.6417 4.70042 27.1532 4.44045 26.6212 4.27702C26.0893 4.11359 25.5255 4.05021 24.965 4.09086H19.1285V15.566C19.1285 15.8034 19.2338 16.031 19.4212 16.1989C19.6086 16.3668 19.8628 16.4611 20.1279 16.4611C20.3929 16.4611 20.6471 16.3668 20.8346 16.1989C21.022 16.031 21.1273 15.8034 21.1273 15.566V15.2258V11.3859H23.8057L27.5734 16.0941C27.6477 16.1947 27.744 16.2808 27.8564 16.3472C27.9688 16.4137 28.0951 16.4591 28.2276 16.4807C28.3601 16.5024 28.4961 16.4998 28.6275 16.4732C28.7588 16.4465 28.8828 16.3964 28.992 16.3258C29.1012 16.2552 29.1933 16.1655 29.2628 16.0622C29.3324 15.9589 29.3779 15.844 29.3966 15.7246C29.4153 15.6051 29.4069 15.4835 29.3718 15.367C29.3367 15.2506 29.2757 15.1416 29.1924 15.0468L26.1243 11.1979ZM21.1273 5.67518H24.955C25.2714 5.65083 25.5899 5.68706 25.8895 5.78144C26.1891 5.87583 26.4628 6.02622 26.6925 6.22263C26.9222 6.41904 27.1026 6.65697 27.2217 6.92062C27.3409 7.18426 27.396 7.4676 27.3835 7.7518C27.397 8.03078 27.3429 8.30907 27.2249 8.56753C27.1068 8.82598 26.9277 9.05848 26.6998 9.24901C26.4718 9.43954 26.2005 9.58359 25.9045 9.67125C25.6085 9.75891 25.2948 9.7881 24.985 9.75681H21.1373L21.1273 5.67518Z" fill="#254A9A"/>
<path d="M42.5544 14.644H36.3781V11.3859H40.9154C41.1566 11.3859 41.3879 11.3001 41.5585 11.1473C41.7291 10.9946 41.8249 10.7874 41.8249 10.5714C41.8249 10.3553 41.7291 10.1482 41.5585 9.9954C41.3879 9.84264 41.1566 9.75683 40.9154 9.75683H36.3781V5.82736H42.3745C42.6396 5.82736 42.8938 5.73305 43.0812 5.56519C43.2686 5.39733 43.3739 5.16966 43.3739 4.93227C43.3739 4.69487 43.2686 4.4672 43.0812 4.29934C42.8938 4.13147 42.6396 4.03717 42.3745 4.03717H34.3793V16.4432H42.5744C42.8395 16.4432 43.0937 16.3489 43.2811 16.181C43.4685 16.0132 43.5738 15.7855 43.5738 15.5481C43.5738 15.3107 43.4685 15.083 43.2811 14.9152C43.0937 14.7473 42.8395 14.653 42.5744 14.653L42.5544 14.644Z" fill="#254A9A"/>
<path d="M4.18745 19.3791C4.1687 19.4074 4.13827 19.4279 4.10275 19.4363C4.06722 19.4447 4.02944 19.4402 3.99757 19.4239L3.81767 19.3343L3.58781 19.3075C3.50148 19.2987 3.4143 19.2987 3.32797 19.3075C3.1798 19.2983 3.03236 19.3329 2.90822 19.406C2.864 19.4365 2.82833 19.4759 2.80405 19.5209C2.77976 19.566 2.76752 19.6155 2.7683 19.6655C2.75133 19.7151 2.75133 19.7681 2.7683 19.8177C2.8026 19.8647 2.85113 19.9019 2.90822 19.9251C2.97514 19.9642 3.04975 19.9915 3.12809 20.0057L3.4379 20.0862C3.57335 20.1114 3.70688 20.1443 3.83766 20.1847C3.94377 20.2213 4.04446 20.2694 4.13748 20.3279C4.21634 20.3837 4.28107 20.4539 4.32737 20.5338C4.37357 20.6267 4.39741 20.7274 4.39733 20.8292C4.4178 20.9177 4.4178 21.0091 4.39733 21.0977C4.34928 21.1919 4.27321 21.2724 4.17746 21.3304C4.07455 21.3938 3.9593 21.4393 3.83766 21.4647C3.7015 21.4783 3.56407 21.4783 3.42791 21.4647C3.21107 21.4619 2.99574 21.4318 2.78829 21.3752C2.62776 21.3241 2.47367 21.2581 2.32857 21.1782C2.30911 21.155 2.29858 21.1267 2.29858 21.0977C2.29858 21.0686 2.30911 21.0404 2.32857 21.0171L2.39852 20.8918C2.41155 20.8799 2.4271 20.8704 2.44426 20.864C2.46142 20.8575 2.47985 20.8542 2.49846 20.8542C2.51708 20.8542 2.53551 20.8575 2.55267 20.864C2.56983 20.8704 2.58538 20.8799 2.59841 20.8918C2.67192 20.9381 2.75277 20.9744 2.83826 20.9992C2.92867 21.0358 3.02226 21.0657 3.11809 21.0887C3.22778 21.098 3.3382 21.098 3.44789 21.0887C3.56223 21.1154 3.68184 21.1185 3.79768 21.0977C3.84636 21.0727 3.88621 21.0359 3.91271 20.9916C3.93922 20.9473 3.9513 20.8972 3.94759 20.8471C3.94915 20.7887 3.92795 20.7318 3.88763 20.6859C3.84705 20.6384 3.79603 20.5988 3.73772 20.5696C3.6566 20.5351 3.57315 20.5052 3.48787 20.4801L3.14807 20.3995L2.7783 20.2921C2.68013 20.2621 2.58874 20.2166 2.50846 20.1578C2.45453 20.0911 2.41706 20.0148 2.39852 19.9341C2.35568 19.8499 2.33516 19.758 2.33856 19.6655C2.32156 19.5435 2.3423 19.4197 2.39852 19.3075C2.44794 19.2092 2.52342 19.1231 2.61839 19.0569C2.71676 18.9882 2.82862 18.9365 2.94819 18.9047C3.08432 18.8681 3.22581 18.85 3.36794 18.851C3.55221 18.8531 3.73473 18.8834 3.90762 18.9405C4.0199 18.9773 4.12718 19.0254 4.22743 19.0837C4.24386 19.0901 4.2585 19.0997 4.27027 19.1117C4.28204 19.1238 4.29063 19.1381 4.29542 19.1536C4.30022 19.169 4.30109 19.1852 4.29797 19.201C4.29485 19.2168 4.28782 19.2318 4.2774 19.2448L4.18745 19.3791Z" fill="#264B99"/>
<path d="M8.90465 19.0658C8.90329 19.0392 8.90798 19.0126 8.91843 18.9877C8.92888 18.9628 8.94487 18.94 8.96544 18.9207C8.986 18.9015 9.01072 18.8862 9.03808 18.8757C9.06545 18.8653 9.09489 18.8599 9.12465 18.8599C9.18565 18.8599 9.24415 18.8816 9.28728 18.9202C9.33041 18.9588 9.35465 19.0112 9.35465 19.0658C9.35465 19.1204 9.33041 19.1728 9.28728 19.2114C9.24415 19.25 9.18565 19.2717 9.12465 19.2717C9.09489 19.2717 9.06545 19.2663 9.03808 19.2559C9.01072 19.2454 8.986 19.2301 8.96544 19.2109C8.94487 19.1916 8.92888 19.1688 8.91843 19.1439C8.90798 19.119 8.90329 19.0924 8.90465 19.0658ZM8.90465 21.2856V19.7819C8.90465 19.7296 8.92782 19.6796 8.96908 19.6426C9.01034 19.6057 9.0663 19.585 9.12465 19.585C9.15437 19.5837 9.18405 19.5879 9.21191 19.5973C9.23977 19.6066 9.26522 19.621 9.28672 19.6394C9.30821 19.6578 9.32532 19.6799 9.337 19.7044C9.34867 19.7289 9.35468 19.7552 9.35465 19.7819V21.2856C9.35465 21.3402 9.33041 21.3926 9.28728 21.4312C9.24415 21.4698 9.18565 21.4915 9.12465 21.4915C9.09489 21.4915 9.06545 21.4862 9.03808 21.4757C9.01072 21.4653 8.986 21.4499 8.96544 21.4307C8.94487 21.4115 8.92888 21.3887 8.91843 21.3637C8.90798 21.3388 8.90329 21.3122 8.90465 21.2856Z" fill="#264B99"/>
<path d="M16.0403 21.1693C15.9349 21.2756 15.8057 21.3609 15.6611 21.4195C15.5164 21.4781 15.3596 21.5087 15.2008 21.5094C15.0142 21.5101 14.8298 21.4734 14.6611 21.402C14.4974 21.3301 14.3513 21.2297 14.2314 21.1066C14.1064 20.9838 14.0081 20.8411 13.9416 20.6859C13.8738 20.5258 13.8399 20.3559 13.8416 20.1847C13.839 20.0134 13.8729 19.8432 13.9416 19.6834C14.0081 19.5309 14.1065 19.3912 14.2314 19.2717C14.3517 19.1512 14.4978 19.0538 14.6611 18.9852C14.8334 18.9139 15.021 18.8772 15.2108 18.8778C15.4565 18.8702 15.6993 18.9262 15.9104 19.0389C16.0255 19.0993 16.1272 19.1782 16.2102 19.2717C16.2317 19.2893 16.2489 19.3107 16.2607 19.3346C16.2724 19.3585 16.2785 19.3843 16.2785 19.4104C16.2785 19.4365 16.2724 19.4623 16.2607 19.4862C16.2489 19.5101 16.2317 19.5315 16.2102 19.5491C16.1695 19.5831 16.1159 19.602 16.0603 19.602C16.0047 19.602 15.9511 19.5831 15.9104 19.5491C15.85 19.4862 15.7792 19.4318 15.7005 19.388C15.5583 19.3228 15.4006 19.289 15.2408 19.2896C15.1128 19.2855 14.9857 19.3101 14.871 19.3612C14.7625 19.4151 14.6673 19.4882 14.5912 19.576C14.5082 19.6617 14.4468 19.7625 14.4113 19.8714C14.3631 19.9857 14.3394 20.1072 14.3413 20.2294C14.3434 20.3542 14.367 20.478 14.4113 20.5964C14.4598 20.7065 14.5273 20.8092 14.6112 20.9007C14.6916 20.9836 14.7903 21.0506 14.901 21.0977C15.0185 21.1515 15.1488 21.1791 15.2808 21.1782C15.4274 21.1752 15.5711 21.1415 15.7005 21.0798C15.8498 21.0115 15.9797 20.9135 16.0803 20.7933V20.668C16.0803 20.648 16.0759 20.6282 16.0674 20.6098C16.0588 20.5913 16.0463 20.5745 16.0305 20.5604C16.0148 20.5463 15.996 20.5351 15.9754 20.5274C15.9548 20.5198 15.9327 20.5158 15.9104 20.5158H15.6406C15.5955 20.5158 15.5523 20.4998 15.5204 20.4713C15.4886 20.4427 15.4707 20.404 15.4707 20.3637C15.4731 20.324 15.4917 20.2865 15.5231 20.2585C15.5544 20.2304 15.5963 20.2137 15.6406 20.2115H16.2002C16.2352 20.2115 16.2698 20.2178 16.302 20.23C16.3342 20.2423 16.3633 20.2602 16.3876 20.2828C16.4119 20.3054 16.4308 20.3321 16.4432 20.3614C16.4557 20.3907 16.4614 20.4219 16.4601 20.4532V21.3483C16.4601 21.3934 16.4401 21.4366 16.4045 21.4685C16.3688 21.5004 16.3205 21.5184 16.2702 21.5184C16.2206 21.5162 16.1737 21.4976 16.1386 21.4661C16.1035 21.4347 16.0827 21.3927 16.0803 21.3483L16.0403 21.1693Z" fill="#264B99"/>
<path d="M22.2167 21.5094C22.0222 21.5125 21.83 21.4726 21.657 21.393C21.3215 21.2482 21.0631 20.991 20.9374 20.677C20.8688 20.5233 20.8348 20.3591 20.8375 20.1936C20.8348 20.0253 20.8688 19.8581 20.9374 19.7013C21.0039 19.5461 21.1022 19.4035 21.2273 19.2806C21.3508 19.1573 21.5002 19.0569 21.667 18.9852C21.8424 18.9129 22.0335 18.8762 22.2267 18.8778C22.4206 18.8781 22.612 18.9179 22.7863 18.9942C22.953 19.0698 23.1023 19.1731 23.2261 19.2985C23.4665 19.5475 23.601 19.8645 23.6058 20.1936C23.6085 20.3649 23.5746 20.535 23.5059 20.6949C23.4417 20.851 23.3431 20.9941 23.2161 21.1156C23.0891 21.237 22.9361 21.3344 22.7663 21.402C22.5945 21.4745 22.4066 21.5112 22.2167 21.5094ZM21.2972 20.2026C21.2953 20.3248 21.319 20.4462 21.3672 20.5606C21.4453 20.7781 21.6133 20.9607 21.8369 21.0708C21.9575 21.1257 22.0913 21.1534 22.2267 21.1514C22.3632 21.1535 22.4978 21.1225 22.6164 21.0619C22.7249 21.0079 22.8201 20.9348 22.8962 20.847C22.9776 20.757 23.0387 20.6536 23.0761 20.5427C23.1163 20.4329 23.1365 20.3181 23.1361 20.2026C23.1365 20.0812 23.1162 19.9605 23.0761 19.8445C23.0287 19.7385 22.9648 19.6391 22.8863 19.5491C22.8084 19.4616 22.7093 19.3912 22.5964 19.3433C22.4825 19.2895 22.3554 19.2618 22.2267 19.2627C22.0912 19.2596 21.9571 19.2873 21.8369 19.3433C21.7217 19.392 21.622 19.4659 21.5471 19.5581C21.4664 19.65 21.4023 19.7527 21.3572 19.8624C21.3171 19.9722 21.2968 20.0871 21.2972 20.2026Z" fill="#264B99"/>
<path d="M28.1531 21.2856V18.8957H29.3823C29.508 18.8948 29.6318 18.9225 29.7421 18.9763C29.8493 19.0204 29.9447 19.0845 30.022 19.1643C30.1001 19.2446 30.1642 19.3352 30.2118 19.4328C30.2525 19.5332 30.2728 19.6393 30.2718 19.7461C30.2864 19.8291 30.2864 19.9137 30.2718 19.9967C30.2498 20.0764 30.2126 20.1521 30.1619 20.2205C30.1126 20.2855 30.0518 20.343 29.982 20.3906C29.9135 20.4411 29.8357 20.4804 29.7521 20.5069L30.2218 21.1872C30.2437 21.2173 30.256 21.2521 30.2573 21.288C30.2587 21.3239 30.2491 21.3594 30.2295 21.3907C30.21 21.4221 30.1812 21.448 30.1464 21.4658C30.1116 21.4835 30.072 21.4924 30.032 21.4915C29.9949 21.4908 29.9588 21.4813 29.9272 21.464C29.8956 21.4467 29.8697 21.4222 29.8521 21.3931L29.2824 20.5875H28.6128V21.2856C28.6142 21.3123 28.6095 21.3388 28.599 21.3638C28.5886 21.3887 28.5726 21.4115 28.552 21.4307C28.5315 21.45 28.5068 21.4653 28.4794 21.4757C28.4521 21.4862 28.4227 21.4915 28.3929 21.4915C28.3619 21.4927 28.3309 21.4883 28.3019 21.4785C28.2728 21.4687 28.2463 21.4537 28.2239 21.4345C28.2015 21.4152 28.1837 21.3921 28.1715 21.3666C28.1593 21.341 28.153 21.3135 28.1531 21.2856ZM28.6028 20.2026H29.3823C29.4475 20.22 29.517 20.22 29.5822 20.2026C29.6373 20.1808 29.6854 20.1469 29.7221 20.1041L29.8121 19.943C29.8226 19.8837 29.8226 19.8233 29.8121 19.764C29.8283 19.7022 29.8283 19.6378 29.8121 19.576C29.7871 19.5213 29.7534 19.47 29.7121 19.4239C29.6716 19.3786 29.6204 19.3419 29.5622 19.3164C29.5044 19.2986 29.4421 19.2955 29.3823 19.3075H28.6028V20.2026Z" fill="#264B99"/>
<path d="M36.7879 19.3075H36.0283V21.3572C36.0283 21.4047 36.0073 21.4503 35.9698 21.4838C35.9323 21.5174 35.8815 21.5363 35.8285 21.5363H35.7685C35.7423 21.5363 35.7163 21.5316 35.692 21.5226C35.6678 21.5136 35.6457 21.5005 35.6272 21.4838C35.6086 21.4672 35.5939 21.4475 35.5838 21.4258C35.5738 21.404 35.5686 21.3808 35.5686 21.3572V19.3075H34.8091C34.7561 19.3075 34.7052 19.2886 34.6677 19.255C34.6303 19.2215 34.6092 19.1759 34.6092 19.1285C34.6078 19.1042 34.612 19.08 34.6214 19.0572C34.6309 19.0344 34.6454 19.0136 34.6641 18.996C34.6828 18.9785 34.7053 18.9645 34.7302 18.9549C34.7551 18.9454 34.782 18.9405 34.8091 18.9405H36.8079C36.835 18.9405 36.8618 18.9454 36.8868 18.9549C36.9117 18.9645 36.9342 18.9785 36.9529 18.996C36.9716 19.0136 36.9861 19.0344 36.9955 19.0572C37.0049 19.08 37.0091 19.1042 37.0078 19.1285C37.0079 19.1536 37.0021 19.1784 36.9909 19.2014C36.9796 19.2243 36.9631 19.2449 36.9423 19.2618C36.9216 19.2787 36.8971 19.2915 36.8705 19.2994C36.8439 19.3072 36.8158 19.31 36.7879 19.3075Z" fill="#264B99"/>
<path d="M42.2147 18.8957C42.2736 18.8961 42.331 18.9126 42.3792 18.943C42.4274 18.9734 42.4642 19.0162 42.4845 19.0658L43.4839 21.214C43.4966 21.2448 43.501 21.2778 43.4966 21.3103C43.4922 21.3429 43.4792 21.374 43.4587 21.4011C43.4382 21.4283 43.4107 21.4506 43.3786 21.4664C43.3465 21.4821 43.3106 21.4907 43.274 21.4915C43.2284 21.4893 43.1844 21.4756 43.1472 21.4518C43.11 21.428 43.0812 21.3952 43.0641 21.3572L42.8143 20.7844H41.655L41.4051 21.3572C41.3892 21.3958 41.3606 21.4293 41.3232 21.4532C41.2858 21.4771 41.2412 21.4905 41.1953 21.4915C41.1587 21.4907 41.1228 21.4821 41.0907 21.4664C41.0586 21.4506 41.0311 21.4283 41.0106 21.4011C40.99 21.374 40.977 21.3429 40.9727 21.3103C40.9683 21.2778 40.9726 21.2448 40.9854 21.214L41.9848 19.0658C42.0023 19.0214 42.0329 18.9822 42.0734 18.9523C42.1139 18.9223 42.1627 18.9028 42.2147 18.8957ZM42.6744 20.48L42.2147 19.3701L41.7349 20.48H42.6744Z" fill="#264B99"/>
<path d="M61.4231 16.3984L55.9364 11.4933C55.8015 11.3702 55.6406 11.2723 55.463 11.2056C55.2854 11.1388 55.0947 11.1044 54.902 11.1044C54.7094 11.1044 54.5187 11.1388 54.3411 11.2056C54.1635 11.2723 54.0026 11.3702 53.8677 11.4933C53.778 11.5699 53.7006 11.6572 53.6378 11.7529L45.3028 19.218C45.165 19.3396 45.0553 19.4844 44.98 19.644C44.9046 19.8037 44.8651 19.975 44.8637 20.1483C44.8624 20.3216 44.8991 20.4935 44.9719 20.6541C45.0446 20.8146 45.152 20.9608 45.2878 21.0842C45.4236 21.2077 45.5853 21.3059 45.7635 21.3734C45.9418 21.4409 46.1331 21.4762 46.3266 21.4775C46.7174 21.48 47.0933 21.3434 47.3716 21.0977L54.937 14.3218L59.3644 18.2513C59.5002 18.3729 59.6615 18.4694 59.8389 18.5353C60.0164 18.6011 60.2066 18.635 60.3987 18.635C60.5909 18.635 60.7811 18.6011 60.9585 18.5353C61.136 18.4694 61.2973 18.3729 61.4331 18.2513C61.569 18.1296 61.6767 17.9852 61.7502 17.8262C61.8237 17.6673 61.8616 17.4969 61.8616 17.3248C61.8616 17.1528 61.8237 16.9824 61.7502 16.8235C61.6767 16.6645 61.569 16.5201 61.4331 16.3984H61.4231ZM53.8077 13.1313V13.0866V13.1313ZM53.7677 11.7529V11.7976V11.7529ZM53.7677 12.0483C53.7677 12.0483 53.7677 12.0483 53.7677 12.102C53.7677 12.1557 53.4979 12.0662 53.4979 12.0483H53.7677ZM53.9576 13.0776V13.0239V13.0776ZM53.9576 12.7822C53.9576 12.7822 53.9576 12.7822 53.9576 12.7285C53.9576 12.6748 53.4979 12.7643 53.4979 12.7822H53.9576Z" fill="url(#paint0_linear_744_31744)"/>
<path d="M64.3613 1.24446C64.0862 1.00013 63.7144 0.863037 63.327 0.863037C62.9395 0.863037 62.5677 1.00013 62.2926 1.24446L54.877 7.88606L50.4697 3.91184C50.1953 3.66258 49.8217 3.52113 49.4309 3.51861C49.0401 3.51609 48.6642 3.65271 48.3859 3.89842C48.1076 4.14412 47.9497 4.47878 47.9469 4.82877C47.9441 5.17877 48.0966 5.51543 48.3709 5.76469L53.8576 10.6698C53.9925 10.7929 54.1535 10.8908 54.3311 10.9575C54.5087 11.0243 54.6994 11.0587 54.892 11.0587C55.0846 11.0587 55.2753 11.0243 55.4529 10.9575C55.6305 10.8908 55.7915 10.7929 55.9264 10.6698C55.9683 10.6352 56.0052 10.5961 56.0363 10.5534L64.3613 3.09731C64.6341 2.85088 64.7872 2.5179 64.7872 2.17088C64.7872 1.82386 64.6341 1.49089 64.3613 1.24446ZM55.9964 8.83486V8.78116V8.83486Z" fill="url(#paint1_linear_744_31744)"/>
<path d="M14.2414 15.1274L9.24443 4.68164C9.19318 4.55467 9.11358 4.43839 9.01048 4.3399C8.90739 4.24141 8.78296 4.16277 8.64479 4.10878C8.52775 4.06404 8.40224 4.03974 8.27501 4.03717H8.17508C8.04785 4.03974 7.92234 4.06404 7.8053 4.10878C7.66713 4.16277 7.54271 4.24141 7.43961 4.3399C7.33651 4.43839 7.25691 4.55467 7.20566 4.68164L2.20865 15.1274C2.15353 15.2449 2.1248 15.3711 2.1241 15.4986C2.1234 15.626 2.15074 15.7524 2.20456 15.8704C2.25839 15.9885 2.33765 16.0958 2.4378 16.1864C2.53796 16.277 2.65706 16.3491 2.78831 16.3984C2.91955 16.4478 3.06036 16.4735 3.20271 16.4742C3.34506 16.4748 3.48615 16.4503 3.61793 16.4021C3.74971 16.3539 3.8696 16.2829 3.97075 16.1932C4.0719 16.1035 4.15233 15.9968 4.20745 15.8793L4.36736 15.5391L8.20506 7.48329L12.0428 15.5391L12.2027 15.8793C12.2578 15.9968 12.3382 16.1035 12.4394 16.1932C12.5405 16.2829 12.6604 16.3539 12.7922 16.4021C12.924 16.4503 13.0651 16.4748 13.2074 16.4742C13.3497 16.4735 13.4906 16.4478 13.6218 16.3984C13.753 16.3491 13.8722 16.277 13.9723 16.1864C14.0725 16.0958 14.1517 15.9885 14.2055 15.8704C14.2594 15.7524 14.2867 15.626 14.286 15.4986C14.2853 15.3711 14.2566 15.2449 14.2015 15.1274H14.2414Z" fill="#254A9A"/>
<defs>
<linearGradient gradientUnits="userSpaceOnUse" id="paint0_linear_744_31744" x1="44.8831" x2="61.8429" y1="16.2821" y2="16.2821">
<stop stop-color="#F1A334"/>
<stop offset="1" stop-color="#F2643C"/>
</linearGradient>
<linearGradient gradientUnits="userSpaceOnUse" id="paint1_linear_744_31744" x1="64.4413" x2="47.5914" y1="5.96161" y2="5.96161">
<stop stop-color="#254A9A"/>
<stop offset="1" stop-color="#1EABE1"/>
</linearGradient>
</defs>
</svg>