<?xml version="1.0" encoding="utf-8"?>
<svg xmlns="http://www.w3.org/2000/svg" fill="none" height="17" viewBox="0 0 85 17" width="85">
<path clip-rule="evenodd" d="M24.3454 11.6613L25.3448 9.79052L26.0644 11.6613H24.3454ZM26.3442 12.5564C26.604 13.174 26.8639 13.8453 27.0837 14.5166H28.5828C27.8033 12.6548 27.0038 10.7751 26.3042 8.91333H24.6052C23.6058 10.793 22.4665 12.6727 21.3472 14.5166H22.8963C23.2261 13.8453 23.5759 13.174 23.8957 12.5564H26.3442Z" fill="#00529B" fill-rule="evenodd"/>
<path clip-rule="evenodd" d="M31.5311 10.7572L30.2918 8.91333H28.6728C29.3024 9.80843 29.982 10.6588 30.5717 11.5986C29.7621 12.6011 28.9226 13.5857 28.0732 14.5524H29.6322L31.2712 12.4848C31.711 13.1829 32.2706 13.8453 32.6504 14.5524H34.2794C33.5898 13.6036 32.8703 12.6548 32.2207 11.6702C32.9502 10.7751 33.7498 9.88003 34.4993 8.98494H32.9802L31.5311 10.7572Z" fill="#00529B" fill-rule="evenodd"/>
<path clip-rule="evenodd" d="M36.8779 11.6613L37.8773 9.79052L38.5968 11.6613H36.8779ZM38.8767 12.5564C39.1365 13.174 39.3964 13.8453 39.6162 14.5166H41.1153C40.3358 12.6548 39.5363 10.7751 38.8367 8.91333H37.1377C36.1383 10.793 34.999 12.6727 33.8697 14.5166H35.4187C35.7585 13.8453 36.1083 13.174 36.4181 12.5564H38.8767Z" fill="#00529B" fill-rule="evenodd"/>
<path clip-rule="evenodd" d="M48.361 8.95807C47.875 8.86231 47.3794 8.81132 46.8819 8.80591C45.7725 8.80591 44.7132 9.25345 44.7132 10.2381C44.7132 11.6165 47.1317 12.2073 47.1317 13.0934C47.1317 13.5678 46.5521 13.72 46.1323 13.72C45.5609 13.7042 44.9994 13.5823 44.4833 13.3619L44.5832 14.3913C45.1609 14.5283 45.7547 14.6034 46.3522 14.6151C48.0812 14.6151 48.5709 13.72 48.5709 13.1024C48.5709 11.7776 46.1523 11.1958 46.1523 10.3276C46.1523 9.96058 46.582 9.701 47.1517 9.701C47.6003 9.71397 48.0431 9.79571 48.4609 9.94268L48.361 8.95807Z" fill="#00529B" fill-rule="evenodd"/>
<path clip-rule="evenodd" d="M51.1393 8.52849V7.74976H50.08V8.52849H51.1393ZM51.0494 14.5167C51.0494 12.0731 51.1693 10.5066 51.2992 8.91338H49.8101C49.8101 11.1511 49.6802 12.816 49.5603 14.5167H51.0494Z" fill="#00529B" fill-rule="evenodd"/>
<path clip-rule="evenodd" d="M55.9764 11.3122V12.1357H57.1157L57.0458 13.5768C56.6475 13.6693 56.238 13.7174 55.8265 13.72C54.5273 13.72 53.6778 13.1561 53.6778 11.9298C53.6644 11.6196 53.7257 11.3103 53.8575 11.0232C53.9893 10.736 54.1884 10.4775 54.4415 10.2653C54.6946 10.053 54.9956 9.89203 55.3242 9.79314C55.6529 9.69425 56.0014 9.65979 56.3462 9.69209C57.0276 9.7016 57.7027 9.81044 58.345 10.0143L58.285 9.02077C57.5962 8.87995 56.8927 8.80494 56.1863 8.797C53.388 8.797 52.2986 10.3903 52.2986 11.8851C52.2986 13.6753 53.4979 14.5704 55.9264 14.5704C56.7465 14.5592 57.5634 14.4753 58.365 14.3197C58.365 13.0576 58.4649 12.1626 58.5349 11.2675L55.9764 11.3122Z" fill="#00529B" fill-rule="evenodd"/>
<path clip-rule="evenodd" d="M62.9822 9.701C63.2578 9.70031 63.5306 9.75066 63.7834 9.8489C64.0362 9.94715 64.2636 10.0912 64.4513 10.2719C64.639 10.4526 64.783 10.6661 64.8741 10.8991C64.9653 11.132 65.0017 11.3793 64.981 11.6255C65.0124 11.8937 64.9795 12.1649 64.8846 12.4209C64.7897 12.6769 64.6349 12.9118 64.4306 13.11C64.2264 13.3082 63.9772 13.4652 63.6999 13.5703C63.4226 13.6755 63.1234 13.7265 62.8223 13.72C62.5395 13.7357 62.2562 13.6974 61.9912 13.6076C61.7262 13.5178 61.4855 13.3785 61.2852 13.1991C61.0848 13.0196 60.9294 12.8041 60.8291 12.5667C60.7288 12.3294 60.686 12.0757 60.7036 11.8224C60.6766 11.5476 60.7149 11.2708 60.8161 11.0103C60.9173 10.7498 61.079 10.5115 61.2905 10.311C61.502 10.1106 61.7586 9.95254 62.0433 9.84739C62.3281 9.74224 62.6344 9.69235 62.9422 9.701M62.9422 8.80591C60.7935 8.80591 59.2345 9.88897 59.2345 11.894C59.2345 13.6842 60.8135 14.5793 62.7024 14.5793C64.8211 14.5793 66.3502 13.5499 66.3502 11.5628C66.4401 9.77261 64.951 8.80591 63.0322 8.80591H62.9422Z" fill="#00529B" fill-rule="evenodd"/>
<path clip-rule="evenodd" d="M70.6876 11.9835C71.1568 11.9605 71.5982 11.7766 71.9201 11.47C72.2421 11.1633 72.4198 10.7575 72.4165 10.3366C72.4165 9.28929 71.4171 8.94916 70.4177 8.94916H67.5595C67.5595 10.8199 67.4795 12.6907 67.2796 14.5525H68.6888C68.6888 13.7111 68.8187 10.5424 68.8387 9.80845C69.1785 9.80845 69.5083 9.80845 69.8381 9.80845C70.3978 9.80845 71.0674 9.88006 71.0674 10.5335C71.0674 11.1869 70.3878 11.536 69.6782 11.536C69.4903 11.5319 69.3031 11.5139 69.1185 11.4823C69.6682 12.5116 70.2678 13.5141 70.7176 14.5883H72.2267L70.6876 11.9835Z" fill="#00529B" fill-rule="evenodd"/>
<path clip-rule="evenodd" d="M72.7963 8.91333V9.80842C73.2261 9.80842 73.386 9.80842 74.7951 9.80842C74.7352 11.4106 74.6552 13.1203 74.5253 14.5256H75.9844C75.9844 12.7354 76.0843 11.2316 76.1843 9.80842C76.9838 9.80842 77.5535 9.80843 78.1331 9.85318V8.95809L72.7963 8.91333Z" fill="#00529B" fill-rule="evenodd"/>
<path clip-rule="evenodd" d="M80.3318 11.6613L81.3312 9.79052L82.0508 11.6613H80.3318ZM82.3306 12.5564C82.6004 13.174 82.8603 13.8453 83.0702 14.5166H84.5793C83.7997 12.6548 83.0002 10.7751 82.2906 8.91333H80.6016C79.6022 10.793 78.4629 12.6727 77.3336 14.5166H78.8827C79.2225 13.8453 79.5623 13.174 79.8821 12.5564H82.3306Z" fill="#00529B" fill-rule="evenodd"/>
<path d="M17.1497 0.678467H0V16.0025H17.1497V0.678467Z" fill="#00529B"/>
<path clip-rule="evenodd" d="M9.65421 8.27782H10.6636L17.1397 0.750074V0.678467H16.1703L9.65421 8.27782Z" fill="#EA0029" fill-rule="evenodd"/>
<path clip-rule="evenodd" d="M10.1739 11.2406L11.2333 9.96956C11.2333 9.96956 11.3332 10.3813 11.4032 10.6319C11.4731 10.8826 11.593 11.2406 11.593 11.2406H10.1739ZM6.94583 12.5922L7.38557 12.0999L7.6754 12.8518L7.19568 13.3799L6.94583 12.5922ZM0 14.3824H0.759544L2.8383 11.9835H5.23686L5.61663 12.8786L4.25745 14.3824H5.45673L5.94643 13.7021C6.01171 13.7995 6.06851 13.9012 6.11633 14.0064C6.15993 14.138 6.19003 14.2728 6.20628 14.4092H7.5055L8.0052 13.8095C8.06946 13.9154 8.12297 14.0262 8.1651 14.1407L8.25505 14.4092H9.8341L9.61423 14.087L9.02459 12.5743L9.54427 11.9567H11.8329L12.6224 14.0512C12.6395 14.1159 12.6395 14.1834 12.6224 14.2481C12.6176 14.3017 12.6176 14.3556 12.6224 14.4092H14.2814C14.2143 14.3096 14.1574 14.2048 14.1115 14.0959C14.0016 13.8364 12.3426 8.9223 12.3426 8.9223V8.66272H10.9634C10.9349 8.73896 10.9015 8.81367 10.8635 8.88649C10.2107 9.8232 9.48961 10.7202 8.70478 11.5718L8.51489 10.9542L10.5737 8.66272H9.25445V8.79698L8.09514 10.1933L7.63542 8.86859V8.68062H6.09634L7.09574 11.2316L6.67599 11.7329L5.67659 8.9223V8.68062H4.30742C4.28193 8.79885 4.23821 8.91333 4.17749 9.02076C3.9976 9.3788 0.869478 12.986 0 13.9885V14.3824ZM3.55787 11.1958L4.61723 9.9248C4.61723 9.9248 4.71717 10.3365 4.78713 10.5872L4.96702 11.1958H3.55787Z" fill="white" fill-rule="evenodd"/>
</svg>