<?xml version="1.0" encoding="utf-8"?>
<svg xmlns="http://www.w3.org/2000/svg" fill="none" height="20" viewBox="0 0 80 20" width="80">
<path d="M70.3578 19.0351C69.948 18.9635 69.5283 18.9187 69.1185 18.8203C67.9683 18.5584 66.9012 18.0622 66.0004 17.3702L65.8205 17.2449L64.0316 18.8471C63.0322 17.952 62.0928 17.1017 61.1133 16.2335L61.723 15.6516C62.1427 15.2578 62.5625 14.864 62.9922 14.4791C63.0431 14.4317 63.0826 14.3755 63.1084 14.3139C63.1342 14.2523 63.1456 14.1867 63.1421 14.121V0.945236C63.1421 0.614051 63.1421 0.640904 63.4719 0.640904H67.0898C67.3696 0.640904 67.3696 0.640904 67.3696 0.88258V5.60868C67.4327 5.59172 67.4931 5.56765 67.5495 5.53707C68.9687 4.89245 70.5705 4.64179 72.1497 4.8172C73.7289 4.9926 75.2137 5.58608 76.4142 6.52168C77.9117 7.6794 78.8678 9.2995 79.0926 11.0598C79.2846 12.4884 78.9916 13.9357 78.2518 15.213C77.5119 16.4903 76.3596 17.5384 74.945 18.2206C74.055 18.6594 73.0768 18.9362 72.0668 19.0351H71.9368H70.3578ZM72.0168 7.73006C72.0218 7.65852 72.0218 7.58677 72.0168 7.51523C71.9613 7.30354 71.8843 7.09681 71.7869 6.89762C71.677 6.69175 71.4571 6.69175 71.3072 6.89762C71.2137 7.02504 71.1334 7.15987 71.0674 7.30041C71.0017 7.44366 70.945 7.59009 70.8975 7.73901C70.5677 7.43467 70.2279 7.2288 69.7382 7.46153C70.0099 7.6816 70.2044 7.96771 70.2978 8.28501C70.3176 8.33494 70.3152 8.38978 70.291 8.43813C70.2668 8.48648 70.2227 8.52461 70.1679 8.54459C69.6382 8.80417 69.1085 9.06375 68.5988 9.35018C68.2735 9.51605 68.0009 9.75357 67.8068 10.0402C67.6126 10.3269 67.5034 10.6532 67.4895 10.9882C67.4895 11.6416 67.4895 12.295 67.4895 12.9485C67.4875 13.2901 67.5817 13.6266 67.7633 13.927C67.945 14.2274 68.2083 14.4819 68.5289 14.667C69.0886 14.9803 69.6682 15.2847 70.2579 15.5621C70.5952 15.7315 70.9755 15.8204 71.3622 15.8204C71.7489 15.8204 72.1292 15.7315 72.4665 15.5621C73.0662 15.2757 73.6458 14.9803 74.2155 14.667C74.553 14.4905 74.8336 14.2384 75.0298 13.9356C75.226 13.6328 75.3311 13.2896 75.3348 12.9395C75.3348 12.3308 75.3348 11.7222 75.3348 11.1493C75.3332 10.7851 75.2242 10.4278 75.0189 10.1134C74.8136 9.79906 74.5192 9.53886 74.1655 9.35913C73.6958 9.09955 73.1661 8.85787 72.7364 8.6162C72.5964 8.54459 72.5565 8.46403 72.6164 8.35662C72.7763 8.07914 72.9362 7.81062 73.1061 7.54209C73.1417 7.4887 73.1818 7.43782 73.2261 7.38992C73.0095 7.33419 72.7794 7.33671 72.5643 7.39719C72.3493 7.45766 72.1589 7.57342 72.0168 7.73006Z" fill="#C7235E"/>
<path d="M0 17.952L0.819508 17.2718L0.909454 17.3255C1.27612 17.6024 1.71163 17.7966 2.17943 17.8916C2.64722 17.9866 3.13364 17.9797 3.59784 17.8715C3.83393 17.8544 4.05789 17.7706 4.23747 17.6323C4.41706 17.494 4.54303 17.3082 4.59724 17.1017C4.64784 16.9752 4.66602 16.8402 4.65042 16.7066C4.63483 16.573 4.58586 16.4443 4.50715 16.3299C4.42844 16.2156 4.322 16.1186 4.19574 16.0461C4.06947 15.9736 3.9266 15.9275 3.77773 15.9112C3.23806 15.8128 2.68839 15.768 2.14871 15.6785C1.86648 15.6251 1.59166 15.544 1.3292 15.4368C0.949269 15.2618 0.644984 14.9787 0.464104 14.632C0.283223 14.2853 0.235985 13.8946 0.329802 13.5213C0.391529 13.0505 0.63511 12.6138 1.01838 12.2869C1.40165 11.96 1.90049 11.7634 2.42854 11.7311C3.00826 11.6606 3.59745 11.6849 4.1675 11.8027C4.70259 11.9469 5.18541 12.2156 5.56666 12.5815L4.80712 13.2259C4.48439 13.0744 4.15048 12.9428 3.80771 12.8321C3.35251 12.6982 2.86482 12.6796 2.39856 12.7784C2.10433 12.8479 1.85244 13.0183 1.69725 13.2528C1.54206 13.4872 1.49602 13.7669 1.56906 14.0315C1.60471 14.1607 1.6767 14.2795 1.77817 14.3766C1.87964 14.4738 2.00721 14.546 2.14871 14.5865C2.47555 14.6776 2.80964 14.7465 3.14811 14.7923C3.52788 14.864 3.91765 14.8908 4.28743 14.9803C4.73288 15.0551 5.13673 15.2633 5.43272 15.5707C5.72872 15.8781 5.89929 16.2664 5.91645 16.672C5.96413 17.068 5.87219 17.4674 5.65351 17.8141C5.43483 18.1609 5.10041 18.4376 4.69718 18.6054C3.96946 18.9043 3.16223 19.0129 2.36858 18.9187C1.50066 18.8687 0.678419 18.5526 0.039976 18.0236L0 17.952Z" fill="#636E75"/>
<path d="M6.83587 5.23277C6.69595 5.11641 6.53604 5.01795 6.36615 4.89264C6.51294 4.78625 6.65306 4.6727 6.78589 4.5525C7.17402 4.14201 7.39279 3.62449 7.40553 3.0867C7.41826 2.54891 7.2242 2.02355 6.85585 1.59869C6.58283 1.29163 6.23413 1.04537 5.83707 0.879201C5.44 0.713037 5.00537 0.631484 4.56723 0.640935C3.19805 0.640935 1.82887 0.640935 0.469684 0.640935C0.30978 0.640935 0.249817 0.640936 0.249817 0.828906C0.249817 3.6216 0.249817 6.41728 0.249817 9.21594C0.249817 9.37706 0.319774 9.40391 0.479679 9.40391H4.15747C4.4471 9.41732 4.73732 9.41732 5.02695 9.40391C5.41906 9.38036 5.8008 9.28093 6.14587 9.1125C6.49094 8.94406 6.79113 8.71062 7.02575 8.42826C7.4157 7.95293 7.60672 7.36997 7.56543 6.78129C7.57618 6.49127 7.51652 6.20261 7.39056 5.93526C7.2646 5.6679 7.07534 5.42823 6.83587 5.23277ZM2.83826 2.54749H4.16747C4.31541 2.53155 4.46534 2.55442 4.59905 2.61333C4.73276 2.67223 4.8445 2.76465 4.9207 2.87934C4.9969 2.99403 5.03428 3.12606 5.0283 3.25942C5.02233 3.39277 4.97325 3.5217 4.88703 3.63055C4.84628 3.7378 4.76985 3.83131 4.66801 3.89851C4.56618 3.96572 4.44382 4.0034 4.31738 4.00649C3.76771 4.00649 3.21804 4.00649 2.65837 4.00649C2.65403 3.95584 2.65403 3.90497 2.65837 3.85433C2.65837 3.49629 2.65837 3.13825 2.65837 2.78021C2.62839 2.62804 2.66837 2.57434 2.81828 2.57434L2.83826 2.54749ZM4.83706 7.22883C4.70387 7.32031 4.54449 7.37617 4.37734 7.38995C4.11438 7.40338 3.85078 7.40338 3.58781 7.38995C3.32797 7.38995 3.06813 7.38995 2.79829 7.38995C2.52845 7.38995 2.62839 7.3452 2.63838 7.23778V6.08311C2.63838 5.96675 2.63838 5.92199 2.79829 5.93095C3.29799 5.93095 3.79769 5.93095 4.29739 5.93095C4.45891 5.92011 4.61979 5.9584 4.754 6.03961C4.88822 6.12083 4.98791 6.24023 5.03694 6.37849C5.10843 6.52536 5.12759 6.68841 5.09182 6.84539C5.05605 7.00237 4.96709 7.14565 4.83706 7.25569V7.22883Z" fill="#44545D"/>
<path d="M23.1461 5.75189L23.336 5.64448C23.7348 5.43805 24.0698 5.14575 24.3106 4.79408C24.5514 4.44241 24.6905 4.04247 24.7152 3.63051C24.7455 3.24915 24.6874 2.86629 24.5447 2.50596C24.402 2.14562 24.1777 1.81559 23.8859 1.53656C23.594 1.25753 23.241 1.03553 22.8488 0.884484C22.4567 0.733436 22.0339 0.656601 21.607 0.658798C20.3078 0.658798 18.9986 0.658798 17.6994 0.658798C17.5195 0.658798 17.4795 0.712504 17.4795 0.86467C17.4795 3.63946 17.4795 6.42022 17.4795 9.20695C17.4795 9.37702 17.5495 9.42178 17.7293 9.42178C18.379 9.42178 19.0386 9.42178 19.7281 9.42178C19.918 9.42178 19.968 9.36807 19.968 9.20695C19.968 8.36556 19.968 7.53313 19.968 6.69174C19.968 6.15468 19.968 6.16363 20.5576 6.16363C20.6167 6.1564 20.6767 6.16758 20.7277 6.19528C20.7786 6.22299 20.8174 6.26554 20.8375 6.3158C21.3472 7.3004 21.8369 8.27606 22.3865 9.26066C22.4114 9.31223 22.4537 9.35551 22.5075 9.38441C22.5613 9.41332 22.6239 9.42638 22.6864 9.42178H25.2848C24.5552 8.15074 23.8457 6.96027 23.1461 5.75189ZM21.3572 4.31974C20.9274 4.31974 20.4977 4.31974 20.0679 4.31974C20.018 4.31974 19.938 4.25708 19.938 4.22128C19.938 3.69019 19.938 3.16208 19.938 2.63696C19.9356 2.62212 19.9356 2.60704 19.938 2.5922C20.4377 2.5922 20.9374 2.5922 21.4171 2.5922C21.6629 2.6105 21.8908 2.71462 22.0516 2.88208C22.2124 3.04955 22.2932 3.26692 22.2766 3.4873C22.2605 3.70182 22.1588 3.904 21.9899 4.05685C21.8211 4.2097 21.5965 4.30302 21.3572 4.31974Z" fill="#44545D"/>
<path d="M37.1776 3.68419L37.8672 2.94127C38.5168 2.22519 39.1665 1.51807 39.8061 0.80199C39.851 0.747683 39.9099 0.703873 39.9777 0.67427C40.0456 0.644666 40.1204 0.63014 40.1958 0.631921H42.9242C42.8542 0.703529 42.8243 0.757235 42.7843 0.80199L39.7861 4.02433C39.7403 4.06616 39.7147 4.1224 39.7147 4.18097C39.7147 4.23955 39.7403 4.29578 39.7861 4.33761C40.8554 5.93088 41.9148 7.5331 42.9742 9.12637L43.1141 9.36805H42.8842C42.0847 9.36805 41.2952 9.36805 40.4957 9.36805C40.4331 9.37265 40.3706 9.35959 40.3168 9.33069C40.263 9.30178 40.2207 9.2585 40.1958 9.20693L38.197 6.02039L38.0471 5.80557C37.9472 5.90403 37.8672 6.00249 37.7773 6.0741C37.5713 6.22568 37.4125 6.42232 37.3162 6.64499C37.2199 6.86766 37.1894 7.10882 37.2276 7.34513C37.2276 7.9538 37.2276 8.57141 37.2276 9.18903C37.2276 9.32329 37.2276 9.36805 37.0377 9.36805C36.3715 9.36805 35.7052 9.36805 35.0389 9.36805C34.879 9.36805 34.8391 9.31434 34.8391 9.17113V0.837792C34.8391 0.685626 34.839 0.631921 35.0489 0.631921C35.7085 0.631921 36.3581 0.631921 37.0477 0.631921C37.2376 0.631921 37.2776 0.694578 37.2776 0.855695C37.2776 1.75079 37.2776 2.64588 37.2776 3.54098C37.1677 3.54993 37.1776 3.63049 37.1776 3.68419Z" fill="#44545D"/>
<path d="M9.16447 5.00897C9.16447 3.62158 9.16447 2.23418 9.16447 0.855732C9.16447 0.676713 9.22444 0.631958 9.41432 0.631958C11.4731 0.631958 13.5319 0.631958 15.5906 0.631958C15.7805 0.631958 15.8505 0.631958 15.8505 0.855732C15.8505 1.36594 15.8505 1.87614 15.8505 2.38634C15.8505 2.53851 15.8005 2.58327 15.6406 2.58327H11.8429C11.593 2.58327 11.593 2.58327 11.593 2.81599C11.593 3.04871 11.593 3.47836 11.593 3.80955C11.593 3.97066 11.593 4.01542 11.8129 4.01542C12.8623 4.01542 13.9116 4.01542 14.951 4.01542C15.2108 4.01542 15.2108 4.01542 15.2108 4.25709C15.2108 4.7494 15.2108 5.2417 15.2108 5.734C15.2108 5.90407 15.1609 5.95777 14.961 5.95777H11.8329C11.633 5.95777 11.583 6.01148 11.593 6.18155C11.593 6.55152 11.593 6.91851 11.593 7.28251C11.593 7.43468 11.593 7.47048 11.8029 7.47048H15.5606C15.8205 7.47048 15.8205 7.47048 15.8205 7.69426V9.22487C15.8205 9.36808 15.7705 9.41284 15.6106 9.41284C13.5319 9.41284 11.4464 9.41284 9.35436 9.41284C9.17447 9.41284 9.15448 9.34123 9.15448 9.20697L9.16447 5.00897Z" fill="#44545D"/>
<path d="M26.4441 5.00004V0.873655C26.4441 0.64093 26.4441 0.64093 26.704 0.64093H32.8303C33.1001 0.64093 33.1001 0.64093 33.1001 0.864704C33.1001 1.37491 33.1001 1.87616 33.1001 2.38637C33.1001 2.53853 33.1001 2.58329 32.8803 2.58329H29.0826C28.9127 2.58329 28.8527 2.58329 28.8527 2.78021C28.8727 3.12608 28.8727 3.47264 28.8527 3.81852C28.8527 3.97963 28.9227 4.01544 29.0925 4.01544H32.2307C32.4805 4.01544 32.4805 4.01544 32.4805 4.24816C32.4805 4.74047 32.4805 5.24172 32.4805 5.74297C32.4805 5.90409 32.4805 5.95779 32.2507 5.95779H29.0925C28.9127 5.95779 28.8527 6.00255 28.8527 6.16367C28.8527 6.52767 28.8527 6.89466 28.8527 7.26463C28.8527 7.42575 28.9127 7.47051 29.0826 7.47051H32.8203C33.1001 7.47051 33.1001 7.4705 33.1001 7.71218C33.1001 8.20448 33.1001 8.69678 33.1001 9.18909C33.1001 9.3502 33.1001 9.41286 32.8703 9.41286C30.8049 9.41286 28.7361 9.41286 26.664 9.41286C26.4941 9.41286 26.4341 9.35915 26.4341 9.20699C26.4441 7.79274 26.4441 6.39639 26.4441 5.00004Z" fill="#44545D"/>
<path d="M44.0036 5.00897C44.0036 3.62158 44.0036 2.23418 44.0036 0.855732C44.0036 0.676713 44.0636 0.631958 44.2534 0.631958C46.3122 0.631958 48.381 0.631958 50.4397 0.631958C50.6296 0.631958 50.6796 0.685663 50.6696 0.846781C50.6696 1.35698 50.6696 1.85824 50.6696 2.36844C50.6696 2.52956 50.6696 2.58327 50.4297 2.58327H46.672C46.4821 2.58327 46.4122 2.58326 46.4122 2.79809C46.4122 3.13822 46.4122 3.48731 46.4122 3.82745C46.4122 3.97961 46.4122 4.01542 46.622 4.01542H49.7801C50.03 4.01542 50.03 4.01542 50.03 4.23919V5.72505C50.03 5.95777 50.03 5.95777 49.7801 5.95777H46.672C46.4821 5.95777 46.4122 5.95777 46.4122 6.18155C46.4122 6.53063 46.4122 6.88867 46.4122 7.24671C46.4122 7.41678 46.4122 7.47048 46.652 7.47048H50.3698C50.6496 7.47048 50.6496 7.47048 50.6496 7.71216C50.6496 8.21341 50.6496 8.72362 50.6496 9.22487C50.6496 9.36808 50.5897 9.41284 50.4397 9.41284C48.361 9.41284 46.2822 9.41284 44.2035 9.41284C44.0236 9.41284 43.9836 9.35018 43.9936 9.20697L44.0036 5.00897Z" fill="#44545D"/>
<path d="M56.536 5.9846V9.17114C56.536 9.38597 56.536 9.39492 56.2862 9.39492C55.6366 9.39492 54.997 9.39492 54.3573 9.39492C54.1675 9.39492 54.1075 9.35016 54.1075 9.17114V2.85177C54.1075 2.53849 54.1075 2.57429 53.7977 2.57429H51.9888C51.8189 2.57429 51.7489 2.57429 51.7489 2.36842C51.7489 1.84927 51.7489 1.33011 51.7489 0.802005C51.7489 0.667741 51.7489 0.622986 51.9488 0.622986C54.2274 0.622986 56.506 0.622986 58.7847 0.622986C58.9446 0.622986 58.9846 0.676692 58.9746 0.810957V2.39527C58.9746 2.52954 58.9746 2.57429 58.7747 2.57429H56.7759C56.576 2.57429 56.536 2.628 56.536 2.79807C56.586 3.85428 56.536 4.91944 56.536 5.9846Z" fill="#44545D"/>
<path d="M39.1664 15.7591L39.3463 15.6964C39.8502 15.5533 40.2751 15.2452 40.5364 14.8337C40.7976 14.4222 40.8759 13.9375 40.7555 13.4766C40.6625 13.0109 40.3909 12.5889 39.9877 12.2834C39.5845 11.9778 39.075 11.8078 38.5468 11.8027C37.4775 11.8027 36.3981 11.8027 35.3288 11.8027C35.0689 11.8027 35.0689 11.8027 35.0689 12.0444V15.2668C35.0689 16.4214 35.0689 17.5671 35.0689 18.7218C35.0689 18.874 35.1189 18.9277 35.2888 18.9187H36.0783C36.3282 18.9187 36.3282 18.9187 36.3282 18.686V16.0813C36.3282 15.947 36.3282 15.8933 36.528 15.9023H37.6773C37.7403 15.8946 37.8043 15.9064 37.8588 15.9357C37.9133 15.965 37.955 16.01 37.9772 16.0634C38.4869 16.9585 38.9766 17.8536 39.5262 18.7487C39.5424 18.7945 39.5767 18.8335 39.6228 18.8582C39.6688 18.8829 39.7233 18.8917 39.7761 18.8829H41.0953C40.4057 17.8178 39.7961 16.7974 39.1664 15.7591ZM38.5468 14.9266C38.1385 14.9639 37.7279 14.9788 37.3176 14.9714C37.0677 14.9714 36.8179 14.9714 36.568 14.9714C36.3182 14.9714 36.3182 14.9177 36.3282 14.7476C36.3381 14.5775 36.3282 14.1658 36.3282 13.8525V12.9216C36.3282 12.85 36.3282 12.7694 36.4481 12.7694C37.1377 12.7694 37.8273 12.7694 38.5068 12.8142C38.7932 12.8477 39.0562 12.9733 39.2467 13.1676C39.4372 13.362 39.5423 13.6118 39.5423 13.8704C39.5423 14.129 39.4372 14.3788 39.2467 14.5732C39.0562 14.7675 38.7932 14.8932 38.5068 14.9266H38.5468Z" fill="#636E75"/>
<path d="M20.8775 13.942C20.4777 13.942 20.1079 13.942 19.7282 13.942C19.6682 13.942 19.5982 13.8614 19.5783 13.8077C19.4785 13.5013 19.2719 13.2316 18.9886 13.038C18.7355 12.864 18.4341 12.7554 18.117 12.7238C17.7999 12.6923 17.4792 12.739 17.1897 12.8589C16.914 12.9608 16.678 13.1332 16.5109 13.3544C16.3438 13.5756 16.2532 13.836 16.2502 14.1031C16.1753 14.9432 16.1753 15.7872 16.2502 16.6273C16.2758 16.9882 16.4547 17.3266 16.7503 17.573C17.0458 17.8194 17.4355 17.955 17.8393 17.952C18.2567 17.9834 18.6718 17.8714 19.0004 17.6387C19.3289 17.4059 19.5462 17.0699 19.6082 16.6989C19.6082 16.5109 19.6082 16.314 19.6082 16.1171C19.6082 15.9202 19.6082 15.956 19.4283 15.9649H18.0891C17.9192 15.9649 17.8693 15.9649 17.8693 15.768C17.8693 15.5711 17.8693 15.3742 17.8693 15.1862C17.8693 14.9982 17.8693 15.0251 18.0292 15.0251H20.7575C20.8075 15.0251 20.9075 15.0877 20.9075 15.1235C20.9245 15.7425 20.8911 16.3618 20.8075 16.9764C20.7137 17.4567 20.4505 17.8975 20.0567 18.2341C19.6628 18.5707 19.1589 18.7856 18.6188 18.8471C18.1148 18.9613 17.5867 18.9596 17.0835 18.8423C16.5804 18.7249 16.1184 18.4957 15.7406 18.1758C15.327 17.8411 15.0641 17.3828 15.001 16.8869C14.866 15.8371 14.866 14.7769 15.001 13.7272C15.095 13.2142 15.3732 12.7427 15.7935 12.3841C16.2137 12.0255 16.753 11.7994 17.3296 11.7401C17.7636 11.6696 18.2091 11.6794 18.6387 11.7686C19.0683 11.8579 19.4731 12.0249 19.8281 12.2592C20.3501 12.642 20.7041 13.1779 20.8275 13.7719C20.8529 13.8263 20.8697 13.8835 20.8775 13.942Z" fill="#636E75"/>
<path d="M30.9314 15.3294C30.9314 14.8729 30.9314 14.4343 30.9314 13.9599C30.9018 13.4413 30.6599 12.9505 30.2518 12.5815C29.8672 12.2349 29.3888 11.9834 28.8634 11.8516C28.3379 11.7199 27.7833 11.7123 27.2536 11.8296C26.6705 11.9102 26.1346 12.1641 25.7322 12.5505C25.3297 12.9369 25.0842 13.4334 25.035 13.9599C24.925 14.9421 24.925 15.9316 25.035 16.9138C25.0722 17.203 25.1735 17.4826 25.3332 17.7363C25.4928 17.9899 25.7074 18.2124 25.9644 18.3907C26.3561 18.6716 26.8186 18.8625 27.3116 18.9468C27.8045 19.031 28.313 19.006 28.7927 18.874C29.3159 18.7811 29.7921 18.5407 30.1517 18.188C30.5114 17.8353 30.7356 17.3888 30.7915 16.9138C30.8715 16.4036 30.8615 15.8844 30.8915 15.3652L30.9314 15.3294ZM29.6022 16.7884C29.5298 17.123 29.3296 17.4246 29.036 17.6415C28.7424 17.8583 28.3737 17.9769 27.9932 17.9769C27.6127 17.9769 27.244 17.8583 26.9504 17.6415C26.6568 17.4246 26.4566 17.123 26.3842 16.7884C26.3142 16.1798 26.3142 15.5622 26.3042 14.9983C26.301 14.6657 26.3277 14.3334 26.3842 14.0047C26.4353 13.6816 26.6045 13.3828 26.8653 13.155C27.1261 12.9271 27.4638 12.783 27.8257 12.7452C28.1875 12.7074 28.5532 12.7779 28.8656 12.9459C29.1779 13.1138 29.4194 13.3697 29.5523 13.6735C29.6271 13.9248 29.6673 14.1833 29.6722 14.4433C29.6722 14.7387 29.6722 15.052 29.6722 15.3384C29.6922 15.8307 29.6822 16.314 29.6022 16.7884Z" fill="#636E75"/>
<path d="M58.7347 18.6323L57.4255 15.5442C56.9158 14.3448 56.4261 13.1543 55.8964 11.9638C55.8821 11.9116 55.8465 11.8661 55.7965 11.8363C55.7465 11.8064 55.6859 11.7945 55.6266 11.8027H55.0369C54.847 11.8027 54.7671 11.8564 54.7071 12.0086L51.8588 18.695C51.8588 18.7487 51.8588 18.8024 51.7889 18.865H51.9788H52.9782C53.0336 18.8731 53.0904 18.8618 53.1369 18.8335C53.1834 18.8052 53.216 18.762 53.228 18.7129C53.3679 18.3369 53.5278 17.9699 53.6677 17.594C53.6714 17.5704 53.6803 17.5476 53.6939 17.5271C53.7075 17.5066 53.7255 17.4888 53.7469 17.4746C53.7683 17.4604 53.7927 17.4502 53.8186 17.4446C53.8445 17.439 53.8713 17.438 53.8976 17.4418C54.897 17.4418 55.8165 17.4418 56.7659 17.4418C56.8228 17.434 56.8808 17.4466 56.9276 17.4767C56.9743 17.5068 57.0059 17.5521 57.0157 17.6029C57.1557 17.9789 57.3056 18.3459 57.4655 18.7218C57.4655 18.7755 57.5454 18.8561 57.5954 18.8561H58.8347C58.7947 18.7666 58.7647 18.695 58.7347 18.6323ZM54.0775 16.5109C54.4973 15.4905 54.907 14.497 55.3068 13.4945C55.7065 14.497 56.1063 15.4905 56.5061 16.5109H54.0775Z" fill="#636E75"/>
<path d="M47.8713 15.8128C47.8713 16.7705 47.8713 17.7193 47.8713 18.6771C47.8713 18.8292 47.8213 18.883 47.6414 18.883C47.3584 18.8695 47.0749 18.8695 46.7919 18.883C46.632 18.883 46.582 18.8382 46.582 18.695C46.582 17.7999 46.582 16.9048 46.582 16.0097C46.582 15.1146 46.582 13.9778 46.582 12.9664C46.582 12.7963 46.582 12.7336 46.3422 12.7426H44.3434C44.1935 12.7426 44.1435 12.7426 44.1435 12.5636C44.1435 12.3846 44.1435 12.1608 44.1435 11.9639C44.1435 11.7669 44.1935 11.758 44.3734 11.758H50.01C50.1899 11.758 50.2498 11.8027 50.2398 11.9639C50.2298 12.125 50.2398 12.3667 50.2398 12.5636C50.2398 12.7605 50.2398 12.7426 50.04 12.7426H48.0412C47.8513 12.7426 47.8013 12.7426 47.8013 12.9485C47.8813 13.9241 47.8713 14.8729 47.8713 15.8128Z" fill="#636E75"/>
<path d="M9.56427 15.9918C9.56427 15.0967 9.56427 14.2016 9.56427 13.3065C9.56427 13.1275 9.62427 13.0738 9.81427 13.0827C10.0043 13.0917 10.3443 13.0827 10.6043 13.0827C10.8643 13.0827 10.8443 13.1275 10.8443 13.2975V18.149C10.8443 18.3369 10.8443 18.5249 10.8443 18.7218C10.8443 18.9187 10.7943 18.8829 10.6643 18.874H9.79427C9.62427 18.874 9.56427 18.874 9.56427 18.6771C9.56427 18.1132 9.56427 17.5492 9.56427 16.9853V15.9918Z" fill="#636E75"/>
<path d="M10.2143 11.8027H10.6743C10.7843 11.8027 10.8343 11.8027 10.8343 11.937V12.5815C10.8343 12.6889 10.7843 12.7247 10.6743 12.7157H9.73426C9.61426 12.7157 9.55426 12.7157 9.55426 12.5725C9.55426 12.4293 9.55426 12.1429 9.55426 11.937C9.55426 11.7311 9.61426 11.7848 9.73426 11.7938L10.2143 11.8027Z" fill="#636E75"/>
<path d="M72.0167 7.73007C72.1528 7.56048 72.3433 7.43199 72.5629 7.36164C72.7824 7.2913 73.0207 7.28243 73.246 7.33622C73.2017 7.38413 73.1616 7.435 73.1261 7.48839C72.9562 7.75692 72.7963 8.02545 72.6364 8.30293C72.5764 8.41034 72.6364 8.4909 72.7563 8.5625C73.236 8.80418 73.7557 9.04586 74.1854 9.30543C74.5391 9.48516 74.8335 9.74537 75.0388 10.0597C75.2442 10.3741 75.3531 10.7314 75.3547 11.0956C75.3547 11.7043 75.3547 12.313 75.3547 12.8858C75.351 13.2359 75.2459 13.5791 75.0497 13.8819C74.8535 14.1847 74.5729 14.4368 74.2354 14.6133C73.6657 14.9266 73.0861 15.222 72.4865 15.5084C72.1491 15.6778 71.7689 15.7667 71.3821 15.7667C70.9954 15.7667 70.6151 15.6778 70.2778 15.5084C69.6881 15.222 69.1085 14.9177 68.5488 14.6133C68.2072 14.4357 67.9233 14.1812 67.7252 13.875C67.5271 13.5689 67.4218 13.2217 67.4195 12.8679C67.4195 12.2145 67.4195 11.5611 67.4195 10.9077C67.4433 10.5819 67.5571 10.2666 67.7508 9.99003C67.9444 9.71347 68.2118 9.48437 68.5288 9.32334C69.0385 9.0369 69.5282 8.77733 70.0979 8.51775C70.1527 8.49777 70.1968 8.45964 70.221 8.41129C70.2452 8.36294 70.2476 8.3081 70.2278 8.25817C70.1344 7.94087 69.9399 7.65476 69.6681 7.43468C70.1579 7.20196 70.4977 7.43468 70.8275 7.71216C70.8749 7.56325 70.9317 7.41682 70.9973 7.27357C71.0634 7.13303 71.1437 6.9982 71.2372 6.87078C71.3871 6.69176 71.607 6.69176 71.7169 6.87078C71.8143 7.06997 71.8913 7.27669 71.9468 7.48839C71.9766 7.56732 72 7.64809 72.0167 7.73007Z" fill="white"/>
</svg>