<?xml version="1.0" encoding="utf-8"?>
<svg xmlns="http://www.w3.org/2000/svg" fill="none" height="22" viewBox="0 0 79 22" width="79">
<path d="M78.5729 17.2586C78.4596 17.2268 78.3397 17.2188 78.2225 17.2354C78.1052 17.252 77.9939 17.2927 77.8971 17.3542C77.8003 17.4158 77.7208 17.4965 77.6646 17.5902C77.6085 17.6838 77.5773 17.7878 77.5735 17.8941C77.5735 18.5654 77.5735 19.2367 77.5735 19.917C77.5735 20.0513 77.5735 20.096 77.3936 20.0781H76.9239C76.7939 20.0781 76.7639 20.0781 76.7639 19.9349V16.6947C76.7639 16.5872 76.7639 16.5335 76.9338 16.5425H77.4036C77.5435 16.5425 77.5934 16.5425 77.5735 16.7036C77.5683 16.7751 77.5683 16.8469 77.5735 16.9184C77.8369 16.6734 78.1937 16.5264 78.5729 16.5067V17.2586Z" fill="#5BA04C"/>
<path d="M52.4185 12.989C53.0697 13.169 53.7662 13.169 54.4174 12.989C54.6078 12.9588 54.7855 12.8829 54.9315 12.7694C55.0776 12.6559 55.1866 12.5091 55.2469 12.3445C55.2573 12.2702 55.2573 12.195 55.2469 12.1207V9.56971C55.2719 9.23859 55.1709 8.90966 54.9603 8.63656C54.7498 8.36347 54.4421 8.16232 54.0875 8.06595C53.8449 7.96855 53.581 7.92139 53.3152 7.92796C53.0494 7.93453 52.7888 7.99466 52.5525 8.10389C52.3163 8.21312 52.1106 8.36863 51.9507 8.55887C51.7908 8.74911 51.6809 8.96918 51.629 9.20272C51.5832 9.41816 51.5861 9.63966 51.6376 9.85408C51.6891 10.0685 51.7882 10.2715 51.9289 10.4509C52.0696 10.6304 52.2492 10.7828 52.4569 10.8989C52.6646 11.0151 52.8963 11.0927 53.1381 11.1272C53.4322 11.1794 53.7361 11.165 54.0223 11.0853C54.3086 11.0056 54.568 10.863 54.7771 10.6707V11.1719C54.7771 11.4405 54.7771 11.709 54.7771 11.9775C54.7859 12.0214 54.7752 12.0666 54.7471 12.1034C54.7191 12.1403 54.676 12.1658 54.6272 12.1744C54.1361 12.3366 53.6096 12.3944 53.0893 12.3431C52.569 12.2918 52.0691 12.133 51.629 11.8791C51.3037 11.72 51.0213 11.4989 50.802 11.2313C50.5827 10.9637 50.4317 10.6562 50.3598 10.3305C50.251 9.89721 50.2436 9.44838 50.3382 9.01239C50.4329 8.5764 50.6273 8.1627 50.9095 7.79742C51.1691 7.47559 51.5078 7.2114 51.8994 7.02518C52.2909 6.83897 52.725 6.7357 53.1681 6.72331C53.764 6.66267 54.3671 6.751 54.9104 6.97851C55.4537 7.20601 55.9161 7.56381 56.2463 8.01224C56.5269 8.37794 56.6735 8.81274 56.666 9.25642C56.666 10.25 56.666 11.2435 56.666 12.2281C56.6607 12.5485 56.5665 12.8626 56.3921 13.1422C56.2176 13.4219 55.9683 13.6584 55.6666 13.8304C55.0036 14.232 54.2043 14.4126 53.408 14.3406C53.1332 14.3376 52.8604 14.2984 52.5984 14.2242C52.5485 14.2242 52.4885 14.2242 52.4885 14.1436L52.4185 12.989Z" fill="#E97626"/>
<path d="M76.624 10.7781V12.1923C76.624 12.2729 76.5541 12.2818 76.4941 12.3087C75.9732 12.5365 75.3911 12.628 74.8147 12.5726C74.2383 12.5172 73.6911 12.3171 73.2361 11.9954C72.8893 11.781 72.5939 11.5066 72.3673 11.1884C72.1408 10.8702 71.9876 10.5146 71.9169 10.1425C71.7664 9.3935 71.9487 8.62144 72.4247 7.99104C72.9008 7.36063 73.6331 6.92177 74.4653 6.76804C75.2847 6.61663 76.1376 6.74716 76.8544 7.13365C77.5711 7.52013 78.099 8.13421 78.333 8.85361C78.4058 9.09875 78.4394 9.35189 78.4329 9.60549C78.4329 10.5006 78.4329 11.3509 78.4329 12.2192C78.4329 12.3445 78.4329 12.3713 78.2531 12.3713H77.2337C77.1037 12.3713 77.0738 12.3713 77.0738 12.2281C77.0738 11.333 77.0738 10.4916 77.0738 9.62339C77.0757 9.20698 76.9033 8.80503 76.5907 8.49684C76.278 8.18864 75.8478 7.99657 75.3848 7.95851C74.9336 7.91149 74.4791 8.01649 74.1096 8.25309C73.7402 8.48969 73.4822 8.84095 73.386 9.2385C73.3118 9.50862 73.3131 9.79096 73.3898 10.0605C73.4665 10.3301 73.6162 10.5785 73.8258 10.7839C74.0353 10.9892 74.2981 11.1452 74.591 11.2378C74.8838 11.3305 75.1977 11.357 75.5047 11.3151C75.938 11.2631 76.3356 11.0723 76.624 10.7781Z" fill="#E97626"/>
<path d="M68.329 7.87795C68.329 6.98285 68.329 6.15936 68.329 5.30007C68.329 5.17476 68.329 5.13896 68.4989 5.14791C68.8487 5.14791 69.1985 5.14791 69.4983 5.14791C69.6082 5.14791 69.6382 5.14791 69.6382 5.27322V6.4637C69.6382 6.57111 69.6382 6.60691 69.7881 6.60691H70.4377C70.5177 6.60691 70.5677 6.60691 70.5677 6.71432C70.5677 7.07236 70.5677 7.4304 70.5677 7.78844C70.5677 7.869 70.5677 7.8869 70.4477 7.8869C70.3278 7.8869 70.008 7.8869 69.7781 7.8869C69.5483 7.8869 69.6382 7.8869 69.6382 8.01221C69.6382 8.78199 69.6382 9.55177 69.6382 10.3126C69.6585 10.5579 69.7825 10.7871 69.9849 10.9534C70.1873 11.1197 70.4529 11.2107 70.7276 11.2077C70.8975 11.2077 70.9474 11.2077 70.9374 11.3957C70.9374 11.6911 70.9374 11.9775 70.9374 12.2908C70.9374 12.3803 70.9374 12.4071 70.8075 12.4071C70.2196 12.4305 69.6421 12.2619 69.1826 11.9326C68.723 11.6034 68.4126 11.1358 68.309 10.6169C68.2991 10.5276 68.2991 10.4377 68.309 10.3484V7.87795H68.329Z" fill="#E97626"/>
<path d="M65.7705 10.6438C65.7705 11.1809 65.7705 11.709 65.7705 12.246C65.7705 12.3445 65.7705 12.3803 65.6206 12.3803C65.2142 12.3803 64.8045 12.3803 64.3914 12.3803C64.2814 12.3803 64.2515 12.3803 64.2515 12.255C64.2515 11.2167 64.2515 10.1784 64.2515 9.14006C64.2467 8.54982 64.4731 7.97675 64.8912 7.5205C65.3093 7.06425 65.8928 6.75367 66.5401 6.64275C66.8345 6.59801 67.1352 6.59801 67.4295 6.64275C67.5395 6.64275 67.5695 6.6875 67.5695 6.77701C67.5695 7.1261 67.5695 7.46623 67.5695 7.81532C67.5695 7.92273 67.5695 7.94063 67.4295 7.91378C67.1887 7.87378 66.9403 7.89072 66.709 7.96293C66.4776 8.03513 66.2713 8.16011 66.1103 8.32553C65.9965 8.42567 65.9067 8.54562 65.8465 8.67801C65.7864 8.8104 65.7571 8.95241 65.7605 9.09531L65.7705 10.6438Z" fill="#E97626"/>
<path d="M47.1317 7.3588V7.89586C47.1317 7.95851 47.1317 7.99432 47.0418 8.02117C46.7293 8.09453 46.4566 8.26586 46.2732 8.50403C46.0898 8.7422 46.0079 9.03139 46.0424 9.31906C46.054 9.72286 46.0306 10.1269 45.9724 10.5274C45.854 11.0176 45.5646 11.4614 45.146 11.7945C44.7274 12.1276 44.2013 12.3327 43.6438 12.3803C43.364 12.3803 43.364 12.3803 43.364 12.1565V11.2614C43.364 11.1719 43.364 11.1361 43.4939 11.1182C43.8246 11.0423 44.1187 10.872 44.3315 10.6329C44.5443 10.3938 44.6643 10.0991 44.6732 9.79346C44.6668 9.34909 44.7103 8.90528 44.8031 8.46872C44.9135 8.05395 45.1489 7.67431 45.4838 7.37124C45.8187 7.06817 46.2401 6.85332 46.702 6.75014C47.1517 6.66063 47.1517 6.66063 47.1517 7.08132L47.1317 7.3588Z" fill="#E97626"/>
<path d="M48.0412 9.695C48.0412 8.86256 48.0412 8.03013 48.0412 7.19769C48.0412 7.07237 48.0412 7.02762 48.2212 7.02762C48.5712 7.02762 48.9312 7.02762 49.2812 7.02762C49.3912 7.02762 49.4312 7.02762 49.4312 7.15293C49.4312 8.84764 49.4312 10.5394 49.4312 12.2281C49.4312 12.3266 49.4312 12.3624 49.2912 12.3624H48.1912C48.0612 12.3624 48.0512 12.3176 48.0512 12.2192L48.0412 9.695Z" fill="#E97626"/>
<path d="M29.4323 1.00363C29.8143 1.0695 30.1866 1.17462 30.5417 1.31692C30.2918 1.31692 30.0819 1.31692 29.8821 1.31692C29.4806 1.32921 29.0848 1.40496 28.7128 1.54069C28.3881 1.65545 28.1095 1.85506 27.9133 2.11355C27.6812 2.40123 27.3824 2.64057 27.0374 2.81515C26.6924 2.98974 26.3093 3.09544 25.9145 3.12501C25.4075 3.19201 24.8923 3.19201 24.3854 3.12501H24.1955L22.2666 2.51634C22.2666 2.44473 22.3866 2.44473 22.4565 2.45368C23.6159 2.4454 24.7565 2.19078 25.7845 1.71076C26.5146 1.39782 27.2874 1.17212 28.0831 1.03943C28.4788 1.00817 28.8768 1.00817 29.2724 1.03943C29.3272 1.03363 29.381 1.0216 29.4323 1.00363Z" fill="#5CA04D"/>
<path d="M35.6286 19.7648C35.4952 19.9397 35.2969 20.0666 35.069 20.1229C34.9479 20.151 34.8211 20.1533 34.6988 20.1295C34.5766 20.1058 34.4623 20.0567 34.3651 19.9862C34.2678 19.9156 34.1905 19.8257 34.1392 19.7235C34.0878 19.6213 34.064 19.5098 34.0696 19.3978C34.0696 18.7892 34.0696 18.1805 34.0696 17.6077V16.7126C34.0696 16.6141 34.0696 16.5693 34.2095 16.5783H34.6892C34.8291 16.5783 34.8791 16.5783 34.8791 16.7394C34.8791 17.4913 34.8791 18.2432 34.8791 18.9951C34.8584 19.0776 34.8584 19.1632 34.8791 19.2457C34.9061 19.3164 34.9598 19.3766 35.0309 19.4158C35.102 19.4549 35.1861 19.4708 35.2688 19.4605C35.3437 19.46 35.4162 19.4367 35.4743 19.3944C35.5324 19.3521 35.5728 19.2933 35.5887 19.2278C35.6033 19.1328 35.6033 19.0364 35.5887 18.9413C35.5887 18.2074 35.5887 17.4734 35.5887 16.7394C35.5887 16.623 35.5886 16.5693 35.7685 16.5783H36.2582C36.3482 16.5783 36.3882 16.5783 36.3882 16.6857V20.0423C36.3882 20.1229 36.3882 20.1408 36.2682 20.1408H35.7685C35.6086 20.1408 35.5587 20.1408 35.5887 19.9707L35.6286 19.7648Z" fill="#5CA04D"/>
<path d="M43.0242 16.8647C43.1534 16.7015 43.3398 16.5817 43.5539 16.5246C43.6683 16.4996 43.7875 16.4972 43.9031 16.5177C44.0187 16.5383 44.1279 16.5811 44.2231 16.6433C44.3182 16.7056 44.3971 16.7856 44.4541 16.878C44.5112 16.9703 44.545 17.0727 44.5533 17.178C44.5533 17.3749 44.5533 17.5718 44.5533 17.7688C44.5533 18.4848 44.5533 19.2009 44.5533 19.917C44.5533 20.0781 44.4933 20.1229 44.3234 20.1049H43.9536C43.8237 20.1049 43.7837 20.1049 43.7837 19.9528V17.7777C43.7887 17.6972 43.7887 17.6165 43.7837 17.536C43.7761 17.4514 43.7324 17.3726 43.6617 17.3159C43.591 17.2593 43.4988 17.2291 43.404 17.2317C43.3574 17.2266 43.3102 17.2305 43.2654 17.243C43.2207 17.2556 43.1795 17.2765 43.1445 17.3045C43.1095 17.3324 43.0815 17.3667 43.0625 17.4051C43.0435 17.4435 43.0338 17.4851 43.0342 17.5271C43.0242 17.6164 43.0242 17.7063 43.0342 17.7956C43.0342 18.5117 43.0342 19.2278 43.0342 19.9438C43.0342 20.0691 43.0342 20.1139 42.8543 20.1049H42.3446C42.2547 20.1049 42.2247 20.1049 42.2247 19.9886V16.6499C42.2247 16.5604 42.2247 16.5425 42.3546 16.5425H42.8543C42.9842 16.5425 43.0542 16.5425 43.0342 16.6946C43.007 16.7482 43.0034 16.8089 43.0242 16.8647Z" fill="#5BA04C"/>
<path d="M62.4425 16.8468C62.5515 16.7264 62.6936 16.6334 62.8547 16.5769C63.0159 16.5204 63.1907 16.5024 63.362 16.5246C63.5651 16.5574 63.7469 16.6577 63.871 16.8054C63.9951 16.9531 64.0525 17.1373 64.0316 17.3212C64.0316 18.2163 64.0316 19.1114 64.0316 20.0065C64.0316 20.1139 64.0316 20.1408 63.8917 20.1318H63.402C63.272 20.1318 63.2321 20.1318 63.2321 19.9796V17.7598C63.237 17.6793 63.237 17.5986 63.2321 17.5181C63.2173 17.4381 63.1684 17.3663 63.0957 17.3179C63.023 17.2695 62.9321 17.2482 62.8423 17.2585C62.7989 17.2536 62.7549 17.2563 62.7127 17.2667C62.6706 17.2771 62.6312 17.2949 62.5968 17.319C62.5624 17.3432 62.5336 17.3732 62.5123 17.4074C62.491 17.4416 62.4775 17.4792 62.4725 17.5181C62.4626 17.6194 62.4626 17.7212 62.4725 17.8225C62.4725 18.5385 62.4725 19.2546 62.4725 19.9707C62.4725 20.096 62.4725 20.1408 62.2926 20.1318H61.7829C61.693 20.1318 61.663 20.1318 61.663 20.0244V16.6499C61.663 16.5693 61.663 16.5425 61.7929 16.5425H62.2427C62.3726 16.5425 62.4425 16.5425 62.4225 16.6946C62.4243 16.7458 62.431 16.7967 62.4425 16.8468Z" fill="#5BA04C"/>
<path d="M59.5743 17.545H59.3944C59.2644 17.545 59.1945 17.545 59.1645 17.4018C59.1386 17.3323 59.089 17.2718 59.0226 17.2289C58.9563 17.1861 58.8765 17.163 58.7947 17.163C58.7129 17.163 58.6332 17.1861 58.5668 17.2289C58.5004 17.2718 58.4508 17.3323 58.425 17.4018C58.3956 17.4747 58.3966 17.5547 58.4278 17.6271C58.4591 17.6994 58.5183 17.7593 58.5948 17.7956C58.8247 17.8941 59.0646 17.9746 59.3044 18.0641C59.5246 18.1424 59.7107 18.2823 59.835 18.4629C59.9592 18.6435 60.015 18.8553 59.994 19.0667C59.9983 19.3386 59.8864 19.6017 59.6811 19.802C59.4758 20.0024 59.1928 20.1248 58.8899 20.1443C58.5871 20.1637 58.2874 20.0787 58.0523 19.9067C57.8172 19.7346 57.6645 19.4885 57.6254 19.2188C57.6254 19.0398 57.6254 19.0308 57.8053 19.0308H58.0052C58.2151 19.0308 58.395 19.0308 58.4549 19.2546C58.5149 19.4784 58.6648 19.4426 58.8247 19.4336C58.9155 19.4312 59.0032 19.403 59.075 19.3531C59.1468 19.3033 59.1992 19.2343 59.2245 19.1562C59.2493 19.0807 59.2483 19.0002 59.2215 18.9252C59.1948 18.8502 59.1436 18.7841 59.0746 18.7355C58.9303 18.6484 58.7719 18.582 58.6048 18.5385C58.4616 18.4996 58.3241 18.4455 58.1951 18.3774C57.9678 18.2576 57.7951 18.0698 57.7073 17.8471C57.6196 17.6244 57.6224 17.3811 57.7154 17.1601C57.8044 16.9372 57.9758 16.7481 58.2012 16.6244C58.4266 16.5007 58.6924 16.4497 58.9546 16.4798C59.2107 16.5033 59.45 16.6052 59.632 16.7682C59.8141 16.9313 59.9278 17.1455 59.954 17.3749C59.954 17.4555 59.954 17.4734 59.8441 17.4734L59.5743 17.545Z" fill="#5BA04C"/>
<path d="M72.5065 18.7444L72.8663 17.1869C72.9162 17.0169 72.9562 16.8379 72.9962 16.6588C73.0362 16.4798 72.9962 16.5425 73.1461 16.5425H73.7258C73.8557 16.5425 73.8657 16.5425 73.8357 16.6767L73.1461 19.0487L72.8763 19.9976C72.8763 20.0871 72.8163 20.1229 72.7164 20.1139C72.6164 20.105 72.3066 20.1139 72.1667 20.1139C72.0268 20.1139 72.0468 19.8275 71.9968 19.6664C71.707 18.6907 71.4271 17.7151 71.1373 16.7394C71.1373 16.5962 71.1373 16.5693 71.2872 16.5783H71.7869C71.9069 16.5783 71.9568 16.5783 71.9768 16.7126C72.1267 17.366 72.2866 18.0283 72.4365 18.6818C72.4465 18.6728 72.4365 18.7086 72.5065 18.7444Z" fill="#5BA04C"/>
<path d="M38.0072 18.6997C38.1671 18.0194 38.317 17.3391 38.4769 16.6499C38.4769 16.5783 38.5269 16.5425 38.6168 16.5425H39.2565C39.3564 16.5425 39.3764 16.5425 39.3464 16.6588C39.0266 17.7688 38.6968 18.8876 38.347 20.0065C38.347 20.0691 38.297 20.105 38.2171 20.105C37.6174 20.105 37.6174 20.105 37.4675 19.6395C37.1877 18.6639 36.9079 17.6792 36.618 16.7125C36.618 16.5783 36.618 16.5335 36.748 16.5425H37.2577C37.2795 16.537 37.3025 16.5361 37.3249 16.5398C37.3472 16.5435 37.3683 16.5517 37.3866 16.5638C37.4049 16.5758 37.4199 16.5915 37.4305 16.6095C37.441 16.6275 37.4468 16.6474 37.4475 16.6678C37.5974 17.357 37.7673 18.0462 37.9173 18.7355C37.9872 18.7534 37.9872 18.7176 38.0072 18.6997Z" fill="#5BA04C"/>
<path d="M29.4323 1.00364C29.3824 1.05734 29.3124 1.00364 29.2525 1.00364C28.5139 0.972086 27.7753 1.06313 27.0738 1.27217C26.5541 1.43328 26.0744 1.6302 25.5247 1.82712C24.7896 2.14309 24.0039 2.35449 23.1961 2.45369C22.9662 2.45369 22.7164 2.45369 22.4765 2.45369C22.4148 2.43589 22.3484 2.43589 22.2866 2.45369C22.2866 2.45369 22.2866 2.45369 22.2866 2.40894C22.7364 2.19411 23.1061 1.88083 23.5559 1.65706C25.0336 0.909694 26.736 0.596614 28.4229 0.761961C28.769 0.805968 29.1079 0.88711 29.4323 1.00364Z" fill="#80BF41"/>
<path d="M60.3438 18.3148C60.3438 17.7777 60.3438 17.2407 60.3438 16.7036C60.3438 16.5693 60.3938 16.5335 60.5238 16.5425H61.0338C61.1238 16.5425 61.1538 16.5425 61.1538 16.6499V20.0065C61.1538 20.0871 61.1538 20.105 61.0438 20.105H60.4838C60.3738 20.105 60.3438 20.105 60.3438 19.9707C60.3538 19.4247 60.3438 18.8697 60.3438 18.3148Z" fill="#5BA04C"/>
<path d="M49.5112 5.94455C49.5195 6.03872 49.506 6.1334 49.4716 6.22272C49.4373 6.31203 49.3828 6.39407 49.3115 6.46373C49.2402 6.5334 49.1537 6.58921 49.0573 6.6277C48.961 6.66619 48.8568 6.68654 48.7512 6.68748C48.6393 6.68882 48.5282 6.66962 48.4248 6.63106C48.3215 6.5925 48.228 6.53539 48.1502 6.46327C48.0725 6.39115 48.012 6.30553 47.9727 6.2117C47.9333 6.11787 47.9158 6.01781 47.9212 5.91769C47.9183 5.8226 47.9375 5.72799 47.9774 5.63983C48.0173 5.55167 48.0772 5.47186 48.1533 5.40544C48.2294 5.33902 48.32 5.28741 48.4195 5.25387C48.519 5.22033 48.6251 5.20559 48.7312 5.21057C48.838 5.20775 48.9442 5.2251 49.0429 5.26147C49.1417 5.29785 49.2307 5.35244 49.3043 5.42169C49.3779 5.49094 49.4344 5.57329 49.47 5.66338C49.5057 5.75347 49.5197 5.84927 49.5112 5.94455Z" fill="#E97626"/>
<path d="M34.2595 15.6474C34.2595 15.2893 34.2595 15.2893 34.6495 15.2893C35.0395 15.2893 34.9595 15.2893 34.9595 15.5579V15.907C34.9595 15.9965 34.9595 16.0054 34.8395 16.0054H34.3895C34.2895 16.0054 34.2395 16.0054 34.2495 15.8891C34.2578 15.8087 34.2611 15.728 34.2595 15.6474Z" fill="#5BA04C"/>
<path d="M35.5187 15.6474C35.5187 15.2893 35.5187 15.2893 35.9187 15.2893C36.3187 15.2893 36.2187 15.2893 36.2187 15.5579V15.907C36.2187 15.9965 36.2187 16.0054 36.0987 16.0054H35.6487C35.5487 16.0054 35.5087 16.0054 35.5187 15.8891V15.6474Z" fill="#5BA04C"/>
<path d="M54.0576 15.54C54.14 15.5359 54.2215 15.5581 54.2874 15.6026C54.1526 15.6112 54.021 15.6441 53.9008 15.6995C53.7805 15.7549 53.6741 15.8316 53.5878 15.9249C53.4804 16.0033 53.3534 16.0572 53.2177 16.0821C53.082 16.1071 52.9415 16.1023 52.8083 16.0681C52.6484 16.0681 52.5085 15.9696 52.3486 15.9249C52.7324 15.8655 53.1055 15.7602 53.4579 15.6116C53.6465 15.5384 53.8541 15.5136 54.0576 15.54Z" fill="#5BA04E"/>
<path d="M54.0576 15.54C53.7096 15.5446 53.3676 15.6212 53.0582 15.7638C52.8336 15.8677 52.5802 15.9113 52.3286 15.8891C52.5634 15.7093 52.8435 15.5836 53.1448 15.5228C53.4461 15.4619 53.7594 15.4678 54.0576 15.54Z" fill="#80BF43"/>
<path d="M33.5399 16.99C33.5399 16.8468 33.6098 16.6588 33.5399 16.5693C33.4699 16.4798 33.2301 16.5693 33.0702 16.5693C32.9103 16.5693 32.7803 16.5693 32.7703 16.8289L32.7004 16.7662C32.5816 16.6391 32.4197 16.5502 32.2393 16.513C32.0589 16.4759 31.8699 16.4925 31.701 16.5604C31.5486 16.6089 31.4183 16.7009 31.3298 16.8221C31.2414 16.9434 31.1997 17.0872 31.2113 17.2317C31.2063 17.3062 31.2063 17.3809 31.2113 17.4555V19.183C31.2014 19.3111 31.2014 19.4398 31.2113 19.5679C31.2255 19.6616 31.2611 19.7517 31.3159 19.8326C31.3707 19.9134 31.4435 19.9833 31.5297 20.0379C31.616 20.0924 31.7138 20.1305 31.8172 20.1498C31.9206 20.169 32.0273 20.169 32.1307 20.1497C32.3828 20.1098 32.6081 19.9849 32.7603 19.8006C32.7603 20.0781 32.7603 20.3108 32.7603 20.5435C32.7613 20.6167 32.7352 20.6881 32.686 20.7466C32.6369 20.805 32.5675 20.8473 32.4888 20.8667C32.41 20.8861 32.3263 20.8816 32.2506 20.8539C32.175 20.8263 32.1118 20.7769 32.0708 20.7136C31.9908 20.4898 31.8109 20.5167 31.631 20.5167H31.2612C31.2013 20.5167 31.1713 20.5167 31.1713 20.5973C31.1982 20.7958 31.285 20.984 31.4223 21.1417C31.5597 21.2994 31.7424 21.4206 31.9508 21.4924C31.9508 21.4924 32.0508 21.4924 32.0708 21.5461H32.6504C32.919 21.491 33.1566 21.3514 33.3198 21.1526C33.4831 20.9538 33.5612 20.709 33.5399 20.463C33.5299 19.3083 33.5399 18.1536 33.5399 16.99ZM32.7404 19.0487C32.7438 19.1001 32.7345 19.1515 32.7132 19.1992C32.6919 19.247 32.659 19.2899 32.617 19.325C32.575 19.3601 32.5248 19.3864 32.4701 19.4021C32.4154 19.4177 32.3576 19.4224 32.3006 19.4157C32.2341 19.4201 32.168 19.4037 32.1134 19.3695C32.0588 19.3353 32.019 19.2852 32.0008 19.2278C31.9961 19.1861 31.9961 19.1441 32.0008 19.1024C31.9658 18.5927 31.9658 18.0816 32.0008 17.5718C32.0008 17.3302 32.1707 17.2227 32.3806 17.2317C32.4902 17.2408 32.5915 17.2881 32.6625 17.3635C32.7335 17.4388 32.7687 17.5362 32.7603 17.6345V19.0487H32.7404Z" fill="#5BA04C"/>
<path d="M30.5817 7.73474C30.5829 7.4178 30.5392 7.102 30.4517 6.79489C30.2907 6.24207 30.0056 5.72443 29.6138 5.27353C29.222 4.82263 28.7318 4.44792 28.1731 4.17226C27.0284 3.56214 25.6762 3.34282 24.3654 3.55465C23.5298 3.65192 22.7382 3.94707 22.0724 4.40965C21.4066 4.87223 20.8906 5.4855 20.5777 6.18622C20.229 6.95768 20.0853 7.79116 20.1579 8.62088C20.1652 9.24235 20.3292 9.85431 20.6376 10.4111C21.2175 11.3015 22.105 11.9989 23.1661 12.3982C24.2351 12.8062 25.4202 12.9033 26.5541 12.6757C27.1672 12.5907 27.7653 12.4343 28.333 12.2102C28.4041 12.5085 28.3547 12.8198 28.1936 13.0885C28.0326 13.3573 27.7704 13.5663 27.4535 13.6782C26.5464 14.0572 25.5307 14.176 24.5453 14.0183C24.2589 13.9714 23.9754 13.9116 23.6958 13.8393C23.6958 14.448 23.6958 15.0477 23.6958 15.6295C23.6901 15.656 23.6905 15.6834 23.6972 15.7097C23.7038 15.7361 23.7164 15.761 23.7342 15.7828C23.752 15.8047 23.7746 15.823 23.8007 15.8366C23.8268 15.8503 23.8557 15.859 23.8857 15.8622C24.5534 16.0199 25.2452 16.0804 25.9344 16.0412C27.0508 16.049 28.1405 15.7352 29.0426 15.1461C29.5158 14.8606 29.9036 14.4754 30.1719 14.0244C30.4402 13.5734 30.5809 13.0703 30.5817 12.5593C30.5916 10.9123 30.5817 9.32801 30.5817 7.73474ZM28.1531 10.0978C27.5283 10.388 26.852 10.5788 26.1543 10.6617C25.5838 10.7618 24.9949 10.7403 24.4353 10.599C23.9979 10.4873 23.5955 10.2861 23.2597 10.0114C22.9238 9.73662 22.6638 9.39579 22.5001 9.01572C22.3364 8.63566 22.2734 8.22674 22.3161 7.82117C22.3588 7.4156 22.5061 7.02445 22.7464 6.67853C23.1352 6.12639 23.7434 5.72695 24.4483 5.56081C25.1532 5.39468 25.9022 5.47424 26.5441 5.78343C26.9359 5.89835 27.2939 6.09076 27.5915 6.34642C27.8891 6.60209 28.1186 6.91444 28.263 7.26034C28.3428 7.5107 28.3831 7.76978 28.383 8.03012V8.88046C28.383 9.20269 28.383 9.52493 28.383 9.84716C28.3821 9.90611 28.3589 9.96304 28.3171 10.0086C28.2753 10.0541 28.2175 10.0856 28.1531 10.0978Z" fill="#086A39"/>
<path d="M41.8549 8.13753C41.8549 7.95851 41.8549 7.77054 41.8549 7.59152C41.7186 6.50553 41.1253 5.50688 40.1959 4.79882C39.3301 4.07365 38.2215 3.62448 37.0418 3.52093C35.8621 3.41738 34.6772 3.66524 33.6707 4.22607C32.6642 4.78691 31.8924 5.62942 31.4749 6.62302C31.0573 7.61662 31.0174 8.70583 31.3612 9.72185C31.6424 10.5814 32.2195 11.3395 33.0102 11.888C33.941 12.651 35.1563 13.0755 36.4181 13.0785C36.968 13.0529 37.5104 12.9533 38.0272 12.7831C38.5368 12.6442 39.0373 12.4799 39.5263 12.2908C39.5366 12.389 39.5366 12.4879 39.5263 12.5862C39.5263 12.7115 39.5263 12.7473 39.6962 12.7383H41.695C41.8549 12.7383 41.8949 12.7383 41.8949 12.5682C41.8549 11.1092 41.8649 9.62338 41.8549 8.13753ZM39.3964 10.1515C38.6481 10.6308 37.7798 10.9382 36.8679 11.0466C36.175 11.1611 35.4595 11.033 34.8691 10.6885C34.3862 10.43 33.9913 10.0583 33.7271 9.6134C33.4629 9.16855 33.3394 8.66751 33.37 8.16438C33.3715 7.67658 33.526 7.19898 33.8157 6.78595C34.1055 6.37292 34.519 6.04107 35.009 5.82818C35.5679 5.57912 36.196 5.482 36.8157 5.54881C37.4355 5.61561 38.0199 5.84341 38.4969 6.20412C38.8258 6.44395 39.0875 6.74937 39.261 7.09596C39.4345 7.44256 39.5151 7.82071 39.4963 8.20018C39.4963 8.45081 39.4963 8.70144 39.4963 8.94311C39.4963 9.18479 39.4963 9.58758 39.4963 9.90982C39.5036 9.95437 39.4983 9.99986 39.4808 10.0421C39.4634 10.0843 39.4343 10.1219 39.3964 10.1515Z" fill="#086A39"/>
<path d="M7.92524 5.06736C6.55864 3.8914 4.7433 3.22569 2.84829 3.20557C1.97881 3.20557 1.09934 3.20557 0.219867 3.20557C0.0599633 3.20557 0 3.20557 0 3.39354C0 4.92415 0 6.45476 0 7.99432V12.6399C0 12.7741 -6.55258e-07 12.8099 0.179891 12.8099H2.70837C3.21658 12.8161 3.72453 12.7861 4.22746 12.7204C5.83673 12.4957 7.28685 11.7228 8.27503 10.5632C8.98855 9.77161 9.34791 8.77064 9.28327 7.7549C9.21862 6.73917 8.73458 5.78125 7.92524 5.06736ZM6.10634 9.71291C5.49031 10.2839 4.70204 10.682 3.8377 10.8586C3.44381 10.9557 3.03693 11.0038 2.62842 11.0018C2.48851 11.0018 2.42854 11.0018 2.42854 10.8228C2.42854 9.87402 2.42854 8.92522 2.42854 7.98537V5.13897C2.42854 5.06736 2.42854 4.97786 2.54847 4.97786C3.85954 4.98657 5.11622 5.44832 6.05637 6.26679C6.5422 6.73254 6.81657 7.34386 6.82581 7.98119C6.83505 8.61852 6.5785 9.23602 6.10634 9.71291Z" fill="#086A39"/>
<path d="M19.7981 7.22454C19.7115 6.65392 19.4991 6.10443 19.1731 5.60807C18.8471 5.11171 18.4141 4.6784 17.8993 4.33338C16.9756 3.72202 15.8492 3.40674 14.7012 3.43828C14.3971 3.43893 14.0933 3.45687 13.7917 3.49199C12.9734 3.57963 12.194 3.85463 11.5288 4.29048C10.8636 4.72633 10.335 5.30833 9.994 5.98035C9.4315 7.02144 9.29702 8.20687 9.61423 9.32801C9.75991 10.0087 10.0931 10.6461 10.5835 11.1822C11.0739 11.7183 11.706 12.1363 12.4225 12.3982C13.3995 12.7577 14.4698 12.8631 15.5107 12.7025C16.3601 12.621 17.1694 12.3361 17.8535 11.8778C18.5375 11.4195 19.0712 10.8046 19.3984 10.0978C19.8478 9.19699 19.987 8.19658 19.7981 7.22454ZM16.0004 10.5453C15.4598 10.7655 14.8595 10.8404 14.2723 10.7609C13.6851 10.6815 13.1363 10.4511 12.6924 10.0978C12.3868 9.84934 12.1473 9.54263 11.9916 9.20027C11.836 8.85791 11.7681 8.48862 11.7929 8.11963C11.7719 7.64064 11.8989 7.16574 12.1598 6.74723C12.4208 6.32872 12.8057 5.98282 13.272 5.74763C13.8211 5.47878 14.4452 5.35772 15.0693 5.399C15.6934 5.44029 16.2909 5.64217 16.7899 5.98035C17.1077 6.22474 17.3618 6.52847 17.5344 6.87022C17.7071 7.21197 17.7941 7.58343 17.7893 7.95851C17.833 8.50345 17.6836 9.04684 17.3624 9.51131C17.0412 9.97577 16.5646 10.3376 16.0004 10.5453Z" fill="#086A39"/>
<path d="M63.6018 9.2027C63.5775 8.77952 63.4416 8.36751 63.2054 8.00037C62.9691 7.63322 62.6392 7.32136 62.2427 7.09027C61.6644 6.78326 60.9936 6.64557 60.3238 6.69643C59.8274 6.69822 59.3392 6.81038 58.9031 7.02286C58.467 7.23533 58.0967 7.54145 57.8253 7.91376C57.4043 8.51002 57.2277 9.21876 57.3256 9.91877C57.3887 10.6086 57.7467 11.2499 58.325 11.709C58.8545 12.0911 59.4978 12.3254 60.1748 12.3827C60.8518 12.44 61.5327 12.3178 62.1327 12.0312C62.6211 11.7806 63.0225 11.4138 63.2924 10.9714C63.5623 10.5291 63.6901 10.0284 63.6618 9.52493C63.6018 9.40857 63.6118 9.30116 63.6018 9.2027ZM60.4737 11.154C60.2357 11.163 59.9982 11.1274 59.7765 11.0494C59.5547 10.9714 59.3537 10.8527 59.1861 10.701C59.0186 10.5493 58.8884 10.3679 58.8038 10.1684C58.7192 9.96899 58.682 9.75589 58.6948 9.54283C58.6835 9.32228 58.7235 9.10203 58.8123 8.89606C58.9011 8.69009 59.0367 8.5029 59.2106 8.34636C59.3844 8.18982 59.5927 8.06734 59.8222 7.98671C60.0517 7.90608 60.2974 7.86904 60.5437 7.87796C60.7847 7.86752 61.0255 7.90266 61.2504 7.98108C61.4752 8.0595 61.6792 8.17945 61.8488 8.33312C62.0185 8.48679 62.1502 8.67074 62.2353 8.87299C62.3203 9.07525 62.3569 9.29128 62.3426 9.50703C62.3483 9.72659 62.3036 9.94487 62.2112 10.1483C62.1188 10.3517 61.9806 10.536 61.8054 10.6896C61.6301 10.8432 61.4215 10.9629 61.1924 11.0412C60.9633 11.1196 60.7187 11.1549 60.4737 11.1451V11.154Z" fill="#E97626"/>
<path d="M54.4573 16.5156C54.4573 16.4261 54.4573 16.4082 54.3274 16.4082C54.191 16.4172 54.0541 16.4172 53.9177 16.4082C53.7577 16.4082 53.5978 16.4082 53.6578 16.6231C53.5423 16.5083 53.393 16.4249 53.227 16.3825C53.0611 16.3401 52.8851 16.3404 52.7194 16.3834C52.5536 16.4263 52.4047 16.5102 52.2896 16.6254C52.1746 16.7406 52.098 16.8825 52.0688 17.0348C52.0027 17.2994 51.9658 17.5693 51.9588 17.8404C51.9188 18.3338 51.9694 18.8297 52.1087 19.3083C52.1532 19.4437 52.2371 19.5661 52.3517 19.663C52.4664 19.7598 52.6077 19.8276 52.7612 19.8595C52.9147 19.8914 53.0749 19.8861 53.2254 19.8443C53.376 19.8025 53.5114 19.7257 53.6178 19.6216C53.6519 19.9192 53.6519 20.2191 53.6178 20.5167C53.6012 20.5901 53.5558 20.6557 53.4898 20.7017C53.4238 20.7477 53.3416 20.771 53.2581 20.7673C53.1695 20.7717 53.082 20.7481 53.0108 20.7007C52.9396 20.6532 52.8892 20.585 52.8683 20.5078C52.8635 20.4661 52.8635 20.4241 52.8683 20.3825C52.8683 20.3198 52.8683 20.2929 52.7683 20.3019H52.1187C52.0688 20.3019 52.0288 20.3019 52.0388 20.3646C52.0341 20.5482 52.0868 20.7293 52.191 20.8874C52.2952 21.0456 52.4467 21.1745 52.6284 21.2596C52.817 21.3614 53.0325 21.4164 53.2526 21.4188C53.4728 21.4213 53.6897 21.3712 53.8811 21.2736C54.0724 21.1761 54.2313 21.0346 54.3414 20.8638C54.4514 20.6931 54.5087 20.4991 54.5073 20.3019C54.4673 19.0488 54.4473 17.7867 54.4573 16.5156ZM53.6178 18.1537C53.6178 18.3953 53.6178 18.6281 53.6178 18.8608C53.6248 18.9085 53.6209 18.9571 53.6064 19.0034C53.5919 19.0498 53.5672 19.0931 53.5336 19.1307C53.5 19.1683 53.4583 19.1995 53.4109 19.2223C53.3636 19.2451 53.3116 19.2592 53.2581 19.2636C53.2058 19.2686 53.1529 19.2637 53.1028 19.2494C53.0527 19.2352 53.0064 19.2117 52.967 19.1806C52.9275 19.1494 52.8957 19.1113 52.8735 19.0686C52.8514 19.0259 52.8394 18.9795 52.8383 18.9324C52.7634 18.4244 52.7634 17.9098 52.8383 17.4018C52.8399 17.318 52.8752 17.2375 52.9375 17.1751C52.9999 17.1126 53.0853 17.0724 53.1781 17.0616C53.2354 17.0532 53.294 17.0567 53.3496 17.0717C53.4052 17.0867 53.4561 17.113 53.4986 17.1484C53.541 17.1839 53.5739 17.2276 53.5945 17.2761C53.6152 17.3247 53.6232 17.3769 53.6178 17.4286C53.6178 17.6703 53.6178 17.912 53.6178 18.1537Z" fill="#5CA04D"/>
<path d="M66.9199 16.3008C66.9199 15.9517 66.9199 15.6116 66.9199 15.2625C66.9199 15.1372 66.9199 15.1103 66.75 15.1193H66.2403C66.1203 15.1193 66.0903 15.1193 66.0903 15.2535C66.0903 15.7279 66.0903 16.2113 66.0903 16.6857C66.0903 16.7394 66.0903 16.7931 66.0903 16.8468L65.9205 16.6946C65.7981 16.5982 65.648 16.5344 65.4872 16.5107C65.3264 16.487 65.1614 16.5042 65.011 16.5604C64.879 16.6008 64.7641 16.6765 64.6819 16.7774C64.5996 16.8783 64.554 16.9994 64.5513 17.1243C64.5063 17.9055 64.5063 18.6882 64.5513 19.4694C64.5482 19.5786 64.5746 19.6869 64.6281 19.785C64.6816 19.8831 64.7607 19.9683 64.8588 20.0332C64.9568 20.0982 65.0708 20.1411 65.1913 20.1582C65.3117 20.1754 65.435 20.1663 65.5507 20.1318C65.7743 20.0825 65.972 19.9655 66.1103 19.8006C66.1103 20.105 66.1103 20.105 66.4601 20.105H66.73C66.8899 20.105 66.9298 20.105 66.9298 19.9259C66.9099 18.7176 66.9199 17.5092 66.9199 16.3008ZM66.1003 19.0487C66.1021 19.095 66.0927 19.141 66.0728 19.1838C66.0529 19.2265 66.023 19.2648 65.9851 19.2963C65.9471 19.3277 65.9021 19.3514 65.853 19.3659C65.8039 19.3803 65.7519 19.3851 65.7006 19.3799C65.4907 19.3799 65.3608 19.2636 65.3408 19.0308C65.3208 18.7981 65.3408 18.5296 65.3408 18.279V17.5718C65.3408 17.3302 65.4707 17.2048 65.6906 17.1959C65.7446 17.1908 65.7991 17.196 65.8507 17.2114C65.9022 17.2267 65.9494 17.2518 65.9892 17.2849C66.029 17.318 66.0604 17.3583 66.0813 17.4032C66.1022 17.448 66.1121 17.4964 66.1103 17.545C66.142 18.0459 66.1387 18.5482 66.1003 19.0487Z" fill="#5BA04C"/>
<path d="M48.7607 16.802C48.7607 16.2829 48.7607 15.7637 48.7607 15.2535C48.7607 15.1461 48.7607 15.1103 48.6108 15.1193H48.0911C47.9812 15.1193 47.9512 15.1193 47.9612 15.2356V16.8737C47.9328 16.8371 47.8992 16.804 47.8613 16.7752C47.7451 16.645 47.5843 16.5526 47.4038 16.5121C47.2232 16.4717 47.0328 16.4855 46.8619 16.5514C46.7135 16.5925 46.5843 16.676 46.494 16.7892C46.4038 16.9024 46.3574 17.039 46.3622 17.178C46.3122 17.9561 46.3122 18.7361 46.3622 19.5142C46.3666 19.613 46.3954 19.7096 46.4464 19.7973C46.4974 19.8849 46.5694 19.9614 46.6573 20.0213C46.7451 20.0811 46.8466 20.1229 46.9545 20.1435C47.0625 20.1642 47.1742 20.1632 47.2816 20.1408C47.5337 20.1009 47.759 19.9759 47.9113 19.7917V19.9438C47.9113 20.0781 47.9113 20.1139 48.0812 20.1049H48.5309C48.6808 20.1049 48.7108 20.1049 48.7108 19.9438C48.7508 18.8966 48.7607 17.8493 48.7607 16.802ZM47.9612 18.995C47.9651 19.0573 47.9546 19.1196 47.9306 19.1781C47.9065 19.2366 47.8693 19.29 47.8213 19.3352C47.7796 19.3699 47.7295 19.3955 47.675 19.41C47.6204 19.4246 47.5628 19.4276 47.5067 19.4189C47.4506 19.4103 47.3975 19.3901 47.3516 19.3601C47.3056 19.33 47.268 19.2909 47.2417 19.2457C47.1968 19.1557 47.1763 19.0576 47.1817 18.9592V17.6524C47.1817 17.4197 47.2616 17.2943 47.4215 17.2496C47.4832 17.2289 47.5497 17.2222 47.615 17.23C47.6803 17.2379 47.7424 17.2601 47.7958 17.2946C47.8492 17.3292 47.8923 17.375 47.9211 17.4281C47.95 17.4811 47.9638 17.5397 47.9612 17.5987V18.995Z" fill="#5BA04C"/>
<path d="M76.2842 17.5181C76.2904 17.2687 76.1907 17.0265 76.0052 16.8404C75.8197 16.6543 75.5622 16.5382 75.2848 16.5156C75.1272 16.4913 74.9658 16.4952 74.81 16.5272C74.6541 16.5591 74.5068 16.6184 74.3767 16.7017C74.2466 16.7849 74.1362 16.8904 74.0519 17.0121C73.9676 17.1339 73.9111 17.2693 73.8857 17.4107C73.8857 17.5092 73.8857 17.5629 74.0256 17.5539H74.4353C74.4963 17.5676 74.5608 17.5593 74.615 17.5309C74.6692 17.5024 74.7087 17.4561 74.7252 17.4018C74.777 17.3273 74.8569 17.2718 74.9504 17.2456C75.0439 17.2193 75.1448 17.2239 75.2349 17.2586C75.4347 17.2586 75.4947 17.4107 75.5147 17.5718C75.5347 17.733 75.5147 17.8046 75.5147 17.9209C75.5147 18.0373 75.5147 18.0373 75.3848 18.0194C75.1533 17.9836 74.9167 17.9836 74.6852 18.0194C74.5106 18.0337 74.3453 18.0967 74.2127 18.1994C74.08 18.3022 73.9867 18.4395 73.9456 18.5923C73.8556 18.8835 73.8351 19.1885 73.8857 19.4873C73.8938 19.6345 73.9531 19.7758 74.0552 19.8913C74.1573 20.0069 74.2972 20.091 74.4553 20.1318C74.6286 20.1998 74.8228 20.2119 75.005 20.1662C75.1871 20.1206 75.346 20.0198 75.4547 19.8812C75.4547 19.8812 75.4547 19.8096 75.5647 19.8185C75.5695 19.8692 75.5695 19.9201 75.5647 19.9707C75.5647 20.0871 75.5647 20.1408 75.7446 20.1318H76.2343C76.3242 20.1318 76.3542 20.1318 76.3442 20.0334C76.2942 19.1741 76.3042 18.3506 76.2842 17.5181ZM75.4647 19.2099C75.4508 19.2922 75.4053 19.3677 75.336 19.4233C75.2667 19.4788 75.1779 19.511 75.0849 19.5142C74.9902 19.5163 74.8976 19.4888 74.8229 19.4366C74.7482 19.3844 74.696 19.3106 74.6752 19.2278C74.64 19.1363 74.634 19.0379 74.6579 18.9435C74.6818 18.8492 74.7346 18.7627 74.8105 18.6938C74.8863 18.6249 74.9822 18.5764 75.0872 18.5537C75.1922 18.531 75.3022 18.5351 75.4048 18.5654C75.4747 18.5654 75.4947 18.5654 75.4947 18.6639C75.4897 18.7384 75.4897 18.8131 75.4947 18.8876C75.4997 18.9957 75.4897 19.104 75.4647 19.2099Z" fill="#5CA04D"/>
<path d="M57.3256 17.5539C57.3398 17.299 57.2439 17.049 57.0579 16.8557C56.8718 16.6624 56.6098 16.5406 56.3262 16.5156C56.1686 16.4913 56.0072 16.4952 55.8513 16.5272C55.6955 16.5591 55.5482 16.6184 55.4181 16.7017C55.2879 16.7849 55.1775 16.8904 55.0933 17.0121C55.009 17.1339 54.9525 17.2693 54.9271 17.4107C54.9271 17.5181 54.9271 17.5808 55.077 17.5718C55.2265 17.5584 55.3772 17.5584 55.5267 17.5718C55.6366 17.5718 55.6966 17.5718 55.7366 17.4465C55.7862 17.369 55.8632 17.3084 55.9555 17.2744C56.0478 17.2404 56.1501 17.2348 56.2463 17.2586C56.4262 17.2586 56.5161 17.3749 56.5461 17.5897C56.5761 17.8046 56.5461 17.8135 56.5461 17.9299C56.5461 18.0462 56.5461 18.0373 56.4062 18.0283H55.9265C55.6892 18.0103 55.4532 18.0745 55.2672 18.2078C55.0813 18.341 54.9595 18.5331 54.9271 18.7444C54.9019 18.9527 54.9019 19.1627 54.9271 19.371C54.9182 19.4933 54.9424 19.6157 54.9978 19.7279C55.0531 19.84 55.1379 19.9385 55.2448 20.015C55.3518 20.0914 55.4778 20.1436 55.6122 20.1671C55.7465 20.1905 55.8852 20.1846 56.0164 20.1497C56.2563 20.1497 56.3962 19.9438 56.5761 19.7648C56.5811 19.8364 56.5811 19.9081 56.5761 19.9796C56.5761 20.096 56.5761 20.1408 56.736 20.1318H57.2457C57.3456 20.1318 57.3756 20.1318 57.3756 20.0155C57.3356 19.1741 57.3456 18.3685 57.3256 17.5539ZM56.5361 18.8876C56.5509 18.9946 56.5509 19.1029 56.5361 19.2099C56.5222 19.2922 56.4767 19.3677 56.4074 19.4233C56.338 19.4788 56.2493 19.511 56.1563 19.5142C56.0651 19.5185 55.9751 19.4939 55.9021 19.4449C55.829 19.3958 55.7775 19.3253 55.7566 19.2457C55.7149 19.1568 55.7022 19.0592 55.7199 18.9642C55.7375 18.8692 55.7849 18.7805 55.8565 18.7086C55.9431 18.6417 56.0465 18.5946 56.1579 18.5712C56.2693 18.5478 56.3853 18.5489 56.4961 18.5743C56.5661 18.5743 56.5661 18.6191 56.5661 18.6639L56.5361 18.8876Z" fill="#5CA04D"/>
<path d="M69.7182 17.5987C69.7243 17.3668 69.651 17.1388 69.5083 16.9453C69.3558 16.7632 69.145 16.6271 68.9039 16.5552C68.6629 16.4832 68.403 16.4788 68.1591 16.5425C67.9247 16.6044 67.7165 16.7279 67.5614 16.8971C67.4064 17.0663 67.3117 17.2733 67.2896 17.4913C67.2896 17.5719 67.2896 17.5898 67.3896 17.5898H67.8793C67.9992 17.5898 68.0692 17.5898 68.1191 17.4555C68.1604 17.3745 68.2318 17.3088 68.3211 17.2696C68.4104 17.2304 68.5121 17.2202 68.6088 17.2407C68.7987 17.2407 68.8887 17.3749 68.9087 17.5898C68.9286 17.8046 68.9087 17.7956 68.9087 17.8941C68.9087 17.9925 68.9087 18.0194 68.7687 18.0015C68.5436 17.9702 68.3143 17.9702 68.0891 18.0015C67.9077 18.0198 67.737 18.0882 67.6009 18.1972C67.4648 18.3063 67.37 18.4506 67.3296 18.6102C67.2649 18.8876 67.2649 19.1741 67.3296 19.4516C67.3382 19.557 67.3721 19.6596 67.429 19.7522C67.486 19.8449 67.5646 19.9254 67.6595 19.9883C67.7544 20.0512 67.8633 20.095 67.9789 20.1167C68.0945 20.1384 68.2139 20.1374 68.329 20.1139C68.569 20.0548 68.7757 19.9175 68.9087 19.729C68.9137 19.7946 68.9137 19.8604 68.9087 19.926C68.9087 20.0602 68.9087 20.096 69.0885 20.0871H69.5583C69.6882 20.0871 69.7182 20.0871 69.7182 19.9439C69.7082 19.1741 69.7182 18.3864 69.7182 17.5987ZM68.9087 18.9234C68.9356 19.0416 68.9356 19.1634 68.9087 19.2815C68.8771 19.3445 68.8259 19.398 68.7612 19.4355C68.6964 19.4731 68.621 19.4931 68.5439 19.4931C68.4668 19.4931 68.3913 19.4731 68.3266 19.4355C68.2619 19.398 68.2106 19.3445 68.1791 19.2815C68.131 19.1868 68.1113 19.0826 68.1218 18.979C68.1323 18.8754 68.1727 18.7761 68.2391 18.6907C68.3298 18.6239 68.4363 18.5762 68.5505 18.5514C68.6648 18.5266 68.7838 18.5253 68.8987 18.5475C68.8987 18.5475 68.8987 18.5923 68.8987 18.6281L68.9087 18.9234Z" fill="#5CA04D"/>
<path d="M41.635 19.0487C41.4853 19.0577 41.335 19.0577 41.1853 19.0487C41.0454 19.0487 40.9654 19.0487 40.9254 19.2098C40.8855 19.371 40.7256 19.4426 40.4957 19.4068C40.4162 19.4001 40.3423 19.3669 40.2887 19.3139C40.2351 19.2609 40.2055 19.1919 40.2059 19.1203C40.2059 18.995 40.2059 18.8608 40.2059 18.7354C40.2059 18.6101 40.2059 18.5833 40.3658 18.5922H41.645C41.725 18.5922 41.7849 18.5922 41.7849 18.4938C41.7849 18.1357 41.7849 17.7687 41.7849 17.4107C41.7522 17.1519 41.6092 16.9144 41.3858 16.7477C41.1624 16.5809 40.8758 16.4978 40.5857 16.5156C40.4393 16.5096 40.2931 16.5301 40.1557 16.5758C40.0184 16.6216 39.8928 16.6917 39.7865 16.782C39.6801 16.8722 39.5951 16.9808 39.5367 17.1011C39.4783 17.2214 39.4475 17.3511 39.4463 17.4823C39.4463 17.7598 39.4463 18.0462 39.4463 18.3327C39.4463 18.6101 39.4463 18.8787 39.4463 19.1561C39.4409 19.2876 39.4654 19.4187 39.5185 19.5413C39.5715 19.664 39.652 19.7757 39.7549 19.8695C39.8578 19.9633 39.981 20.0374 40.117 20.0871C40.253 20.1368 40.3988 20.1612 40.5457 20.1586C40.6983 20.1709 40.8521 20.1557 40.998 20.1139C41.1439 20.0721 41.2791 20.0046 41.3955 19.9154C41.5119 19.8261 41.6072 19.717 41.6758 19.5943C41.7444 19.4716 41.7849 19.3378 41.7949 19.2009C41.7749 19.0935 41.755 19.0487 41.635 19.0487ZM40.4557 17.2585C40.5095 17.2406 40.5672 17.2338 40.6243 17.2386C40.6815 17.2435 40.7367 17.2599 40.7857 17.2866C40.8348 17.3133 40.8764 17.3496 40.9076 17.3928C40.9387 17.436 40.9585 17.485 40.9654 17.536C40.9701 17.5837 40.9701 17.6316 40.9654 17.6792C40.9654 18.0373 40.9654 18.0373 40.5757 18.0373C40.1859 18.0373 40.1859 18.0373 40.1959 17.6882C40.2059 17.3391 40.2559 17.3033 40.4557 17.2585Z" fill="#5BA04C"/>
<path d="M51.5591 17.5718C51.5714 17.4441 51.5551 17.3155 51.5114 17.1934C51.4676 17.0713 51.3972 16.9583 51.3042 16.8608C51.2112 16.7633 51.0975 16.6834 50.9696 16.6257C50.8418 16.568 50.7025 16.5336 50.5597 16.5246C50.4037 16.4934 50.242 16.4925 50.0856 16.522C49.9292 16.5514 49.7816 16.6106 49.6529 16.6954C49.5241 16.7802 49.4171 16.8887 49.3391 17.0136C49.261 17.1386 49.2138 17.277 49.2005 17.4197C49.1588 18.0158 49.1588 18.6137 49.2005 19.2099C49.2057 19.4568 49.3182 19.6923 49.5142 19.8661C49.7101 20.0399 49.9741 20.1385 50.2499 20.1408C50.3957 20.1623 50.545 20.1576 50.6888 20.1268C50.8326 20.0959 50.9681 20.0397 51.0873 19.9613C51.2064 19.8829 51.3069 19.784 51.3828 19.6703C51.4587 19.5566 51.5084 19.4305 51.5291 19.2994C51.5791 18.9771 51.5291 18.6549 51.5291 18.4043C51.5291 18.1536 51.5691 17.8225 51.5591 17.5718ZM50.7695 19.0487C50.7695 19.3083 50.6096 19.4336 50.3498 19.4247C50.2707 19.4298 50.1925 19.4076 50.1311 19.3627C50.0698 19.3177 50.03 19.2534 50.02 19.183C50.0102 19.0937 50.0102 19.0038 50.02 18.9145V17.7509C50.0102 17.6705 50.0102 17.5895 50.02 17.5092C50.0321 17.4341 50.0742 17.3654 50.1386 17.3161C50.2029 17.2667 50.2851 17.2399 50.3698 17.2406C50.457 17.2303 50.5453 17.2506 50.6161 17.2973C50.687 17.3441 50.7348 17.4136 50.7496 17.4913C50.7593 17.5536 50.7593 17.6169 50.7496 17.6792V19.0487H50.7695Z" fill="#5CA04D"/>
</svg>