<?xml version="1.0" encoding="UTF-8"?>
<svg id="Layer_1" xmlns="http://www.w3.org/2000/svg" version="1.1" viewBox="0 0 896.75 367.03">
  <!-- Generator: Adobe Illustrator 29.5.0, SVG Export Plug-In . SVG Version: 2.1.0 Build 137)  -->
  <defs>
    <style>
      .st0 {
        fill: #a6a7a6;
      }

      .st1 {
        fill: #273a7e;
      }
    </style>
  </defs>
  <path class="st1" d="M176.88,187.38h22.84c-4.57,13.87-12.22,24.61-22.96,32.22-10.74,7.61-23.64,11.42-38.69,11.42-18.78,0-34.63-6.6-47.57-19.79-12.94-13.19-19.41-29.35-19.41-48.46s6.43-35.14,19.28-48.59c12.85-13.45,28.33-20.17,46.43-20.17s32.98,6.6,45.67,19.79c13.7,14.04,20.46,32.22,20.3,54.55h-109.86c1.35,13.03,6.51,23.6,15.48,31.72,8.46,7.61,18.35,11.42,29.69,11.42,18.43,0,31.37-8.03,38.82-24.11ZM94.17,149.07h84.74c-2.71-10.49-7.99-19.03-15.86-25.63-7.87-6.6-16.62-9.89-26.26-9.89s-18.1,3.13-25.88,9.39c-8.46,6.6-14.04,15.31-16.75,26.13Z"/>
  <path class="st1" d="M529.3,187.38h22.84c-4.57,13.87-12.22,24.61-22.96,32.22-10.74,7.61-23.64,11.42-38.69,11.42-18.78,0-34.63-6.6-47.57-19.79-12.94-13.19-19.41-29.35-19.41-48.46s6.43-35.14,19.28-48.59c12.85-13.45,28.33-20.17,46.43-20.17s32.98,6.6,45.67,19.79c13.7,14.04,20.46,32.22,20.3,54.55h-109.86c1.35,13.03,6.51,23.6,15.48,31.72,8.46,7.61,18.35,11.42,29.69,11.42,18.43,0,31.37-8.03,38.82-24.11ZM446.59,149.07h84.74c-2.71-10.49-7.99-19.03-15.86-25.63-7.87-6.6-16.62-9.89-26.26-9.89s-18.1,3.13-25.88,9.39c-8.46,6.6-14.04,15.31-16.75,26.13Z"/>
  <path class="st1" d="M638.58,146.28l55.06,81.7h-26.13l-44.66-66.48-25.12,24.36v42.12h-21.57V39.2h21.57v116.71l59.63-58.61h31.72l-50.49,48.97Z"/>
  <path class="st1" d="M759.96,94.01c18.94,0,34.63,6.72,47.07,20.17,12.43,13.45,18.65,29.73,18.65,48.84s-6.18,34.93-18.52,47.95c-12.69,13.53-28.42,20.3-47.19,20.3s-34.51-6.76-47.19-20.3c-12.35-13.02-18.52-29.01-18.52-47.95s6.26-35.18,18.78-48.72c12.52-13.53,28.16-20.3,46.94-20.3ZM759.96,210.47c12.52,0,23-4.73,31.46-14.21,8.46-9.47,12.69-20.55,12.69-33.24s-4.06-24.02-12.18-33.49c-8.63-9.98-19.28-14.97-31.97-14.97s-23.18,4.86-31.46,14.59c-8.29,9.73-12.43,21.02-12.43,33.87s4.19,23.77,12.56,33.24c8.37,9.47,18.82,14.21,31.34,14.21Z"/>
  <path class="st1" d="M378.66,149.83c0-11.16,3.08-19.83,9.26-26.01,6.17-6.17,14.84-9.26,26.01-9.26,1.86,0,3.81.09,5.84.25v-20.04c-2.88-.34-5.75-.51-8.63-.51-16.58,0-29.69,5.16-39.33,15.48-9.64,10.32-14.46,23.85-14.46,40.6v77.64h21.31v-78.15Z"/>
  <g>
    <path class="st0" d="M607.4,295.13c0,4.42-1.95,7.9-5.84,10.42-3.32,2.21-7.32,3.32-12,3.32s-9.08-1.16-12.56-3.48c-3.79-2.53-6.03-6.11-6.71-10.74h10.58c1.31,3.16,4.21,4.74,8.69,4.74,4.9,0,7.35-1.21,7.35-3.63,0-1.53-1.11-2.63-3.32-3.32-.74-.26-2.48-.6-5.21-1.03-5.05-.79-8.79-1.82-11.21-3.08-3.84-2.05-5.76-5.08-5.76-9.08,0-4.26,1.89-7.61,5.69-10.03,3.26-2,7.16-3,11.69-3s8.13,1.05,11.29,3.16c3.47,2.26,5.58,5.45,6.32,9.56h-10.82c-.74-2.26-3-3.4-6.79-3.4-4.53,0-6.79,1.08-6.79,3.24,0,1,.71,1.76,2.13,2.29,1.16.42,3.13.87,5.92,1.34,5.9.95,10.06,2.16,12.48,3.63,3.26,2,4.9,5.03,4.9,9.08Z"/>
    <path class="st0" d="M625.64,262.83h-10.5v-8.21h10.5v8.21ZM625.64,267.26v40.67h-10.42v-40.67h10.42Z"/>
    <path class="st0" d="M674.76,287.63v18.24c0,6.69-1.84,11.98-5.53,15.87-3.74,4.05-8.93,6.08-15.56,6.08-4.74,0-8.93-1.18-12.56-3.55-3.95-2.63-6.34-6.19-7.19-10.66h11.37c.63,1.47,1.79,2.61,3.48,3.4,1.53.74,3.16,1.11,4.9,1.11,7.11,0,10.66-4.03,10.66-12.08v-1.82c-3.16,3.05-7.11,4.58-11.85,4.58-5.58,0-10.27-2.16-14.06-6.48-3.63-4.11-5.45-9-5.45-14.69,0-6.05,1.97-11.14,5.92-15.24,3.95-4.11,8.95-6.16,15.01-6.16s11.04,2.05,14.97,6.16c3.92,4.11,5.88,9.19,5.88,15.24ZM664.34,287.71c0-3.11-.98-5.83-2.92-8.17-1.95-2.34-4.45-3.51-7.5-3.51s-5.62,1.16-7.54,3.47c-1.92,2.32-2.88,5.05-2.88,8.21s.97,5.79,2.92,8.05c1.95,2.27,4.45,3.4,7.5,3.4s5.53-1.16,7.58-3.47c1.89-2.26,2.84-4.92,2.84-7.98Z"/>
    <path class="st0" d="M701.77,266.23c5.9,0,10.79,2.08,14.69,6.24,3.89,4.16,5.84,9.21,5.84,15.16s-1.96,10.91-5.88,15.05c-3.92,4.13-8.81,6.2-14.65,6.2s-10.78-2.07-14.65-6.2c-3.87-4.13-5.81-9.15-5.81-15.05s1.94-11,5.81-15.16c3.87-4.16,8.75-6.24,14.65-6.24ZM701.77,299.32c3.05,0,5.53-1.21,7.42-3.63,1.74-2.21,2.61-4.87,2.61-7.98s-.87-5.87-2.61-8.13c-1.89-2.53-4.37-3.79-7.42-3.79s-5.53,1.26-7.42,3.79c-1.74,2.26-2.61,4.98-2.61,8.13s.87,5.76,2.61,7.98c1.89,2.42,4.37,3.63,7.42,3.63Z"/>
    <path class="st0" d="M750.58,266.47v9.79c-.84-.16-1.66-.24-2.45-.24-2.58,0-4.66.75-6.24,2.25-1.58,1.5-2.37,3.54-2.37,6.12v23.53h-10.42v-23.53c0-5.53,1.63-9.94,4.9-13.23,3.26-3.29,7.66-4.94,13.19-4.94,1.11,0,2.24.08,3.4.24Z"/>
    <path class="st0" d="M774.27,298.37v9.48c-.9.11-1.76.16-2.61.16-5.11,0-9.03-1.63-11.77-4.9-2.58-3-3.87-7.11-3.87-12.32v-33.88h10.42v10.35h7.35v9.24h-7.35v14.37c0,5.32,2.61,7.82,7.82,7.5Z"/>
    <path class="st0" d="M821.1,287.63v20.3h-9.87v-4.26c-3.11,3.42-7.24,5.13-12.4,5.13-5.58,0-10.27-2.16-14.06-6.48-3.63-4.11-5.45-9-5.45-14.69,0-6.05,1.97-11.14,5.92-15.24,3.95-4.11,8.95-6.16,15.01-6.16s11.04,2.05,14.97,6.16c3.92,4.11,5.88,9.19,5.88,15.24ZM810.68,287.71c0-3.11-.98-5.83-2.92-8.17-1.95-2.34-4.45-3.51-7.5-3.51s-5.62,1.16-7.54,3.47c-1.92,2.32-2.88,5.05-2.88,8.21s.97,5.79,2.92,8.05c1.95,2.27,4.45,3.4,7.5,3.4s5.53-1.16,7.58-3.47c1.89-2.26,2.84-4.92,2.84-7.98Z"/>
  </g>
  <g>
    <rect class="st1" x="310.94" y="97.31" width="21.57" height="71.04"/>
    <path class="st1" d="M301.93,200.83c-6.01,6.26-14,9.39-23.98,9.39s-18.01-3.13-24.1-9.39c-3.63-3.73-6.15-8.14-7.62-13.19h-21.9c1.89,10.96,6.69,20.31,14.42,28.04,10.23,10.24,23.3,15.35,39.2,15.35s28.96-5.11,39.2-15.35c7.73-7.73,12.53-17.08,14.42-28.04h-22.13c-1.45,5.06-3.93,9.46-7.51,13.19Z"/>
    <rect class="st1" x="223.4" y="97.31" width="21.31" height="71.04"/>
  </g>
</svg>