<?xml version="1.0" encoding="utf-8"?>
<svg xmlns="http://www.w3.org/2000/svg" fill="none" height="29" viewBox="0 0 83 29" width="83">
<path d="M35.062 8.65558C34.1992 8.61047 33.3354 8.72885 32.5272 9.003C31.7189 9.27714 30.9843 9.70088 30.3712 10.2466C29.7582 10.7922 29.2805 11.4476 28.9695 12.1698C28.6584 12.892 28.5209 13.6648 28.5659 14.4379C28.5659 17.8572 31.0145 20.2202 35.3419 20.2202C36.2511 20.2302 37.1559 20.1062 38.0202 19.8532V15.3151H34.9321C34.5786 15.3175 34.2384 15.1946 33.9857 14.9733C33.733 14.752 33.5882 14.4501 33.5829 14.1336C33.5829 14.0315 33.6282 13.9336 33.7088 13.8614C33.7894 13.7892 33.8987 13.7487 34.0127 13.7487H39.5793C39.6398 13.7423 39.7011 13.7476 39.7591 13.764C39.8172 13.7805 39.8707 13.8079 39.916 13.8443C39.9614 13.8807 39.9976 13.9253 40.0223 13.9751C40.0469 14.025 40.0594 14.079 40.059 14.1336V20.7483C40.0672 20.8512 40.0345 20.9534 39.9669 21.0368C39.8993 21.1203 39.801 21.1798 39.6892 21.2048C38.2655 21.6841 36.7525 21.915 35.2319 21.8851C29.9451 21.8851 26.5371 18.7881 26.5371 14.4647C26.495 13.4679 26.6858 12.4741 27.0974 11.5472C27.509 10.6203 28.1324 9.78056 28.9274 9.08195C29.7225 8.38334 30.6718 7.84122 31.7144 7.49034C32.7571 7.13947 33.8701 6.98758 34.9821 7.04441C36.4813 7.01367 37.9745 7.22594 39.3894 7.67097C39.4978 7.69046 39.5932 7.74744 39.655 7.82956C39.7167 7.91168 39.7398 8.0123 39.7192 8.10957C39.5183 8.43328 39.2037 8.68856 38.8242 8.83583C38.4447 8.9831 38.0216 9.01413 37.6205 8.9241C36.7832 8.74092 35.9239 8.65073 35.062 8.65558Z" fill="#2D2C7F"/>
<path d="M43.437 7.25921C43.647 7.25684 43.8555 7.29155 44.0505 7.36134C44.2455 7.43114 44.4232 7.53466 44.5736 7.66598C44.7239 7.79731 44.8439 7.95388 44.9267 8.12674C45.0095 8.29961 45.0534 8.48538 45.056 8.67346V21.2048C45.0534 21.3077 45.0059 21.4056 44.9238 21.4775C44.8416 21.5494 44.7312 21.5897 44.6163 21.5897H43.437C43.323 21.5897 43.2137 21.5491 43.1331 21.4769C43.0525 21.4048 43.0073 21.3069 43.0073 21.2048V7.65305C43.0072 7.55013 43.0522 7.45129 43.1325 7.37768C43.2128 7.30407 43.3221 7.26155 43.437 7.25921Z" fill="#2D2C7F"/>
<path d="M55.9295 8.65558C55.0667 8.61047 54.2029 8.72885 53.3946 9.003C52.5864 9.27714 51.8517 9.70088 51.2387 10.2466C50.6257 10.7922 50.148 11.4476 49.8369 12.1698C49.5259 12.892 49.3884 13.6648 49.4334 14.4379C49.4334 17.8572 51.8819 20.2202 56.2093 20.2202C57.1186 20.2302 58.0234 20.1062 58.8877 19.8532V15.3151H55.8196C55.4661 15.3175 55.1259 15.1946 54.8732 14.9733C54.6204 14.752 54.4756 14.4501 54.4704 14.1336C54.4704 14.0315 54.5157 13.9336 54.5962 13.8614C54.6768 13.7892 54.7861 13.7487 54.9001 13.7487H60.4668C60.5808 13.7487 60.6901 13.7892 60.7706 13.8614C60.8512 13.9336 60.8965 14.0315 60.8965 14.1336V20.7483C60.9052 20.85 60.874 20.9512 60.8083 21.0345C60.7426 21.1178 60.6466 21.178 60.5367 21.2048C59.1094 21.6838 57.5933 21.9146 56.0694 21.8851C50.7826 21.8851 47.3746 18.7881 47.3746 14.4647C47.3324 13.4679 47.5233 12.4741 47.9349 11.5472C48.3465 10.6203 48.9699 9.78056 49.7649 9.08195C50.56 8.38334 51.5093 7.84122 52.5519 7.49034C53.5946 7.13947 54.7076 6.98758 55.8196 7.04441C57.3188 7.01367 58.812 7.22594 60.2269 7.67097C60.3353 7.69046 60.4307 7.74744 60.4925 7.82956C60.5542 7.91168 60.5773 8.0123 60.5567 8.10957C60.3538 8.43636 60.0362 8.69412 59.6532 8.84299C59.2702 8.99185 58.8431 9.02351 58.438 8.93306C57.6163 8.75882 56.7739 8.67466 55.9295 8.68243" fill="#2D2C7F"/>
<path d="M78.7258 8.97778C78.9083 9.45487 79.0552 9.94228 79.1656 10.4368C79.5145 11.6607 79.4867 12.9464 79.0851 14.1572C78.6835 15.3681 77.9231 16.4589 76.8847 17.3136C75.8462 18.1684 74.5686 18.7552 73.1877 19.0116C71.8067 19.2681 70.3739 19.1846 69.0416 18.7701C68.3984 18.6096 67.7729 18.3968 67.1728 18.1346C67.8505 19.2677 68.8595 20.2145 70.0918 20.8735C71.3241 21.5326 72.7333 21.8791 74.1686 21.8761H74.2485C75.9202 21.8575 77.5426 21.3659 78.8835 20.4716C80.2244 19.5774 81.2152 18.3262 81.7142 16.8971C82.2132 15.468 82.1948 13.9341 81.6616 12.515C81.1285 11.0958 80.1079 9.86396 78.7458 8.99569" fill="#D18B63"/>
<path d="M78.7258 8.9778C77.8663 4.2338 76.6171 1.97816 75.5677 0.707125C75.3529 0.450648 75.0805 0.237228 74.7682 0.0805587C74.6468 0.0275496 74.5135 0 74.3784 0C74.2166 0.00349184 74.0606 0.0544126 73.9342 0.144954C73.8079 0.235495 73.7181 0.360659 73.6788 0.501253C73.6288 0.628219 73.5986 0.760741 73.5889 0.895095C73.5356 2.03165 73.7462 3.16575 74.2072 4.22573C74.6682 5.28571 75.3697 6.24853 76.2673 7.05335C77.0432 7.74096 77.8642 8.38657 78.7258 8.98675" fill="#2D2C7F"/>
<path d="M68.3221 18.1794C68.3247 17.243 68.5338 16.3164 68.9375 15.4527C69.3413 14.589 69.9315 13.8052 70.6745 13.1465C71.4175 12.4877 72.2984 11.9669 73.2668 11.614C74.2352 11.2612 75.2719 11.0832 76.3173 11.0902C77.0155 11.0922 77.7106 11.1734 78.386 11.3319C77.4666 10.6248 75.9975 9.47012 75.5377 9.10313C72.7794 6.9191 72.7394 3.42823 72.7494 2.83746C72.5279 3.23736 72.2705 3.62053 71.9799 3.98318C70.4596 5.86125 69.0935 7.83564 67.8923 9.89081C65.4138 14.1246 66.1434 16.4161 67.2028 18.1436C67.5791 18.3102 67.9662 18.4567 68.3621 18.5822L68.3221 18.1794Z" fill="#2D2C7F"/>
<path d="M79.1256 25.8862C79.0999 25.8772 79.0713 25.8772 79.0456 25.8862H78.476C78.406 25.8862 78.386 25.8862 78.416 25.9667L79.2855 27.2467V28.0792C79.2855 28.0958 79.2929 28.1117 79.306 28.1235C79.3191 28.1352 79.3369 28.1418 79.3555 28.1418H79.9151C79.9337 28.1418 79.9515 28.1352 79.9646 28.1235C79.9777 28.1117 79.9851 28.0958 79.9851 28.0792V27.2467L80.8546 25.9667V25.8862H80.2749C80.264 25.8814 80.252 25.879 80.2399 25.879C80.2278 25.879 80.2158 25.8814 80.2049 25.8862L79.6853 26.6918L79.1256 25.8862ZM76.3273 28.0523C76.3273 28.0689 76.3346 28.0849 76.3478 28.0966C76.3609 28.1084 76.3787 28.115 76.3972 28.115H78.1062C78.1248 28.115 78.1426 28.1084 78.1557 28.0966C78.1688 28.0849 78.1762 28.0689 78.1762 28.0523V27.739C78.1762 27.7224 78.1688 27.7065 78.1557 27.6947C78.1426 27.683 78.1248 27.6764 78.1062 27.6764H77.0368V27.1841H78.0362C78.0548 27.1841 78.0726 27.1775 78.0857 27.1657C78.0988 27.154 78.1062 27.138 78.1062 27.1214V26.8081C78.1062 26.7915 78.0988 26.7756 78.0857 26.7638C78.0726 26.7521 78.0548 26.7455 78.0362 26.7455H77.0368V26.2979H78.0362C78.0541 26.296 78.0707 26.2888 78.0833 26.2775C78.096 26.2661 78.1041 26.2512 78.1062 26.2353V25.913C78.1038 25.898 78.0954 25.8843 78.0825 25.8744C78.0696 25.8645 78.0532 25.8592 78.0362 25.8593H76.3972C76.3803 25.8592 76.3639 25.8645 76.351 25.8744C76.3381 25.8843 76.3297 25.898 76.3273 25.913V28.0523ZM74.4484 25.913C74.446 25.898 74.4376 25.8843 74.4247 25.8744C74.4118 25.8645 74.3954 25.8592 74.3784 25.8593H73.8188C73.8018 25.8592 73.7854 25.8645 73.7725 25.8744C73.7597 25.8843 73.7512 25.898 73.7488 25.913V28.0523C73.7488 28.0689 73.7562 28.0849 73.7693 28.0966C73.7824 28.1084 73.8002 28.115 73.8188 28.115H74.3784C74.397 28.115 74.4148 28.1084 74.4279 28.0966C74.441 28.0849 74.4484 28.0689 74.4484 28.0523V26.9961L75.2679 28.0792C75.2905 28.0867 75.3153 28.0867 75.3379 28.0792H76.0374C76.0974 28.0792 76.1174 28.0255 76.0874 27.9807L75.188 26.8708L75.9475 25.922C75.9475 25.8683 75.9475 25.8235 75.8975 25.8235H75.2379C75.2269 25.8193 75.215 25.8172 75.2029 25.8172C75.1909 25.8172 75.179 25.8193 75.168 25.8235L74.4484 26.7186V25.913ZM72.6295 26.5665C72.6295 26.7634 72.4796 26.8529 72.2397 26.8529H71.9599V26.28H72.2397C72.4796 26.28 72.6295 26.3606 72.6295 26.5665ZM72.1798 27.3183L72.7194 28.0702C72.7336 28.0759 72.7489 28.0788 72.7644 28.0788C72.7799 28.0788 72.7952 28.0759 72.8094 28.0702H73.379C73.439 28.0702 73.459 28.0165 73.379 27.9718L72.7494 27.1751C72.9012 27.1293 73.0325 27.0411 73.1243 26.9235C73.216 26.8059 73.2632 26.6651 73.2591 26.5217C73.2591 26.0384 72.8194 25.8146 72.2597 25.8146H71.3503C71.3333 25.8144 71.3169 25.8198 71.304 25.8297C71.2911 25.8395 71.2827 25.8533 71.2803 25.8683V28.0076C71.2803 28.0242 71.2877 28.0401 71.3008 28.0519C71.3139 28.0636 71.3317 28.0702 71.3503 28.0702H71.8899C71.9085 28.0702 71.9263 28.0636 71.9394 28.0519C71.9525 28.0401 71.9599 28.0242 71.9599 28.0076V27.2736L72.1798 27.3183ZM69.6413 28.1508C69.7908 28.1703 69.9432 28.1592 70.0872 28.1183C70.2312 28.0774 70.363 28.0079 70.4726 27.9148C70.5823 27.8218 70.667 27.7077 70.7203 27.5811C70.7736 27.4546 70.7943 27.3188 70.7806 27.1841V25.913C70.7782 25.898 70.7698 25.8843 70.7569 25.8744C70.744 25.8645 70.7276 25.8592 70.7106 25.8593H70.151C70.134 25.8592 70.1176 25.8645 70.1047 25.8744C70.0919 25.8843 70.0834 25.898 70.081 25.913V27.1841C70.081 27.5242 69.9511 27.6943 69.6413 27.6943C69.3315 27.6943 69.2016 27.5242 69.2016 27.1841V25.913C69.1991 25.898 69.1907 25.8843 69.1778 25.8744C69.165 25.8645 69.1485 25.8592 69.1316 25.8593H68.5719C68.555 25.8592 68.5385 25.8645 68.5257 25.8744C68.5128 25.8843 68.5044 25.898 68.502 25.913V27.1841C68.4883 27.3188 68.5089 27.4546 68.5623 27.5811C68.6156 27.7077 68.7003 27.8218 68.8099 27.9148C68.9196 28.0079 69.0514 28.0774 69.1954 28.1183C69.3393 28.1592 69.4918 28.1703 69.6413 28.1508ZM66.833 28.0523C66.833 28.0689 66.8403 28.0849 66.8535 28.0966C66.8666 28.1084 66.8844 28.115 66.9029 28.115H67.4626C67.4811 28.115 67.4989 28.1084 67.5121 28.0966C67.5252 28.0849 67.5325 28.0689 67.5325 28.0523V26.3069H68.1622C68.1807 26.3069 68.1985 26.3003 68.2116 26.2885C68.2248 26.2768 68.2321 26.2608 68.2321 26.2442V25.913C68.2297 25.898 68.2213 25.8843 68.2084 25.8744C68.1956 25.8645 68.1791 25.8592 68.1622 25.8593H66.1634C66.1464 25.8592 66.13 25.8645 66.1171 25.8744C66.1043 25.8843 66.0958 25.898 66.0934 25.913V26.2442C66.0934 26.2608 66.1008 26.2768 66.1139 26.2885C66.127 26.3003 66.1448 26.3069 66.1634 26.3069H66.793L66.833 28.0523Z" fill="#2D2C7F"/>
<path d="M21.2903 18.1615C21.2745 18.1589 21.2583 18.1593 21.2427 18.1624C21.2271 18.1655 21.2123 18.1715 21.1992 18.1798C21.1862 18.1881 21.1751 18.1987 21.1668 18.211C21.1584 18.2232 21.1528 18.2368 21.1504 18.251L19.7612 21.7508C19.7612 21.8135 19.7612 21.8582 19.8512 21.8582H20.3808C20.4097 21.8612 20.4388 21.8547 20.4627 21.8398C20.4866 21.825 20.5037 21.8029 20.5108 21.7777L20.8106 20.9632H22.4596L22.7594 21.7777C22.7665 21.8029 22.7836 21.825 22.8075 21.8398C22.8314 21.8547 22.8605 21.8612 22.8893 21.8582H23.419C23.509 21.8582 23.529 21.8135 23.509 21.7508L22.1198 18.251C22.1174 18.2368 22.1118 18.2232 22.1034 18.211C22.095 18.1987 22.084 18.1881 22.071 18.1798C22.0579 18.1715 22.0431 18.1655 22.0275 18.1624C22.0118 18.1593 21.9957 18.1589 21.9799 18.1615H21.2903ZM21.6401 18.7881L22.2497 20.3992H21.0704L21.6401 18.7881ZM18.0722 21.7598C18.0722 21.7735 18.0753 21.7871 18.0814 21.7997C18.0876 21.8122 18.0966 21.8235 18.1079 21.8328C18.1192 21.842 18.1325 21.8491 18.147 21.8535C18.1615 21.8579 18.1769 21.8595 18.1922 21.8582H18.6619C18.691 21.8582 18.719 21.8479 18.7396 21.8294C18.7602 21.8109 18.7718 21.7859 18.7718 21.7598V18.6986H19.8811C19.8964 18.6998 19.9118 18.6982 19.9263 18.6938C19.9408 18.6894 19.9541 18.6824 19.9654 18.6731C19.9767 18.6638 19.9857 18.6525 19.9919 18.64C19.998 18.6274 20.0011 18.6138 20.0011 18.6001V18.26C20.0011 18.2462 19.998 18.2327 19.9919 18.2201C19.9857 18.2075 19.9767 18.1962 19.9654 18.187C19.9541 18.1777 19.9408 18.1707 19.9263 18.1663C19.9118 18.1619 19.8964 18.1603 19.8811 18.1615H16.9629C16.9489 18.1614 16.935 18.164 16.9222 18.1691C16.9094 18.1741 16.8979 18.1815 16.8884 18.1908C16.879 18.2001 16.8719 18.211 16.8675 18.223C16.8631 18.2349 16.8616 18.2475 16.863 18.26V18.6091C16.8616 18.6215 16.8631 18.6341 16.8675 18.6461C16.8719 18.658 16.879 18.6689 16.8884 18.6782C16.8979 18.6875 16.9094 18.6949 16.9222 18.7C16.935 18.705 16.9489 18.7076 16.9629 18.7075H18.0722V21.7598ZM15.7836 19.2625C15.7836 19.6474 15.4738 19.8264 14.9141 19.8264H14.2745V18.6986H14.9241C15.4838 18.6986 15.7936 18.8686 15.7936 19.2625M16.5032 19.2625C16.5032 18.5374 15.8236 18.1615 14.9641 18.1615H13.6849C13.6557 18.1615 13.6277 18.1719 13.6071 18.1903C13.5865 18.2088 13.5749 18.2339 13.5749 18.26V21.7598C13.5749 21.7859 13.5865 21.8109 13.6071 21.8294C13.6277 21.8479 13.6557 21.8582 13.6849 21.8582H14.1546C14.1847 21.8583 14.2138 21.8483 14.236 21.83C14.2583 21.8118 14.272 21.7867 14.2745 21.7598V20.3992H14.9641L15.9635 21.8224C15.9765 21.8427 15.9955 21.8593 16.0185 21.8704C16.0414 21.8814 16.0674 21.8865 16.0934 21.8851H16.6431C16.733 21.8851 16.763 21.8403 16.713 21.7777L15.6337 20.3097C15.8835 20.2499 16.1038 20.1169 16.2595 19.932C16.4153 19.7471 16.4975 19.5209 16.4932 19.2893M11.0764 21.3749C10.3469 21.3749 9.90713 20.8557 9.90713 20.0054C9.90713 19.1551 10.2969 18.6091 11.0764 18.6091C11.856 18.6091 12.2357 19.1282 12.2357 19.9696C12.2357 20.811 11.796 21.3391 11.0764 21.3391M11.0764 18.063C10.8087 18.0652 10.5444 18.1178 10.3008 18.2174C10.0572 18.3171 9.83976 18.4615 9.66256 18.6413C9.48536 18.8211 9.35238 19.0323 9.27227 19.2611C9.19216 19.49 9.1667 19.7314 9.19756 19.9696C9.16385 20.2078 9.18714 20.4497 9.2659 20.6793C9.34465 20.9088 9.47706 21.1207 9.65432 21.3008C9.83158 21.481 10.0496 21.6253 10.294 21.7241C10.5383 21.8229 10.8033 21.874 11.0714 21.874C11.3395 21.874 11.6046 21.8229 11.8489 21.7241C12.0932 21.6253 12.3113 21.481 12.4885 21.3008C12.6658 21.1207 12.7982 20.9088 12.877 20.6793C12.9557 20.4497 12.979 20.2078 12.9453 19.9696C12.9701 19.7349 12.9405 19.4981 12.8583 19.2742C12.7761 19.0503 12.643 18.844 12.4675 18.6683C12.292 18.4926 12.0778 18.3513 11.8384 18.2533C11.599 18.1553 11.3396 18.1027 11.0764 18.0988M8.42802 18.2868C8.04219 18.155 7.63159 18.0912 7.21874 18.0988C6.9263 18.0857 6.63396 18.1266 6.35985 18.2188C6.08574 18.311 5.83569 18.4526 5.62519 18.6349C5.41469 18.8172 5.24823 19.0363 5.13613 19.2786C5.02402 19.5208 4.96865 19.7811 4.97345 20.0434C4.97825 20.3056 5.04311 20.5641 5.16403 20.803C5.28494 21.0418 5.45933 21.2559 5.67639 21.4319C5.89344 21.6079 6.14854 21.7421 6.42588 21.8263C6.70322 21.9104 6.99689 21.9426 7.2887 21.9209C7.69748 21.9294 8.10437 21.8686 8.48798 21.7419C8.51432 21.7329 8.537 21.7169 8.55305 21.6962C8.5691 21.6754 8.57777 21.6508 8.57793 21.6255V19.8353C8.5795 19.8221 8.57774 19.8086 8.57277 19.796C8.5678 19.7835 8.55976 19.772 8.54922 19.7626C8.53867 19.7531 8.52591 19.7459 8.51186 19.7415C8.4978 19.737 8.48282 19.7355 8.46799 19.7369H6.85896C6.84414 19.7355 6.82915 19.737 6.8151 19.7415C6.80104 19.7459 6.78828 19.7531 6.77774 19.7626C6.7672 19.772 6.75915 19.7835 6.75418 19.796C6.74921 19.8086 6.74745 19.8221 6.74903 19.8353V20.1755C6.74903 20.2016 6.76061 20.2266 6.78122 20.2451C6.80184 20.2636 6.8298 20.2739 6.85896 20.2739H7.85836V21.2943C7.67605 21.3388 7.48762 21.3599 7.2987 21.357C7.09724 21.3629 6.89646 21.3332 6.70782 21.2695C6.51919 21.2059 6.34639 21.1096 6.1993 20.9862C6.05221 20.8628 5.9337 20.7146 5.85054 20.5502C5.76739 20.3857 5.72121 20.2082 5.71465 20.0278C5.70808 19.8473 5.74127 19.6675 5.8123 19.4986C5.88333 19.3296 5.99082 19.1749 6.12863 19.0431C6.26645 18.9114 6.43188 18.8052 6.61549 18.7308C6.7991 18.6563 6.9973 18.6149 7.19876 18.6091C7.56803 18.6131 7.93228 18.6863 8.26811 18.8239C8.34807 18.8239 8.39804 18.8239 8.40803 18.7702V18.3584C8.40803 18.2958 8.40803 18.2689 8.34807 18.251M3.66088 18.4927C3.63337 18.4926 3.60683 18.5017 3.58647 18.5183C3.56612 18.5349 3.55344 18.5577 3.55094 18.5822V21.7329C3.55344 21.7575 3.56612 21.7803 3.58647 21.7968C3.60683 21.8134 3.63337 21.8225 3.66088 21.8224H4.1306C4.15923 21.8228 4.18705 21.814 4.20905 21.7976C4.23104 21.7811 4.24576 21.7582 4.25052 21.7329V18.6091C4.24576 18.5838 4.23104 18.5608 4.20905 18.5444C4.18705 18.528 4.15923 18.5192 4.1306 18.5195L3.66088 18.4927ZM3.47099 17.5976C3.46167 17.6512 3.46542 17.706 3.48198 17.7582C3.49854 17.8104 3.52752 17.8587 3.56692 17.9C3.60633 17.9412 3.65523 17.9743 3.71026 17.9969C3.7653 18.0196 3.82516 18.0314 3.88574 18.0314C3.94633 18.0314 4.00619 18.0196 4.06122 17.9969C4.11626 17.9743 4.16516 17.9412 4.20457 17.9C4.24397 17.8587 4.27295 17.8104 4.28951 17.7582C4.30607 17.706 4.30981 17.6512 4.30049 17.5976C4.30981 17.544 4.30607 17.4892 4.28951 17.437C4.27295 17.3848 4.24397 17.3364 4.20457 17.2952C4.16516 17.254 4.11626 17.2209 4.06122 17.1982C4.00619 17.1756 3.94633 17.1638 3.88574 17.1638C3.82516 17.1638 3.7653 17.1756 3.71026 17.1982C3.65523 17.2209 3.60633 17.254 3.56692 17.2952C3.52752 17.3364 3.49854 17.3848 3.48198 17.437C3.46542 17.4892 3.46167 17.544 3.47099 17.5976ZM0.242929 21.7329C0.586886 21.8646 0.958338 21.9287 1.33228 21.9209C2.33168 21.9209 2.84137 21.536 2.84137 20.8557C2.84137 20.1755 2.47159 19.9606 1.57213 19.6742C1.03245 19.5131 0.852564 19.3251 0.852564 19.0655C0.852564 18.806 1.05244 18.6449 1.57213 18.6449C1.87322 18.6469 2.17132 18.6985 2.4516 18.797C2.52156 18.797 2.58153 18.797 2.58153 18.7344V18.3584C2.58616 18.3371 2.58279 18.315 2.57194 18.2956C2.5611 18.2762 2.54338 18.2605 2.52156 18.251C2.20094 18.1483 1.86267 18.0968 1.52216 18.0988C0.612707 18.0988 0.113007 18.4569 0.113007 19.0745C0.113007 19.6921 0.522761 19.9696 1.31229 20.2292C1.86196 20.3903 2.10181 20.5514 2.10181 20.8826C2.10181 21.2138 1.86196 21.3749 1.34227 21.3749C0.994311 21.3793 0.650675 21.3055 0.342869 21.1601C0.262917 21.1601 0.212947 21.1601 0.202953 21.2227V21.6166C0.20006 21.64 0.205202 21.6637 0.217697 21.6845C0.230192 21.7053 0.249448 21.7222 0.272911 21.7329" fill="#2D2C7F"/>
<path d="M12.0758 16.3982C12.0758 16.4243 12.0874 16.4493 12.108 16.4678C12.1286 16.4862 12.1566 16.4966 12.1858 16.4966H12.6555C12.6856 16.4967 12.7147 16.4866 12.7369 16.4684C12.7592 16.4501 12.7729 16.4251 12.7754 16.3982V14.8496H14.4544C14.4836 14.8496 14.5115 14.8393 14.5321 14.8208C14.5528 14.8023 14.5643 14.7773 14.5643 14.7512V14.411C14.5643 14.3849 14.5528 14.3599 14.5321 14.3414C14.5115 14.323 14.4836 14.3126 14.4544 14.3126H12.7354V13.3369H14.5543C14.5835 13.3369 14.6115 13.3266 14.6321 13.3081C14.6527 13.2896 14.6643 13.2646 14.6643 13.2385V12.8983C14.6643 12.8722 14.6527 12.8472 14.6321 12.8287C14.6115 12.8102 14.5835 12.7999 14.5543 12.7999H12.1458C12.1166 12.7999 12.0887 12.8102 12.0681 12.8287C12.0474 12.8472 12.0359 12.8722 12.0359 12.8983L12.0758 16.3982ZM8.74783 16.3982C8.74625 16.4114 8.74802 16.4248 8.75299 16.4374C8.75795 16.45 8.766 16.4615 8.77654 16.4709C8.78708 16.4803 8.79985 16.4875 8.8139 16.492C8.82795 16.4964 8.84294 16.498 8.85776 16.4966H11.4362C11.4654 16.4966 11.4933 16.4862 11.514 16.4678C11.5346 16.4493 11.5461 16.4243 11.5461 16.3982V16.058C11.5477 16.0447 11.546 16.0313 11.541 16.0187C11.536 16.0061 11.528 15.9947 11.5174 15.9853C11.5069 15.9758 11.4941 15.9686 11.4801 15.9642C11.466 15.9597 11.451 15.9581 11.4362 15.9596H9.43742V12.8983C9.43899 12.8851 9.43723 12.8716 9.43226 12.859C9.42729 12.8465 9.41924 12.835 9.4087 12.8256C9.39816 12.8161 9.3854 12.8089 9.37134 12.8045C9.35729 12.8 9.3423 12.7985 9.32748 12.7999H8.85776C8.84294 12.7985 8.82795 12.8 8.8139 12.8045C8.79985 12.8089 8.78708 12.8161 8.77654 12.8256C8.766 12.835 8.75795 12.8465 8.75299 12.859C8.74802 12.8716 8.74625 12.8851 8.74783 12.8983V16.3982ZM6.18936 16.5593C6.41447 16.5739 6.6404 16.5438 6.85097 16.471C7.06153 16.3982 7.25149 16.2846 7.40721 16.1383C7.56294 15.992 7.68056 15.8166 7.75166 15.6248C7.82275 15.4329 7.84553 15.2293 7.81839 15.0287V12.8983C7.81839 12.8722 7.8068 12.8472 7.78619 12.8287C7.76557 12.8102 7.73761 12.7999 7.70845 12.7999H7.23873C7.20958 12.7999 7.18162 12.8102 7.161 12.8287C7.14038 12.8472 7.1288 12.8722 7.1288 12.8983V15.0287C7.1288 15.6642 6.83897 16.0401 6.1294 16.0401C5.41983 16.0401 5.13 15.6642 5.13 15.0287V12.8983C5.13 12.8722 5.11842 12.8472 5.0978 12.8287C5.07718 12.8102 5.04922 12.7999 5.02006 12.7999H4.54035C4.51196 12.8019 4.4853 12.8129 4.46516 12.831C4.44502 12.849 4.4327 12.8729 4.43042 12.8983V15.0287C4.40582 15.2315 4.43182 15.4368 4.50655 15.6296C4.58128 15.8224 4.70288 15.9979 4.86256 16.1435C5.02224 16.2891 5.21603 16.4011 5.42992 16.4714C5.64382 16.5418 5.87249 16.5687 6.09942 16.5503M3.45101 12.9073C3.06674 12.7827 2.66032 12.7221 2.25173 12.7283C1.95923 12.7144 1.66667 12.7545 1.39218 12.8461C1.1177 12.9376 0.867144 13.0787 0.656048 13.2606C0.444951 13.4425 0.277815 13.6612 0.165 13.9033C0.0521847 14.1454 -0.00390426 14.4057 0.000211125 14.668C0.00432651 14.9303 0.068558 15.1891 0.188924 15.4282C0.309289 15.6674 0.483223 15.8819 0.699942 16.0583C0.916661 16.2348 1.17154 16.3696 1.44879 16.4542C1.72604 16.5388 2.01974 16.5715 2.31169 16.5503C2.72373 16.5588 3.1339 16.4981 3.52096 16.3713C3.5473 16.3623 3.56998 16.3463 3.58603 16.3256C3.60208 16.3048 3.61076 16.2802 3.61091 16.2549V14.4647C3.61097 14.451 3.60784 14.4374 3.6017 14.4249C3.59556 14.4123 3.58655 14.401 3.57526 14.3918C3.56397 14.3825 3.55064 14.3754 3.53613 14.371C3.52161 14.3667 3.50624 14.365 3.49098 14.3663H1.99188C1.97663 14.365 1.96125 14.3667 1.94674 14.371C1.93222 14.3754 1.91889 14.3825 1.9076 14.3918C1.89631 14.401 1.88731 14.4123 1.88117 14.4249C1.87503 14.4374 1.87189 14.451 1.87195 14.4647V14.8049C1.87447 14.8318 1.8882 14.8569 1.91043 14.8751C1.93265 14.8934 1.96173 14.9034 1.99188 14.9033H2.99128V15.9238C2.80575 15.9691 2.61389 15.9902 2.42162 15.9864C2.21174 16.0049 1.99985 15.9843 1.79927 15.9259C1.5987 15.8676 1.41378 15.7727 1.25613 15.6472C1.09848 15.5217 0.97152 15.3684 0.883222 15.1969C0.794925 15.0253 0.747202 14.8393 0.743054 14.6504C0.738906 14.4616 0.778422 14.274 0.859118 14.0995C0.939815 13.925 1.05995 13.7673 1.21196 13.6364C1.36398 13.5054 1.54459 13.4041 1.74245 13.3387C1.9403 13.2733 2.15112 13.2453 2.36166 13.2564C2.7308 13.2615 3.09482 13.3346 3.43102 13.4712C3.50098 13.4712 3.56094 13.4712 3.56094 13.4175V13.0057C3.56747 12.982 3.56393 12.957 3.551 12.9355C3.53807 12.914 3.51668 12.8975 3.49098 12.8894" fill="#2D2C7F"/>
</svg>