<?xml version="1.0" encoding="utf-8"?>
<svg xmlns="http://www.w3.org/2000/svg" fill="none" height="19" viewBox="0 0 58 19" width="58">
<path d="M15.2009 5.80917H6.36621V12.0301H15.2009V5.80917Z" fill="#E92429"/>
<path clip-rule="evenodd" d="M33.1601 4.31436H33.9496C34.688 4.29407 35.4235 4.40609 36.1129 4.64384C36.8023 4.88159 37.4317 5.24028 37.9642 5.69886C38.4967 6.15744 38.9215 6.70667 39.2138 7.31432C39.5061 7.92196 39.6599 8.57577 39.6662 9.23738C39.642 9.88328 39.474 10.5183 39.172 11.1053C38.8701 11.6922 38.4402 12.2192 37.9077 12.6553C37.3751 13.0914 36.7507 13.4278 36.071 13.6447C35.3913 13.8617 34.6701 13.9549 33.9496 13.9187H33.1601V4.31436ZM26.7739 0.152166H36.1083C38.7417 0.152048 41.2687 1.0828 43.1401 2.74211C45.0115 4.40143 46.076 6.65521 46.1023 9.01361C46.0844 11.3909 45.0289 13.6676 43.1613 15.357C41.2937 17.0464 38.7624 18.0144 36.1083 18.0541H26.7739V0.152166ZM50.8795 0H57.7454V18.0988H50.8795V0ZM14.0915 0H20.8475V18.0988H14.0915V0ZM0 0H6.70598V18.0988H0V0Z" fill="#278641" fill-rule="evenodd"/>
</svg>