<?xml version="1.0" encoding="utf-8"?>
<svg xmlns="http://www.w3.org/2000/svg" fill="none" height="18" viewBox="0 0 84 18" width="84">
<path d="M37.485 0.0179138L34.4362 2.86483V0.0179138H32.8369V7.97673L34.4362 7.96778V4.718L34.896 4.30619L37.475 7.96778H39.4242L36.0356 3.37512L39.6041 0.0179138H37.485Z" fill="#045198"/>
<path d="M43.7925 5.41629H42.9428C42.6744 5.39753 42.4076 5.46761 42.1931 5.61325C42.0405 5.72549 41.9383 5.88329 41.9052 6.05763C41.8722 6.23198 41.9105 6.41116 42.0132 6.56222C42.0622 6.63599 42.1289 6.69914 42.2084 6.74712C42.2879 6.7951 42.3782 6.82673 42.473 6.83975C42.6906 6.88029 42.9151 6.88029 43.1327 6.83975C43.3671 6.77774 43.5895 6.68416 43.7925 6.56222V5.41629ZM45.002 8.10206L44.5322 7.9051C44.4095 7.84325 44.301 7.76125 44.2123 7.66338C43.967 7.79454 43.7007 7.89116 43.4226 7.94986C43.1631 7.99981 42.8983 8.02383 42.6329 8.02148C42.2682 8.02873 41.9053 7.97405 41.5634 7.86034C41.2886 7.76963 41.0395 7.62599 40.8336 7.43957C40.6435 7.27323 40.5026 7.06708 40.4238 6.83975C40.3354 6.61554 40.2914 6.37922 40.2939 6.14145C40.295 5.89073 40.3458 5.64218 40.4438 5.40734C40.5476 5.16924 40.7001 4.95062 40.8936 4.76275C41.1032 4.5611 41.3589 4.40231 41.6433 4.29722C41.9918 4.18297 42.3621 4.13126 42.7329 4.14503H43.7925V3.76007C43.7991 3.63951 43.7716 3.51941 43.7125 3.41092C43.6617 3.3183 43.5862 3.23834 43.4926 3.17815C43.3968 3.12498 43.2922 3.0857 43.1827 3.06177C43.0665 3.04857 42.949 3.04857 42.8328 3.06177C42.5942 3.07431 42.3588 3.11649 42.1331 3.18711C41.8369 3.28479 41.5652 3.43386 41.3334 3.62578L40.5937 2.63205C40.8843 2.38705 41.2233 2.19274 41.5933 2.05908C42.0427 1.87953 42.5308 1.79089 43.0228 1.79946C43.3505 1.77855 43.6796 1.81692 43.9904 1.91228C44.3012 2.00763 44.5875 2.15803 44.832 2.35452C45.0424 2.55536 45.2056 2.79195 45.3121 3.05029C45.4185 3.30863 45.466 3.58347 45.4518 3.85855V6.74127C45.4568 6.84736 45.4875 6.95121 45.5418 7.04565C45.6585 7.21117 45.7997 7.36175 45.9616 7.49328L45.002 8.10206Z" fill="#045198"/>
<path d="M50.4498 3.07968H49.0304V6.32945C49.0231 6.38639 49.03 6.44406 49.0508 6.49827C49.0715 6.55248 49.1055 6.60185 49.1503 6.64279C49.2347 6.69704 49.3364 6.72531 49.4402 6.72337C49.5711 6.72453 49.7008 6.70009 49.8201 6.65174C49.9507 6.60863 50.0699 6.54155 50.1699 6.45479L50.3898 7.62757C50.2077 7.78239 49.9891 7.89864 49.7501 7.96777C49.4672 8.03857 49.1741 8.07175 48.8804 8.06625C48.7042 8.06505 48.5291 8.04092 48.3606 7.99463C48.1872 7.94975 48.0291 7.86665 47.9008 7.75291C47.7615 7.62458 47.6527 7.47231 47.581 7.30528C47.49 7.07546 47.446 6.83286 47.451 6.58908V3.07968H46.5314V1.88899H47.441V0.56401L49.0304 0V1.88899H50.7297L50.4498 3.07968Z" fill="#045198"/>
<path d="M53.2094 1.89795H51.6094V7.97673H53.2094V1.89795Z" fill="#045198"/>
<path d="M57.2571 7.84245C57.1485 7.89625 57.0348 7.9412 56.9172 7.97674C56.7965 8.01005 56.6727 8.03401 56.5474 8.04836H56.0976C55.9198 8.04545 55.744 8.01516 55.5778 7.95884C55.4014 7.89718 55.2438 7.79901 55.118 7.67236C54.9719 7.52831 54.8567 7.36139 54.7781 7.17997C54.6824 6.94503 54.6383 6.69577 54.6481 6.44586V0.00897217H56.2175V6.38319C56.2106 6.47948 56.2425 6.57478 56.3075 6.65177C56.3673 6.71726 56.4535 6.75906 56.5474 6.76815C56.6664 6.78247 56.7875 6.76697 56.8972 6.72339C57.0417 6.67 57.1765 6.59758 57.2971 6.50852L57.6369 7.62759C57.5183 7.70987 57.3911 7.78182 57.2571 7.84245Z" fill="#045198"/>
<path d="M60.1966 1.89795H58.5966V7.97673H60.1966V1.89795Z" fill="#045198"/>
<path d="M70.8017 7.97672H69.1923V3.8496C69.2128 3.61607 69.1302 3.38466 68.9624 3.20501C68.8746 3.13125 68.7706 3.0748 68.6569 3.03933C68.5433 3.00386 68.4226 2.99015 68.3027 2.9991H68.0428L67.7329 3.08863C67.6174 3.12532 67.5067 3.17336 67.403 3.23187C67.2914 3.28626 67.1873 3.35238 67.0931 3.42883C67.098 3.47648 67.098 3.52442 67.0931 3.57207V7.94987H65.5038V3.8496C65.5126 3.73303 65.492 3.61617 65.4436 3.50769C65.3951 3.39921 65.32 3.30189 65.2239 3.22292C65.0146 3.06613 64.7467 2.98617 64.4742 2.9991H64.2743L63.9844 3.08863L63.6645 3.24082C63.5626 3.29243 63.4685 3.35563 63.3846 3.42883V7.94987H61.7853V3.29454C61.7853 3.24082 61.7853 3.17816 61.7853 3.09758C61.7766 3.0129 61.7599 2.92903 61.7353 2.84691C61.7048 2.75284 61.6611 2.66261 61.6053 2.57834C61.5476 2.49221 61.469 2.41879 61.3754 2.36347L62.375 1.7547C62.5039 1.80257 62.6249 1.86581 62.7349 1.9427C62.8722 2.0276 62.9879 2.13741 63.0747 2.265C63.3047 2.12753 63.5491 2.01059 63.8045 1.91585C64.1192 1.79333 64.4614 1.73816 64.8041 1.7547C65.1436 1.75493 65.481 1.80327 65.8037 1.89794C66.0941 1.99109 66.3596 2.13744 66.5833 2.32766C66.8547 2.13585 67.163 1.9902 67.493 1.89794C67.8168 1.80753 68.1534 1.75929 68.4926 1.7547C69.1131 1.73024 69.7219 1.91197 70.2019 2.265C70.4306 2.44627 70.6098 2.67204 70.7259 2.925C70.842 3.17796 70.8918 3.45137 70.8716 3.72426L70.8017 7.97672Z" fill="#045198"/>
<path d="M38.2747 17.7171H32.8369V9.74933H38.3347L37.9348 11.0295H34.4362V12.9633H37.8249V14.2435H34.4362V16.419H38.5246L38.2747 17.7171Z" fill="#045198"/>
<path d="M48.7305 17.7171H47.1311V13.59C47.1426 13.4729 47.1282 13.3549 47.0888 13.2427C47.0493 13.1306 46.9856 13.0265 46.9012 12.9364C46.8102 12.8649 46.7039 12.8106 46.5888 12.7768C46.4737 12.7429 46.3522 12.7302 46.2315 12.7395H45.9816C45.8727 12.7624 45.7658 12.7923 45.6617 12.829C45.4301 12.9066 45.2166 13.0219 45.032 13.1692C45.037 13.2169 45.037 13.2648 45.032 13.3125V17.6903H43.4326V13.59C43.4414 13.4734 43.4209 13.3566 43.3724 13.2481C43.324 13.1396 43.2489 13.0423 43.1527 12.9633C42.9434 12.8065 42.6755 12.7266 42.403 12.7395H42.2031C42.1041 12.7626 42.0072 12.7926 41.9132 12.829L41.5834 12.9812C41.4804 13.0314 41.3861 13.0947 41.3035 13.1692V17.6455H39.7341V13.0976C39.7384 13.032 39.7384 12.9662 39.7341 12.9006C39.7227 12.8156 39.7026 12.7317 39.6741 12.65C39.6473 12.5562 39.607 12.4659 39.5542 12.3814C39.4954 12.293 39.413 12.2191 39.3143 12.1665L40.3139 11.5578C40.4382 11.6102 40.5584 11.67 40.6737 11.7368C40.8029 11.8305 40.9143 11.9424 41.0036 12.0681C41.2347 11.9324 41.4789 11.8155 41.7333 11.7189C42.0332 11.6047 42.3571 11.5498 42.6829 11.5578C43.0228 11.5544 43.3608 11.6029 43.6825 11.701C43.9751 11.79 44.2416 11.9369 44.4622 12.1307C44.7349 11.9407 45.0428 11.7952 45.3718 11.701C45.6947 11.607 46.032 11.5587 46.3714 11.5578C46.992 11.5333 47.6007 11.715 48.0808 12.0681C48.3003 12.2472 48.4726 12.4679 48.585 12.7141C48.6973 12.9604 48.7471 13.2259 48.7305 13.4915V17.7171Z" fill="#045198"/>
<path d="M53.4287 13.1692C53.3784 13.0763 53.3069 12.994 53.2187 12.9275C53.1286 12.867 53.027 12.8215 52.9189 12.7932C52.8193 12.7817 52.7185 12.7817 52.619 12.7932C52.3436 12.7815 52.0731 12.8612 51.8593 13.017C51.7625 13.0959 51.6863 13.193 51.6362 13.3014C51.586 13.4097 51.5633 13.5266 51.5694 13.6437V13.957H53.5186V13.5631C53.5221 13.4418 53.4912 13.3217 53.4287 13.214M54.5882 17.3769C54.2055 17.5856 53.7811 17.7255 53.3387 17.7887C53.0879 17.829 52.8338 17.8499 52.579 17.8514C52.2236 17.8545 51.8697 17.8092 51.5294 17.7171C51.2267 17.6403 50.9444 17.5093 50.6997 17.3322C50.4666 17.1612 50.2817 16.9434 50.16 16.6965C50.0247 16.414 49.9599 16.1085 49.97 15.8013V13.7332C49.9583 13.396 50.0265 13.0604 50.17 12.7484C50.2919 12.4817 50.4839 12.2452 50.7297 12.0591C50.9723 11.87 51.2593 11.7323 51.5694 11.6562C51.8936 11.5685 52.2303 11.5233 52.569 11.5219C52.8874 11.5215 53.2042 11.5637 53.5086 11.6473C53.8068 11.7144 54.0837 11.8422 54.3177 12.0208C54.5518 12.1993 54.7367 12.4238 54.8581 12.6768C55.0071 12.9875 55.0787 13.3236 55.068 13.6616V15.1477H51.5694V15.5416C51.5573 15.6788 51.5778 15.8168 51.6295 15.9464C51.6812 16.076 51.7629 16.1943 51.8693 16.2937C52.0955 16.4627 52.3847 16.549 52.679 16.5354C52.9686 16.5337 53.2558 16.4883 53.5286 16.4011C53.8897 16.2791 54.2271 16.1069 54.5282 15.8908L55.2179 17.0009C55.018 17.1262 54.8181 17.2337 54.6382 17.3322" fill="#045198"/>
<path d="M60.5957 17.7171L58.1667 14.9866L57.9768 15.1477L57.9568 17.7171H56.4074V9.7583H57.9868V13.4915L60.2359 11.6204H62.425L59.3063 14.1092L62.5949 17.7171H60.5957Z" fill="#045198"/>
<path d="M65.9736 17.5739C65.8607 17.6261 65.7438 17.671 65.6237 17.7081C65.5029 17.7394 65.3791 17.7604 65.2539 17.7708C65.1041 17.7809 64.9538 17.7809 64.804 17.7708C64.6264 17.767 64.4508 17.7368 64.2842 17.6813C64.1092 17.6174 63.9522 17.5195 63.8244 17.3948C63.6783 17.2508 63.5631 17.0838 63.4846 16.9024C63.3889 16.6675 63.3448 16.4182 63.3546 16.1683V9.74933H64.924V16.1235C64.9194 16.172 64.9259 16.2209 64.9431 16.2671C64.9603 16.3132 64.9878 16.3558 65.024 16.3921C65.0514 16.4266 65.0873 16.4551 65.1288 16.4752C65.1704 16.4954 65.2166 16.5068 65.2639 16.5085C65.3795 16.5184 65.4961 16.503 65.6037 16.4637C65.7482 16.4104 65.883 16.3379 66.0036 16.2489L66.3534 17.3679C66.2317 17.4463 66.1049 17.518 65.9736 17.5828" fill="#045198"/>
<path d="M68.8931 17.7171H67.3031V11.6204H68.8931V17.7171ZM68.8131 10.4656C68.7197 10.5485 68.6089 10.6142 68.487 10.6587C68.3652 10.7033 68.2347 10.7259 68.1031 10.7252C67.8408 10.7242 67.5894 10.6309 67.4031 10.4656C67.3104 10.3819 67.2371 10.2827 67.1874 10.1736C67.1376 10.0645 67.1124 9.94774 67.1131 9.82992C67.1096 9.71309 67.1336 9.59691 67.1836 9.48894C67.2336 9.38097 67.3084 9.28363 67.4031 9.20324C67.5894 9.03785 67.8408 8.94461 68.1031 8.94362C68.2347 8.94294 68.3652 8.96552 68.487 9.01007C68.6089 9.05462 68.7197 9.12027 68.8131 9.20324C68.9979 9.36999 69.102 9.59506 69.1031 9.82992C69.1039 9.94774 69.0787 10.0645 69.0289 10.1736C68.9791 10.2827 68.9058 10.3819 68.8131 10.4656Z" fill="#045198"/>
<path d="M72.9508 17.5739C72.8423 17.6277 72.7285 17.6726 72.611 17.7081C72.4901 17.7394 72.3663 17.7604 72.2411 17.7708C72.0913 17.7803 71.941 17.7803 71.7913 17.7708C71.6136 17.7679 71.4377 17.7376 71.2715 17.6813C71.0965 17.6174 70.9394 17.5195 70.8117 17.3948C70.6656 17.2508 70.5504 17.0838 70.4718 16.9024C70.3761 16.6675 70.332 16.4182 70.3419 16.1683V9.74933H71.9112V16.1235C71.9043 16.2198 71.9363 16.3151 72.0012 16.3921C72.0291 16.4262 72.0651 16.4543 72.1066 16.4744C72.1481 16.4945 72.194 16.5061 72.2411 16.5085C72.36 16.5191 72.4801 16.5038 72.591 16.4637C72.7354 16.4104 72.8702 16.3379 72.9908 16.2489L73.3307 17.3679C73.212 17.4502 73.0848 17.5222 72.9508 17.5828" fill="#045198"/>
<path d="M75.8703 17.7171H74.2903V11.6204H75.8703V17.7171ZM75.7903 10.4656C75.6041 10.6309 75.3527 10.7242 75.0903 10.7252C74.8251 10.7252 74.5708 10.6309 74.3832 10.463C74.1957 10.2951 74.0903 10.0674 74.0903 9.82992C74.0914 9.59506 74.1956 9.36999 74.3803 9.20324C74.4738 9.12027 74.5846 9.05462 74.7064 9.01007C74.8283 8.96552 74.9587 8.94294 75.0903 8.94362C75.3527 8.94461 75.6041 9.03785 75.7903 9.20324C75.8851 9.28363 75.9599 9.38097 76.0098 9.48894C76.0598 9.59691 76.0838 9.71309 76.0803 9.82992C76.0811 9.94774 76.0559 10.0645 76.0061 10.1736C75.9563 10.2827 75.883 10.3819 75.7903 10.4656Z" fill="#045198"/>
<path d="M77.329 9.7583V17.7171H78.8684L78.8884 15.1477L79.0783 14.9866L81.5074 17.7171H83.5066L80.2179 14.1092L83.3466 11.6204H81.1475L78.8984 13.4915V9.7583H77.329Z" fill="#045198"/>
<mask height="15" id="mask0_744_36555" maskUnits="userSpaceOnUse" style="mask-type:luminance" width="31" x="0" y="3">
<path d="M1.60936 15.9803L0 17.7708H14.1443L7.7469 14.7986C6.88655 14.3512 5.92113 14.0906 4.92803 14.0376C3.36865 14.0376 2.53898 14.9955 1.64934 15.9803M22.471 14.7986L16.0236 17.7619H30.1679L28.5586 15.9714C27.6689 14.9866 26.8393 14.0287 25.2899 14.0287C24.2963 14.0793 23.3303 14.3401 22.471 14.7896M6.67733 9.29277L1.67933 11.9785H4.17833C5.1767 12.0012 6.1446 12.2912 6.95722 12.8111L14.4542 17.1083L10.016 9.9463C9.80923 9.63629 9.5165 9.37942 9.16622 9.20059C8.81593 9.02177 8.41998 8.92708 8.01679 8.92571C7.55457 8.92599 7.10141 9.04062 6.70732 9.25695M20.1919 9.9463L15.7437 17.1262L23.2407 12.829C24.0505 12.3108 25.0147 12.0209 26.0096 11.9964H28.5186L23.5206 9.31067C23.1276 9.09214 22.6737 8.97733 22.2111 8.97943C21.8075 8.97904 21.4108 9.07298 21.0602 9.25197C20.7096 9.43097 20.4172 9.68881 20.2119 10M15.1239 3.67952C14.5503 3.67834 13.982 3.77837 13.4515 3.97389C12.921 4.16941 12.4388 4.4566 12.0322 4.81906C11.6256 5.18151 11.3028 5.61214 11.082 6.08635C10.8613 6.56056 10.747 7.06906 10.7457 7.58283C10.7457 8.93466 12.435 11.5399 13.7445 13.3125V7.56492C13.7445 7.23489 13.8909 6.91837 14.1515 6.685C14.412 6.45163 14.7654 6.32052 15.1339 6.32052C15.5024 6.32052 15.8559 6.45163 16.1164 6.685C16.377 6.91837 16.5234 7.23489 16.5234 7.56492C16.5263 7.71796 16.4957 7.87003 16.4334 8.01255L14.1443 13.8675C14.7241 14.6553 15.1439 15.1746 15.1439 15.1746C15.1439 15.1746 19.5222 9.74935 19.5222 7.58283C19.5222 7.06906 19.4092 6.56033 19.1897 6.08567C18.9702 5.61101 18.6484 5.17973 18.2428 4.81644C17.8371 4.45315 17.3556 4.16498 16.8256 3.96837C16.2956 3.77176 15.7276 3.67056 15.1539 3.67056L15.1239 3.67952Z" fill="white"/>
</mask>
<g mask="url(#mask0_744_36555)">
<path d="M30.1679 3.67056H0V17.7619H30.1679V3.67056Z" fill="url(#paint0_linear_744_36555)"/>
</g>
<defs>
<linearGradient gradientUnits="userSpaceOnUse" id="paint0_linear_744_36555" x1="-15.8526" x2="20.2552" y1="5.40118" y2="5.40118">
<stop stop-color="#045198"/>
<stop offset="0.23" stop-color="#07579D"/>
<stop offset="0.53" stop-color="#0F68AC"/>
<stop offset="0.88" stop-color="#1C85C5"/>
<stop offset="1" stop-color="#2190CF"/>
</linearGradient>
</defs>
</svg>