<?xml version="1.0" encoding="utf-8"?>
<svg xmlns="http://www.w3.org/2000/svg" fill="none" height="15" viewBox="0 0 77 15" width="77">
<path clip-rule="evenodd" d="M12.7424 6.99069V1.46796H14.3814V3.72359H14.4014L16.2603 1.46796H18.2391L15.9604 4.04583L18.409 6.99069H16.3202L14.4014 4.48443H14.3814V6.99069H12.7424Z" fill="#332F82" fill-rule="evenodd"/>
<path clip-rule="evenodd" d="M19.6483 4.23381C19.627 4.64578 19.7343 5.05492 19.9581 5.41534C20.0586 5.57319 20.2041 5.70437 20.3796 5.79556C20.5552 5.88675 20.7545 5.93468 20.9575 5.93449C21.1608 5.93656 21.361 5.88942 21.5369 5.79804C21.7128 5.70666 21.8579 5.57444 21.9569 5.41534C22.1842 5.05582 22.2949 4.64663 22.2767 4.23381C22.2973 3.81224 22.1866 3.39384 21.9569 3.02543C21.8538 2.87091 21.7072 2.74331 21.5319 2.65535C21.3565 2.5674 21.1584 2.52217 20.9575 2.52418C20.7567 2.52306 20.559 2.56867 20.3838 2.65654C20.2086 2.74441 20.0619 2.87152 19.9581 3.02543C19.7323 3.39491 19.6251 3.81313 19.6483 4.23381ZM18.0092 4.23381C17.9557 3.49203 18.2324 2.76145 18.7788 2.20195C19.0694 1.94583 19.4176 1.74795 19.8 1.62142C20.1825 1.49488 20.5907 1.44258 20.9974 1.46797C21.4042 1.44258 21.8124 1.49488 22.1948 1.62142C22.5773 1.74795 22.9254 1.94583 23.2161 2.20195C23.7587 2.7634 24.0349 3.49255 23.9857 4.23381C24.0366 4.9683 23.7639 5.6914 23.2261 6.24778C22.9308 6.5012 22.5808 6.69783 22.1975 6.8256C21.8143 6.95336 21.4059 7.00955 20.9974 6.9907C20.5909 7.01439 20.1832 6.96128 19.801 6.83484C19.4188 6.7084 19.0706 6.51144 18.7788 6.25673C18.2358 5.69899 17.9594 4.97243 18.0092 4.23381Z" fill="#332F82" fill-rule="evenodd"/>
<path clip-rule="evenodd" d="M26.4242 2.51523V3.75941H26.8639C27.1341 3.76916 27.4042 3.73891 27.6634 3.6699C27.7896 3.63049 27.8974 3.5545 27.9698 3.45396C28.0422 3.35342 28.0751 3.23411 28.0632 3.11494C28.0632 2.71215 27.6634 2.50628 26.8639 2.50628L26.4242 2.51523ZM24.7852 6.9907V1.46797H27.7134C28.2113 1.44629 28.7042 1.56527 29.1226 1.8081C29.311 1.92591 29.463 2.08459 29.5644 2.2693C29.6657 2.45401 29.7132 2.65873 29.7022 2.86431C29.7402 3.18664 29.6393 3.50979 29.4201 3.76769C29.2009 4.02558 28.8799 4.19872 28.5229 4.25171C28.637 4.28062 28.7431 4.33059 28.8343 4.39842C28.9255 4.46625 28.9999 4.55043 29.0526 4.64555C29.0526 4.69926 29.1925 4.97674 29.3924 5.46904L29.992 6.9728H28.2831L27.9333 5.97924C27.8241 5.64512 27.6517 5.33025 27.4236 5.04835C27.34 4.96495 27.2362 4.89981 27.1201 4.85791C27.004 4.81602 26.8788 4.79849 26.754 4.80667H26.4242V6.9907H24.7852Z" fill="#332F82" fill-rule="evenodd"/>
<path clip-rule="evenodd" d="M35.7786 1.46796V4.79771C35.8 5.10588 35.7427 5.41437 35.6111 5.69975C35.4795 5.98513 35.277 6.23989 35.019 6.44468C34.4417 6.78876 33.7637 6.97233 33.0702 6.97233C32.3767 6.97233 31.6987 6.78876 31.1214 6.44468C30.8753 6.23402 30.6849 5.97687 30.5639 5.69196C30.4428 5.40705 30.3943 5.10155 30.4218 4.79771V1.46796H32.0608V4.55603C32.0608 5.45113 32.4106 5.89867 33.1202 5.89867C33.8297 5.89867 34.1795 5.45113 34.1795 4.55603V1.46796H35.7786Z" fill="#332F82" fill-rule="evenodd"/>
<path d="M47.6914 11.9227C47.5837 12.0159 47.4539 12.0863 47.3117 12.1285C46.9219 12.1285 46.732 11.9048 46.732 11.4572C46.7469 11.3073 46.7839 11.1599 46.8419 11.0186C46.9018 10.8578 46.9486 10.6932 46.9818 10.5263C46.7612 10.7237 46.5543 10.9329 46.3622 11.1529C46.0924 11.4572 45.9325 11.6004 45.8925 11.6004C45.8525 11.6004 45.8325 11.6004 45.7926 11.6004C45.7526 11.6004 45.6127 11.5378 45.6127 11.4125L45.8425 10.8575L46.2123 9.96242C46.3222 9.68494 46.4422 9.3448 46.6021 8.94201C46.6021 8.8346 46.652 8.72719 46.672 8.61082C46.6862 8.55483 46.7221 8.50517 46.7733 8.47073C46.8246 8.43629 46.8879 8.41932 46.9519 8.42285C47.0418 8.42285 47.0818 8.47656 47.0818 8.60187C47.0818 8.72719 46.9519 8.96886 46.702 9.58648C46.4522 10.2041 46.2823 10.6427 46.2523 10.768C46.4022 10.6069 46.5421 10.4547 46.702 10.3026C47.0118 9.99822 47.2217 9.84605 47.3216 9.84605C47.4216 9.84605 47.4915 9.91766 47.4915 10.0788C47.4915 10.0788 47.4216 10.3115 47.2817 10.7053C47.1884 10.9448 47.1149 11.1902 47.0618 11.4393C47.0618 11.6183 47.1617 11.7616 47.2817 11.7616C47.4251 11.7514 47.5614 11.7013 47.6714 11.6183C47.7544 11.5491 47.8533 11.4972 47.9613 11.4662C48.0212 11.4662 48.0412 11.493 48.0212 11.5467C47.9558 11.6988 47.8409 11.8297 47.6914 11.9227Z" fill="#332F82"/>
<path d="M49.4104 11.0007C49.1416 11.2418 48.789 11.3933 48.411 11.4304C48.4159 11.488 48.4356 11.5438 48.4686 11.5935C48.5015 11.6431 48.5468 11.6853 48.6009 11.7168C48.6791 11.7697 48.7729 11.8008 48.8707 11.8063C49.0408 11.79 49.2064 11.7477 49.3604 11.681C49.4878 11.6424 49.6115 11.5945 49.7302 11.5378C49.7558 11.5346 49.7819 11.5369 49.8063 11.5447C49.8307 11.5525 49.8526 11.5655 49.8701 11.5826C49.7347 11.7119 49.5716 11.8154 49.3904 11.8869C49.2133 11.9921 49.0115 12.0594 48.8007 12.0838C48.7002 12.0853 48.6006 12.0668 48.509 12.0297C48.4174 11.9925 48.3361 11.9377 48.2711 11.869C48.1549 11.7389 48.0883 11.5789 48.0812 11.4125C48.1268 11.0731 48.2994 10.7576 48.5709 10.5174C48.6852 10.3708 48.8338 10.2485 49.0065 10.1588C49.1791 10.0691 49.3715 10.0143 49.5703 9.99823C49.6188 10.0005 49.6662 10.0121 49.7093 10.0321C49.7524 10.0522 49.7902 10.0803 49.8201 10.1146C49.8561 10.1426 49.8853 10.1769 49.9059 10.2154C49.9265 10.2539 49.9381 10.2957 49.9401 10.3384C49.9401 10.4995 49.7602 10.7322 49.4104 11.0007ZM49.4903 10.3473C49.2709 10.3719 49.0704 10.4713 48.9307 10.6248C48.7796 10.7483 48.6573 10.8974 48.5709 11.0634C48.6822 11.062 48.7917 11.0375 48.8907 10.9918L49.1905 10.8038C49.3531 10.693 49.4833 10.5487 49.5703 10.3831C49.5498 10.3624 49.5211 10.3496 49.4903 10.3473Z" fill="#332F82"/>
<path d="M52.0588 11.3946C51.739 11.7258 51.4591 11.9137 51.2293 11.9227C50.9994 11.9316 50.9394 11.869 50.9294 11.7079C50.9306 11.6416 50.9513 11.5767 50.9894 11.5199C51.0057 11.489 51.031 11.4628 51.0627 11.4438C51.0944 11.4249 51.1313 11.4141 51.1693 11.4125C51.1693 11.4125 51.2393 11.4125 51.2493 11.4751C51.2438 11.5018 51.2438 11.5291 51.2493 11.5557C51.4092 11.5557 51.599 11.3946 51.8189 11.1081C51.9813 10.9186 52.0816 10.6924 52.1087 10.4547C52.1087 10.3835 52.0771 10.3152 52.0209 10.2648C51.9647 10.2145 51.8884 10.1862 51.8089 10.1862C51.5691 10.1862 51.3192 10.41 51.0694 10.8128C50.8438 11.1784 50.6565 11.562 50.5097 11.9585C50.4177 12.1899 50.3409 12.4261 50.2798 12.6656C50.261 12.7782 50.2309 12.889 50.1899 12.9968C50.1199 13.1937 50.0899 13.3011 50.08 13.319L49.95 13.3727C49.8901 13.3727 49.8201 13.319 49.7302 13.2116C49.7477 13.014 49.8017 12.8205 49.8901 12.6387C50 12.3702 50.0999 12.1106 50.1999 11.8421L50.5597 10.8307C50.7196 10.3831 50.8395 10.1683 50.9095 10.1593H51.0094C51.0893 10.1593 51.1393 10.2309 51.1393 10.3742C51.2205 10.2335 51.3419 10.1146 51.4912 10.0297C51.6404 9.94481 51.8121 9.89687 51.9888 9.89081C52.0607 9.89535 52.1299 9.91677 52.1895 9.95291C52.2492 9.98906 52.2972 10.0386 52.3286 10.0967C52.4104 10.219 52.4584 10.3571 52.4685 10.4995C52.4537 10.8317 52.3086 11.1486 52.0588 11.3946Z" fill="#332F82"/>
<path d="M56.9159 10.4458L56.5261 10.8307C56.3663 11.2208 56.2295 11.6181 56.1164 12.0211C55.9369 12.6607 55.6324 13.2668 55.2169 13.8113C54.9892 14.1114 54.6651 14.3424 54.2875 14.4737C54.1237 14.5256 53.9515 14.5529 53.7778 14.5543C53.5898 14.5605 53.4025 14.5291 53.2297 14.4626C53.0568 14.396 52.9027 14.2958 52.7784 14.1694C52.6513 14.0506 52.5522 13.9102 52.4869 13.7564C52.4217 13.6026 52.3916 13.4386 52.3986 13.2743C52.3782 13.0695 52.4098 12.8632 52.4912 12.671C52.5725 12.4788 52.7015 12.3055 52.8683 12.1643C52.9383 12.1017 52.9782 12.0659 52.9982 12.0659H53.0882C53.043 12.2354 52.9462 12.3904 52.8084 12.5134C52.8243 12.6144 52.8243 12.7168 52.8084 12.8178C52.7782 12.9262 52.7614 13.0372 52.7584 13.149C52.7438 13.4047 52.8096 13.659 52.9483 13.8829C53.0317 13.9981 53.1479 14.0912 53.285 14.1525C53.422 14.2139 53.5749 14.2414 53.7278 14.232C54.3874 14.232 54.9471 13.8203 55.3968 13.0147C55.6864 12.4763 55.9012 11.9082 56.0364 11.323L55.5867 11.672C55.2969 11.9137 55.117 12.0301 55.057 12.0301C54.9806 12.0177 54.9125 11.9792 54.8671 11.9227C54.8111 11.878 54.7725 11.8184 54.7572 11.7526C54.7914 11.4832 54.8903 11.2237 55.047 10.9918C55.1797 10.7956 55.2839 10.5851 55.3568 10.3652C55.4066 10.3593 55.457 10.3593 55.5067 10.3652C55.5067 10.3652 55.6067 10.3652 55.6566 10.4726C55.6908 10.5146 55.7115 10.5641 55.7166 10.6158C55.7166 10.6158 55.6267 10.7232 55.4568 10.9649C55.318 11.1368 55.2288 11.3366 55.1969 11.5467C55.319 11.4871 55.433 11.415 55.5367 11.3319L55.8166 11.0992L56.2863 10.7143C56.3762 10.5353 56.4662 10.3563 56.5661 10.1772C56.776 9.82815 56.9759 9.65808 57.1657 9.65808C57.3556 9.65808 57.2657 9.70284 57.3057 9.8013C57.3175 9.85146 57.3175 9.9033 57.3057 9.95346C57.2957 10.0251 57.1657 10.1862 56.9159 10.4458Z" fill="#332F82"/>
<path d="M60.2739 11.3498C60.2739 11.493 60.104 11.6452 59.8441 11.8153C59.6719 11.9511 59.4608 12.041 59.2345 12.0748H59.1346C59.0403 12.0647 58.9525 12.027 58.8847 11.9674C58.8249 11.9192 58.7712 11.8652 58.7248 11.8063C58.6578 11.6802 58.6203 11.5431 58.6149 11.4035C58.61 11.3559 58.61 11.308 58.6149 11.2603L58.1052 11.6631C57.9475 11.7966 57.7422 11.8759 57.5255 11.8869C57.4656 11.8869 57.4056 11.8421 57.3456 11.7347C57.2945 11.6717 57.2634 11.5975 57.2557 11.5199C57.3248 11.1737 57.5219 10.8584 57.8153 10.6248C58.1951 10.2578 58.4949 10.0788 58.7048 10.0788C58.9147 10.0788 58.8647 10.1862 58.9147 10.2578L58.9946 10.1056C59.0479 10.0161 59.0979 9.97137 59.1445 9.97137C59.2198 9.98064 59.288 10.016 59.3344 10.0698C59.3606 10.1456 59.3606 10.2268 59.3344 10.3026C59.2643 10.3863 59.204 10.4762 59.1545 10.5711C59.1035 10.7002 59.0601 10.8317 59.0246 10.9649C59.0246 11.1171 58.9647 11.2066 58.9647 11.2424C58.9635 11.3521 58.9945 11.4601 59.0546 11.5557C59.0765 11.6093 59.1158 11.6559 59.1674 11.6894C59.2191 11.7229 59.2807 11.7418 59.3444 11.7437C59.4971 11.7279 59.6422 11.6753 59.7642 11.5915L60.2139 11.3319L60.2739 11.3498ZM58.5849 10.5263C58.4765 10.5504 58.3789 10.6035 58.305 10.6785L58.0752 10.8665C57.9685 10.9516 57.8774 11.0513 57.8053 11.1619C57.7299 11.256 57.6756 11.3624 57.6454 11.4751C57.6454 11.4751 57.6954 11.5199 57.7354 11.5199C57.7754 11.5199 57.9453 11.4125 58.2151 11.2066C58.3594 11.0976 58.4931 10.9778 58.6149 10.8486C58.6778 10.7666 58.7251 10.6759 58.7548 10.58C58.7548 10.58 58.6249 10.5263 58.5849 10.5263Z" fill="#332F82"/>
<path d="M61.2733 11.0813C61.3333 10.8844 61.3532 10.7949 61.3532 10.8038L60.9335 11.2156C60.7817 11.3701 60.6478 11.5381 60.5337 11.7168C60.5337 11.7168 60.3738 11.7705 60.3338 11.7705C60.3075 11.7685 60.282 11.7609 60.2594 11.7485C60.2368 11.7361 60.2179 11.7191 60.2039 11.6989C60.2039 11.6452 60.134 11.6183 60.134 11.6004C60.134 11.5825 60.134 11.4125 60.2739 11.0813C60.4138 10.7501 60.4438 10.4995 60.5037 10.3115C60.5285 10.276 60.5622 10.2462 60.6021 10.2245C60.642 10.2027 60.687 10.1896 60.7336 10.1862H60.8236L60.9035 10.2309C60.9019 10.3479 60.8748 10.4635 60.8236 10.5711C60.77 10.6741 60.7298 10.7822 60.7036 10.8933C60.6983 10.9079 60.6983 10.9235 60.7036 10.9381C60.8298 10.8233 60.9467 10.7007 61.0534 10.5711C61.1596 10.4439 61.2765 10.3242 61.4032 10.213C61.4971 10.1231 61.6258 10.0687 61.763 10.0609C61.8429 10.0609 61.8829 10.1146 61.8829 10.2399C61.8584 10.447 61.7977 10.6494 61.703 10.8396C61.6131 11.022 61.5525 11.2149 61.5231 11.4125C61.5231 11.5915 61.5931 11.681 61.743 11.681C61.9384 11.6248 62.1236 11.5434 62.2927 11.4393C62.2927 11.4393 62.3526 11.4393 62.2927 11.502C62.2112 11.6222 62.1063 11.7283 61.9829 11.8153C61.8846 11.9012 61.7588 11.9575 61.6231 11.9764C61.3233 11.9764 61.1634 11.7974 61.1334 11.4393C61.1577 11.3139 61.2049 11.1929 61.2733 11.0813Z" fill="#332F82"/>
<path d="M63.8125 11.5825C63.5425 11.8063 63.3625 11.9227 63.2825 11.9227H63.0225C62.9591 11.9198 62.8975 11.9027 62.8433 11.873C62.7891 11.8433 62.7442 11.8019 62.7125 11.7526C62.6224 11.6604 62.5696 11.5437 62.5625 11.4214C62.6009 11.1748 62.6855 10.9358 62.8125 10.7143C62.9925 10.3562 63.1125 10.1683 63.1925 10.1683C63.2548 10.1719 63.3143 10.1928 63.3627 10.2281C63.4111 10.2634 63.446 10.3113 63.4625 10.3652L63.1325 10.9112C63.0183 11.0698 62.9496 11.2512 62.9325 11.4393C62.9276 11.466 62.9276 11.4932 62.9325 11.5199C62.9562 11.5461 62.987 11.5665 63.022 11.5791C63.0571 11.5916 63.0951 11.5959 63.1325 11.5915C63.3474 11.5584 63.5461 11.4679 63.7025 11.3319C63.8582 11.2141 64.0255 11.1092 64.2025 11.0186C64.2084 11.0392 64.2084 11.0607 64.2025 11.0813C64.2225 11.1946 64.0925 11.3617 63.8125 11.5825Z" fill="#332F82"/>
<path d="M65.4008 11.0813C65.4608 10.8844 65.4908 10.7948 65.4908 10.8038C65.3414 10.9331 65.2012 11.0706 65.071 11.2155C64.9167 11.3704 64.7795 11.5383 64.6613 11.7168C64.6613 11.7168 64.4714 11.8153 64.4014 11.8153C64.3737 11.8132 64.3467 11.8058 64.3226 11.7934C64.2984 11.781 64.2775 11.764 64.2615 11.7436C64.2615 11.6899 64.2015 11.6631 64.2015 11.6452C64.2015 11.6273 64.2015 11.4572 64.3315 11.126C64.4614 10.7948 64.5014 10.5442 64.5613 10.3562C64.5867 10.3212 64.6205 10.2918 64.6603 10.2701C64.7001 10.2484 64.7448 10.235 64.7912 10.2309H64.8811L64.9611 10.2757C64.9637 10.393 64.9364 10.5094 64.8811 10.6158C64.8336 10.72 64.7968 10.8279 64.7712 10.9381C64.765 10.9525 64.765 10.9684 64.7712 10.9828C64.9013 10.8688 65.0216 10.7461 65.131 10.6158C65.2809 10.4458 65.4008 10.3204 65.4708 10.2578C65.5683 10.1673 65.7003 10.113 65.8406 10.1056C65.9205 10.1056 65.9605 10.1593 65.9605 10.2846C65.9311 10.4919 65.8671 10.6941 65.7706 10.8844C65.6806 11.0667 65.6201 11.2596 65.5907 11.4572C65.5907 11.6362 65.6607 11.7257 65.8206 11.7257C66.0131 11.6701 66.195 11.5886 66.3602 11.4841C66.3602 11.4841 66.4302 11.4841 66.3602 11.5467C66.2788 11.6669 66.1738 11.7731 66.0504 11.86C65.9522 11.946 65.8264 12.0023 65.6906 12.0211C65.4008 12.0211 65.2309 11.8421 65.2009 11.4841C65.2443 11.3415 65.3117 11.2056 65.4008 11.0813Z" fill="#332F82"/>
<path d="M67.91 11.5825C67.63 11.8063 67.45 11.9227 67.38 11.9227H67.12C67.061 11.9284 67.0013 11.9216 66.9458 11.903C66.8902 11.8843 66.8403 11.8543 66.8 11.8152C66.7099 11.723 66.6571 11.6064 66.65 11.4841C66.6934 11.2385 66.7777 11.0001 66.9 10.7769C67.08 10.4189 67.2 10.2309 67.29 10.2309C67.38 10.2309 67.49 10.3025 67.55 10.4278C67.61 10.5532 67.43 10.6427 67.22 10.9739C67.1128 11.1347 67.0478 11.3153 67.03 11.502V11.5825C67.0537 11.6088 67.0845 11.6292 67.1196 11.6417C67.1546 11.6543 67.1926 11.6585 67.23 11.6541C67.4449 11.6211 67.6437 11.5306 67.8 11.3945C67.9575 11.2789 68.1247 11.1741 68.3 11.0813C68.3076 11.1016 68.3076 11.1236 68.3 11.1439C68.32 11.2155 68.19 11.3617 67.91 11.5825Z" fill="#332F82"/>
<path d="M70.4577 11.323C70.2636 11.4269 70.0553 11.5081 69.8381 11.5646C69.5975 11.6449 69.3637 11.7406 69.1385 11.8511C68.9763 11.934 68.8057 12.003 68.6289 12.0569C68.6289 12.0569 68.5389 12.0122 68.4889 11.9227C68.4535 11.8908 68.4232 11.8546 68.399 11.8153C68.4989 11.7078 68.6388 11.5378 68.8287 11.2961C69.0186 11.0544 69.1385 10.8575 69.5183 10.401H69.2385C69.1369 10.4104 69.0402 10.4444 68.9586 10.4995C68.9678 10.5469 68.9678 10.5953 68.9586 10.6427C68.9476 10.6694 68.9267 10.6919 68.8995 10.7065C68.8722 10.7212 68.8402 10.7271 68.8087 10.7232C68.7488 10.7232 68.6888 10.7232 68.5989 10.6158C68.5358 10.5752 68.4928 10.5142 68.4789 10.4458C68.4789 10.2488 68.7488 10.1325 69.2885 10.1056C69.4606 10.0916 69.6311 10.0647 69.7981 10.0251L69.968 9.97136C70.018 9.94816 70.0721 9.93301 70.128 9.92661C70.2179 9.92661 70.3178 10.0698 70.3178 10.1504C70.3178 10.2309 70.3178 10.222 70.3178 10.2488C70.2344 10.2621 70.1557 10.2928 70.088 10.3383C69.7026 10.6799 69.388 11.0799 69.1585 11.5199L69.6183 11.3588C69.8386 11.2674 70.0757 11.2128 70.3178 11.1976C70.3759 11.2008 70.4317 11.2195 70.4777 11.2513L70.4577 11.323Z" fill="#332F82"/>
<path d="M73.8657 11.6094C73.9393 11.5294 73.9968 11.4385 74.0356 11.3409C74.039 11.3291 74.039 11.3168 74.0356 11.3051H73.9656L73.5059 11.6094C73.3731 11.7145 73.2034 11.7746 73.0262 11.7795C72.8863 11.7705 72.7963 11.69 72.7364 11.5378C72.7031 11.4449 72.6829 11.3487 72.6764 11.2514C72.6922 11.0042 72.746 10.7602 72.8363 10.5263C72.9149 10.2867 73.0151 10.0532 73.1361 9.82816C73.298 9.4938 73.499 9.17575 73.7358 8.87935C73.7358 8.8525 73.6658 8.73614 73.6658 8.73614L73.5459 8.68243C73.2818 8.88497 73.0732 9.13915 72.9363 9.42536C72.7963 9.66704 72.6664 9.90871 72.5265 10.1414C72.4878 10.096 72.4443 10.0541 72.3966 10.0161H72.2667C72.0068 10.0251 71.667 10.2668 71.2673 10.7322C70.9655 11.0101 70.7726 11.3681 70.7176 11.7526C70.7549 11.8123 70.8021 11.8666 70.8575 11.9137C70.9574 11.9943 71.0174 12.039 71.0674 12.039C71.3968 11.9666 71.687 11.7922 71.8869 11.5467C72.0888 11.3603 72.2604 11.1494 72.3966 10.9202C72.3639 11.0162 72.3438 11.1153 72.3366 11.2156C72.3189 11.3633 72.3425 11.5126 72.4053 11.6501C72.4681 11.7877 72.5682 11.909 72.6964 12.0032C72.7702 12.0398 72.8521 12.0612 72.9363 12.0659C73.0116 12.0833 73.0907 12.0833 73.1661 12.0659C73.3142 12.0175 73.4526 11.948 73.5759 11.86C73.6842 11.7881 73.7816 11.7038 73.8657 11.6094Z" fill="#332F82"/>
<path d="M76.8939 11.3498C76.8939 11.493 76.724 11.6452 76.4641 11.8153C76.292 11.951 76.0808 12.041 75.8545 12.0748H75.7546C75.6603 12.0647 75.5725 12.027 75.5047 11.9674C75.4628 11.9199 75.426 11.869 75.3948 11.8153C75.3277 11.6891 75.2903 11.5521 75.2848 11.4125C75.28 11.3648 75.28 11.3169 75.2848 11.2693L74.7751 11.672C74.6175 11.8056 74.4121 11.8848 74.1955 11.8958C74.1355 11.8958 74.0756 11.8511 74.0156 11.7437C73.9644 11.6807 73.9333 11.6064 73.9257 11.5288C73.9947 11.1827 74.1919 10.8674 74.4853 10.6337C74.8651 10.2667 75.1549 10.0877 75.3748 10.0877C75.5947 10.0877 75.5347 10.1951 75.5847 10.2667L75.6646 10.1146C75.7179 10.0251 75.7679 9.98032 75.8145 9.98032C75.8898 9.98958 75.958 10.0249 76.0044 10.0788C76.0306 10.1546 76.0306 10.2357 76.0044 10.3115C75.9342 10.3952 75.874 10.4852 75.8245 10.58C75.7735 10.7092 75.7301 10.8406 75.6946 10.9739C75.6946 11.126 75.6346 11.2155 75.6346 11.2513C75.6335 11.361 75.6645 11.4691 75.7246 11.5646C75.7465 11.6183 75.7857 11.6648 75.8374 11.6983C75.889 11.7318 75.9507 11.7507 76.0144 11.7526C76.1671 11.7368 76.3122 11.6842 76.4342 11.6004L76.8839 11.3409L76.8939 11.3498ZM75.2049 10.5263C75.0965 10.5504 74.9989 10.6035 74.9251 10.6785L74.6952 10.8665C74.5885 10.9516 74.4974 11.0513 74.4254 11.1618C74.3499 11.256 74.2956 11.3624 74.2655 11.4751C74.2655 11.4751 74.2655 11.5199 74.3554 11.5199C74.4453 11.5199 74.5653 11.4125 74.8351 11.2066C74.9794 11.0976 75.1131 10.9778 75.2349 10.8486C75.2978 10.7666 75.3451 10.6759 75.3748 10.58C75.3748 10.58 75.2449 10.5263 75.2049 10.5263Z" fill="#332F82"/>
<path clip-rule="evenodd" d="M0 0V8.4676H9.43434V0H0ZM7.81531 6.99069H1.64901V1.46796H7.81531V6.99069Z" fill="#ED2224" fill-rule="evenodd"/>
<path clip-rule="evenodd" d="M39.1265 6.76691L39.2564 5.54958C39.7617 5.78661 40.3252 5.90661 40.8955 5.89867C41.5551 5.89867 41.8949 5.7286 41.8949 5.37952C41.8949 5.03043 41.645 4.91407 41.1553 4.77085C40.6935 4.64529 40.2426 4.48973 39.8061 4.3054C39.5696 4.17933 39.3765 3.99738 39.2478 3.7795C39.1191 3.56161 39.0598 3.31621 39.0766 3.07017C39.0613 2.80319 39.1335 2.53803 39.2845 2.3074C39.4354 2.07677 39.6585 1.89075 39.926 1.77229C40.4642 1.52878 41.0625 1.41174 41.665 1.43215C42.1864 1.42547 42.7057 1.49192 43.2041 1.62907L43.1041 2.73004C42.6887 2.56601 42.2389 2.4836 41.7849 2.48836C41.0654 2.48836 40.7156 2.65843 40.7156 2.98961C40.7156 3.3208 40.9554 3.38346 41.4451 3.51772C41.9101 3.62317 42.3621 3.7701 42.7943 3.95632C43.0319 4.08418 43.2263 4.2675 43.3565 4.48665C43.4868 4.7058 43.5481 4.95255 43.5339 5.2005C43.5339 6.37307 42.6544 6.99069 40.9055 6.99069C40.3031 6.99964 39.7028 6.92413 39.1265 6.76691Z" fill="#332F82" fill-rule="evenodd"/>
<path clip-rule="evenodd" d="M44.6033 6.99069V1.46796H46.2533V6.99069H44.6033Z" fill="#332F82" fill-rule="evenodd"/>
<path clip-rule="evenodd" d="M52.8883 3.75942V6.73114C52.1362 6.8966 51.3641 6.97778 50.5897 6.97281C49.7671 6.9975 48.9575 6.78406 48.2811 6.36415C47.9113 6.12052 47.6153 5.79809 47.4198 5.42609C47.2244 5.05409 47.1356 4.64429 47.1617 4.23382C47.131 3.82481 47.2124 3.41527 47.3988 3.04086C47.5851 2.66645 47.8709 2.33851 48.2311 2.08559C49.0323 1.62233 49.9775 1.39972 50.9295 1.45008C51.5396 1.43388 52.1483 1.51262 52.7284 1.6828L52.5985 2.86433C52.1574 2.63838 51.6574 2.52102 51.1493 2.52419C50.5641 2.4978 49.9842 2.63547 49.4903 2.91803C49.2604 3.07123 49.0768 3.27349 48.9564 3.50642C48.8359 3.73935 48.7824 3.99555 48.8007 4.25172C48.7965 4.48486 48.8488 4.71605 48.9541 4.92931C49.0593 5.14257 49.215 5.33284 49.4104 5.48696C49.8028 5.7982 50.316 5.95893 50.8395 5.9345C51.0345 5.94277 51.229 5.9122 51.4092 5.84499V4.78878H50.4098V3.75942H52.8883Z" fill="#332F82" fill-rule="evenodd"/>
<path clip-rule="evenodd" d="M55.4567 4.23379C55.4355 4.64576 55.5427 5.0549 55.7666 5.41532C55.8671 5.57317 56.0126 5.70436 56.1881 5.79554C56.3637 5.88673 56.563 5.93466 56.766 5.93447C56.9693 5.93654 57.1695 5.8894 57.3454 5.79802C57.5213 5.70665 57.6664 5.57442 57.7654 5.41532C57.9926 5.05581 58.1034 4.64662 58.0852 4.23379C58.1058 3.81222 57.9951 3.39382 57.7654 3.02542C57.6623 2.87089 57.5157 2.74329 57.3403 2.65533C57.165 2.56738 56.9669 2.52215 56.766 2.52416C56.5652 2.52304 56.3675 2.56865 56.1923 2.65652C56.0171 2.74439 55.8704 2.8715 55.7666 3.02542C55.5408 3.39489 55.4336 3.81311 55.4567 4.23379ZM53.8077 4.23379C53.7585 3.49253 54.0347 2.76339 54.5773 2.20193C55.1976 1.72841 55.9859 1.46832 56.8009 1.46832C57.616 1.46832 58.4043 1.72841 59.0246 2.20193C59.5672 2.76339 59.8434 3.49253 59.7941 4.23379C59.8398 4.96765 59.5678 5.68901 59.0346 6.24776C58.7393 6.50118 58.3893 6.69781 58.006 6.82558C57.6228 6.95334 57.2144 7.00953 56.8059 6.99069C56.3977 7.01565 55.9882 6.96317 55.6042 6.8367C55.2201 6.71022 54.8702 6.51258 54.5773 6.25671C54.0381 5.69704 53.7622 4.97189 53.8077 4.23379Z" fill="#332F82" fill-rule="evenodd"/>
<path clip-rule="evenodd" d="M62.3426 2.51523V3.75941H62.7824C63.0525 3.76916 63.3227 3.73891 63.5819 3.6699C63.708 3.63049 63.8158 3.5545 63.8883 3.45396C63.9607 3.35342 63.9936 3.23411 63.9816 3.11494C63.9816 2.71215 63.5819 2.50628 62.7824 2.50628L62.3426 2.51523ZM60.7036 6.9907V1.46797H63.6319C64.1298 1.44629 64.6227 1.56527 65.041 1.8081C65.2294 1.92591 65.3814 2.08459 65.4828 2.2693C65.5842 2.45401 65.6316 2.65873 65.6207 2.86431C65.6577 3.19199 65.5513 3.51976 65.3239 3.77857C65.0965 4.03737 64.7657 4.207 64.4014 4.25171C64.5155 4.28062 64.6215 4.33059 64.7128 4.39842C64.804 4.46625 64.8784 4.55043 64.9311 4.64555C64.9311 4.69926 65.071 4.97674 65.2709 5.46904L65.8805 6.9728H64.2015L63.8517 5.97924C63.7652 5.64733 63.6129 5.33203 63.402 5.04835C63.3184 4.96495 63.2146 4.89981 63.0985 4.85791C62.9824 4.81602 62.8572 4.79849 62.7324 4.80667H62.3826V6.9907H60.7036Z" fill="#332F82" fill-rule="evenodd"/>
<path clip-rule="evenodd" d="M67.6095 6.99069V2.52417H66.0904V1.46796H70.7776V2.52417H69.2585V6.99069H67.6095Z" fill="#332F82" fill-rule="evenodd"/>
<path clip-rule="evenodd" d="M74.1456 4.78876L73.456 3.19549L72.7864 4.78876H74.1456ZM70.1479 6.99069L72.4965 1.46796H74.4953L76.8739 6.99069H75.095L74.6353 5.93448H72.2667L71.8269 6.99069H70.1479Z" fill="#332F82" fill-rule="evenodd"/>
<path d="M46.2433 0H44.6033V0.984605H46.2433V0Z" fill="#332F82"/>
</svg>