<?xml version="1.0" encoding="utf-8"?>
<svg xmlns="http://www.w3.org/2000/svg" fill="none" height="16" viewBox="0 0 83 16" width="83">
<path clip-rule="evenodd" d="M8.69478 0C10.4144 0 12.0955 0.456719 13.5253 1.3124C14.9552 2.16808 16.0696 3.3843 16.7277 4.80725C17.3858 6.23019 17.558 7.79596 17.2225 9.30656C16.887 10.8172 16.0589 12.2047 14.8429 13.2938C13.6269 14.3829 12.0777 15.1245 10.3911 15.425C8.70443 15.7255 6.9562 15.5713 5.36743 14.9819C3.77867 14.3925 2.42073 13.3944 1.46534 12.1137C0.509941 10.8331 0 9.32751 0 7.78733C0 5.722 0.916055 3.74126 2.54664 2.28086C4.17723 0.820449 6.38878 0 8.69478 0ZM8.69478 0.742929C7.13918 0.742929 5.61851 1.15608 4.32507 1.93012C3.03163 2.70417 2.02352 3.80436 1.42821 5.09155C0.832907 6.37875 0.677148 7.79514 0.980632 9.16162C1.28412 10.5281 2.03321 11.7833 3.13319 12.7685C4.23317 13.7536 5.63463 14.4246 7.16034 14.6964C8.68606 14.9682 10.2675 14.8287 11.7047 14.2955C13.1419 13.7623 14.3703 12.8594 15.2345 11.701C16.0988 10.5425 16.5601 9.18058 16.5601 7.78733C16.5601 6.86224 16.3566 5.94622 15.9614 5.09155C15.5661 4.23689 14.9867 3.46032 14.2564 2.80619C13.526 2.15205 12.659 1.63317 11.7047 1.27915C10.7504 0.925137 9.72767 0.742929 8.69478 0.742929Z" fill="#ED1C2E" fill-rule="evenodd"/>
<path clip-rule="evenodd" d="M9.11451 9.30005V11.681H8.26502V9.30005H4.34737C4.09849 9.30837 3.85219 9.25244 3.6378 9.13893C3.43405 9.03613 3.26629 8.88454 3.15332 8.70115C3.04035 8.51776 2.98663 8.30982 2.99818 8.10062C2.99818 8.03797 2.99818 7.98426 2.99818 7.93951C3.10195 7.42286 3.30483 6.9262 3.59782 6.47155C3.89387 6.01359 4.27591 5.6048 4.72714 5.26317C4.88392 5.16089 5.06189 5.08762 5.25065 5.04766C5.43941 5.0077 5.63517 5.00185 5.82648 5.03045C5.87965 4.87027 5.96804 4.72124 6.08647 4.59212C6.2049 4.46299 6.35096 4.35639 6.51607 4.27857L6.67597 4.21591C7.33539 3.99975 8.03255 3.89063 8.73474 3.89368C9.4365 3.89504 10.1328 4.00402 10.7935 4.21591C10.9865 4.29304 11.1603 4.40408 11.3045 4.54246C11.4487 4.68084 11.5604 4.84374 11.633 5.0215C11.8058 4.99149 11.9836 4.99348 12.1554 5.02735C12.3273 5.06121 12.4896 5.12624 12.6324 5.21842C13.1033 5.57452 13.5051 5.99795 13.8217 6.47155C14.1147 6.9262 14.3176 7.42286 14.4213 7.93951C14.4267 7.9931 14.4267 8.04703 14.4213 8.10062C14.4329 8.30982 14.3792 8.51776 14.2662 8.70115C14.1532 8.88454 13.9855 9.03613 13.7817 9.13893C13.5673 9.25244 13.321 9.30837 13.0721 9.30005H9.07453H9.11451ZM12.1127 5.84498C12.0423 5.80109 11.9586 5.77756 11.8729 5.77756C11.7871 5.77756 11.7034 5.80109 11.633 5.84498C11.5917 5.86085 11.5544 5.88412 11.5234 5.91336C11.4925 5.94261 11.4686 5.97722 11.4531 6.01505L10.014 8.25279C9.99161 8.28339 9.97971 8.31916 9.97971 8.35573C9.97971 8.39229 9.99161 8.42807 10.014 8.45866C10.0335 8.48972 10.063 8.51482 10.0986 8.53077C10.1343 8.54672 10.1744 8.55278 10.2139 8.54817H13.0921C13.1786 8.5568 13.2659 8.54116 13.342 8.50342C13.4157 8.46695 13.4759 8.41188 13.515 8.34504C13.5541 8.2782 13.5704 8.20254 13.5618 8.12748C13.4734 7.69931 13.3044 7.28769 13.0621 6.91015C12.8204 6.52712 12.502 6.18727 12.1227 5.90764L12.1127 5.84498ZM5.23684 5.84498C4.48316 6.41227 3.97418 7.19736 3.7977 8.06482C3.79149 8.12145 3.79937 8.1786 3.82078 8.23217C3.84218 8.28574 3.87659 8.3344 3.92151 8.37463C3.96643 8.41486 4.02075 8.44568 4.08057 8.46485C4.14038 8.48402 4.20419 8.49108 4.26742 8.48551H7.14569C7.18517 8.49012 7.22529 8.48406 7.2609 8.46812C7.29651 8.45217 7.326 8.42706 7.34557 8.39601C7.36793 8.36541 7.37984 8.32964 7.37984 8.29307C7.37984 8.2565 7.36793 8.22073 7.34557 8.19013L5.90644 5.9524C5.87569 5.87859 5.81503 5.81787 5.73654 5.78233C5.66615 5.73843 5.58245 5.7149 5.49668 5.7149C5.41092 5.7149 5.32721 5.73843 5.25682 5.78233L5.23684 5.84498ZM10.4637 4.94989C9.32056 4.58006 8.06897 4.58006 6.92582 4.94989C6.85488 4.97906 6.79201 5.0219 6.74171 5.07537C6.69141 5.12884 6.65493 5.1916 6.63488 5.25917C6.61482 5.32674 6.61169 5.39744 6.62571 5.46622C6.63972 5.53499 6.67054 5.60015 6.71595 5.65701L8.49488 8.39601C8.51611 8.43674 8.55006 8.4711 8.59263 8.49493C8.63519 8.51875 8.68455 8.53103 8.73474 8.53027C8.78217 8.53016 8.82867 8.51843 8.86919 8.49634C8.90971 8.47425 8.94271 8.44265 8.9646 8.40496L10.7435 5.65701C10.8135 5.57853 10.8491 5.47985 10.8435 5.37954C10.841 5.2822 10.8052 5.1879 10.7408 5.10943C10.6764 5.03097 10.5867 4.97214 10.4837 4.94094L10.4637 4.94989Z" fill="#ED1C2E" fill-rule="evenodd"/>
<path clip-rule="evenodd" d="M24.945 3.71466L27.0638 7.60832L29.1825 3.71466H32.4006V11.502H29.1825V7.60832L27.0638 11.502L24.945 7.60832V11.493H21.727V3.71466H24.945Z" fill="#ED1C2E" fill-rule="evenodd"/>
<path clip-rule="evenodd" d="M38.7567 4.87829L37.4575 8.94201H40.066L38.7567 4.87829ZM33.4299 11.493L35.9284 3.71466H41.595L44.0935 11.493H40.8855L40.4757 10.222H37.0478L36.638 11.493H33.4299Z" fill="#ED1C2E" fill-rule="evenodd"/>
<path clip-rule="evenodd" d="M49.0806 4.60976C49.8001 4.60976 50.5097 4.94989 50.5097 5.65702C50.5137 5.82693 50.4796 5.99585 50.4095 6.15376C50.3394 6.31168 50.2346 6.45539 50.1013 6.5764C49.9681 6.6974 49.8091 6.79325 49.6338 6.85827C49.4584 6.92328 49.2703 6.95614 49.0806 6.9549H48.381V4.62766L49.0806 4.60976ZM51.1293 3.71466H45.1329V11.493H48.321V8.25279H51.1193C51.7638 8.21653 52.3685 7.96168 52.8105 7.54014C53.2526 7.11859 53.4986 6.56203 53.4986 5.98373C53.4986 5.40543 53.2526 4.84886 52.8105 4.42732C52.3685 4.00577 51.7638 3.75093 51.1193 3.71466H51.1293Z" fill="#ED1C2E" fill-rule="evenodd"/>
<path clip-rule="evenodd" d="M54.7771 3.71466H63.312V4.9857H57.9852V6.97281H63.312V8.24384H57.9852V11.502H54.7771V3.71466Z" fill="#ED1C2E" fill-rule="evenodd"/>
<path clip-rule="evenodd" d="M77.3836 10.222H82.7104V11.502H74.1755V3.71466H82.7104V4.9857H77.3836V6.97281H82.7104V8.24384H77.3836V10.222Z" fill="#ED1C2E" fill-rule="evenodd"/>
<path clip-rule="evenodd" d="M68.389 4.60971C69.0985 4.60971 69.8181 4.94985 69.8181 5.65698C69.8208 5.82657 69.7857 5.99494 69.7151 6.15231C69.6445 6.30967 69.5396 6.4529 69.4066 6.57366C69.2737 6.69442 69.1152 6.79031 68.9405 6.85575C68.7658 6.92119 68.5783 6.95488 68.389 6.95486H67.6994V4.62762L68.389 4.60971ZM72.9762 9.55064V9.48798C72.9555 8.98298 72.7169 8.50486 72.3105 8.15426C71.9041 7.80367 71.3617 7.60794 70.7975 7.60828C71.0954 7.62638 71.3942 7.58946 71.6754 7.49982C71.9567 7.41018 72.2144 7.26972 72.4325 7.08717C72.6506 6.90462 72.8245 6.68386 72.9434 6.43861C73.0623 6.19335 73.1237 5.92883 73.1237 5.66145C73.1237 5.39408 73.0623 5.12955 72.9434 4.8843C72.8245 4.63904 72.6506 4.41829 72.4325 4.23574C72.2144 4.05318 71.9567 3.91273 71.6754 3.82308C71.3942 3.73344 71.0954 3.69652 70.7975 3.71462H64.4313V11.493H67.6994V8.27065H68.389C68.768 8.27065 69.1315 8.40551 69.3995 8.64555C69.6675 8.8856 69.8181 9.21117 69.8181 9.55064V11.493H72.9762V9.55064Z" fill="#ED1C2E" fill-rule="evenodd"/>
</svg>