<?xml version="1.0" encoding="utf-8"?>
<svg xmlns="http://www.w3.org/2000/svg" fill="none" height="50" viewBox="0 0 100 50" width="100">
<path d="M25.8027 39.2789C26.0947 39.4701 26.5655 39.6719 27.0895 39.6719C27.578 39.6719 27.8824 39.5179 27.8824 39.2187C27.8824 38.9993 27.7337 38.8736 27.316 38.7656L26.6487 38.5992C25.9284 38.4205 25.6115 38.0329 25.6115 37.4842C25.6115 36.8098 26.1124 36.2682 27.1974 36.2682C27.7815 36.2682 28.3408 36.4293 28.6523 36.5903L28.4134 37.3532C28.116 37.1797 27.6081 37.031 27.1673 37.031C26.6788 37.031 26.4753 37.1797 26.4753 37.4116C26.4753 37.6328 26.624 37.716 26.916 37.7992L27.6612 38.0081C28.3939 38.2099 28.7515 38.5745 28.7515 39.1515C28.7515 39.9143 28.0488 40.4329 27.0718 40.4329C26.4824 40.4329 25.8682 40.2312 25.6062 40.0807L25.8027 39.2789Z" fill="#006A4D"/>
<path d="M33.9286 35.031C34.2136 35.031 34.4048 35.1389 34.4048 35.4416C34.4048 35.746 34.2136 35.8593 33.9286 35.8593C33.6366 35.8593 33.4401 35.746 33.4401 35.4416C33.4401 35.1372 33.6366 35.031 33.9286 35.031ZM33.5109 36.3248H34.3446V40.3781H33.5109V36.3248Z" fill="#006A4D"/>
<path d="M43.0121 39.8825C42.6369 40.1798 41.9041 40.4365 41.2829 40.4365C40.0846 40.4365 39.1253 39.6612 39.1253 38.3568C39.1253 37.0399 40.0846 36.2646 41.2829 36.2646C41.9395 36.2646 42.4511 36.4841 42.8564 36.8133L42.4688 37.4505C42.1537 37.1886 41.7767 37.0381 41.3006 37.0381C40.5607 37.0381 39.989 37.5142 39.989 38.355C39.989 39.1833 40.5607 39.6595 41.336 39.6595C41.6581 39.6595 41.9555 39.5763 42.1767 39.4453V38.7001H41.1094V37.9798H43.0104V39.8825H43.0121Z" fill="#006A4D"/>
<path d="M49.6903 36.2646C50.8885 36.2646 51.7824 37.1585 51.7824 38.3568C51.7824 39.5426 50.8885 40.4365 49.6903 40.4365C48.5044 40.4365 47.6105 39.5426 47.6105 38.3568C47.6105 37.1585 48.5044 36.2646 49.6903 36.2646ZM49.6956 39.6559C50.4407 39.6559 50.9593 39.0895 50.9593 38.3568C50.9593 37.6116 50.4407 37.0576 49.6956 37.0576C48.9628 37.0576 48.4318 37.6116 48.4318 38.3568C48.4318 39.0895 48.9628 39.6559 49.6956 39.6559Z" fill="#006A4D"/>
<path d="M56.5648 36.3231H58.3472C59.3419 36.3231 59.9632 36.7284 59.9632 37.6399C59.9632 38.2824 59.5048 38.7603 58.8959 38.886L60.1897 40.2382V40.3745H59.2552L57.9029 38.9143H57.402V40.3745H56.5684V36.3231H56.5648ZM57.3985 37.0505V38.2612H58.4357C58.8162 38.2612 59.0906 38.0346 59.0906 37.6594C59.0906 37.2611 58.8162 37.0523 58.4357 37.0523H57.3985V37.0505Z" fill="#006A4D"/>
<path d="M66.5245 37.0576V40.3763H65.6908V37.0576H64.3563V36.3248H67.813V37.0576H66.5245Z" fill="#006A4D"/>
<path d="M73.2681 36.3231H74.2451L75.8133 40.3763H74.9673L74.6575 39.5657H72.8167L72.4999 40.3763H71.6539L73.2681 36.3231ZM73.0291 38.9462H74.4469L73.7548 37.1532L73.0291 38.9462Z" fill="#006A4D"/>
<path d="M22.969 28.3281H34.5393V25.682H25.8505V22.1544H32.9693V19.5101H25.8505V16.3489H34.5393V13.7028H22.969V28.3281Z" fill="#006A4D"/>
<path d="M10.8393 23.5527L2.62487 13.7028H0V28.3281H3.01073V18.4994L11.2269 28.3281H13.85V13.7028H10.8393V23.5527Z" fill="#006A4D"/>
<path d="M47.122 20.6659C47.122 18.1206 49.1858 16.0569 51.7293 16.0569C54.2745 16.0569 56.3383 18.1206 56.3383 20.6659C56.3383 23.2111 54.2745 25.2731 51.7293 25.2731C49.1858 25.2749 47.122 23.2111 47.122 20.6659Z" fill="#006A4D"/>
<path d="M51.5116 24.8023L51.0478 25.0926L50.7416 24.351L51.5116 24.8023ZM50.7717 22.7651L51.5151 23.2253L51.0761 23.5226L50.7717 22.7651ZM50.7469 21.1668L51.5275 21.6376L51.0708 21.9668L50.7469 21.1668ZM51.9841 22.4535L52.7452 21.981L52.4479 22.758L51.9841 22.4535ZM50.7611 23.558L52.1895 24.4253L51.7576 24.705L51.016 24.289L50.7611 23.558ZM51.3186 23.6093L52.7311 22.7544L52.5045 23.4412L51.7682 23.9386L51.3186 23.6093ZM50.7611 21.9969L52.2001 22.8235L51.7257 23.1474L51.0071 22.712L50.7611 21.9969ZM51.2992 22.0465L52.7346 21.1845L52.4744 21.9226L51.7753 22.3456L51.2992 22.0465ZM51.2549 21.2199H52.2125L51.7576 21.5792L51.2549 21.2199ZM51.9841 23.9934L52.7452 23.5208L52.4479 24.2961L51.9841 23.9934ZM51.731 20.6783C51.731 20.6783 50.9611 18.4534 50.8142 18.0074C50.754 17.8251 50.7292 17.6693 50.8443 17.5171L51.731 16.356L52.6178 17.5171C52.7346 17.6693 52.7081 17.8251 52.6479 18.0074C52.501 18.4516 51.731 20.6783 51.731 20.6783ZM56.0923 20.9314H52.0018L53.8639 19.972C54.9028 19.4375 55.248 19.8853 55.6267 20.3561L56.0923 20.9314ZM51.9116 20.7278L53.1966 18.4251C53.363 18.126 53.7895 17.9755 54.163 18.2003L55.6073 19.0676L54.8834 19.0694C54.5648 19.0694 54.3117 19.1915 54.0798 19.3402L51.9116 20.7278ZM47.368 20.9314L47.8336 20.3561C48.2141 19.8853 48.5575 19.4375 49.5964 19.972L51.4585 20.9314H47.368ZM51.5487 20.7278L49.3805 19.3402C49.1504 19.1933 48.8973 19.0711 48.5787 19.0694L47.8548 19.0676L49.2991 18.2003C49.6726 17.9755 50.0991 18.126 50.2655 18.4251L51.5487 20.7278ZM51.2354 25.2466L52.7328 24.3616L52.4461 25.2218C52.2178 25.2572 51.9824 25.2749 51.7434 25.2749C51.5717 25.2731 51.4018 25.2643 51.2354 25.2466Z" fill="white"/>
<path d="M51.7293 10C45.8476 10 41.0634 14.7842 41.0634 20.6659C41.0634 26.5475 45.8476 31.3317 51.7293 31.3317C57.6109 31.3317 62.3951 26.5475 62.3951 20.6659C62.3951 14.7842 57.6109 10 51.7293 10ZM51.7293 28.498C47.4105 28.498 43.8989 24.9846 43.8989 20.6676C43.8989 16.3489 47.4123 12.8373 51.7293 12.8373C56.048 12.8373 59.5614 16.3507 59.5614 20.6676C59.5614 24.9846 56.048 28.498 51.7293 28.498Z" fill="#006A4D"/>
<path d="M73.9389 25.5545L69.6803 13.7028H66.39L72.045 28.3281H75.831L81.6383 13.7028H78.3479L73.9389 25.5545Z" fill="#006A4D"/>
<path d="M94.3467 13.7028H90.8191L84.9906 28.3281H88.0438L89.1837 25.4023H95.8282L96.9468 28.3281H100L94.3467 13.7028ZM89.9607 23.1668L92.5838 16.694L95.0777 23.1668H89.9607Z" fill="#006A4D"/>
</svg>