<?xml version="1.0" encoding="utf-8"?>
<svg xmlns="http://www.w3.org/2000/svg" fill="none" height="23" viewBox="0 0 78 23" width="78">
<path clip-rule="evenodd" d="M14.1015 0L28.333 12.7103L24.7951 15.87L21.3372 12.773L17.7394 15.9506L21.2173 19.0745L17.6394 22.2431L14.0716 19.1282L10.5837 22.3147L7.09574 19.0834L10.5737 15.9595L7.0058 12.782L3.57785 15.9327L0 12.7283L14.1015 0ZM14.1015 12.6656L17.5994 9.55066L14.1315 6.43573L10.6436 9.56856C11.8229 10.5979 12.9922 11.6362 14.1315 12.6656H14.1015Z" fill="#2DA9E1" fill-rule="evenodd"/>
<path clip-rule="evenodd" d="M60.044 11.8063H55.8266C55.6666 11.8063 55.5867 11.8063 55.5467 12.0032C55.3968 12.6746 55.2169 13.3459 55.057 14.0262C54.9771 14.3305 55.127 14.4827 55.4768 14.4916C55.647 14.5017 55.815 14.4523 55.9454 14.3538C56.0758 14.2554 56.1586 14.1155 56.1763 13.9635L56.6261 12.1733H59.9641L59.5743 13.8203C59.4944 14.1783 59.4044 14.5274 59.3145 14.8944C59.2641 15.1789 59.101 15.4377 58.8551 15.6234C58.6092 15.8092 58.2969 15.9094 57.9753 15.9059H52.3087C51.6591 15.9059 51.3093 15.521 51.4892 14.9392C52.0821 12.4568 52.6751 10.0221 53.2681 7.63518C53.3256 7.37696 53.4779 7.14336 53.7006 6.97147C53.9233 6.79957 54.2037 6.69924 54.4973 6.68638C54.6137 6.6777 54.7307 6.6777 54.8471 6.68638H60.3039C60.4331 6.68231 60.5614 6.70673 60.6777 6.75748C60.7939 6.80824 60.8944 6.88378 60.9704 6.97748C61.0464 7.07117 61.0955 7.18014 61.1135 7.29482C61.1314 7.4095 61.1177 7.52637 61.0734 7.63518C60.7536 8.97782 60.4338 10.3205 60.074 11.6631C60.094 11.6721 60.064 11.7258 60.044 11.8063ZM55.9465 10.3205C56.2963 10.3205 56.5961 10.3205 56.9459 10.3205C56.9847 10.3131 57.0208 10.2969 57.0506 10.2734C57.0804 10.2499 57.1028 10.2198 57.1158 10.1862C57.1685 10.0242 57.2119 9.85989 57.2457 9.6939L57.5455 8.44971C57.5455 8.3065 57.6055 8.13643 57.3856 8.05587C57.2977 8.0203 57.2023 8.00189 57.1059 8.00189C57.0094 8.00188 56.914 8.02027 56.8261 8.05583C56.7382 8.09139 56.6597 8.14332 56.5959 8.20814C56.5321 8.27297 56.4845 8.34922 56.4562 8.43181C56.2463 9.07628 56.1064 9.70285 55.9465 10.3205Z" fill="#2C347D" fill-rule="evenodd"/>
<path clip-rule="evenodd" d="M34.7292 15.8969H32.0408C31.8401 15.8903 31.643 15.8477 31.4611 15.7716C31.3109 15.7141 31.1889 15.6101 31.1173 15.4786C31.0457 15.3471 31.0294 15.1969 31.0714 15.0555L32.9003 7.53672C32.97 7.29531 33.122 7.07937 33.3352 6.91894C33.5483 6.75852 33.812 6.66158 34.0896 6.64162C34.1993 6.63272 34.3096 6.63272 34.4194 6.64162C36.1683 6.64162 37.9173 6.64162 39.6562 6.64162C39.8686 6.6409 40.0791 6.67739 40.2758 6.74903C40.3599 6.77249 40.4379 6.81055 40.5055 6.86105C40.5731 6.91155 40.6289 6.97348 40.6698 7.04331C40.7106 7.11315 40.7357 7.18951 40.7435 7.26803C40.7514 7.34655 40.7419 7.42569 40.7156 7.50091L39.2764 13.4085C39.1565 13.9008 39.0366 14.3842 38.9266 14.8765C38.8711 15.172 38.6976 15.4393 38.4383 15.6286C38.1791 15.818 37.8518 15.9165 37.5175 15.9059L34.7292 15.8969ZM36.728 8.03797C36.5482 8.02804 36.3713 8.08147 36.235 8.18684C36.0986 8.29222 36.0137 8.44118 35.9984 8.60188C35.8185 9.36271 35.6386 10.1325 35.4487 10.8933C35.1989 11.9585 34.939 13.0147 34.6792 14.0799C34.6792 14.2947 34.6792 14.411 34.959 14.4737C35.0505 14.4976 35.1465 14.5038 35.2409 14.4919C35.3352 14.4799 35.4256 14.45 35.506 14.4043C35.5864 14.3585 35.6549 14.2979 35.7071 14.2266C35.7593 14.1552 35.7939 14.0747 35.8085 13.9904L36.3182 11.9048C36.5881 10.777 36.8679 9.64914 37.1377 8.52132C37.1977 8.18118 37.0678 8.03797 36.728 8.03797Z" fill="#2C347D" fill-rule="evenodd"/>
<path clip-rule="evenodd" d="M63.8917 15.8879H60.5437C61.2933 12.7998 62.0428 9.72966 62.7824 6.63263H66.1303C66.1303 6.77585 66.0704 6.91011 66.0404 7.07123C66.7238 6.69226 67.5315 6.53431 68.329 6.62368C68.7488 6.62368 69.1685 6.62368 69.5883 6.62368C70.2279 6.62368 70.4977 7.00857 70.3678 7.57248C69.7015 10.2876 69.0353 12.9938 68.369 15.691L68.309 15.8611H65.001C65.2509 14.8586 65.4907 13.856 65.7306 12.8625C66.0804 11.4124 66.4402 9.97134 66.79 8.52128C66.9099 8.04688 66.6101 7.97527 66.2203 8.03793C66.089 8.06277 65.9694 8.12344 65.8782 8.21159C65.7869 8.29975 65.7284 8.41106 65.7106 8.53023C65.2242 10.5591 64.7312 12.591 64.2315 14.6258C64.0916 15.0465 63.9916 15.4583 63.8917 15.8879Z" fill="#2C347D" fill-rule="evenodd"/>
<path clip-rule="evenodd" d="M71.7069 8.37807H71.2272C71.2872 8.1364 71.3372 7.91262 71.3871 7.68885C71.4371 7.46507 71.537 7.09809 71.597 6.79375C71.597 6.65949 71.687 6.59683 71.8469 6.62369C72.0068 6.65054 72.1867 6.57893 72.2266 6.35516C72.3166 5.91656 72.4365 5.46006 72.5364 5.03937H75.8944C75.7745 5.55852 75.6446 6.07768 75.5147 6.62369H77.5135C77.3835 7.1876 77.2636 7.72465 77.1237 8.25276C77.0978 8.28658 77.0637 8.31465 77.0238 8.33482C76.984 8.35499 76.9395 8.36672 76.8938 8.36912H75.0549C74.915 8.96883 74.7651 9.5596 74.6252 10.1593L73.7057 13.9993C73.6258 14.3305 73.7057 14.4826 74.1255 14.4916H74.935C74.8251 14.9212 74.7251 15.3867 74.6152 15.7984C74.6152 15.7984 74.5153 15.8611 74.4653 15.8611C73.276 15.8611 72.0767 15.8611 70.8874 15.8611C70.7612 15.8701 70.6344 15.8515 70.5179 15.8068C70.4015 15.7621 70.299 15.6927 70.2193 15.6046C70.1396 15.5164 70.0851 15.4122 70.0604 15.3009C70.0358 15.1897 70.0418 15.0747 70.0779 14.966L71.7069 8.46758C71.7069 8.46758 71.7069 8.42283 71.7069 8.37807Z" fill="#2C347D" fill-rule="evenodd"/>
<path clip-rule="evenodd" d="M40.1759 15.87C40.3858 14.9749 40.6056 14.0798 40.8255 13.1847C41.1753 11.7257 41.5151 10.2578 41.8849 8.80773C42.0029 8.32278 42.2722 7.87778 42.6614 7.52444C43.0506 7.17111 43.5437 6.92394 44.0836 6.81167C44.4829 6.7058 44.8964 6.64859 45.3128 6.6416C46.1123 6.6416 46.9219 6.6416 47.7614 6.6416C47.6814 6.98174 47.6114 7.31292 47.5215 7.65306C47.5215 7.65306 47.4216 7.65306 47.3716 7.70677C46.9535 7.75718 46.5396 7.83193 46.1323 7.93054C45.8934 7.99846 45.6806 8.12507 45.518 8.29597C45.3555 8.46686 45.2498 8.67519 45.2129 8.89724C44.6732 11.1887 44.1135 13.4712 43.5539 15.7537C43.5424 15.7889 43.5206 15.8208 43.4907 15.846C43.4608 15.8712 43.424 15.8888 43.384 15.8969H40.2559L40.1759 15.87Z" fill="#2C347D" fill-rule="evenodd"/>
<path clip-rule="evenodd" d="M46.4022 15.8969C46.5121 15.4314 46.612 15.0018 46.722 14.5542C47.2816 12.2449 47.8613 9.92658 48.391 7.60829C48.4426 7.35713 48.5851 7.12817 48.7964 6.95671C49.0077 6.78525 49.2761 6.6808 49.5603 6.65949C50.3498 6.60578 51.1493 6.65949 51.9788 6.65949C51.8889 7.05333 51.7989 7.44717 51.699 7.83206C51.1393 10.1653 50.5763 12.4955 50.01 14.8228C49.9434 15.145 49.8634 15.4672 49.7701 15.7895C49.7586 15.8189 49.7387 15.8451 49.7124 15.8655C49.6861 15.8859 49.6544 15.8998 49.6202 15.9058L46.4022 15.8969Z" fill="#2C347D" fill-rule="evenodd"/>
<path clip-rule="evenodd" d="M52.3886 4.99463C52.2786 5.41532 52.1887 5.82707 52.0788 6.23881H48.7208L49.0206 4.99463H52.3886Z" fill="#2C347D" fill-rule="evenodd"/>
<path clip-rule="evenodd" d="M14.1315 12.6656C12.9922 11.6362 11.8229 10.5979 10.6736 9.56856L14.1615 6.43573L17.6294 9.55066L14.1315 12.6656Z" fill="white" fill-rule="evenodd"/>
<path d="M34.9191 18.9044C34.8989 18.5256 35.026 18.1523 35.2788 17.8482C35.3905 17.7217 35.5336 17.6203 35.6966 17.5519C35.8597 17.4836 36.0383 17.4501 36.2183 17.4543C36.3661 17.4482 36.5136 17.4715 36.6501 17.5225C36.7867 17.5736 36.9088 17.6512 37.0078 17.7497C37.2111 17.967 37.3147 18.2454 37.2976 18.5285C37.3073 18.8866 37.1804 19.2371 36.9378 19.522C36.8275 19.6649 36.6769 19.779 36.5014 19.8529C36.3259 19.9268 36.1317 19.9578 35.9384 19.9427C35.7351 19.9464 35.5346 19.8999 35.3588 19.8084C35.1981 19.7172 35.0698 19.5868 34.989 19.4325C34.9252 19.2627 34.9014 19.0829 34.9191 18.9044ZM36.728 18.4479C36.7353 18.317 36.693 18.1876 36.608 18.0809C36.5667 18.036 36.5148 17.9999 36.4561 17.9752C36.3973 17.9504 36.3332 17.9376 36.2683 17.9377C36.2029 17.938 36.1383 17.9501 36.0782 17.9731C36.0181 17.9962 35.9638 18.0298 35.9185 18.072C35.796 18.1713 35.7121 18.303 35.6786 18.4479C35.6224 18.5919 35.592 18.7429 35.5887 18.8954C35.5782 19.0392 35.6242 19.1816 35.7186 19.2982C35.7579 19.3457 35.8091 19.3843 35.8682 19.4107C35.9272 19.4372 35.9924 19.4508 36.0584 19.4504C36.145 19.4474 36.2295 19.4255 36.3044 19.3865C36.3793 19.3475 36.4424 19.2926 36.4881 19.2266C36.6537 18.9946 36.7373 18.7232 36.728 18.4479Z" fill="#8A898C"/>
<path d="M37.9672 17.4812H38.5469L38.4569 17.9377C38.6768 17.5975 38.9067 17.4185 39.1565 17.4185C39.2579 17.4224 39.357 17.4469 39.4463 17.4901L39.2065 18.0182C39.1469 18.0098 39.0862 18.0098 39.0266 18.0182C38.9072 18.0264 38.7945 18.0706 38.7068 18.1435C38.5918 18.2373 38.5028 18.3537 38.4469 18.4837C38.3649 18.6998 38.3014 18.9212 38.2571 19.1461L38.1071 19.889H37.4875L37.9672 17.4812Z" fill="#8A898C"/>
<path d="M39.7265 17.4812H40.3465L39.8665 19.8532H39.2465L39.7265 17.4812ZM39.9065 16.5861H40.5265L40.4065 17.1679H39.7865L39.9065 16.5861Z" fill="#8A898C"/>
<path d="M42.7244 18.9044H41.1553C41.157 18.9223 41.157 18.9403 41.1553 18.9581C41.149 19.0973 41.1987 19.2339 41.2952 19.343C41.3298 19.3879 41.3761 19.4244 41.4301 19.4494C41.4842 19.4744 41.5443 19.487 41.6051 19.4862C41.7146 19.4821 41.8201 19.4482 41.9076 19.389C41.9951 19.3299 42.0604 19.2483 42.0948 19.155L42.6444 19.2535C42.5578 19.459 42.409 19.6387 42.2147 19.7727C42.0377 19.8875 41.8236 19.9473 41.6051 19.9427C41.4633 19.9474 41.3223 19.9232 41.1925 19.872C41.0626 19.8209 40.9475 19.7441 40.8555 19.6474C40.6511 19.4201 40.5479 19.1331 40.5657 18.8418C40.5556 18.5274 40.6458 18.2169 40.8255 17.9467C40.9261 17.7888 41.0716 17.6576 41.2471 17.5664C41.4226 17.4753 41.622 17.4273 41.8249 17.4275C41.9531 17.4229 42.0807 17.4457 42.1971 17.494C42.3135 17.5422 42.4154 17.6145 42.4945 17.705C42.6717 17.9225 42.7599 18.188 42.7444 18.4569C42.7562 18.6063 42.7495 18.7564 42.7244 18.9044ZM42.2047 18.5106V18.4479C42.2144 18.3068 42.1761 18.1663 42.0948 18.0451C42.0566 18.0051 42.009 17.9732 41.9555 17.9515C41.9019 17.9299 41.8437 17.919 41.785 17.9198C41.72 17.9197 41.6559 17.9325 41.5971 17.9573C41.5384 17.9821 41.4865 18.0182 41.4452 18.063C41.3305 18.1921 41.2579 18.3469 41.2353 18.5106H42.2047Z" fill="#8A898C"/>
<path d="M43.424 17.4812H44.0036L43.9437 17.7855C44.0671 17.6745 44.2086 17.581 44.3634 17.508C44.4801 17.4776 44.6025 17.4685 44.7232 17.4812C44.8061 17.478 44.8887 17.4916 44.9648 17.5211C45.041 17.5505 45.1087 17.595 45.1629 17.6513C45.2791 17.7766 45.3396 17.936 45.3328 18.0988C45.3187 18.2579 45.2954 18.4163 45.2629 18.5732L44.993 19.9158H44.3734L44.7232 18.5374C44.7511 18.4192 44.7711 18.2997 44.7832 18.1794C44.7864 18.1454 44.7818 18.1112 44.7698 18.0789C44.7578 18.0466 44.7385 18.0168 44.7132 17.9914C44.689 17.9657 44.6581 17.9458 44.6232 17.9333C44.5884 17.9208 44.5507 17.9162 44.5133 17.9198C44.4013 17.926 44.2952 17.9671 44.2135 18.0361C44.098 18.1186 44.0084 18.2265 43.9537 18.3494C43.8777 18.5317 43.8241 18.7207 43.7938 18.9133L43.6039 19.889H42.9843L43.424 17.4812Z" fill="#8A898C"/>
<path d="M45.7925 17.9914L45.8825 17.517H46.1825L46.2625 17.1321L46.9725 16.6935L46.8025 17.517H47.1825L47.0925 17.9914H46.7225L46.5225 18.9849C46.4964 19.0883 46.4764 19.1929 46.4625 19.2982C46.4639 19.341 46.4815 19.382 46.5125 19.4146C46.5639 19.4325 46.621 19.4325 46.6725 19.4146H46.8825L46.7825 19.8979C46.6727 19.9068 46.5623 19.9068 46.4525 19.8979C46.2803 19.9141 46.1079 19.8691 45.9725 19.7726C45.9213 19.7235 45.8816 19.6658 45.8559 19.6027C45.8301 19.5397 45.8188 19.4727 45.8225 19.4056C45.8386 19.2373 45.8653 19.07 45.9025 18.9044L46.1025 17.9466L45.7925 17.9914Z" fill="#8A898C"/>
<path d="M48.251 19.2714L48.8507 19.1729C48.888 19.28 48.957 19.3759 49.0506 19.4504C49.1478 19.5086 49.2636 19.5368 49.3804 19.531C49.5036 19.5385 49.6253 19.5033 49.7202 19.4325C49.745 19.4119 49.7649 19.387 49.7786 19.3593C49.7923 19.3316 49.7997 19.3017 49.8001 19.2714C49.8146 19.2337 49.8146 19.1927 49.8001 19.155C49.7231 19.099 49.6349 19.0565 49.5403 19.0297C49.2932 18.963 49.0602 18.8602 48.8507 18.7254C48.781 18.6674 48.7262 18.5965 48.6899 18.5177C48.6537 18.4389 48.637 18.354 48.6408 18.2689C48.6341 18.0905 48.7058 17.9169 48.8407 17.7855C49.0449 17.6235 49.3019 17.5246 49.5737 17.5036C49.8456 17.4827 50.1177 17.5407 50.3498 17.6692C50.5025 17.7867 50.6049 17.948 50.6396 18.1257L50.06 18.2241C50.0338 18.151 49.9853 18.0859 49.92 18.0362C49.8203 17.9747 49.7012 17.9434 49.5802 17.9467C49.4817 17.938 49.3828 17.9602 49.3004 18.0093C49.2756 18.0299 49.2557 18.0548 49.242 18.0825C49.2282 18.1102 49.2209 18.1401 49.2205 18.1704C49.2207 18.1992 49.2291 18.2274 49.2448 18.2524C49.2606 18.2775 49.2831 18.2985 49.3104 18.3136C49.4159 18.3705 49.5305 18.4128 49.6502 18.439C49.8724 18.4886 50.0803 18.5801 50.2598 18.7075C50.3281 18.7651 50.3828 18.8344 50.4205 18.9113C50.4583 18.9881 50.4784 19.071 50.4797 19.155C50.4807 19.2654 50.4564 19.3748 50.4083 19.4764C50.3602 19.5781 50.2892 19.6697 50.1999 19.7458C50.0978 19.8323 49.9765 19.8985 49.8439 19.9401C49.7113 19.9818 49.5704 19.9979 49.4303 19.9875C49.1577 20.0025 48.8872 19.9364 48.6608 19.7995C48.4615 19.67 48.3171 19.4838 48.251 19.2714Z" fill="#8A898C"/>
<path d="M51.2696 17.4812H51.8895L51.4095 19.8532H50.7896L51.2696 17.4812ZM51.4496 16.5861H52.0695L51.9596 17.1679H51.3396L51.4496 16.5861Z" fill="#8A898C"/>
<path d="M51.9888 20.0143L52.6384 20.1128C52.62 20.1652 52.62 20.2214 52.6384 20.2739C52.6636 20.3102 52.6978 20.3408 52.7384 20.3634C52.8044 20.3745 52.8722 20.3745 52.9382 20.3634C53.0486 20.3679 53.1576 20.3396 53.248 20.2828C53.316 20.2262 53.3675 20.1555 53.398 20.077C53.398 20.0232 53.398 19.889 53.4879 19.701V19.5846C53.3124 19.7502 53.0729 19.8495 52.8183 19.8621C52.7118 19.8639 52.6064 19.8429 52.5108 19.8009C52.4152 19.7588 52.3322 19.697 52.2686 19.6205C52.1092 19.4066 52.032 19.1521 52.0488 18.8954C52.0456 18.6328 52.0964 18.3718 52.1987 18.1256C52.2808 17.9203 52.4222 17.7381 52.6084 17.5975C52.7654 17.4864 52.9581 17.4237 53.1581 17.4185C53.3091 17.4204 53.4558 17.4642 53.5779 17.5438C53.7064 17.6396 53.806 17.7627 53.8677 17.9019L54.0176 17.4812H54.5972L54.1975 19.4593C54.1375 19.7726 54.0776 20.0053 54.0376 20.1396C53.9999 20.2527 53.9462 20.361 53.8777 20.4618C53.8241 20.5426 53.7527 20.6126 53.6678 20.6677C53.5695 20.7228 53.4613 20.7622 53.348 20.7841C53.2219 20.7982 53.0943 20.7982 52.9682 20.7841C52.708 20.7973 52.4496 20.7379 52.2287 20.614C52.1415 20.5415 52.0738 20.4524 52.0306 20.3532C51.9873 20.254 51.9696 20.1473 51.9788 20.0411C51.9788 20.0411 51.9888 20.0501 51.9888 20.0143ZM52.7184 18.8686C52.7082 19.0138 52.7502 19.1581 52.8383 19.2803C52.869 19.3243 52.9117 19.3606 52.9624 19.3857C53.0131 19.4107 53.0702 19.4238 53.1281 19.4235C53.2479 19.4168 53.3611 19.3724 53.4479 19.2982C53.5595 19.1963 53.6388 19.0696 53.6778 18.9312C53.7287 18.7833 53.7556 18.6295 53.7577 18.4747C53.7666 18.3312 53.7208 18.1892 53.6278 18.0719C53.5945 18.0254 53.5486 17.9871 53.4945 17.9606C53.4404 17.934 53.3797 17.92 53.318 17.9198C53.2602 17.9214 53.2034 17.9342 53.1516 17.9574C53.0999 17.9806 53.0543 18.0136 53.0182 18.054C52.9082 18.1776 52.8298 18.3212 52.7883 18.4747C52.743 18.6021 52.7194 18.7349 52.7184 18.8686Z" fill="#8A898C"/>
<path d="M54.8071 18.9044C54.787 18.5257 54.9141 18.1524 55.1669 17.8482C55.2857 17.7153 55.4386 17.61 55.6127 17.5415C55.7867 17.4729 55.9766 17.443 56.1663 17.4544C56.3141 17.4482 56.4616 17.4715 56.5982 17.5226C56.7347 17.5737 56.8569 17.6512 56.9558 17.7498C57.1591 17.9671 57.2627 18.2454 57.2457 18.5285C57.2554 18.8867 57.1285 19.2371 56.8859 19.522C56.7735 19.6629 56.6225 19.7756 56.4475 19.8493C56.2725 19.9229 56.0793 19.9551 55.8865 19.9427C55.6832 19.9464 55.4827 19.9 55.3068 19.8085C55.1416 19.722 55.012 19.5902 54.9371 19.4325C54.8528 19.2666 54.8086 19.0867 54.8071 18.9044ZM56.5761 18.4479C56.5859 18.3153 56.5395 18.1843 56.4462 18.0809C56.4074 18.0358 56.3574 17.9993 56.3001 17.9745C56.2429 17.9496 56.18 17.937 56.1164 17.9377C55.9817 17.9399 55.8531 17.9879 55.7566 18.072C55.641 18.1762 55.5582 18.3059 55.5167 18.4479C55.4681 18.5933 55.4412 18.7438 55.4368 18.8955C55.4263 19.0392 55.4723 19.1817 55.5667 19.2983C55.606 19.3458 55.6572 19.3843 55.7163 19.4108C55.7753 19.4372 55.8405 19.4508 55.9065 19.4504C55.9931 19.4475 56.0776 19.4255 56.1525 19.3865C56.2274 19.3475 56.2905 19.2926 56.3362 19.2267C56.5018 18.9946 56.5854 18.7232 56.5761 18.4479Z" fill="#8A898C"/>
<path d="M57.8653 17.4812H58.4449L58.355 17.9377C58.5649 17.5975 58.8047 17.4185 59.0546 17.4185C59.1558 17.4236 59.2546 17.448 59.3444 17.4901L59.1045 18.0182C59.0449 18.0098 58.9842 18.0098 58.9246 18.0182C58.8018 18.0244 58.6852 18.0687 58.5948 18.1435C58.4817 18.2369 58.3959 18.3537 58.345 18.4837C58.2534 18.6972 58.1897 18.9195 58.1551 19.1461L58.0052 19.889H57.3856L57.8653 17.4812Z" fill="#8A898C"/>
<path d="M59.2944 17.9914L59.3944 17.517H59.7144L59.7944 17.1321L60.5044 16.6935L60.3144 17.4812H60.7144L60.6144 17.9556H60.2144L60.0144 18.9491C60.0144 19.1281 60.0144 19.2356 60.0144 19.2624C60 19.3001 60 19.3411 60.0144 19.3788C60.0694 19.3965 60.1295 19.3965 60.1844 19.3788H60.3844L60.2944 19.8621C60.1847 19.871 60.0742 19.871 59.9644 19.8621C59.7923 19.8783 59.6199 19.8333 59.4844 19.7368C59.4332 19.6877 59.3936 19.63 59.3678 19.5669C59.3421 19.5039 59.3307 19.4369 59.3344 19.3698C59.3505 19.2015 59.3772 19.0342 59.4144 18.8686L59.6044 17.9108L59.2944 17.9914Z" fill="#8A898C"/>
<path d="M61.4931 18.1883L60.8835 18.1346C60.9421 17.938 61.0679 17.7628 61.2433 17.6334C61.4446 17.5069 61.6872 17.4439 61.9329 17.4544C62.0496 17.4458 62.1671 17.458 62.2786 17.4903C62.3901 17.5226 62.4934 17.5742 62.5825 17.6423C62.6494 17.7004 62.7025 17.7699 62.7386 17.8469C62.7747 17.9238 62.7929 18.0064 62.7924 18.0899C62.8019 18.1672 62.8019 18.2453 62.7924 18.3226C62.7924 18.4032 62.7924 18.618 62.6624 18.9581C62.6155 19.1527 62.5855 19.3502 62.5725 19.5489C62.5744 19.6642 62.5946 19.7788 62.6325 19.889H62.0228C62.0125 19.7997 62.0125 19.7098 62.0228 19.6205C61.9386 19.7222 61.8291 19.805 61.703 19.8622C61.5958 19.9148 61.4755 19.9425 61.3532 19.9427C61.2642 19.9452 61.1756 19.9296 61.0943 19.897C61.0129 19.8645 60.9409 19.8158 60.8835 19.7548C60.7519 19.6151 60.6841 19.436 60.6936 19.2535C60.6849 19.0544 60.7598 18.8596 60.9035 18.7075C61.1006 18.5483 61.3577 18.462 61.6231 18.4658C61.826 18.4561 62.0272 18.4261 62.2227 18.3763C62.2292 18.3048 62.2292 18.233 62.2227 18.1615C62.2217 18.095 62.1932 18.0312 62.1428 17.9825C62.0737 17.9366 61.9886 17.9144 61.9029 17.9198C61.8564 17.9156 61.8095 17.9198 61.7649 17.9321C61.7203 17.9444 61.6788 17.9645 61.6431 17.9914C61.6042 18.0131 61.5707 18.0418 61.5449 18.0757C61.5191 18.1096 61.5015 18.148 61.4931 18.1883ZM62.0728 18.7791C62.0265 18.7867 61.9791 18.7867 61.9329 18.7791C61.7156 18.7821 61.504 18.8411 61.3232 18.9492C61.2878 18.9751 61.2595 19.0079 61.2405 19.0452C61.2214 19.0824 61.2121 19.123 61.2133 19.164C61.2137 19.2332 61.2421 19.3 61.2933 19.352C61.3191 19.3788 61.3514 19.4 61.3878 19.414C61.4242 19.4279 61.4636 19.4343 61.5031 19.4325C61.5955 19.4306 61.6854 19.4058 61.763 19.3609C61.8452 19.32 61.9115 19.2576 61.9529 19.1819C62.0047 19.0698 62.0416 18.9526 62.0628 18.8328L62.0728 18.7791Z" fill="#8A898C"/>
<path d="M65.1709 18.1883L64.5713 18.1346C64.626 17.936 64.755 17.7602 64.9368 17.6364C65.1187 17.5126 65.3424 17.4484 65.5707 17.4543C65.689 17.4451 65.8082 17.457 65.9215 17.4892C66.0347 17.5215 66.1396 17.5735 66.2303 17.6423C66.2972 17.7003 66.3503 17.7699 66.3863 17.8468C66.4224 17.9238 66.4407 18.0064 66.4401 18.0899C66.4447 18.1674 66.4447 18.2451 66.4401 18.3226C66.4401 18.4031 66.4401 18.618 66.3102 18.9581C66.2633 19.1526 66.2332 19.3502 66.2203 19.5489C66.2222 19.6642 66.2424 19.7787 66.2802 19.889H65.7106C65.7002 19.7997 65.7002 19.7097 65.7106 19.6205C65.6264 19.7222 65.5169 19.8049 65.3908 19.8621C65.2836 19.9148 65.1633 19.9425 65.041 19.9427C64.9519 19.9452 64.8634 19.9296 64.782 19.897C64.7007 19.8645 64.6286 19.8158 64.5713 19.7547C64.4397 19.615 64.3719 19.436 64.3814 19.2535C64.3726 19.0544 64.4475 18.8596 64.5912 18.7075C64.7884 18.5483 65.0455 18.462 65.3108 18.4658C65.5138 18.4561 65.7149 18.426 65.9105 18.3763C65.9179 18.3048 65.9179 18.2329 65.9105 18.1615C65.9122 18.1282 65.9059 18.0951 65.8922 18.0642C65.8784 18.0333 65.8573 18.0054 65.8305 17.9824C65.7659 17.9356 65.6834 17.9131 65.6006 17.9198C65.504 17.9136 65.4081 17.939 65.3308 17.9914C65.2551 18.0398 65.199 18.1089 65.1709 18.1883ZM65.7605 18.7791C65.711 18.7878 65.6601 18.7878 65.6106 18.7791C65.3967 18.7833 65.1886 18.8423 65.011 18.9491C64.9756 18.9751 64.9473 19.0079 64.9282 19.0451C64.9092 19.0824 64.8999 19.123 64.9011 19.164C64.9015 19.2332 64.9299 19.3 64.981 19.3519C65.0068 19.3788 65.0392 19.4 65.0755 19.414C65.1119 19.4279 65.1514 19.4343 65.1909 19.4325C65.2832 19.4306 65.3732 19.4058 65.4507 19.3609C65.5309 19.3176 65.5965 19.2558 65.6406 19.1819C65.6879 19.0684 65.7246 18.9516 65.7506 18.8328L65.7605 18.7791Z" fill="#8A898C"/>
<path d="M66.8999 19.2714H67.5199L67.3899 19.889H66.7799L66.8999 19.2714Z" fill="#8A898C"/>
<path d="M67.9092 19.2714L68.5089 19.1729C68.5425 19.2814 68.6122 19.3782 68.7088 19.4504C68.8023 19.5085 68.9149 19.5368 69.0286 19.5309C69.1519 19.5395 69.274 19.5041 69.3684 19.4325C69.396 19.4135 69.4185 19.3891 69.4341 19.3612C69.4496 19.3333 69.4579 19.3026 69.4583 19.2714C69.4721 19.2335 69.4721 19.1928 69.4583 19.155C69.3856 19.0982 69.3005 19.0556 69.2085 19.0297C68.9577 18.9646 68.7211 18.8616 68.5089 18.7254C68.4392 18.6673 68.3844 18.5965 68.3482 18.5177C68.3119 18.4389 68.2952 18.354 68.299 18.2689C68.2963 18.0911 68.3676 17.9188 68.4989 17.7855C68.6092 17.6859 68.7421 17.6087 68.8887 17.5593C69.0353 17.5098 69.1921 17.4893 69.3484 17.4991C69.5838 17.4842 69.8174 17.5445 70.008 17.6691C70.1641 17.7841 70.2674 17.9467 70.2978 18.1256L69.7281 18.2241C69.7021 18.1486 69.6495 18.0827 69.5782 18.0361C69.4829 17.9736 69.3665 17.942 69.2484 17.9466C69.1499 17.938 69.051 17.9601 68.9686 18.0093C68.9422 18.0287 68.9213 18.0534 68.9074 18.0814C68.8935 18.1093 68.8871 18.1398 68.8887 18.1704C68.8869 18.1984 68.8933 18.2264 68.9074 18.2515C68.9214 18.2766 68.9425 18.298 68.9686 18.3136C69.0781 18.3697 69.1959 18.4119 69.3184 18.4389C69.5389 18.4927 69.7458 18.5839 69.928 18.7074C69.995 18.7655 70.0481 18.8351 70.0841 18.912C70.1202 18.9889 70.1385 19.0716 70.1379 19.155C70.1385 19.2645 70.115 19.3731 70.0687 19.4745C70.0224 19.5758 69.9542 19.668 69.8681 19.7458C69.7625 19.8303 69.6392 19.8951 69.5054 19.9366C69.3715 19.9781 69.2299 19.9954 69.0885 19.9874C68.819 20.0025 68.5516 19.9363 68.329 19.7995C68.1203 19.6766 67.9706 19.4882 67.9092 19.2714ZM68.1891 20.8557L68.289 20.5961H68.4189C68.5382 20.597 68.6566 20.5788 68.7687 20.5424C68.8223 20.5267 68.8705 20.499 68.9086 20.4618C68.9208 20.4299 68.9208 20.3953 68.9086 20.3634C68.9095 20.3424 68.9044 20.3216 68.894 20.3028C68.8835 20.284 68.8679 20.2679 68.8487 20.256C68.8147 20.2128 68.7654 20.1812 68.7088 20.1665C68.6424 20.1592 68.5753 20.1592 68.5089 20.1665L68.5888 19.9427C68.6816 19.9309 68.7759 19.9309 68.8687 19.9427C68.9336 19.9383 68.9989 19.9455 69.0606 19.9639C69.1224 19.9824 69.1795 20.0117 69.2284 20.0501C69.2679 20.0832 69.2991 20.1235 69.3197 20.1683C69.3404 20.213 69.3502 20.2612 69.3484 20.3097C69.348 20.3731 69.3306 20.4355 69.2975 20.4916C69.2645 20.5477 69.2168 20.5959 69.1585 20.6319C68.9424 20.7746 68.6769 20.8443 68.4089 20.8288L68.1891 20.8557Z" fill="#8A898C"/>
<path d="M70.5877 19.2714H71.1977L71.0777 19.889H70.4677L70.5877 19.2714Z" fill="#8A898C"/>
</svg>