<?xml version="1.0" encoding="utf-8"?>
<svg xmlns="http://www.w3.org/2000/svg" fill="none" height="21" viewBox="0 0 83 21" width="83">
<path d="M8.56092 15.7966C7.4258 15.8355 6.29394 15.664 5.23633 15.2928C4.17871 14.9215 3.21816 14.3585 2.41492 13.6391C1.61168 12.9197 0.983089 12.0594 0.568566 11.1122C0.154044 10.1649 -0.0374651 9.15119 0.00605299 8.13455C-0.0646176 6.11396 0.692546 4.14003 2.13478 2.58496C2.86272 1.82756 3.76205 1.21735 4.77319 0.794766C5.87179 0.325786 7.07409 0.0841147 8.29108 0.0876415C10.5453 0.0506938 12.7237 0.816944 14.3474 2.21797C15.1588 2.92038 15.7897 3.77255 16.1963 4.71528C16.6522 5.72491 16.8864 6.80381 16.8859 7.89287C16.8784 8.73236 16.7405 9.56684 16.4762 10.3723C16.3137 10.8246 16.1803 11.2848 16.0764 11.7507C16.0624 12.1093 16.1555 12.4646 16.3462 12.7801L17.0258 13.5678C17.343 13.8689 17.5489 14.2502 17.6155 14.6598C17.6187 14.8815 17.5697 15.1014 17.4715 15.305C17.3734 15.5086 17.2283 15.6914 17.0458 15.8413C16.8499 16.0063 16.6187 16.1341 16.3663 16.2171C16.1139 16.3002 15.8453 16.3368 15.5767 16.3247C14.9491 16.2967 14.3341 16.1567 13.7678 15.9129C13.2035 15.6628 12.5877 15.5195 11.9589 15.4922C11.4182 15.4946 10.8792 15.5456 10.3498 15.6444C9.76101 15.7503 9.1615 15.8013 8.56092 15.7966ZM4.7532 7.687C4.68032 8.88563 5.09187 10.0677 5.91251 11.0168C6.1773 11.3247 6.51592 11.5755 6.90339 11.7505C7.29086 11.9256 7.71727 12.0205 8.15117 12.0282C8.72785 12.0522 9.30236 11.9498 9.82484 11.7298C10.3473 11.5099 10.802 11.1791 11.1494 10.7661C11.7984 9.95416 12.1255 8.97113 12.0788 7.97343C12.12 6.93349 11.7678 5.91159 11.0794 5.07332C10.7505 4.68498 10.3213 4.37383 9.82876 4.1665C9.33619 3.95917 8.79485 3.86184 8.25111 3.88284C7.78749 3.87706 7.32808 3.96219 6.90509 4.13228C6.48211 4.30237 6.1058 4.5533 5.80258 4.86745C5.06517 5.65358 4.68992 6.66183 4.7532 7.687Z" fill="#182148"/>
<path d="M30.3378 0.159249C28.439 0.159249 27.8893 1.29602 27.8893 3.15782V9.47719C27.9478 9.7745 27.9328 10.0797 27.8455 10.3713C27.7582 10.6628 27.6007 10.9338 27.384 11.165C27.1673 11.3963 26.8967 11.5822 26.5912 11.7098C26.2857 11.8373 25.9527 11.9034 25.6157 11.9034C25.2786 11.9034 24.9456 11.8373 24.6401 11.7098C24.3346 11.5822 24.064 11.3963 23.8474 11.165C23.6307 10.9338 23.4731 10.6628 23.3858 10.3713C23.2985 10.0797 23.2836 9.7745 23.342 9.47719V3.15782C23.342 1.29602 22.7924 0.159249 20.8835 0.159249C20.8835 0.159249 18.2751 0.159248 18.2751 3.18467V10.8646C18.2751 12.2251 19.6143 15.8413 25.6407 15.8413C31.667 15.8413 33.0062 12.2609 33.0062 10.8646V3.21152C32.9863 0.132396 30.3378 0.159249 30.3378 0.159249Z" fill="#182148"/>
<path d="M39.4724 8.77005V8.2688V3.03249C39.4724 0.266651 37.7834 0.159241 37.0938 0.159241C37.0938 0.159241 34.4154 0.159241 34.4154 3.24732V12.7443C34.4154 15.8324 37.0938 15.8413 37.0938 15.8413C37.7834 15.8413 39.4724 15.7249 39.4724 12.9591V9.7099V8.77005Z" fill="#182148"/>
<path d="M67.8454 7.98237C69.0047 6.59498 70.2539 5.09122 71.0534 4.11557C72.8923 1.89573 71.6131 0.902175 71.0534 0.535186C71.0534 0.535186 68.9047 -0.888014 66.846 1.5914C65.5767 3.13096 63.6379 5.45821 62.3287 7.02462V3.0325C62.3287 0.266657 60.6397 0.159246 59.9501 0.159246C59.9501 0.159246 57.2717 0.159247 57.2717 3.24732V8.2688V12.7443C57.2717 15.8324 59.9501 15.8413 59.9501 15.8413C60.2524 15.8571 60.5549 15.815 60.8375 15.7178C61.1202 15.6205 61.3764 15.4704 61.5891 15.2774C61.9652 14.9897 62.3008 14.6621 62.5885 14.3017L64.6573 11.8044C65.3968 12.6995 66.1664 13.5946 66.826 14.3734C68.8847 16.8528 71.0334 15.4296 71.0334 15.4296C71.5931 15.0626 72.8723 14.069 71.0334 11.8492C70.2539 10.8825 69.0047 9.36977 67.8454 7.98237Z" fill="#182148"/>
<path d="M54.8231 9.97845C52.5945 9.08335 51.765 10.6856 51.765 10.6856C51.2825 11.2783 50.5692 11.6872 49.7662 11.8313C49.0565 11.982 48.3113 11.9211 47.6438 11.6577C46.9764 11.3944 46.4232 10.943 46.0684 10.3723C45.7281 9.86653 45.5101 9.30237 45.4288 8.71636C45.4311 8.68358 45.4311 8.65069 45.4288 8.61791C45.4153 8.4152 45.4153 8.21195 45.4288 8.00924C45.415 7.80654 45.415 7.60328 45.4288 7.40058C45.4311 7.36779 45.4311 7.3349 45.4288 7.30211C45.5101 6.71611 45.7281 6.15195 46.0684 5.64619C46.4249 5.0707 46.9835 4.61666 47.6575 4.35448C48.3315 4.0923 49.0832 4.03664 49.7962 4.19614C50.6011 4.34167 51.315 4.75407 51.795 5.35081C51.795 5.35081 52.6245 6.97093 54.8531 6.05793C57.0818 5.14494 55.7326 3.03251 55.2229 2.59392C54.4079 1.82875 53.4255 1.22238 52.337 0.81271C51.2485 0.403036 50.0773 0.198866 48.8967 0.212964C47.6359 0.222847 46.3956 0.499655 45.277 1.02079C44.1585 1.54192 43.1934 2.2926 42.4606 3.21153C41.6763 4.14997 41.143 5.23706 40.9015 6.38912C40.9015 6.51443 40.8215 6.78296 40.7716 7.09624C40.7716 7.18575 40.7716 7.27526 40.7716 7.36477C40.7716 7.6154 40.7116 7.86602 40.7116 8.0719C40.7116 8.27777 40.7116 8.52839 40.7716 8.77902C40.7716 8.87748 40.7716 8.96699 40.7716 9.0565C40.8215 9.35188 40.8715 9.62041 40.9015 9.74572C41.1381 10.8991 41.6719 11.9872 42.4606 12.9233C43.1968 13.8287 44.1599 14.5668 45.2725 15.0782C46.3851 15.5897 47.6162 15.8602 48.8667 15.8682C50.0473 15.8823 51.2185 15.6781 52.307 15.2684C53.3955 14.8588 54.3779 14.2524 55.1929 13.4872C55.7026 12.9949 57.0518 10.8914 54.8231 9.97845Z" fill="#182148"/>
<path d="M82.0268 9.40562L81.9269 9.47723C81.3471 9.7935 80.6575 9.90719 79.99 9.79654C79.3225 9.68589 78.724 9.35868 78.3091 8.87752L77.5295 7.98242L73.7918 12.2789C73.5733 12.5055 73.4086 12.7696 73.308 13.0552C73.2073 13.3407 73.1727 13.6417 73.2064 13.9396C73.24 14.2375 73.3411 14.5261 73.5035 14.7879C73.666 15.0496 73.8863 15.2789 74.151 15.4618C74.4158 15.6446 74.7194 15.7772 75.0433 15.8514C75.3672 15.9256 75.7046 15.9398 76.0348 15.8933C76.3651 15.8467 76.6813 15.7403 76.9641 15.5805C77.2468 15.4208 77.4903 15.211 77.6795 14.9642L81.9169 10.0232C82.2708 9.602 82.5258 9.12091 82.6665 8.60899C82.5587 8.93112 82.3335 9.2116 82.0268 9.40562Z" fill="#93D500"/>
<path d="M81.9269 6.48758L82.0268 6.55024C82.3132 6.75062 82.5228 7.02594 82.6265 7.33792C82.4897 6.81658 82.2345 6.32603 81.8769 5.89682L77.6395 0.955893C77.4503 0.709013 77.2069 0.499287 76.9241 0.339538C76.6413 0.17979 76.3251 0.0733745 75.9949 0.0267995C75.6646 -0.0197755 75.3272 -0.00553198 75.0033 0.0686598C74.6794 0.142852 74.3758 0.275432 74.1111 0.458295C73.8463 0.641159 73.626 0.870464 73.4636 1.13219C73.3011 1.39391 73.2 1.68256 73.1664 1.98047C73.1328 2.27839 73.1673 2.57932 73.268 2.86486C73.3687 3.1504 73.5333 3.41456 73.7518 3.64118L77.4896 7.93763L78.2691 7.04254C78.6926 6.55925 79.302 6.23463 79.9783 6.13202C80.6546 6.02941 81.3493 6.15618 81.9269 6.48758Z" fill="#E81F76"/>
<path d="M82.7164 7.9824C82.7161 7.76804 82.6858 7.55455 82.6265 7.34689C82.5228 7.0349 82.3132 6.75958 82.0268 6.5592L81.9269 6.49654C81.3435 6.16996 80.6449 6.05041 79.9682 6.16136C79.2915 6.27231 78.6855 6.60575 78.2691 7.09626L77.4896 7.99135L78.2691 8.88645C78.6855 9.37695 79.2915 9.71039 79.9682 9.82134C80.6449 9.9323 81.3435 9.81275 81.9269 9.48616L82.0268 9.41455C82.3151 9.21951 82.5253 8.94641 82.6265 8.63582C82.6852 8.42805 82.7155 8.21463 82.7164 8.0003V7.9824Z" fill="#182148"/>
<path d="M51.4452 18.6251C52.1947 18.7772 52.3746 19.1711 52.3746 19.5202C52.3746 20.093 51.8949 20.5227 50.9155 20.5227C49.9361 20.5227 49.4164 20.0662 49.4164 19.7171C49.4149 19.676 49.423 19.6351 49.4402 19.597C49.4574 19.5588 49.4833 19.5243 49.5162 19.4957C49.5492 19.4671 49.5884 19.4449 49.6314 19.4306C49.6745 19.4163 49.7204 19.4102 49.7662 19.4127C50.2059 19.4127 50.086 19.9946 50.9155 19.9946C51.3352 19.9946 51.5651 19.7887 51.5651 19.5739C51.5651 19.359 51.4952 19.3053 51.2153 19.2427L50.3259 19.0547C49.5863 18.8846 49.4564 18.5266 49.4564 18.1596C49.4564 17.4435 50.1859 17.184 50.8755 17.184C51.5651 17.184 52.2547 17.4972 52.2547 17.9269C52.2522 17.9677 52.2405 18.0076 52.2204 18.0443C52.2003 18.081 52.1722 18.1137 52.1377 18.1404C52.1032 18.1671 52.063 18.1874 52.0196 18.1999C51.9762 18.2124 51.9304 18.217 51.8849 18.2133C51.5051 18.2133 51.5751 17.7389 50.8156 17.7389C50.4458 17.7389 50.2359 17.8911 50.2359 18.1149C50.2359 18.3386 50.5357 18.4102 50.7856 18.4639L51.4452 18.6251Z" fill="#182148"/>
<path d="M53.3243 17.2108C53.3999 17.2108 53.4737 17.231 53.5364 17.2688C53.5991 17.3066 53.6478 17.3603 53.6762 17.4229C53.7047 17.4856 53.7116 17.5545 53.6961 17.6207C53.6806 17.6869 53.6434 17.7475 53.5893 17.7946C53.5351 17.8418 53.4665 17.8735 53.3921 17.8856C53.3178 17.8977 53.2411 17.8897 53.1718 17.8626C53.1026 17.8354 53.044 17.7904 53.0034 17.7333C52.9629 17.6762 52.9423 17.6096 52.9443 17.542C52.9469 17.4534 52.9881 17.3691 53.0591 17.3073C53.1301 17.2454 53.2252 17.2108 53.3243 17.2108ZM52.9243 18.4281C52.9243 18.3427 52.9622 18.2607 53.0298 18.2003C53.0973 18.1399 53.1888 18.1059 53.2843 18.1059C53.3798 18.1059 53.4714 18.1399 53.5389 18.2003C53.6064 18.2607 53.6443 18.3427 53.6443 18.4281V20.2183C53.6443 20.3038 53.6064 20.3858 53.5389 20.4462C53.4714 20.5066 53.3798 20.5406 53.2843 20.5406C53.1888 20.5406 53.0973 20.5066 53.0298 20.4462C52.9622 20.3858 52.9243 20.3038 52.9243 20.2183V18.4281Z" fill="#182148"/>
<path d="M57.6614 20.29C57.6615 20.3225 57.6542 20.3546 57.64 20.3846C57.6258 20.4145 57.605 20.4415 57.5789 20.4641C57.5528 20.4867 57.5218 20.5043 57.4879 20.5159C57.454 20.5275 57.4179 20.5328 57.3816 20.5316C57.1517 20.5316 57.0818 20.4063 57.0318 20.1199C56.9086 20.2643 56.7473 20.379 56.5624 20.454C56.3776 20.529 56.1749 20.5618 55.9725 20.5495C55.7296 20.5633 55.4864 20.5287 55.2603 20.4483C55.0341 20.3679 54.8307 20.2437 54.6644 20.0845C54.4982 19.9254 54.3734 19.7353 54.2989 19.5278C54.2244 19.3204 54.202 19.1008 54.2335 18.8847C54.2107 18.6605 54.243 18.4346 54.3282 18.2228C54.4134 18.0111 54.5494 17.8186 54.7266 17.6591C54.9038 17.4995 55.118 17.3766 55.354 17.2992C55.5899 17.2217 55.842 17.1916 56.0924 17.2108C56.9918 17.2108 57.4716 17.6942 57.4716 17.9717C57.4749 18.0163 57.4671 18.0611 57.4489 18.1027C57.4307 18.1444 57.4025 18.1819 57.3662 18.2127C57.3299 18.2435 57.2865 18.2667 57.2391 18.2807C57.1917 18.2948 57.1414 18.2993 57.0918 18.2939C56.692 18.2939 56.8419 17.7927 56.0924 17.7927C55.5327 17.7927 55.093 18.1238 55.093 18.9294C55.093 19.556 55.4428 19.9946 56.0924 19.9946C56.299 20.0023 56.5011 19.939 56.6573 19.8174C56.8134 19.6959 56.9116 19.5255 56.9319 19.3412H56.4022C56.2323 19.3412 56.0424 19.2875 56.0424 19.0637C56.0382 19.0286 56.0423 18.9931 56.0545 18.9595C56.0666 18.9259 56.0865 18.895 56.113 18.8688C56.1394 18.8426 56.1717 18.8217 56.2078 18.8075C56.2438 18.7933 56.2828 18.786 56.3222 18.7862H57.3216C57.5615 18.7862 57.6614 18.8847 57.6614 19.0905V20.29Z" fill="#182148"/>
<path d="M60.03 17.2108C60.2727 17.1944 60.5164 17.2255 60.7443 17.3018C60.9722 17.3781 61.1789 17.4979 61.35 17.6529C61.5211 17.8078 61.6525 17.9942 61.7352 18.1992C61.8179 18.4041 61.8499 18.6227 61.829 18.8399C61.8518 19.0611 61.8218 19.2842 61.741 19.4942C61.6601 19.7043 61.5304 19.8965 61.3602 20.0582C61.1901 20.2199 60.9835 20.3474 60.7541 20.4321C60.5248 20.5168 60.278 20.5568 60.03 20.5495C59.5593 20.5186 59.119 20.3293 58.7977 20.0197C58.4763 19.71 58.2977 19.3029 58.2977 18.8801C58.2977 18.4574 58.4763 18.0503 58.7977 17.7406C59.119 17.431 59.5593 17.2417 60.03 17.2108ZM60.03 19.9677C60.7696 19.9677 61.0294 19.4485 61.0294 18.8399C61.0294 18.2312 60.6996 17.7926 60.03 17.7926C59.3604 17.7926 59.0306 18.2312 59.0306 18.8399C59.0306 19.4485 59.3205 19.9677 60.03 19.9677Z" fill="#182148"/>
<path d="M62.4286 17.7121C62.4286 17.3809 62.6185 17.2824 62.8983 17.2824H64.2575C65.2569 17.2824 65.4768 17.7568 65.4768 18.1775C65.4849 18.3482 65.4295 18.5165 65.3191 18.6559C65.2087 18.7953 65.0497 18.8978 64.8671 18.9473C65.2769 19.001 65.3568 19.2695 65.3568 19.5918C65.375 19.8147 65.4117 20.0361 65.4668 20.2541C65.4668 20.4152 65.2669 20.5316 65.077 20.5316C64.6373 20.5316 64.5973 20.1467 64.5973 20.0214C64.5973 19.4575 64.4874 19.2337 64.0376 19.2337H63.2381V20.2183C63.2229 20.3047 63.1738 20.3833 63.0996 20.4402C63.0254 20.497 62.931 20.5282 62.8333 20.5282C62.7357 20.5282 62.6413 20.497 62.5671 20.4402C62.4929 20.3833 62.4438 20.3047 62.4286 20.2183V17.7121ZM63.2381 18.7056H64.0476C64.3574 18.7056 64.6672 18.634 64.6672 18.276C64.6672 17.9179 64.4274 17.8463 64.0776 17.8463H63.2381V18.7056Z" fill="#182148"/>
<path d="M66.8759 17.8911H66.1064C65.8765 17.8911 65.6866 17.7926 65.6866 17.5867C65.6866 17.3809 65.8765 17.2824 66.1064 17.2824H68.455C68.6948 17.2824 68.8747 17.3898 68.8747 17.5867C68.8747 17.7837 68.6948 17.8911 68.455 17.8911H67.6954V20.2183C67.6954 20.3157 67.6523 20.409 67.5754 20.4778C67.4986 20.5466 67.3944 20.5853 67.2857 20.5853C67.177 20.5853 67.0728 20.5466 66.9959 20.4778C66.9191 20.409 66.8759 20.3157 66.8759 20.2183V17.8911Z" fill="#182148"/>
<path d="M69.8441 17.4435C69.8712 17.3728 69.9249 17.3127 69.996 17.2735C70.0671 17.2343 70.1512 17.2185 70.2339 17.2287H70.4338C70.5285 17.2173 70.6246 17.2374 70.7038 17.2853C70.783 17.3331 70.8399 17.4054 70.8635 17.4883L71.8629 19.9319C71.9047 20.0235 71.9316 20.1199 71.9429 20.2183C71.9377 20.3046 71.8951 20.3856 71.8242 20.4442C71.7532 20.5027 71.6595 20.5341 71.5631 20.5316C71.4858 20.5404 71.4074 20.5258 71.3404 20.4901C71.2734 20.4544 71.2217 20.3997 71.1933 20.3347L70.9935 19.8066H69.6642L69.4444 20.3347C69.4444 20.4779 69.2845 20.5316 69.0846 20.5316C69.0367 20.5354 68.9884 20.5301 68.9429 20.516C68.8975 20.5018 68.8559 20.4792 68.8209 20.4496C68.786 20.42 68.7584 20.384 68.7401 20.3442C68.7218 20.3043 68.7132 20.2614 68.7148 20.2183C68.7261 20.1199 68.753 20.0235 68.7948 19.9319L69.8441 17.4435ZM70.3338 18.0164L69.8441 19.3232H70.8435L70.3338 18.0164Z" fill="#182148"/>
</svg>