<?xml version="1.0" encoding="utf-8"?>
<svg xmlns="http://www.w3.org/2000/svg" fill="none" height="28" viewBox="0 0 82 28" width="82">
<path d="M81.9609 19.9427H0.109985V21.0616H81.9609V19.9427Z" fill="#E21E26"/>
<path d="M2.15877 27.6942H1.62909L0.119995 23.7737H0.839564L1.89893 26.638L2.99827 23.7737H3.72783L2.15877 27.6942Z" fill="#231F20"/>
<path d="M4.32751 27.6942V23.7737H4.99751V27.7031L4.32751 27.6942Z" fill="#231F20"/>
<path d="M6.23633 27.6942V23.7737H9.16457V24.3107H6.93591V25.4565H8.83477V25.9846H6.93591V27.1661H9.16457V27.7031L6.23633 27.6942Z" fill="#231F20"/>
<path d="M12.9923 27.6942L10.8735 24.9284V27.6942H10.184V23.7737H10.8136L12.9323 26.5306V23.7737H13.6219V27.7031L12.9923 27.6942Z" fill="#231F20"/>
<path d="M17.5995 27.6942L15.4808 24.9284V27.6942H14.7912V23.7737H15.4308L17.5395 26.5306V23.7737H18.2291V27.7031L17.5995 27.6942Z" fill="#231F20"/>
<path d="M22.0768 27.6942L21.757 26.9065H19.9881L19.6683 27.6942H18.9287L20.5777 23.7737H21.1374L22.8164 27.7031L22.0768 27.6942ZM20.8775 24.6688L20.158 26.4053H21.5671L20.8775 24.6688Z" fill="#231F20"/>
<path d="M25.045 27.6942V23.7737H25.735V27.7031L25.045 27.6942Z" fill="#231F20"/>
<path d="M29.7622 27.6942L27.6435 24.9284V27.6942H26.9839V23.7737H27.6135L29.7322 26.5306V23.7737H30.4218V27.7031L29.7622 27.6942Z" fill="#231F20"/>
<path d="M32.8204 27.73C32.5266 27.749 32.2316 27.7125 31.9545 27.6231C31.6773 27.5337 31.4242 27.3933 31.2114 27.2109L31.6711 26.8171C31.8261 26.9491 32.0102 27.0507 32.2115 27.1154C32.4128 27.1801 32.627 27.2065 32.8404 27.193C33.44 27.193 33.7798 26.9692 33.7798 26.5933C33.7862 26.517 33.7734 26.4403 33.7423 26.369C33.7111 26.2978 33.6625 26.2337 33.5999 26.1815C33.4596 26.0771 33.2827 26.0201 33.1002 26.0204L32.5606 25.9488C32.2426 25.9234 31.9401 25.8144 31.6911 25.6355C31.5796 25.5403 31.4924 25.4246 31.4355 25.2964C31.3786 25.1681 31.3532 25.0304 31.3613 24.8926C31.3613 24.2034 31.9409 23.7379 32.8904 23.7379C33.1484 23.723 33.4071 23.755 33.6509 23.8319C33.8948 23.9088 34.1188 24.0291 34.3095 24.1855L33.8698 24.5525C33.5907 24.3437 33.2333 24.2381 32.8704 24.2571C32.3307 24.2571 32.0309 24.5167 32.0309 24.8657C32.0277 24.9351 32.0423 25.0043 32.0734 25.0679C32.1046 25.1315 32.1516 25.1879 32.2108 25.2327C32.3587 25.3337 32.5353 25.3957 32.7205 25.4118L33.2401 25.4744C33.5537 25.4915 33.8538 25.5946 34.0996 25.7698C34.225 25.8705 34.3233 25.9953 34.3873 26.1347C34.4513 26.2742 34.4794 26.4248 34.4694 26.5754C34.4694 27.3004 33.7798 27.73 32.8204 27.73Z" fill="#231F20"/>
<path d="M36.9779 27.73C36.7689 27.7435 36.559 27.7184 36.3613 27.6562C36.1635 27.594 35.9822 27.4961 35.8285 27.3685C35.6748 27.2409 35.5521 27.0864 35.4678 26.9145C35.3836 26.7427 35.3397 26.5571 35.3389 26.3695V23.7737H36.0384V26.3516C36.0248 26.4699 36.0391 26.5896 36.0804 26.7027C36.1216 26.8158 36.189 26.92 36.278 27.0083C36.367 27.0967 36.4757 27.1673 36.5972 27.2157C36.7186 27.264 36.85 27.289 36.9829 27.289C37.1158 27.289 37.2472 27.264 37.3686 27.2157C37.49 27.1673 37.5988 27.0967 37.6878 27.0083C37.7768 26.92 37.8441 26.8158 37.8854 26.7027C37.9266 26.5896 37.9409 26.4699 37.9273 26.3516V23.7737H38.6269V26.3695C38.6262 26.558 38.582 26.7443 38.4972 26.9168C38.4123 27.0893 38.2886 27.2443 38.1338 27.372C37.979 27.4997 37.7965 27.5974 37.5976 27.659C37.3987 27.7206 37.1877 27.7448 36.9779 27.73Z" fill="#231F20"/>
<path d="M42.3047 27.6942L41.3053 26.0383H40.4358V27.6942H39.7762V23.7737H41.5552C41.7342 23.7575 41.9151 23.775 42.0861 23.8251C42.2572 23.8753 42.4146 23.9569 42.5483 24.0648C42.682 24.1728 42.7889 24.3046 42.8623 24.4517C42.9357 24.5989 42.9738 24.7582 42.9743 24.9194C42.9782 25.1609 42.8889 25.3962 42.7213 25.5854C42.5537 25.7746 42.3183 25.9062 42.0549 25.9577L43.1142 27.6942H42.3047ZM41.4952 24.3018H40.4958V25.5639H41.4952C41.5922 25.5753 41.6908 25.5681 41.7844 25.5428C41.878 25.5175 41.9646 25.4747 42.0383 25.4171C42.112 25.3595 42.1713 25.2886 42.212 25.2089C42.2528 25.1293 42.2742 25.0428 42.2747 24.9552C42.2816 24.8639 42.2657 24.7724 42.2282 24.6873C42.1907 24.6022 42.1325 24.5256 42.0579 24.463C41.9833 24.4005 41.8941 24.3536 41.7968 24.3257C41.6995 24.2978 41.5965 24.2897 41.4952 24.3018Z" fill="#231F20"/>
<path d="M46.6321 27.6942L46.3123 26.9065H44.5134L44.1936 27.6942H43.454L45.133 23.7737H45.6927L47.3717 27.7031L46.6321 27.6942ZM45.4329 24.6688L44.7133 26.4053H46.1224L45.4329 24.6688Z" fill="#231F20"/>
<path d="M50.8496 27.6942L48.7308 24.9284V27.6942H48.0413V23.7737H48.6709L50.7896 26.5306V23.7737H51.4792V27.7031L50.8496 27.6942Z" fill="#231F20"/>
<path d="M54.1776 27.7301C53.7356 27.7479 53.3029 27.6134 52.9683 27.3541C52.5186 26.9692 52.5286 26.5306 52.5286 25.7788C52.5286 25.0269 52.5286 24.5883 52.9683 24.1944C53.2946 23.9181 53.7286 23.7671 54.1776 23.7737C54.4143 23.7678 54.6498 23.8053 54.8698 23.8837C55.0898 23.9622 55.2895 24.0802 55.4568 24.2302L54.9871 24.633C54.8889 24.5272 54.7648 24.4431 54.6244 24.3872C54.484 24.3313 54.3311 24.3052 54.1776 24.3108C54.0527 24.3067 53.9281 24.3251 53.8113 24.3651C53.6945 24.4051 53.588 24.4658 53.498 24.5435C53.2781 24.7494 53.2282 24.9821 53.2282 25.7698C53.2282 26.5575 53.2781 26.7813 53.498 26.9961C53.6838 27.1474 53.9265 27.2305 54.1776 27.2288C54.3319 27.2334 54.4853 27.2058 54.6258 27.1484C54.7662 27.0909 54.8899 27.0051 54.9871 26.8976L55.4568 27.3004C55.2867 27.4452 55.0858 27.5579 54.866 27.6317C54.6462 27.7056 54.4121 27.739 54.1776 27.7301Z" fill="#231F20"/>
<path d="M56.4062 27.6942V23.7737H59.3245V24.3107H57.0958V25.4565H58.9647V25.9846H57.0958V27.1661H59.3245V27.7031L56.4062 27.6942Z" fill="#231F20"/>
<path d="M64.5813 27.2735C64.4197 27.4228 64.2252 27.5405 64.0102 27.6191C63.7951 27.6977 63.5642 27.7354 63.3321 27.73C62.8866 27.7343 62.4566 27.5835 62.1328 27.3093C61.6831 26.9244 61.6931 26.4858 61.6931 25.7339C61.6931 24.9821 61.6931 24.5435 62.1328 24.1496C62.4564 23.8763 62.8874 23.7283 63.3321 23.7379C63.5922 23.7263 63.8519 23.7669 64.0922 23.8568C64.3326 23.9466 64.5475 24.0833 64.7213 24.257L64.2515 24.6598C64.1404 24.5379 64 24.44 63.8409 24.3734C63.6817 24.3067 63.5078 24.2731 63.3321 24.2749C63.081 24.2733 62.8383 24.3564 62.6525 24.5077C62.4326 24.7225 62.3827 24.9463 62.3827 25.7339C62.3827 26.5216 62.3827 26.7454 62.6525 26.9602C62.8383 27.1115 63.081 27.1946 63.3321 27.193C63.4701 27.1949 63.607 27.1713 63.7343 27.1236C63.8616 27.0758 63.9764 27.0049 64.0716 26.9155C64.2309 26.7391 64.3095 26.5152 64.2915 26.2889V26.083H63.2921V25.5639H64.9611V26.1546C64.9886 26.3546 64.969 26.5574 64.9036 26.7501C64.8382 26.9428 64.7284 27.1211 64.5813 27.2735Z" fill="#231F20"/>
<path d="M68.519 27.6942L67.5196 26.0383H66.6501V27.6942H65.9605V23.7737H67.7294C67.9093 23.7574 68.0911 23.7751 68.2628 23.8258C68.4345 23.8765 68.5924 23.9589 68.7263 24.0678C68.8601 24.1767 68.9669 24.3096 69.0396 24.4579C69.1124 24.6061 69.1495 24.7664 69.1486 24.9284C69.153 25.1686 69.065 25.4029 68.8995 25.592C68.7339 25.781 68.5007 25.9133 68.2391 25.9667L69.2885 27.7032L68.519 27.6942ZM67.7195 24.3018H66.7201V25.5639H67.7195C67.8164 25.5753 67.915 25.5681 68.0086 25.5428C68.1023 25.5175 68.1888 25.4747 68.2626 25.4171C68.3363 25.3595 68.3955 25.2886 68.4363 25.2089C68.477 25.1293 68.4984 25.0428 68.499 24.9552C68.5058 24.8639 68.4899 24.7724 68.4524 24.6873C68.4149 24.6022 68.3567 24.5256 68.2821 24.463C68.2075 24.4005 68.1184 24.3536 68.0211 24.3257C67.9237 24.2978 67.8207 24.2897 67.7195 24.3018Z" fill="#231F20"/>
<path d="M72.9563 27.3541C72.7972 27.4915 72.6093 27.5993 72.4035 27.6715C72.1977 27.7437 71.978 27.7788 71.757 27.7748C71.5263 27.7845 71.2957 27.7523 71.0793 27.68C70.8629 27.6077 70.6651 27.4968 70.4978 27.3541C70.0481 26.9692 70.0581 26.5306 70.0581 25.7787C70.0581 25.0269 70.0581 24.5883 70.4978 24.1944C70.8229 23.9164 71.2577 23.7652 71.7071 23.7737C72.152 23.7632 72.5833 23.9113 72.9064 24.1855C73.3561 24.5793 73.3461 25.0089 73.3461 25.7698C73.3461 26.5306 73.3561 26.9245 72.9563 27.3541ZM72.4366 24.5525C72.2508 24.4012 72.0082 24.3181 71.757 24.3197C71.5025 24.3158 71.2558 24.399 71.0675 24.5525C70.8476 24.7673 70.7976 24.991 70.7976 25.7787C70.7976 26.5664 70.7976 26.7812 71.0675 26.9961C71.1581 27.0761 71.266 27.1388 71.3845 27.1803C71.5031 27.2219 71.6298 27.2414 71.757 27.2377C72.0095 27.237 72.2523 27.1506 72.4366 26.9961C72.6565 26.7812 72.7065 26.5664 72.7065 25.7787C72.7065 24.991 72.6065 24.7225 72.3867 24.5077L72.4366 24.5525Z" fill="#231F20"/>
<path d="M75.9545 27.73C75.7455 27.7435 75.5356 27.7184 75.3379 27.6562C75.1402 27.594 74.9588 27.4961 74.8051 27.3685C74.6514 27.2409 74.5287 27.0864 74.4444 26.9145C74.3602 26.7427 74.3163 26.5571 74.3155 26.3695V23.7737H75.0051V26.3516C75.0051 26.5771 75.1051 26.7934 75.2832 26.9528C75.4612 27.1123 75.7027 27.2019 75.9545 27.2019C76.2063 27.2019 76.4478 27.1123 76.6259 26.9528C76.8039 26.7934 76.9039 26.5771 76.9039 26.3516V23.7737H77.5935V26.3695C77.5927 26.5571 77.5488 26.7427 77.4646 26.9145C77.3803 27.0864 77.2576 27.2409 77.1039 27.3685C76.9502 27.4961 76.7688 27.594 76.5711 27.6562C76.3734 27.7184 76.1635 27.7435 75.9545 27.73Z" fill="#231F20"/>
<path d="M80.4818 26.1547H79.4824V27.6942H78.7529V23.7737H80.4818C80.6667 23.7594 80.853 23.7796 81.0287 23.8331C81.2044 23.8867 81.3658 23.9723 81.5026 24.0847C81.6394 24.197 81.7486 24.3336 81.8233 24.4858C81.898 24.638 81.9366 24.8024 81.9366 24.9687C81.9366 25.1349 81.898 25.2993 81.8233 25.4515C81.7486 25.6037 81.6394 25.7403 81.5026 25.8526C81.3658 25.965 81.2044 26.0506 81.0287 26.1042C80.853 26.1577 80.6667 26.178 80.4818 26.1636V26.1547ZM80.4818 24.3018H79.4824V25.6086H80.4818C80.6753 25.6086 80.8609 25.5398 80.9977 25.4173C81.1345 25.2947 81.2114 25.1285 81.2114 24.9552C81.2114 24.7819 81.1345 24.6157 80.9977 24.4932C80.8609 24.3707 80.6753 24.3018 80.4818 24.3018Z" fill="#231F20"/>
<path clip-rule="evenodd" d="M34.3095 9.76547L33.3901 11.3587C32.9677 11.024 32.4249 10.8365 31.861 10.8306C31.6305 10.8287 31.4044 10.8879 31.2114 11.0007C31.1129 11.0495 31.0305 11.1207 30.9726 11.2072C30.9147 11.2936 30.8833 11.3922 30.8816 11.493C30.8816 11.8152 31.2147 12.0659 31.881 12.2449L32.4706 12.406C33.9197 12.7998 34.6493 13.5159 34.6493 14.5721C34.6747 14.971 34.604 15.3701 34.4419 15.7423C34.2798 16.1146 34.0301 16.4512 33.7099 16.7293C33.0116 17.2353 32.1281 17.4905 31.2313 17.4454C30.1125 17.4495 29.021 17.1361 28.1132 16.5503L29.1126 14.8944C29.6481 15.3719 30.3576 15.6611 31.1114 15.7089C31.3801 15.7176 31.6453 15.652 31.871 15.5209C31.9853 15.4566 32.0787 15.3666 32.1418 15.2597C32.205 15.1529 32.2356 15.0331 32.2307 14.9123C32.2158 14.7765 32.1594 14.6471 32.0677 14.5381C31.976 14.4292 31.8526 14.3449 31.7111 14.2946C31.4284 14.1773 31.1339 14.0843 30.8316 14.0172C30.208 13.8892 29.6177 13.6553 29.0926 13.3279C28.8626 13.1293 28.685 12.8873 28.5726 12.6194C28.4602 12.3515 28.4159 12.0646 28.443 11.7794C28.4259 11.4219 28.4926 11.0651 28.6389 10.7321C28.7852 10.3991 29.0079 10.0972 29.2925 9.84603C29.8879 9.35012 30.6787 9.08613 31.4912 9.11205C32.4791 9.09904 33.4527 9.32476 34.3095 9.76547ZM36.0784 6.89221C35.965 6.99267 35.8756 7.11268 35.8155 7.245C35.7553 7.37731 35.7258 7.51917 35.7287 7.662C35.7283 7.80318 35.759 7.94305 35.819 8.0736C35.879 8.20415 35.9672 8.32282 36.0784 8.42283C36.3064 8.62345 36.6133 8.73587 36.9329 8.73587C37.2526 8.73587 37.5594 8.62345 37.7874 8.42283C38.0114 8.21862 38.1369 7.94379 38.1369 7.65752C38.1369 7.37125 38.0114 7.09642 37.7874 6.89221C37.6758 6.79073 37.5428 6.71013 37.3961 6.65512C37.2494 6.60011 37.092 6.57178 36.9329 6.57178C36.7739 6.57178 36.6164 6.60011 36.4697 6.65512C36.323 6.71013 36.19 6.79073 36.0784 6.89221ZM35.7586 9.31792V17.2395H38.0573V9.31792H35.7586ZM43.8738 14.4379H45.7526C45.7383 14.6352 45.6786 14.8277 45.5771 15.0034C45.4756 15.179 45.3346 15.3339 45.163 15.4583C44.798 15.704 44.3501 15.8303 43.8937 15.8163C43.5546 15.8273 43.2179 15.7607 42.9154 15.6229C42.6129 15.4851 42.3546 15.2806 42.1648 15.0286C41.7566 14.5419 41.5451 13.9454 41.5651 13.3369C41.5456 12.7257 41.7491 12.1255 42.1448 11.6273C42.3316 11.3763 42.5863 11.1716 42.8851 11.0324C43.1838 10.8931 43.517 10.8237 43.8538 10.8306C44.2922 10.8192 44.7218 10.9427 45.0709 11.1805C45.4201 11.4183 45.6677 11.756 45.7726 12.1375L47.9713 11.2424C47.6446 10.5472 47.0839 9.96057 46.3673 9.56427C45.6508 9.16797 44.814 8.98173 43.9737 9.03149C43.3378 9.00537 42.7027 9.09502 42.1066 9.29503C41.5105 9.49503 40.966 9.80123 40.5058 10.1951C40.0603 10.6026 39.7132 11.0878 39.4863 11.6206C39.2593 12.1535 39.1573 12.7225 39.1866 13.2921C39.1593 13.8501 39.2615 14.4071 39.4869 14.9278C39.7122 15.4486 40.0558 15.9218 40.4958 16.3176C40.9417 16.7104 41.4717 17.0183 42.0539 17.2229C42.6362 17.4275 43.2586 17.5245 43.8838 17.508C44.5879 17.5437 45.2907 17.4206 45.928 17.1501C46.5652 16.8795 47.1166 16.4702 47.5316 15.9595C47.8901 15.5087 48.1418 14.997 48.2711 14.4558C48.3788 13.9181 48.4324 13.3729 48.431 12.8267H43.8738V14.4379ZM55.6567 11.6452C55.896 11.8307 56.0877 12.0603 56.2188 12.3183C56.3498 12.5763 56.4172 12.8565 56.4162 13.14C56.4378 13.7596 56.1907 14.3627 55.7267 14.8228C55.4951 15.0416 55.2161 15.2159 54.9068 15.335C54.5975 15.4541 54.2644 15.5156 53.9277 15.5156C53.5911 15.5156 53.2579 15.4541 52.9486 15.335C52.6394 15.2159 52.3604 15.0416 52.1288 14.8228C51.668 14.3639 51.4181 13.766 51.4292 13.1489C51.4302 12.8649 51.4994 12.5844 51.6322 12.3264C51.7649 12.0685 51.9582 11.8392 52.1988 11.6541C52.6748 11.2741 53.2901 11.0642 53.9277 11.0642C54.5653 11.0642 55.1807 11.2741 55.6567 11.6541V11.6452ZM50.5198 10.1951C50.0452 10.5554 49.6663 11.0058 49.4104 11.5136C49.1545 12.0215 49.0282 12.574 49.0407 13.131C49.0407 13.7058 49.1671 14.275 49.4127 14.806C49.6583 15.3371 50.0182 15.8196 50.4721 16.226C50.9259 16.6325 51.4646 16.9549 52.0575 17.1749C52.6505 17.3948 53.286 17.508 53.9277 17.508C54.5695 17.508 55.205 17.3948 55.7979 17.1749C56.3909 16.9549 56.9296 16.6325 57.3834 16.226C57.8372 15.8196 58.1972 15.3371 58.4428 14.806C58.6884 14.275 58.8148 13.7058 58.8148 13.131C58.8272 12.574 58.7009 12.0215 58.4451 11.5136C58.1892 11.0058 57.8102 10.5554 57.3357 10.1951C56.3893 9.46135 55.1795 9.05748 53.9277 9.05748C52.676 9.05748 51.4662 9.46135 50.5198 10.1951ZM62.3927 10.8933C63.462 10.8933 63.9917 11.2245 63.9917 11.8868C63.9917 12.5492 63.462 12.8714 62.3927 12.8714H62.1828V10.8933H62.3927ZM65.8806 13.2205C66.2249 12.7976 66.404 12.2848 66.3903 11.7615C66.4124 11.4129 66.3445 11.0645 66.192 10.7432C66.0395 10.4218 65.8064 10.1363 65.5108 9.90868C64.8774 9.48794 64.0995 9.27894 63.3121 9.31792H59.8742V17.2395H62.1828V14.1872L64.3615 17.2395H67.2297L64.4514 13.9993C65.0219 13.914 65.5337 13.6351 65.8806 13.2205ZM73.3161 11.0634V9.31792H67.2297V11.0634H69.1186V17.2395H71.4272V11.0634H73.3161ZM76.4242 14.2857L77.4236 11.7705L78.3631 14.2857H76.4242ZM79.5324 17.2395H81.9509L78.6129 9.31792H76.1144L72.7165 17.2395H75.155L75.7646 15.8611H78.9527L79.5324 17.2395Z" fill="#005BAA" fill-rule="evenodd"/>
<path d="M13.5322 0.250652C11.7812 0.233591 10.0443 0.531527 8.42427 1.1268C6.80427 1.72207 5.33419 2.60257 4.10115 3.7161C2.86811 4.82963 1.89722 6.15353 1.24601 7.60933C0.594809 9.06514 0.276549 10.6232 0.310095 12.1912C0.319004 13.9308 0.730772 15.6498 1.51937 17.2396H25.505C26.3692 15.6694 26.8173 13.9418 26.8142 12.1912C26.8465 10.619 26.5255 9.05696 25.8701 7.59811C25.2147 6.13926 24.2384 4.81338 22.9992 3.69936C21.76 2.58534 20.2833 1.70594 18.6569 1.11347C17.0306 0.521002 15.2877 0.227578 13.5322 0.250652Z" fill="white"/>
<path d="M15.4908 15.8611L16.0605 17.2395H11.7131L12.3227 15.8611H15.4908ZM4.75724 14.1873V17.2395H6.99589L4.8272 14.1873H4.75724ZM6.57615 11.8869C6.57615 11.2245 6.03647 10.8933 4.97711 10.8933H4.75724V12.8715H4.99709C5.99649 12.8715 6.57615 12.5403 6.57615 11.8869ZM13.5719 3.35942e-06C11.7859 -0.00118629 10.0172 0.313598 8.36741 0.926283C6.71759 1.53897 5.21914 2.43749 3.95809 3.57025C2.69704 4.70301 1.69822 6.04771 1.019 7.52714C0.339773 9.00657 -0.00648919 10.5916 9.2082e-05 12.1912C0.00745236 13.9319 0.422838 15.6518 1.21936 17.2395H2.41864V9.31794H5.85658C6.644 9.27896 7.42183 9.48796 8.05526 9.9087C8.36239 10.1305 8.60731 10.4136 8.77043 10.7353C8.93356 11.057 9.01036 11.4085 8.9947 11.7615C9.00845 12.2807 8.83303 12.7897 8.495 13.2116C8.14613 13.6301 7.63077 13.9121 7.05586 13.9993L9.4844 16.8278L12.7125 9.31794H15.211L18.549 17.2395H20.3779V13.4354L17.1198 9.31794H19.8682L21.5172 11.4751L23.1662 9.31794H25.9345L22.6665 13.4354V17.2395H25.7546C26.6189 15.6694 27.0669 13.9418 27.0639 12.1912C27.0717 10.5943 26.7277 9.01165 26.0514 7.53402C25.3752 6.0564 24.38 4.71282 23.1229 3.5803C21.8658 2.44777 20.3716 1.54855 18.7258 0.934172C17.08 0.319797 15.315 0.00234309 13.532 3.35942e-06H13.5719ZM13.9517 11.7705L12.9923 14.2857H14.9012L13.9617 11.7705H13.9517Z" fill="#E21E26"/>
</svg>