<?xml version="1.0" encoding="utf-8"?>
<svg xmlns="http://www.w3.org/2000/svg" fill="none" height="12" viewBox="0 0 83 12" width="83">
<path d="M47.7931 8.70974C47.3876 8.63868 46.9921 8.52761 46.6139 8.37856V7.16123C47.385 7.50567 48.2309 7.69507 49.0924 7.71619C49.5144 7.73911 49.9319 7.6282 50.2717 7.4029C50.4098 7.30151 50.5197 7.17268 50.5925 7.02663C50.6654 6.88058 50.6992 6.72133 50.6914 6.56151C50.6955 6.39982 50.6543 6.23978 50.5715 6.09606C50.4757 5.94729 50.3378 5.82378 50.1717 5.73803C49.9337 5.61086 49.6784 5.51159 49.4122 5.44264L48.6526 5.23677C48.222 5.12915 47.8136 4.95989 47.4434 4.73552C47.1645 4.56179 46.9435 4.3236 46.8037 4.0463C46.6581 3.74442 46.5898 3.41716 46.6039 3.08855C46.5958 2.6909 46.7062 2.29851 46.9237 1.95177C47.1535 1.589 47.5024 1.29836 47.9231 1.11934C48.4507 0.897446 49.0294 0.790114 49.6121 0.806052C49.9823 0.807033 50.3511 0.846077 50.7114 0.922416C51.0558 0.982718 51.3912 1.07885 51.7108 1.20885V2.31876C51.3706 2.13928 51.0039 2.00368 50.6214 1.91597C50.2727 1.83208 49.9132 1.78994 49.5521 1.79066C49.254 1.77967 48.9569 1.82861 48.6826 1.93387C48.4652 2.01792 48.2808 2.15817 48.1529 2.33667C48.0353 2.50215 47.9761 2.69555 47.983 2.89162C47.9729 3.0114 47.9898 3.13176 48.0328 3.24556C48.0757 3.35936 48.1437 3.46425 48.2329 3.55399C48.4384 3.72858 48.6891 3.85469 48.9624 3.92098L49.9618 4.18056C50.3979 4.28579 50.8128 4.45193 51.1911 4.67286C51.4821 4.84816 51.7165 5.08895 51.8707 5.37104C52.0232 5.68727 52.0982 6.02914 52.0906 6.37354C52.101 6.83864 51.9585 7.29621 51.6808 7.68933C51.4194 8.05857 51.0397 8.34866 50.5915 8.52177C50.0903 8.71575 49.5482 8.81041 49.0024 8.79925C48.5971 8.80359 48.1922 8.77362 47.7931 8.70974Z" fill="#0D8446"/>
<path d="M53.3698 1.42368C53.2207 1.2523 53.1397 1.04124 53.1397 0.823965C53.1397 0.606691 53.2207 0.395633 53.3698 0.224252C53.542 0.0801559 53.7688 0 54.0044 0C54.2401 0 54.4669 0.0801559 54.639 0.224252C54.7882 0.395633 54.8691 0.606691 54.8691 0.823965C54.8691 1.04124 54.7882 1.2523 54.639 1.42368C54.4669 1.56777 54.2401 1.64793 54.0044 1.64793C53.7688 1.64793 53.542 1.56777 53.3698 1.42368ZM53.3698 8.65604V2.93639H54.669V8.69185L53.3698 8.65604Z" fill="#0D8446"/>
<path d="M57.0576 11.3861C56.6974 11.2807 56.3807 11.0812 56.1481 10.8132C55.9504 10.5854 55.843 10.3051 55.843 10.0166C55.843 9.72806 55.9504 9.44775 56.1481 9.21996C56.4117 8.95855 56.762 8.77972 57.1475 8.70976C56.9172 8.6702 56.7051 8.57055 56.5379 8.42333C56.4596 8.34448 56.3998 8.25235 56.362 8.15241C56.3242 8.05246 56.3093 7.94674 56.318 7.84152C56.3129 7.72283 56.3381 7.60467 56.3918 7.49607C56.4455 7.38747 56.5263 7.29131 56.6278 7.21495C56.8555 7.05729 57.1234 6.95272 57.4074 6.91062C56.9849 6.76738 56.622 6.51111 56.368 6.17664C56.1306 5.82374 56.0158 5.41557 56.0382 5.00407C56.0281 4.61128 56.1313 4.22281 56.338 3.87625C56.5405 3.55328 56.8423 3.2892 57.2075 3.11542C57.6159 2.93027 58.069 2.83805 58.5267 2.84689C58.7164 2.83701 58.9066 2.83701 59.0963 2.84689C59.2884 2.87673 59.4785 2.91557 59.666 2.96325H61.7847V3.85834H60.6654C60.8016 4.00883 60.9096 4.17812 60.9852 4.3596C61.0728 4.58704 61.1167 4.82613 61.1151 5.06672C61.122 5.44325 61.015 5.81442 60.8053 6.14084C60.6145 6.44691 60.3207 6.69124 59.9658 6.83901C59.5935 7.00465 59.1822 7.08755 58.7665 7.08069H58.3668C58.2003 7.07287 58.0354 7.11371 57.8971 7.19705C57.8422 7.22992 57.7965 7.27366 57.7636 7.32489C57.7307 7.37611 57.7114 7.43344 57.7072 7.49243C57.7053 7.54009 57.7173 7.58736 57.7418 7.62969C57.7663 7.67202 57.8026 7.70798 57.8471 7.7341C57.9778 7.80622 58.1244 7.85203 58.2768 7.86837L60.0258 8.08319C60.4837 8.12055 60.9187 8.2795 61.275 8.53969C61.4173 8.67733 61.5262 8.83981 61.595 9.01695C61.6638 9.19409 61.691 9.38206 61.6748 9.56905C61.6604 9.89491 61.5538 10.2122 61.365 10.491C61.1273 10.8372 60.7792 11.1115 60.3656 11.2787C59.8276 11.5117 59.2337 11.6223 58.6366 11.6009C58.1005 11.6099 57.5665 11.5372 57.0576 11.3861ZM59.616 10.5537C59.846 10.4917 60.0576 10.3847 60.2357 10.2404C60.3124 10.1745 60.3732 10.0952 60.4145 10.0075C60.4557 9.91973 60.4765 9.82536 60.4755 9.73017C60.4808 9.62289 60.4494 9.51673 60.3856 9.42584C60.3151 9.33598 60.2131 9.26981 60.0957 9.23786C59.914 9.18419 59.7264 9.14818 59.5361 9.13045L57.977 8.95143C57.7443 9.00927 57.5291 9.11329 57.3474 9.25577C57.2609 9.32187 57.1919 9.40432 57.1452 9.49718C57.0985 9.59004 57.0754 9.69101 57.0776 9.79282C57.0793 9.92569 57.1223 10.0555 57.2017 10.1677C57.2811 10.28 57.3939 10.3702 57.5273 10.4283C57.9182 10.6003 58.3515 10.6804 58.7865 10.6611C59.0675 10.6625 59.3471 10.6263 59.616 10.5537ZM59.3662 5.97077C59.5701 5.8721 59.7343 5.71872 59.8359 5.53217C59.9381 5.34252 59.9895 5.13408 59.9858 4.92351C59.9894 4.70967 59.9272 4.49907 59.8059 4.31484C59.6833 4.13788 59.511 3.99282 59.3062 3.89415C59.087 3.79255 58.8435 3.74032 58.5966 3.74198C58.3551 3.73884 58.1159 3.78474 57.8971 3.87625C57.6906 3.96875 57.5175 4.11145 57.3974 4.28799C57.2623 4.49038 57.1963 4.72374 57.2075 4.95931C57.2021 5.17108 57.2571 5.38059 57.3674 5.56798C57.4734 5.74491 57.6373 5.88858 57.8371 5.97972C58.0694 6.08426 58.3267 6.1365 58.5866 6.13189C58.8578 6.14024 59.1266 6.08468 59.3662 5.97077Z" fill="#0D8446"/>
<path d="M63.7636 8.46808C63.3277 8.22121 62.9807 7.86689 62.7642 7.44767C62.5062 6.96385 62.3698 6.43529 62.3644 5.89916C62.351 5.3527 62.4775 4.81074 62.7342 4.31484C62.9541 3.88078 63.2991 3.50696 63.7336 3.23178C64.2121 2.93757 64.7825 2.78712 65.3626 2.80213C65.9239 2.78459 66.479 2.91198 66.9617 3.16912C67.4069 3.41813 67.7558 3.78374 67.9611 4.21638C68.1943 4.7518 68.2999 5.32502 68.2709 5.89916C68.2821 6.42242 68.1554 6.94067 67.9011 7.41187C67.6855 7.84351 67.3393 8.21248 66.9017 8.47703C66.4395 8.74024 65.9002 8.87423 65.3526 8.86192C64.7923 8.86623 64.2418 8.72979 63.7636 8.46808ZM66.5119 7.28656C66.8039 6.86628 66.9435 6.37541 66.9117 5.88126C66.9519 5.34676 66.8127 4.81371 66.5119 4.35065C66.3865 4.18278 66.2148 4.04678 66.0134 3.95583C65.8121 3.86487 65.5879 3.82204 65.3626 3.83149C65.0652 3.82631 64.7741 3.908 64.5331 4.06422C64.2768 4.24686 64.0857 4.49266 63.9835 4.77134C63.8426 5.12749 63.7749 5.50352 63.7836 5.88126C63.7569 6.37496 63.8961 6.86449 64.1833 7.28656C64.3258 7.44366 64.5055 7.57033 64.7095 7.65734C64.9136 7.74434 65.1367 7.78949 65.3626 7.78949C65.5886 7.78949 65.8117 7.74434 66.0157 7.65734C66.2197 7.57033 66.3995 7.44366 66.5419 7.28656H66.5119Z" fill="#0D8446"/>
<path d="M69.5301 2.93638H70.7893V3.43763C70.7893 3.58084 70.7893 3.89413 70.7893 4.38643C70.832 3.95052 71.0319 3.53891 71.359 3.21385C71.5063 3.08142 71.6828 2.97799 71.8772 2.91017C72.0717 2.84235 72.2798 2.81164 72.4883 2.82001C72.6807 2.82306 72.872 2.84711 73.058 2.89162L72.958 4.04629C72.7836 3.99562 72.6017 3.96847 72.4184 3.96573C72.1245 3.96312 71.8374 4.04466 71.5988 4.19846C71.3473 4.37597 71.154 4.61099 71.0392 4.87873C70.8998 5.21349 70.832 5.56876 70.8393 5.92599V8.70974H69.5401L69.5301 2.93638Z" fill="#0D8446"/>
<path d="M77.3554 7.63564L77.2954 8.53073C77.0943 8.6147 76.883 8.67777 76.6658 8.7187C76.4403 8.76897 76.2086 8.79303 75.9762 8.79031C75.7434 8.80652 75.5094 8.77908 75.2892 8.70972C75.0689 8.64037 74.8672 8.53063 74.697 8.38752C74.3924 8.01572 74.247 7.55832 74.2872 7.09858V3.89414H73.3578V2.93639H74.2273V1.64745L75.4865 1.56689V2.93639H77.1355V3.89414H75.5265V6.69579C75.5174 6.92828 75.5477 7.16067 75.6164 7.38501C75.6501 7.52444 75.7434 7.64652 75.8763 7.72515C76.0305 7.79625 76.2027 7.83018 76.376 7.82361C76.7124 7.81441 77.0443 7.75073 77.3554 7.63564Z" fill="#0D8446"/>
<path d="M78.8445 8.62918C78.5723 8.50978 78.3435 8.32353 78.1849 8.09213C78.0285 7.83738 77.9492 7.55038 77.9551 7.25969C77.9431 6.91079 78.0512 6.56703 78.2649 6.27508C78.5062 5.98661 78.8263 5.75853 79.1943 5.61271C79.7322 5.41833 80.3037 5.30929 80.8833 5.29048L81.5429 5.24572V4.92349C81.5605 4.76952 81.5411 4.61395 81.486 4.46726C81.4308 4.32058 81.3412 4.18619 81.2231 4.07315C81.0857 3.96988 80.9261 3.8928 80.7543 3.84663C80.5825 3.80046 80.4019 3.78616 80.2237 3.80462C79.8849 3.81199 79.5488 3.86016 79.2243 3.94784C78.8738 4.04043 78.5379 4.17279 78.2249 4.34168V3.29442C78.5359 3.13049 78.8729 3.00977 79.2243 2.93638C79.5998 2.84948 79.9858 2.80439 80.3736 2.80212C80.6797 2.78182 80.9872 2.81736 81.2775 2.9066C81.5679 2.99584 81.8349 3.13691 82.0626 3.32127C82.4813 3.77052 82.6859 4.34923 82.6323 4.93244V8.69184H81.6129V8.14583C81.6129 7.96681 81.6129 7.74304 81.6129 7.48346C81.5172 7.87228 81.2904 8.22536 80.9633 8.49492C80.6336 8.71874 80.2272 8.83268 79.8139 8.81715C79.4788 8.82374 79.1466 8.75933 78.8445 8.62918ZM81.1531 7.39395C81.2951 7.22414 81.394 7.02865 81.443 6.82109C81.5063 6.57761 81.5365 6.32815 81.5329 6.07816H81.1232C80.7074 6.08359 80.2955 6.15011 79.9039 6.27508C79.7773 6.32311 79.6632 6.39401 79.5686 6.48333C79.474 6.57266 79.4011 6.6785 79.3542 6.79424C79.2951 6.90905 79.2676 7.03492 79.2743 7.16123C79.2675 7.2632 79.2864 7.36523 79.3297 7.45976C79.3729 7.55428 79.4394 7.63887 79.5241 7.70724C79.7118 7.84674 79.9499 7.91996 80.1937 7.91311C80.3896 7.90628 80.5804 7.85508 80.7481 7.76429C80.9159 7.67349 81.0553 7.54608 81.1531 7.39395Z" fill="#0D8446"/>
<path d="M5.18869 7.62668C4.97251 7.96932 4.65415 8.25134 4.26924 8.44121C3.83874 8.64516 3.36576 8.76706 2.88008 8.79925V9.36316C3.02968 9.34836 3.18109 9.36402 3.32299 9.40897C3.46489 9.45392 3.59363 9.52699 3.69958 9.62274C3.86725 9.79281 3.95656 10.0136 3.94943 10.2404C3.95404 10.4471 3.88777 10.6502 3.75955 10.8222C3.62651 10.9958 3.43858 11.1298 3.21987 11.2071C2.95591 11.3002 2.67404 11.3458 2.39037 11.3413C2.00282 11.3403 1.61804 11.2828 1.25105 11.1713L1.31102 10.482C1.44464 10.5287 1.58151 10.5676 1.72077 10.5984C1.85408 10.6325 1.99188 10.6506 2.13053 10.6521C2.31908 10.6597 2.50619 10.6194 2.6702 10.5357C2.73011 10.4996 2.7783 10.45 2.80989 10.3918C2.84148 10.3337 2.85535 10.2691 2.85009 10.2045C2.85391 10.1497 2.84106 10.0949 2.81291 10.046C2.78475 9.99718 2.74234 9.95607 2.69019 9.92707C2.51535 9.84452 2.31711 9.81026 2.12053 9.82861H2.0106V8.8082C1.67349 8.78625 1.33912 8.73833 1.0112 8.66499C0.669671 8.59482 0.335355 8.49901 0.0117972 8.37855V7.16123C0.782983 7.50567 1.62887 7.69507 2.49031 7.71619C2.9123 7.73911 3.32982 7.6282 3.6696 7.4029C3.80775 7.30151 3.91762 7.17268 3.99048 7.02663C4.06334 6.88058 4.09719 6.72133 4.08935 6.56151C4.09348 6.39982 4.05224 6.23978 3.96942 6.09606C3.87367 5.94729 3.73577 5.82378 3.56966 5.73803C3.33164 5.61086 3.07637 5.51159 2.81012 5.44264L2.05057 5.23677C1.61995 5.12915 1.21159 4.95989 0.841299 4.73552C0.562451 4.56179 0.341407 4.3236 0.201684 4.0463C0.0560398 3.74442 -0.0122586 3.41716 0.00180394 3.08855C0.0178693 2.68422 0.156023 2.29136 0.401564 1.95177C0.6314 1.589 0.980328 1.29836 1.40096 1.11934C1.92863 0.897446 2.50729 0.790114 3.08995 0.806052C3.4569 0.806515 3.82252 0.845571 4.1793 0.922416C4.52393 0.982072 4.85942 1.07822 5.1787 1.20885V2.31876C4.83591 2.13762 4.46561 2.00194 4.07936 1.91597C3.73409 1.83193 3.37778 1.78978 3.01999 1.79066C2.71875 1.78128 2.41879 1.83012 2.14052 1.93387C1.92775 2.02073 1.74735 2.16055 1.62083 2.33667C1.50024 2.50137 1.43758 2.69469 1.44094 2.89162C1.43217 3.01201 1.45067 3.13275 1.49533 3.24658C1.53998 3.3604 1.60987 3.46497 1.70078 3.55399C1.9047 3.73047 2.15597 3.85687 2.43035 3.92098L3.42975 4.18056C3.86513 4.28757 4.27968 4.45359 4.65901 4.67286C4.95 4.84816 5.18438 5.08895 5.3386 5.37104C5.49112 5.68727 5.56609 6.02914 5.55847 6.37354C5.56242 6.81334 5.43473 7.24605 5.18869 7.62668Z" fill="#0D8446"/>
<path d="M8.39678 7.36713C8.58609 7.52315 8.80819 7.64386 9.05012 7.72223C9.29205 7.80061 9.54898 7.83507 9.80593 7.82363C10.1191 7.8261 10.4314 7.79302 10.7354 7.72517C11.054 7.64789 11.3623 7.53985 11.6548 7.40293L11.5849 8.43229C10.9575 8.68854 10.2756 8.81986 9.58606 8.81718C8.9838 8.83843 8.38733 8.70487 7.86709 8.43229C7.42347 8.16987 7.0759 7.79631 6.86769 7.35818C6.41438 6.35955 6.41438 5.24187 6.86769 4.24325C7.07953 3.8095 7.42652 3.43967 7.86709 3.17808C8.31011 2.9218 8.82896 2.79082 9.3562 2.80214C9.91122 2.77921 10.4571 2.93477 10.8953 3.24074C11.3053 3.54088 11.6077 3.94244 11.7648 4.39541C11.9607 4.92642 12.0553 5.48321 12.0446 6.04239H7.8571C7.84134 6.52951 8.03446 7.00355 8.39678 7.36713ZM8.27685 4.10898C8.01225 4.41416 7.865 4.78782 7.8571 5.17415H10.6154C10.6415 4.79199 10.5138 4.41413 10.2557 4.10898C10.1332 3.97986 9.97967 3.87732 9.80655 3.80909C9.63342 3.74087 9.44526 3.70874 9.25626 3.71514C9.07017 3.70881 8.88496 3.74106 8.71508 3.80938C8.54519 3.87769 8.39522 3.98022 8.27685 4.10898Z" fill="#0D8446"/>
<path d="M18.6906 8.69186H17.0916L14.5231 5.79175V8.69186H13.2539V0.179504H14.5132V5.42476L16.9817 2.9364H18.5008L15.9023 5.54112L18.6906 8.69186Z" fill="#0D8446"/>
<path d="M20.7494 7.36713C20.9387 7.52315 21.1608 7.64386 21.4027 7.72224C21.6446 7.80061 21.9016 7.83508 22.1585 7.82363C22.4735 7.81442 22.7858 7.76931 23.088 7.68936C23.4066 7.61209 23.7149 7.50404 24.0074 7.36713L23.9375 8.39649C23.3098 8.65193 22.6281 8.78321 21.9387 8.78138C21.3364 8.80262 20.7399 8.66907 20.2197 8.39649C19.7761 8.13406 19.4285 7.7605 19.2203 7.32237C18.9843 6.83087 18.8684 6.29983 18.8805 5.76491C18.8732 5.23037 18.9888 4.7002 19.2203 4.20744C19.4321 3.7737 19.7791 3.40387 20.2197 3.14228C20.6591 2.8862 21.1747 2.75515 21.6988 2.76634C22.2569 2.74362 22.8058 2.89905 23.2479 3.20494C23.6579 3.50507 23.9603 3.90664 24.1174 4.35961C24.3085 4.89164 24.403 5.44771 24.3972 6.00658H20.1797C20.1616 6.50967 20.3664 6.99874 20.7494 7.36713ZM20.5995 4.10898C20.3349 4.41416 20.1876 4.78782 20.1797 5.17415H22.9381C22.9641 4.792 22.8364 4.41413 22.5783 4.10898C22.4558 3.97986 22.3023 3.87732 22.1292 3.80909C21.956 3.74087 21.7679 3.70874 21.5789 3.71514C21.3928 3.70881 21.2076 3.74106 21.0377 3.80938C20.8678 3.87769 20.7178 3.98023 20.5995 4.10898Z" fill="#0D8446"/>
<path d="M25.5565 2.93638H26.8158V3.43763C26.8158 3.58084 26.8158 3.89413 26.8158 4.38643C26.8584 3.95052 27.0584 3.53891 27.3854 3.21385C27.5327 3.08142 27.7092 2.97799 27.9037 2.91017C28.0981 2.84235 28.3063 2.81164 28.5147 2.82001C28.7039 2.82251 28.892 2.84657 29.0744 2.89162L28.9745 4.04629C28.8035 3.99558 28.6249 3.96841 28.4448 3.96573C28.1509 3.96312 27.8638 4.04466 27.6253 4.19846C27.3738 4.37597 27.1804 4.61099 27.0656 4.87873C26.9262 5.21349 26.8584 5.56876 26.8657 5.92599V8.70974H25.5665L25.5565 2.93638Z" fill="#0D8446"/>
<path d="M43.5457 5.2457C43.67 6.10671 43.571 6.98179 43.2564 7.80297C42.9418 8.62416 42.4201 9.36934 41.7318 9.98062C41.0435 10.5919 40.2071 11.0529 39.2876 11.3276C38.3681 11.6024 37.3902 11.6837 36.4299 11.5651V8.79028H31.5729L30.9632 7.47449H37.959C38.019 8.36959 37.959 9.26468 37.959 10.1598C40.1277 9.98971 41.8967 8.0026 41.8667 6.70471L41.8067 6.64205C41.8067 6.64205 41.8067 6.64205 41.7468 6.64205H30.8733C30.7842 6.39246 30.7305 6.13384 30.7134 5.87227C30.7448 4.42235 31.3958 3.03842 32.5323 2.00546C33.0997 1.46486 33.7861 1.03543 34.5481 0.744259C35.3101 0.453091 36.1312 0.3065 36.9596 0.313732C37.2894 0.313732 37.6092 0.313732 38.009 0.313732V3.09748H42.6962C43.0368 3.4913 43.2695 3.95115 43.3758 4.44012C41.0476 4.59448 38.7107 4.61242 36.38 4.49382V1.80854C34.8409 1.51316 32.3824 3.59873 32.3824 5.2457H43.5457Z" fill="#0D8446"/>
</svg>