<?xml version="1.0" encoding="utf-8"?>
<svg xmlns="http://www.w3.org/2000/svg" fill="none" height="27" viewBox="0 0 79 27" width="79">
<path d="M62.5425 9.88184L60.6436 14.0082H61.4331L61.9228 12.8983H64.2814L64.7711 14.0082H65.5607L63.6618 9.88184H62.5425ZM62.1227 12.4866L63.1221 10.3204L64.1215 12.4866H62.1227Z" fill="#010101"/>
<path d="M71.0374 9.88184L69.1385 14.0082H69.9281L70.4178 12.8983H72.7364L73.2761 14.0082H74.0656L72.1667 9.88184H71.0374ZM70.6177 12.4866L71.6171 10.3204L72.6165 12.4866H70.6177Z" fill="#010101"/>
<path d="M59.5043 12.8804C59.5146 12.9866 59.4979 13.0934 59.4556 13.193C59.4132 13.2926 59.3463 13.3823 59.2598 13.4555C59.1733 13.5286 59.0695 13.5833 58.9561 13.6155C58.8427 13.6477 58.7226 13.6565 58.6049 13.6412C58.2624 13.6359 57.9239 13.5752 57.6055 13.4622L57.5555 13.8919C57.955 14.0114 58.3735 14.0719 58.7947 14.0709C58.9845 14.0892 59.1765 14.0705 59.3574 14.0159C59.5383 13.9614 59.7038 13.8723 59.8426 13.7548C59.9813 13.6374 60.0899 13.4944 60.1609 13.3357C60.2319 13.177 60.2636 13.0064 60.2539 12.8356V9.88184H59.5343L59.5043 12.8804Z" fill="#010101"/>
<path d="M78.0432 13.3906L75.9145 9.88184H74.7852V13.9993H75.3848V10.401L77.6234 13.9993H78.6528V9.88184H78.0432V13.3906Z" fill="#010101"/>
<path d="M67.5495 9.88184H66.1104V14.0082H66.8599V12.3612H67.4895C68.5589 12.3612 69.4883 12.0301 69.4883 11.0723C69.4883 10.1146 68.5689 9.88184 67.5695 9.88184M67.5695 11.9406H66.8399V10.3025H67.5695C68.1991 10.3025 68.6588 10.5353 68.6588 11.0723C68.6588 11.6094 68.279 11.9406 67.5895 11.9406H67.5695Z" fill="#010101"/>
<path d="M43.5139 13.3459L42.0048 9.88184H40.9255V14.0082H41.6051V10.401L43.1841 14.0082H43.8537L45.4228 10.401V14.0082H46.1024V9.88184H45.033L43.5139 13.3459Z" fill="#010101"/>
<path d="M33.6598 11.7168L33.3 11.5915C32.7803 11.4124 32.3906 11.2245 32.3906 10.8843C32.3906 10.5442 32.9202 10.2578 33.4899 10.2578C33.9095 10.2566 34.326 10.3234 34.7192 10.4547V9.99819C34.3054 9.87834 33.8746 9.81203 33.4399 9.80127C32.5505 9.80127 31.5611 10.1235 31.5611 10.9112C31.5611 11.4661 32.1007 11.7615 32.6604 11.9584L33.0802 12.1017C33.6598 12.2986 34.0796 12.5224 34.0796 12.9341C34.0796 13.3458 33.4999 13.6323 32.9302 13.6323C32.4533 13.6316 31.9812 13.5464 31.5411 13.3816V13.8561C32.0296 13.9949 32.5378 14.0703 33.0502 14.0798C34.1195 14.0798 34.979 13.677 34.979 12.8804C34.979 12.2628 34.3794 11.9853 33.6998 11.7257" fill="#010101"/>
<path d="M48.5509 9.88184H47.1118V14.0082H47.8613V12.3612H48.4909C49.5603 12.3612 50.4897 12.0301 50.4897 11.0723C50.4897 10.1146 49.5703 9.88184 48.5709 9.88184M48.5709 11.9406H47.8413V10.3025H48.5709C49.2005 10.3025 49.6602 10.5353 49.6602 11.0723C49.6602 11.6094 49.2904 11.9406 48.5909 11.9406H48.5709Z" fill="#010101"/>
<path d="M53.2881 9.8013C52.9728 9.78524 52.6574 9.82964 52.3628 9.93152C52.0683 10.0334 51.8014 10.1904 51.58 10.3921C51.3587 10.5937 51.1879 10.8354 51.0792 11.1009C50.9704 11.3664 50.9262 11.6496 50.9495 11.9316C50.9249 12.2148 50.968 12.4993 51.076 12.7663C51.184 13.0333 51.3543 13.2766 51.5757 13.48C51.797 13.6833 52.0643 13.842 52.3596 13.9454C52.6549 14.0489 52.9714 14.0947 53.2881 14.0799C53.6037 14.0974 53.9199 14.054 54.2152 13.9527C54.5105 13.8513 54.7781 13.6943 54.9998 13.4924C55.2215 13.2904 55.3922 13.0481 55.5004 12.7819C55.6085 12.5158 55.6516 12.2319 55.6267 11.9495C55.6599 11.6647 55.6228 11.3769 55.5179 11.1064C55.413 10.8359 55.2429 10.5894 55.0197 10.3843C54.7965 10.1793 54.5257 10.0208 54.2264 9.92002C53.9272 9.81926 53.6068 9.77873 53.2881 9.8013ZM53.2881 13.6144C53.0617 13.599 52.8412 13.5426 52.6398 13.4487C52.4385 13.3547 52.2605 13.2252 52.1166 13.0679C51.9727 12.9106 51.866 12.7288 51.8028 12.5335C51.7396 12.3382 51.7213 12.1334 51.749 11.9316C51.7256 11.7314 51.7471 11.529 51.8121 11.3363C51.8772 11.1437 51.9845 10.9645 52.1279 10.8095C52.2712 10.6544 52.4476 10.5266 52.6469 10.4334C52.8461 10.3402 53.0641 10.2835 53.2881 10.2667C54.3974 10.2667 54.8271 11.1618 54.8271 11.9495C54.8548 12.1513 54.8365 12.3561 54.7733 12.5514C54.7102 12.7467 54.6034 12.9285 54.4595 13.0858C54.3157 13.2431 54.1377 13.3726 53.9363 13.4666C53.735 13.5605 53.5144 13.6169 53.2881 13.6323V13.6144Z" fill="#010101"/>
<path d="M37.7974 9.80128C37.4829 9.78654 37.1686 9.83192 36.8753 9.93438C36.5819 10.0369 36.3163 10.1941 36.096 10.3956C35.8758 10.5971 35.7059 10.8383 35.5978 11.1031C35.4896 11.3679 35.4456 11.6504 35.4688 11.9316C35.4479 12.2176 35.4927 12.5043 35.6005 12.7742C35.7083 13.044 35.8768 13.2911 36.0956 13.5003C36.3143 13.7095 36.5786 13.8762 36.8722 13.9902C37.1658 14.1042 37.4824 14.163 37.8024 14.163C38.1223 14.163 38.4389 14.1042 38.7325 13.9902C39.0261 13.8762 39.2904 13.7095 39.5092 13.5003C39.7279 13.2911 39.8964 13.044 40.0042 12.7742C40.112 12.5043 40.1569 12.2176 40.136 11.9316C40.1661 11.6482 40.1266 11.3624 40.0203 11.0941C39.914 10.8258 39.7435 10.5816 39.5206 10.3786C39.2978 10.1756 39.0281 10.0188 38.7304 9.91903C38.4327 9.81929 38.1142 9.7791 37.7974 9.80128ZM37.7974 13.6144C37.5759 13.5955 37.3608 13.5371 37.1649 13.4427C36.9689 13.3483 36.7961 13.2198 36.6564 13.0647C36.5167 12.9096 36.4131 12.731 36.3516 12.5395C36.2901 12.348 36.2719 12.1474 36.2983 11.9495C36.272 11.7486 36.291 11.545 36.3541 11.3508C36.4172 11.1565 36.5232 10.9756 36.6658 10.8187C36.8084 10.6618 36.9846 10.5322 37.1841 10.4373C37.3836 10.3425 37.6024 10.2845 37.8273 10.2667C38.9367 10.2667 39.3664 11.1618 39.3664 11.9495C39.3664 12.7372 38.9067 13.6323 37.7974 13.6323V13.6144Z" fill="#010101"/>
<path d="M65.061 18.4031H61.1533V18.8596H62.7324V22.5206H63.4819V18.8596H65.061V18.4031Z" fill="#010101"/>
<path d="M42.9742 20.2291L42.5745 20.0859C42.0548 19.9069 41.675 19.7189 41.675 19.3878C41.675 19.0566 42.1947 18.7522 42.7644 18.7522C43.1836 18.7555 43.5992 18.8221 43.9936 18.9492V18.5016C43.5747 18.393 43.1405 18.3388 42.7044 18.3405C41.8149 18.3405 40.8255 18.6627 40.8255 19.4504C40.8255 20.0054 41.3652 20.3008 41.9249 20.4977L42.3446 20.6498C42.9243 20.8378 43.344 21.0616 43.344 21.4823C43.344 21.903 42.7644 22.1715 42.1947 22.1715C41.7009 22.1688 41.2135 22.0711 40.7656 21.8851V22.3684C41.2545 22.5042 41.7627 22.5766 42.2747 22.5832C43.344 22.5832 44.2035 22.1804 44.2035 21.3838C44.2035 20.7751 43.6039 20.4887 42.9243 20.2291" fill="#010101"/>
<path d="M54.1176 18.3405C53.6451 18.3334 53.1809 18.4525 52.7843 18.6826C52.3877 18.9127 52.0767 19.2434 51.8908 19.6326C51.7049 20.0217 51.6526 20.4516 51.7407 20.8674C51.8287 21.2832 52.053 21.6661 52.385 21.9673C52.717 22.2685 53.1417 22.4742 53.6048 22.5584C54.0679 22.6425 54.5485 22.6012 54.9853 22.4397C55.4221 22.2781 55.7953 22.0038 56.0572 21.6515C56.3192 21.2993 56.4581 20.8851 56.4562 20.4619C56.4847 20.1792 56.4441 19.8944 56.3371 19.6272C56.2301 19.36 56.0593 19.117 55.8367 18.915C55.614 18.713 55.3449 18.557 55.0479 18.4578C54.751 18.3585 54.4335 18.3185 54.1176 18.3405ZM54.1176 22.1447C53.8912 22.1292 53.6707 22.0729 53.4693 21.9789C53.268 21.885 53.09 21.7555 52.9461 21.5982C52.8022 21.4409 52.6955 21.2591 52.6323 21.0638C52.5691 20.8685 52.5508 20.6637 52.5785 20.4619C52.5493 20.2584 52.5664 20.0518 52.6287 19.8544C52.6911 19.657 52.7973 19.4729 52.941 19.3132C53.0848 19.1535 53.2631 19.0215 53.4653 18.9251C53.6675 18.8287 53.8894 18.7699 54.1176 18.7523C55.2269 18.7523 55.6566 19.6474 55.6566 20.435C55.6566 21.2227 55.2269 22.1447 54.1176 22.1447Z" fill="#010101"/>
<path d="M49.2904 20.6946H50.2898V22.0462C50.0252 22.1053 49.7529 22.1324 49.4803 22.1267C49.2279 22.1463 48.9738 22.1171 48.7352 22.0411C48.4965 21.9651 48.2789 21.8441 48.0969 21.6862C47.915 21.5284 47.773 21.3374 47.6807 21.1262C47.5883 20.9149 47.5476 20.6884 47.5615 20.4619C47.5623 20.2323 47.6156 20.0053 47.718 19.7949C47.8204 19.5844 47.9699 19.395 48.1571 19.2382C48.3443 19.0814 48.5654 18.9606 48.8067 18.8832C49.048 18.8058 49.3045 18.7734 49.5603 18.788C50.0158 18.7798 50.4683 18.856 50.8895 19.0118V18.5195C50.4319 18.3847 49.9519 18.3211 49.4703 18.3315C49.1312 18.3034 48.7893 18.3366 48.4648 18.4293C48.1404 18.522 47.8401 18.6722 47.5818 18.8709C47.3235 19.0697 47.1125 19.313 46.9613 19.5863C46.8102 19.8596 46.722 20.1574 46.702 20.4619C46.7114 20.7631 46.7898 21.0594 46.9323 21.3325C47.0748 21.6055 47.2784 21.8494 47.5304 22.0491C47.7824 22.2488 48.0775 22.4001 48.3975 22.4935C48.7174 22.5869 49.0553 22.6205 49.3904 22.5922C49.9331 22.5911 50.4712 22.5032 50.9794 22.3326V20.247H49.2904V20.6946Z" fill="#010101"/>
<path d="M45.8429 19.4325H45.1329V22.5206H45.8429V19.4325Z" fill="#010101"/>
<path d="M45.8429 18.3405H45.1329V18.8686H45.8429V18.3405Z" fill="#010101"/>
<path d="M59.5743 20.5424C59.8566 20.4947 60.1139 20.3657 60.3069 20.1751C60.4999 19.9844 60.6181 19.7426 60.6436 19.4862C60.6436 18.6538 59.8241 18.439 58.8147 18.439H57.2856V22.5564H58.0352V20.6588H58.5449C59.0846 20.6588 59.2844 20.7841 59.4444 21.1242L60.094 22.5206H60.9435C60.9435 22.5206 60.3938 21.3838 60.2139 21.0437C60.1578 20.9146 60.0691 20.7988 59.9546 20.7056C59.8402 20.6125 59.7031 20.5443 59.5543 20.5066M58.7348 20.2381H58.0352V18.8239H58.7348C59.4044 18.8239 59.8541 19.0029 59.8541 19.4952C59.8541 19.9875 59.4244 20.2381 58.7548 20.2381H58.7348Z" fill="#010101"/>
<path d="M67.4396 18.4031H66.3502L64.4514 22.5206H65.2809L65.7306 21.4375H68.0592L68.5489 22.5474H69.3384L67.4396 18.4031ZM65.9305 20.9721L66.9299 18.8149L67.9293 20.9721H65.9305Z" fill="#010101"/>
<mask height="23" id="mask0_744_36795" maskUnits="userSpaceOnUse" style="mask-type:luminance" width="25" x="0" y="4">
<path d="M0 15.5836C7.20611e-06 17.7711 0.72465 19.9095 2.0822 21.7279C3.43975 23.5464 5.36918 24.9632 7.62624 25.7991C9.8833 26.635 12.3665 26.8524 14.7616 26.4236C17.1566 25.9949 19.3558 24.9394 21.0807 23.3907C22.8057 21.8421 23.9788 19.8698 24.4517 17.7237C24.9245 15.5776 24.6758 13.3541 23.737 11.3346C22.7983 9.31519 21.2116 7.59058 19.1779 6.37914C17.1443 5.1677 14.755 4.52389 12.3126 4.52921C9.04435 4.53632 5.91266 5.70412 3.60446 7.77645C1.29625 9.84879 -9.64262e-06 12.6565 0 15.5836Z" fill="white"/>
</mask>
<g mask="url(#mask0_744_36795)">
<path d="M24.6852 4.52924H0V26.6381H24.6852V4.52924Z" fill="url(#paint0_linear_744_36795)"/>
</g>
<mask height="23" id="mask1_744_36795" maskUnits="userSpaceOnUse" style="mask-type:luminance" width="25" x="5" y="0">
<path d="M6.51613 11.0544C6.51613 9.12691 7.15418 7.24268 8.34963 5.63989C9.54508 4.0371 11.2443 2.78773 13.2324 2.04969C15.2205 1.31166 17.4083 1.1181 19.5192 1.49349C21.6301 1.86888 23.5694 2.79636 25.0918 4.15868C26.6143 5.52101 27.6517 7.25703 28.0727 9.14728C28.4938 11.0375 28.2797 12.9972 27.4575 14.7785C26.6353 16.5598 25.2419 18.0827 23.4534 19.1549C21.6649 20.227 19.5617 20.8002 17.4096 20.802C15.9795 20.8032 14.5632 20.5519 13.2416 20.0626C11.92 19.5733 10.719 18.8554 9.70736 17.9502C8.69568 17.0449 7.89311 15.9699 7.34554 14.7867C6.79797 13.6035 6.51613 12.3352 6.51613 11.0544ZM5.05701 11.0544C5.05701 13.2404 5.78064 15.3773 7.13642 17.195C8.4922 19.0127 10.4193 20.4296 12.674 21.2665C14.9287 22.1035 17.4099 22.3229 19.8038 21.8971C22.1978 21.4713 24.3971 20.4193 26.1236 18.8742C27.8501 17.3291 29.0264 15.3603 29.5038 13.2165C29.9812 11.0728 29.7382 8.85037 28.8055 6.83028C27.8729 4.81019 26.2925 3.08311 24.264 1.86736C22.2356 0.651608 19.8503 0.00177365 17.4096 3.6242e-06C15.7879 -0.00117244 14.1818 0.283891 12.6832 0.838901C11.1846 1.39391 9.82278 2.20799 8.6756 3.2346C7.52843 4.26122 6.61838 5.48024 5.99749 6.82201C5.37659 8.16378 5.05701 9.60198 5.05701 11.0544Z" fill="white"/>
</mask>
<g mask="url(#mask1_744_36795)">
<path d="M29.7422 0H5.05701V22.1088H29.7422V0Z" fill="url(#paint1_linear_744_36795)"/>
</g>
<mask height="21" id="mask2_744_36795" maskUnits="userSpaceOnUse" style="mask-type:luminance" width="23" x="6" y="1">
<path d="M7.31561 11.0545C7.31365 9.25529 7.90818 7.49611 9.02383 5.99992C10.1395 4.50373 11.726 3.33791 13.5823 2.65023C15.4386 1.96255 17.4811 1.78399 19.4508 2.13718C21.4206 2.49036 23.2289 3.35939 24.6465 4.63411C26.0641 5.90882 27.0273 7.53182 27.4138 9.29736C27.8004 11.0629 27.593 12.8915 26.8178 14.5513C26.0427 16.2111 24.7347 17.6275 23.0598 18.6208C21.3849 19.6141 19.4183 20.1396 17.4095 20.1307C14.7288 20.1212 12.1615 19.1608 10.2696 17.4597C8.37777 15.7586 7.31558 13.4554 7.31561 11.0545ZM6.23625 11.0545C6.23628 13.0444 6.89579 14.9896 8.13124 16.6436C9.36669 18.2976 11.1225 19.5859 13.1762 20.3454C15.2299 21.1049 17.4891 21.3013 19.6675 20.9098C21.846 20.5183 23.8457 19.5565 25.4132 18.1463C26.9808 16.736 28.0458 14.9407 28.4732 12.9879C28.9006 11.0351 28.6712 9.01259 27.8141 7.17664C26.9569 5.34069 25.5106 3.77391 23.6584 2.6748C21.8062 1.57568 19.6314 0.993681 17.4095 1.00254C15.9353 1.00136 14.4753 1.26056 13.113 1.7653C11.7508 2.27004 10.513 3.01041 9.47057 3.94405C8.42813 4.87769 7.60148 5.98628 7.03793 7.20636C6.47437 8.42645 6.18497 9.73409 6.18628 11.0545H6.23625Z" fill="white"/>
</mask>
<g mask="url(#mask2_744_36795)">
<path d="M28.6228 1.00256H6.18628V21.0974H28.6228V1.00256Z" fill="url(#paint2_linear_744_36795)"/>
</g>
<defs>
<linearGradient gradientUnits="userSpaceOnUse" id="paint0_linear_744_36795" x1="7.51409" x2="7.51409" y1="22.8903" y2="0.0918026">
<stop stop-color="#630D15"/>
<stop offset="1" stop-color="#E62145"/>
</linearGradient>
<linearGradient gradientUnits="userSpaceOnUse" id="paint1_linear_744_36795" x1="13.8032" x2="13.8032" y1="5.48335" y2="-17.325">
<stop stop-color="#C5C9CA"/>
<stop offset="0.09" stop-color="#A2A7AB"/>
<stop offset="0.4" stop-color="#404447"/>
<stop offset="0.5" stop-color="#E0E0DF"/>
<stop offset="1" stop-color="#BABDBE"/>
</linearGradient>
<linearGradient gradientUnits="userSpaceOnUse" id="paint2_linear_744_36795" x1="15.7958" x2="15.7958" y1="40.1857" y2="19.4627">
<stop stop-color="#595D60"/>
<stop offset="0.27" stop-color="#989EA1"/>
<stop offset="0.5" stop-color="#E0E0DF"/>
<stop offset="0.86" stop-color="#989EA1"/>
<stop offset="1" stop-color="#404447"/>
</linearGradient>
</defs>
</svg>