<?xml version="1.0" encoding="utf-8"?>
<svg xmlns="http://www.w3.org/2000/svg" id="Layer_1" style="enable-background:new 0 0 880 510;" version="1.1" viewBox="0 0 880 510" x="0px" y="0px">
<style type="text/css">
	.st0{fill:#0266A0;}
	.st1{fill:#09506B;}
	.st2{fill:#212020;}
</style>
<g>
	<g>
		<path class="st0" d="M76.6,262.4c11.3-6.2,21.7-11.9,32.2-17.6c4.4-2.4,8.7-5.1,13.2-7.2c3.7-1.7,5.3-4.2,5.6-8.3&#xD;&#xA;			c1.4-16.2,3.1-32.4,4.7-48.5c0.1-0.7-0.1-1.5,1.2-2.3c5.8,5.5,11.8,11,17.7,16.6c7,6.6,14,13,20.9,19.7c1.9,1.8,3.6,2.2,6.1,1.6&#xD;&#xA;			c16.8-3.7,33.5-7.3,50.3-10.9c0.6-0.1,1.1-0.2,2.2-0.3c-6.5,13.9-12.3,27.6-19.4,40.6c-4.3,8-4.4,14.1,0.8,21.7&#xD;&#xA;			c7.5,11,13.7,22.9,20.3,34.5c0.7,1.3,1.9,2.4,1.8,4.4c-11.2-1.4-22.3-2.8-33.4-4.2c-6.3-0.8-12.7-1.4-19-2.5&#xD;&#xA;			c-3-0.5-4.7,0.6-6.6,2.7c-10.7,12.1-21.5,24-32.2,36c-0.9,1-1.5,2.3-3.4,2.8c-2.2-11.3-4.3-22.6-6.4-33.8&#xD;&#xA;			c-1.2-6.1-2.5-12.2-3.4-18.3c-0.4-2.6-1.6-3.9-3.9-4.9c-15.5-6.7-30.9-13.6-46.3-20.4C79,263.5,78.3,263.2,76.6,262.4z"/>
		<path class="st1" d="M357.2,95.6c-65.9,5.3-147,35-186.1,95c-0.9-0.8-1.9-1.5-2.7-2.3c-7.9-7.4-15.7-14.8-23.9-22.5&#xD;&#xA;			c24-26.8,53.5-44.8,86.8-56.9C272.2,94.1,314.3,90.8,357.2,95.6z"/>
		<path class="st1" d="M357.1,414.7c-76.4,7.3-146-8.1-204.9-61.5c8.2-9.2,16-17.8,23.8-26.6C214.6,379.2,288.2,408.8,357.1,414.7z"/>
		<path class="st2" d="M757.7,267.7c12.2-17,24-33.3,36.4-50.4c0,24.9,0,48.8,0,73c-4.3,0-8.6,0-13.4,0c0-10.5,0-21.1,0-31.6&#xD;&#xA;			c-0.3-0.1-0.6-0.2-0.9-0.4c-7.4,10.4-14.7,20.8-22.3,31.5c-7.3-10.1-14.3-19.8-22.1-30.4c0,10.9,0,20.8,0,30.9&#xD;&#xA;			c-4.7,0-8.9,0-13.3,0c0-24,0-47.9,0-72.9C734.2,234.5,745.8,250.8,757.7,267.7z"/>
		<path class="st1" d="M198.6,194.9c11.5-16.1,25.2-28.2,40.9-38c38.9-24,81.4-32.2,126.6-29.1c2.8,0.2,5.7,0.4,8.6,1.5&#xD;&#xA;			c-4.7,0.6-9.4,1-14.1,1.7c-38.7,5.5-74.9,17.7-105,43.3c-10.1,8.6-20.6,13.6-33.3,15.4C214.7,190.9,207.2,193,198.6,194.9z"/>
		<path class="st1" d="M374.6,381.4c-56.5,12.4-150.8-21.5-172.6-62.2c12.8,1.6,25.4,3.1,38,4.7c1.7,0.2,3,1,4.3,2.3&#xD;&#xA;			c26.8,26.4,59.7,41.2,95.9,49.4c10.4,2.4,20.9,4,31.5,4.9C372.7,380.6,373.9,380.2,374.6,381.4z"/>
		<path class="st2" d="M564,348.2c-0.1-19.9,16.3-36.5,36-36.4c19.5,0,36.2,17,36.1,36.6c-0.1,19.4-16.4,35.3-36,35.4&#xD;&#xA;			C580,383.9,564,368.2,564,348.2z M600.1,370.3c12,0.1,21.5-9.8,21.5-22.3c0-12.3-9.6-22.5-21.5-22.6c-12.1-0.1-21.7,9.9-21.8,22.6&#xD;&#xA;			C578.3,360.2,588.1,370.2,600.1,370.3z"/>
		<path class="st2" d="M682.1,357.7c5.3,8.2,10.5,16.4,16.2,25.3c-5.6,0-10.5,0-15.4,0c-1.5,0-1.9-1.4-2.5-2.4&#xD;&#xA;			c-3.1-4.5-6.5-8.8-9-13.7c-2.9-5.8-7-7.2-13.2-5.6c0,7,0,14,0,21.4c-4.8,0-9.3,0-14,0c0-23.2,0-46.4,0-70.2&#xD;&#xA;			c10.6,0.6,21.2-1.2,31.7,1.5c9,2.4,15,7.9,16.6,17.3c1.6,9.6-0.4,18.1-8.2,24.6C683.6,356.5,682.9,357.1,682.1,357.7z&#xD;&#xA;			 M658.3,347.2c3.3,0,6.2,0,9.1,0c0.6,0,1.2,0,1.8,0c5.2-0.5,8.8-4.3,9.2-9.5c0.4-5.7-2.6-10.6-7.6-11.2c-4.1-0.5-8.3-0.1-12.5-0.1&#xD;&#xA;			C658.3,333.5,658.3,340.1,658.3,347.2z"/>
		<path class="st2" d="M543.7,359.7c-3.9,0-7.5,0-11.3,0c0-4.5,0-8.6,0-13.1c8.4,0,16.9,0,26,0c0,9.4,0,18.9,0,28.4&#xD;&#xA;			c0,1.4-1.1,2.1-2.2,2.7c-16.2,9.7-39.2,8.1-51.2-5.4c-9.6-10.8-11-29.1-3.4-43.2c6.5-12.1,21.3-19.1,36.1-17.1&#xD;&#xA;			c6,0.8,11.9,1.9,17.4,5.2c-1.5,4.2-2.9,8.3-4.5,12.7c-7.8-3.3-15.5-5.1-23.6-3.1c-10.3,2.5-15.6,9.7-15.7,21.1&#xD;&#xA;			c-0.1,10.7,5.5,18.4,15.3,21c2.9,0.8,6,1.2,9,1.1C544.1,369.7,544.7,368.9,543.7,359.7z"/>
		<path class="st2" d="M533.1,128c10.1,0.6,20.2-1,30.1,1c9.5,1.9,16.2,7.4,18,17c1.9,9.9,0,19.1-8.7,25.7c-0.5,0.4-0.9,0.7-1.6,1.3&#xD;&#xA;			c5.3,8.3,10.5,16.5,16.2,25.4c-5.4,0-9.9-0.1-14.4,0c-1.9,0.1-2.6-1.1-3.5-2.4c-3.1-4.7-6.5-9.2-9.2-14.1&#xD;&#xA;			c-2.9-5.2-6.7-7.5-12.9-5.5c0,6.9,0,14.1,0,21.6c-4.9,0-9.4,0-14,0C533.1,174.9,533.1,151.8,533.1,128z M547,162.7&#xD;&#xA;			c6.5-0.6,13.5,2.2,18.4-4.5c2.6-3.6,2.6-9.5-0.2-12.8c-5-6.1-11.9-3.4-18.2-4C547,148.7,547,155.4,547,162.7z"/>
		<path class="st2" d="M765.6,169.8c0,5.1,0,9.7,0,14.9c11.7,0,23.3,0,35.1,0c0,4.8,0,9.1,0,13.6c-16.3,0-32.4,0-48.8,0&#xD;&#xA;			c0-23.2,0-46.5,0-70c15.8,0,31.5,0,47.6,0c0,4.2,0,8.4,0,13c-11.1,0-22.3,0-33.8,0c0,5.2,0,9.9,0,15.1c10,0,19.8,0,29.8,0&#xD;&#xA;			c0,4.6,0,8.8,0,13.4C785.4,169.8,775.6,169.8,765.6,169.8z"/>
		<path class="st2" d="M424,220.3c4.6,0,9.1,0,13.9,0c0,8.8,0,17.5,0,27.5c2.3-2.6,3.9-4.4,5.6-6.2c5.5-6.3,11.1-12.5,16.6-18.8&#xD;&#xA;			c1.7-2,3.5-2.9,6.3-2.8c4.5,0.2,9,0.1,14.4,0.1c-10,10.9-19.4,21.1-29.1,31.6c9.6,12.8,19.1,25.4,29.2,38.8c-6,0-11.2,0-16.5,0&#xD;&#xA;			c-1.9,0-2.4-1.6-3.3-2.7c-6.5-8.9-13-17.9-19.5-26.8c-2.8,1.4-3.5,3.3-3.5,6c0.2,7.6,0.1,15.2,0.1,23.2c-4.7,0-9.3,0-14.2,0&#xD;&#xA;			C424,266.9,424,243.7,424,220.3z"/>
		<path class="st2" d="M612.3,168.9c-3,1.5-3.6,3.7-3.5,6.5c0.1,7.4,0,14.9,0,22.7c-4.7,0-9.2,0-14,0c0-23,0-46.2,0-69.7&#xD;&#xA;			c4.4,0,8.9,0,13.7,0c0,8.6,0,17.4,0,27.4c2.4-2.6,4.1-4.4,5.7-6.2c5.5-6.3,11.1-12.5,16.6-18.8c1.6-1.9,3.3-2.8,5.8-2.7&#xD;&#xA;			c4.7,0.2,9.4,0.1,14.8,0.1c-9.9,10.8-19.3,21-29,31.5c9.6,12.8,19.1,25.4,29.2,38.9c-6.1,0-11.3,0-16.5,0c-1.9,0-2.4-1.6-3.2-2.8&#xD;&#xA;			C625.3,186.7,618.8,177.7,612.3,168.9z"/>
		<path class="st2" d="M463.1,128.2c4.4,0,8.7,0,13,0c1.1,1.4,0.5,3.1,0.5,4.7c0.1,12.6,0,25.2,0.1,37.8c0.1,7.2,4.3,12.5,11,14.3&#xD;&#xA;			c6.1,1.7,12.6-0.9,16.3-6.3c1.9-2.8,2.1-5.9,2.1-9.1c0-13.7,0-27.3,0-41.3c4.6,0,9,0,13.7,0c0,15.4,0.4,30.8-0.1,46.1&#xD;&#xA;			c-0.5,14.8-13.6,25.4-29.4,24.8c-16-0.6-27.5-11.8-27.5-26.8c0-14.3,0-28.6,0-42.8C462.9,129.3,463,129,463.1,128.2z"/>
		<path class="st2" d="M513.5,216.3c10.9,25.2,21.4,49.3,32.3,74.3c-5.4,0-10.2,0-14.9,0c-1.8,0-2.2-1.6-2.4-2.8&#xD;&#xA;			c-1.7-9.6-7.4-11.9-16.7-11.1c-10.8,1-11,0.2-15,10.1c-1.2,3.1-2.8,4.2-6,3.9c-2.9-0.3-5.7-0.1-9.5-0.1&#xD;&#xA;			C491.9,265.8,502.4,241.7,513.5,216.3z M519.3,264.9c-2.2-5.5-4.2-10.8-6.5-16.7c-2.5,6-4.6,11.2-6.9,16.7&#xD;&#xA;			C510.5,264.9,514.6,264.9,519.3,264.9z"/>
		<path class="st2" d="M467.8,319.3c-1.9,3.7-3.5,6.9-5.3,10.3c-4.1-1.3-7.7-3.7-12-4.3c-1.1-0.1-2.1-0.4-3.1-0.5&#xD;&#xA;			c-5.2-0.3-9.3,1.7-10.2,5c-1.1,3.9,0.5,6.7,5.9,9.5c3.6,1.9,7.5,3.3,11.2,5c9.9,4.7,14.2,12.1,12.6,21.8&#xD;&#xA;			c-1.5,9.7-8.8,16.5-19.3,17.6c-10.3,1.1-19.9-1.2-28.9-7.4c2-3.6,4-7.1,6-10.8c4.7,2.6,9.1,5.3,14.3,5.7c1.1,0.1,2.1,0.3,3.2,0.3&#xD;&#xA;			c5.6-0.2,9.3-2.4,10-6.2c1-5.1-2.7-7.4-6.4-9.3c-3.9-2-8.1-3.4-12-5.5c-9.3-4.9-12.6-11.2-11.3-21.2c1-8,7-14.4,16.3-16.3&#xD;&#xA;			C449.2,311,458.8,313,467.8,319.3z"/>
		<path class="st2" d="M787.3,382.8c-0.6-1.4-1.3-2.8-1.8-4.2c-3.8-9.3-3.8-9.3-13.5-9.3c-0.2,0-0.3,0-0.5,0&#xD;&#xA;			c-9.3-1.8-15.7,1-17.5,11.2c-0.3,1.8-1.4,2.8-3.5,2.7c-3.5-0.2-7-0.1-11.4-0.1c10.7-24.7,21.2-48.9,32.2-74.2&#xD;&#xA;			c10.9,25.2,21.4,49.3,32.1,73.9C797.9,382.8,792.8,382.8,787.3,382.8z M763.6,357.3c4.7,0,8.8,0,13.4,0&#xD;&#xA;			c-2.1-5.4-4.1-10.5-6.5-16.5C768,346.8,765.9,351.9,763.6,357.3z"/>
		<path class="st2" d="M712,160.3c5-10.2,9.6-19.6,14-29c1.1-2.5,2.5-3.4,5.1-3.2c4.4,0.2,8.8,0.1,13.8,0.1&#xD;&#xA;			c-5.6,10.4-10.5,20.5-16.4,29.9c-7.8,12.3-12.6,25.1-9.2,40.2c-5.4,0-9.8,0-14.7,0c0-5.8-0.1-11.4,0-16.9c0.1-3.2-0.7-5.9-2.2-8.6&#xD;&#xA;			c-7.3-13.4-14.5-27-21.7-40.5c-0.6-1.2-1.7-2.2-1.4-4c4.8,0,9.7,0.1,14.5,0c2.5-0.1,2.9,1.8,3.7,3.3&#xD;&#xA;			C702.2,140.7,706.9,150.1,712,160.3z"/>
		<path class="st2" d="M590.7,220.4c0,4.3,0,8.3,0,12.9c-5.4,0-10.8,0-16.7,0c0,19.2,0,38,0,57c-4.8,0-9.2,0-14.1,0&#xD;&#xA;			c0-18.8,0-37.7,0-56.8c-5.7,0-10.9,0-16.3,0c0-4.4,0-8.5,0-13C559,220.4,574.6,220.4,590.7,220.4z"/>
		<path class="st2" d="M423.6,198.3c0-19.1,0-37.8,0-56.9c-5.5,0-10.8,0-16.2,0c0-4.5,0-8.6,0-13c15.7,0,31.4,0,47.3,0&#xD;&#xA;			c0,4.2,0,8.4,0,13c-5.6,0-11,0-16.9,0c0,19.2,0,37.9,0,56.9C432.9,198.3,428.6,198.3,423.6,198.3z"/>
		<path class="st2" d="M714.1,326.2c-5.7,0-10.9,0-16.2,0c0-4.5,0-8.7,0-13.2c15.5,0,31.2,0,47.1,0c0,4.3,0,8.6,0,13.3&#xD;&#xA;			c-5.6,0-11,0-16.8,0c0,19,0,37.6,0,56.5c-4.8,0-9.3,0-14,0C714.1,364.1,714.1,345.5,714.1,326.2z"/>
		<path class="st2" d="M646.2,276.9c11.2,0,21.8,0,32.8,0c0,4.5,0,8.8,0,13.4c-15.2,0-30.5,0-46.2,0c0-23.2,0-46.5,0-70&#xD;&#xA;			c4.4,0,8.7,0,13.4,0C646.2,239,646.2,257.7,646.2,276.9z"/>
		<path class="st2" d="M488.5,382.9c-4.5,0-8.8,0-13.5,0c0-23.3,0-46.4,0-69.9c4.4-0.7,8.7-0.2,13.5-0.3&#xD;&#xA;			C488.5,336.2,488.5,359.5,488.5,382.9z"/>
		<path class="st2" d="M616,290.4c-4.7,0-8.9,0-13.4,0c0-23.3,0-46.5,0-69.9c4.4,0,8.8,0,13.4,0C616,243.7,616,266.9,616,290.4z"/>
		<path class="st2" d="M671.9,198.3c-4.7,0-8.9,0-13.4,0c0-23.3,0-46.5,0-70c4.4,0,8.8,0,13.4,0&#xD;&#xA;			C671.9,151.6,671.9,174.8,671.9,198.3z"/>
		<path class="st2" d="M705.5,290.3c-4.4,0-8.8,0-13.4,0c0-23.3,0-46.5,0-69.9c4.4,0,8.7,0,13.4,0&#xD;&#xA;			C705.5,243.6,705.5,266.8,705.5,290.3z"/>
		<path class="st2" d="M672.4,117.1c0,3.7-3.1,6.6-7.1,6.6c-4.1,0-7.5-3.1-7.4-6.9c0.1-3.6,3.4-6.7,7.2-6.8&#xD;&#xA;			C669,110,672.4,113.3,672.4,117.1z"/>
		<path class="st2" d="M489.3,302c-0.1,3.8-3.7,6.7-7.8,6.5c-4.1-0.3-7-3.2-6.9-6.9c0.1-3.8,3.6-6.7,7.8-6.5&#xD;&#xA;			C486.3,295.2,489.4,298.4,489.3,302z"/>
		<path class="st2" d="M507.3,116.9c-0.1,3.7-3.5,6.9-7.1,6.8c-3.8-0.2-6.8-3.4-6.7-7.1c0.1-3.9,3.1-6.7,7.1-6.7&#xD;&#xA;			C504.4,110,507.4,113.1,507.3,116.9z"/>
		<path class="st2" d="M488.1,116.7c0,3.7-3.2,7-6.9,7c-3.6,0-6.6-3-6.7-6.7c-0.1-4.1,2.7-7.1,6.6-7.1&#xD;&#xA;			C485,109.8,488,112.7,488.1,116.7z"/>
	</g>
</g>
</svg>