<?xml version="1.0" encoding="utf-8"?>
<svg xmlns="http://www.w3.org/2000/svg" fill="none" height="15" viewBox="0 0 83 15" width="83">
<path d="M6.45273 0.10356C5.41764 -0.0924317 4.34089 -0.00899031 3.35877 0.343324C2.37665 0.695639 1.53331 1.30099 0.935474 2.08276C0.337642 2.86452 0.0122004 3.78757 0.00033634 4.73506C-0.0115277 5.68255 0.29072 6.6119 0.868825 7.40548C1.44693 8.19906 2.27491 8.82119 3.24796 9.19315C4.22101 9.5651 5.29539 9.67015 6.33513 9.49499C7.37487 9.31984 8.33322 8.87236 9.08889 8.20919C9.84456 7.54603 10.3636 6.69698 10.5802 5.76951C10.8675 4.52829 10.5947 3.23568 9.82131 2.17405C9.04794 1.11243 7.8369 0.36806 6.45273 0.10356Z" fill="white"/>
<path d="M3.9942 4.31049C3.37597 4.46757 2.71705 4.43683 2.12039 4.22308C1.52372 4.00932 1.02291 3.62458 0.696178 3.12897C0.589192 3.37278 0.505606 3.62432 0.446328 3.88085L0.366376 4.19413C0.366376 4.19413 0.366376 4.23889 0.366376 4.26574C0.366376 4.29259 0.366376 4.3463 0.366376 4.3821C0.360968 4.4357 0.360968 4.48962 0.366376 4.54322C0.366376 4.61482 0.366376 4.68643 0.366376 4.75804C0.366376 4.82965 0.366376 5.06237 0.366376 5.21454C0.371961 5.28606 0.371961 5.35784 0.366376 5.42936C0.366376 5.42936 0.366376 5.42936 0.366376 5.47412V5.61733C0.371981 5.65296 0.371981 5.68912 0.366376 5.72474C0.366376 5.72474 0.366376 5.7695 0.366376 5.79635C0.378328 5.85407 0.395031 5.91091 0.416346 5.96642C0.567394 6.42327 0.793033 6.85762 1.08594 7.25536C1.46256 7.75566 1.94618 8.18413 2.50884 8.51599C3.0715 8.84785 3.70203 9.07652 4.36398 9.18876L4.70377 9.24247H4.95362H5.6632H5.89306H6.08295H6.1629H6.35278H6.46272H6.55266L6.9924 9.1261C7.44744 8.98349 7.87802 8.78465 8.27163 8.53534C8.27163 8.53534 8.50149 8.38317 8.60143 8.30262L8.68139 8.24891L8.75134 8.1952C8.79545 8.15404 8.84217 8.11519 8.89126 8.07884L9.01119 7.97143C8.44312 8.42483 7.71705 8.68774 6.95676 8.71533C6.19648 8.74292 5.44904 8.53349 4.84187 8.12274C4.23471 7.71198 3.80539 7.12534 3.62713 6.46281C3.44886 5.80028 3.53267 5.10289 3.86428 4.48951" fill="#00A9BB"/>
<path d="M5.36337 0.291521C4.53004 0.289869 3.70948 0.474901 2.97637 0.829775C2.24326 1.18465 1.62089 1.6981 1.16589 2.32339C1.01833 2.52304 0.888033 2.73251 0.776123 2.94995C2.08534 3.80029 3.58444 3.3796 4.77372 2.94995C5.57071 2.56047 6.49607 2.43666 7.38536 2.60055C8.27464 2.76443 9.07026 3.20538 9.63081 3.84505C9.36863 3.61567 9.05447 3.43942 8.70962 3.32823C8.36477 3.21704 7.99728 3.17351 7.63201 3.20058C7.29955 3.22426 6.9756 3.30662 6.67883 3.44291C6.38206 3.57919 6.11832 3.76672 5.90281 3.99468C5.6873 4.22264 5.52427 4.48654 5.42311 4.77117C5.32195 5.0558 5.28467 5.35555 5.3134 5.65314C5.37449 6.25251 5.69542 6.80656 6.20735 7.19645C6.71928 7.58634 7.38143 7.78102 8.05176 7.73871C8.95122 7.68501 10.3804 6.92418 10.3804 4.74909C10.3804 3.56213 9.85389 2.42377 8.91677 1.58446C7.97965 0.745142 6.70865 0.273621 5.38336 0.273621" fill="#DD3F27"/>
<path d="M11.6796 3.28117H13.2986V7.37175H14.6878V3.28117H16.3168V2.216H11.6796V3.28117Z" fill="#223063"/>
<path d="M27.5901 7.37173L26.0909 5.16979C26.4334 5.08019 26.7391 4.90284 26.9704 4.65959C27.1886 4.40294 27.3015 4.08689 27.2902 3.7645C27.297 3.50655 27.2318 3.25117 27.1003 3.02157C26.9774 2.82825 26.8064 2.66286 26.6006 2.53822C26.3827 2.41548 26.1426 2.32764 25.8911 2.27864C25.6243 2.23221 25.3533 2.20824 25.0816 2.20703H22.8829V7.36278H24.2421V5.32196H24.7218L25.971 7.37173H27.5901ZM25.8111 4.11358C25.7541 4.19644 25.6705 4.26195 25.5713 4.30155C25.4693 4.35286 25.3574 4.38627 25.2415 4.40001C25.1251 4.40886 25.0081 4.40886 24.8917 4.40001H24.2321V3.20954H24.9716H25.2914C25.3995 3.22401 25.5041 3.25425 25.6012 3.29905C25.6877 3.3404 25.7628 3.3985 25.8211 3.46911C25.8848 3.55676 25.9162 3.66004 25.9111 3.7645C25.9191 3.88171 25.884 3.99804 25.8111 4.09568" fill="#223063"/>
<path d="M30.6882 4.588L33.1767 2.216H31.4377L29.379 4.31053H29.359V2.216H27.9998V7.37175H29.359V4.99975H29.369L31.5077 7.37175H33.3266L30.6882 4.588Z" fill="#223063"/>
<path d="M37.3842 7.37175H38.7733V5.18772L40.992 2.216H39.353L38.1237 4.12255L36.9045 2.216H35.2155L37.3842 5.18772V7.37175Z" fill="#223063"/>
<path d="M45.2395 6.30659H42.5711V5.23247H44.9696V4.23892H42.5711V3.26326H45.0995V2.216H41.2219V7.37175H45.2395V6.30659Z" fill="#223063"/>
<path d="M20.5443 7.35383C20.8332 7.258 21.0981 7.11199 21.3238 6.92419C21.5463 6.74532 21.7177 6.52124 21.8235 6.27077C21.942 6.00008 21.9997 5.71112 21.9934 5.42043V3.2901H20.6042V5.32197C20.6039 5.4545 20.5871 5.58659 20.5543 5.71581C20.5156 5.84168 20.4512 5.96004 20.3644 6.06489C20.2712 6.16352 20.1553 6.24292 20.0246 6.29762C19.8662 6.35671 19.6964 6.38713 19.5249 6.38713C19.3534 6.38713 19.1835 6.35671 19.0252 6.29762C18.8936 6.24852 18.7795 6.16802 18.6954 6.06489C18.6085 5.96004 18.5442 5.84168 18.5055 5.71581C18.4639 5.58789 18.4437 5.45518 18.4455 5.32197V3.2901H17.0664V5.42043C17.0573 5.71131 17.1151 6.00076 17.2363 6.27077C17.3385 6.52065 17.5065 6.74479 17.726 6.92419C17.9479 7.11194 18.2096 7.25802 18.4955 7.35383C19.1597 7.55639 19.8801 7.55639 20.5443 7.35383Z" fill="#223063"/>
<path d="M34.9764 2.216H33.5764V2.98578H34.9764V2.216Z" fill="#223063"/>
<path d="M18.4464 2.216H17.0664V2.98578H18.4464V2.216Z" fill="#223063"/>
<path d="M21.9942 2.216H20.6142V2.98578H21.9942V2.216Z" fill="#223063"/>
<path d="M34.9764 3.2901H33.5764V7.37173H34.9764V3.2901Z" fill="#223063"/>
<path d="M50.2265 3.20955C50.305 3.17201 50.3891 3.14487 50.4763 3.12899C50.5694 3.12073 50.6631 3.12073 50.7561 3.12899C50.9499 3.13105 51.1409 3.17076 51.3158 3.24535C51.4958 3.32224 51.6558 3.432 51.7855 3.56758L52.675 2.73515C52.4175 2.52458 52.1149 2.36317 51.7855 2.26075C51.465 2.15654 51.1271 2.10205 50.7861 2.09963C50.5156 2.0965 50.2461 2.12969 49.9866 2.19809C49.7271 2.25152 49.4802 2.34545 49.257 2.47557C49.0449 2.60753 48.8703 2.7823 48.7474 2.98577C48.618 3.20963 48.5527 3.45877 48.5575 3.7108C48.5542 3.91658 48.5984 4.12075 48.6874 4.31051C48.7679 4.46751 48.8797 4.61007 49.0172 4.73121C49.1591 4.84472 49.317 4.94103 49.4869 5.01764L50.0266 5.20561L50.5363 5.35777C50.6654 5.39609 50.7895 5.44712 50.9061 5.50994C50.996 5.55812 51.0742 5.62205 51.1359 5.69791C51.1922 5.77196 51.2234 5.85898 51.2259 5.94854C51.2302 6.03923 51.206 6.12919 51.1559 6.20811C51.1189 6.28077 51.0601 6.34276 50.986 6.38713C50.9101 6.43138 50.8252 6.46179 50.7362 6.47664C50.3969 6.54033 50.0435 6.49601 49.7368 6.35133C49.5228 6.25864 49.3323 6.12764 49.1771 5.96644L48.2676 6.78993C48.5465 7.04376 48.8892 7.23406 49.267 7.34488C49.6501 7.47448 50.0569 7.53825 50.4663 7.53285C50.7439 7.53352 51.0201 7.49733 51.2858 7.42544C51.5428 7.3633 51.7838 7.25688 51.9954 7.11216C52.1978 6.9685 52.3646 6.78865 52.4851 6.58405C52.6053 6.34177 52.6666 6.07938 52.665 5.81427C52.6729 5.58978 52.6143 5.36741 52.4951 5.1698C52.3786 5.00146 52.2298 4.85296 52.0554 4.73121C51.8782 4.61668 51.6871 4.52058 51.4857 4.44478C51.2758 4.38212 51.076 4.31051 50.8661 4.25681L50.4963 4.14044C50.3997 4.11124 50.3087 4.06898 50.2265 4.01513C50.1529 3.97904 50.091 3.92664 50.0466 3.86297C49.9969 3.80048 49.9722 3.72477 49.9766 3.64814C49.9681 3.55865 49.9966 3.46948 50.0566 3.39752C50.1101 3.32967 50.178 3.27189 50.2564 3.22745" fill="#223063"/>
<path d="M58.3316 5.32195H59.4309V6.21704C59.3011 6.26224 59.1674 6.29816 59.0312 6.32445C58.8748 6.33393 58.7179 6.33393 58.5615 6.32445C58.3044 6.33227 58.0485 6.28949 57.8119 6.19914C57.6334 6.14807 57.4697 6.06251 57.3322 5.94851C57.1778 5.8033 57.0617 5.62897 56.9924 5.43831C56.9106 5.22525 56.87 5.00123 56.8725 4.77594C56.8682 4.55557 56.9124 4.3366 57.0024 4.13147C57.0729 3.94328 57.1851 3.76976 57.3322 3.62127C57.4815 3.47547 57.6661 3.36219 57.8719 3.29008C58.0859 3.20562 58.3176 3.1629 58.5515 3.16477C58.8092 3.16063 59.0649 3.20643 59.301 3.29903C59.5063 3.37613 59.6904 3.49218 59.8407 3.63917L60.7202 2.74407C60.4317 2.51393 60.0906 2.34288 59.7208 2.24282C59.3096 2.11462 58.8768 2.05102 58.4415 2.05485C58.0227 2.05313 57.6067 2.11673 57.2123 2.24282C56.8422 2.35983 56.5023 2.54249 56.2129 2.77988C55.9244 3.03466 55.6967 3.33915 55.5433 3.67497C55.3952 4.02029 55.3239 4.38821 55.3334 4.75804C55.3269 5.13888 55.4085 5.51679 55.5732 5.86796C55.7158 6.20451 55.9373 6.50975 56.2229 6.76305C56.5127 7.0021 56.8523 7.18764 57.2223 7.30906C57.6309 7.44765 58.0646 7.51744 58.5015 7.51493C58.9153 7.51664 59.3279 7.47458 59.7308 7.38962C60.0775 7.31981 60.4133 7.21157 60.7302 7.06738V4.3821H58.3316V5.32195Z" fill="#223063"/>
<path d="M66.6566 2.80673C66.3667 2.56768 66.0271 2.38214 65.6572 2.26072C65.2562 2.13311 64.8334 2.06949 64.4079 2.07275C63.9792 2.06955 63.5531 2.13315 63.1487 2.26072C62.7762 2.37733 62.4355 2.56344 62.1493 2.80673C61.8657 3.04248 61.641 3.3292 61.4897 3.64812C61.3284 4.00307 61.2502 4.38387 61.2598 4.76699C61.251 5.15004 61.3293 5.53069 61.4897 5.88585C61.6277 6.2266 61.8538 6.5333 62.1493 6.78095C62.4355 7.02857 62.7757 7.22056 63.1487 7.34486C63.9592 7.60739 64.8467 7.60739 65.6572 7.34486C66.0303 7.22079 66.3706 7.02878 66.6566 6.78095C66.9434 6.52855 67.1651 6.22306 67.3062 5.88585C67.6255 5.16735 67.6255 4.36662 67.3062 3.64812C67.1609 3.32854 66.9391 3.04135 66.6566 2.80673ZM65.927 5.41145C65.8558 5.59935 65.7437 5.77275 65.5972 5.92166C65.448 6.0595 65.2718 6.17174 65.0775 6.25284C64.8649 6.33135 64.6379 6.37384 64.4079 6.37816C64.1852 6.37993 63.9645 6.34027 63.7598 6.26169C63.5551 6.18311 63.3708 6.06733 63.2186 5.92166C63.0675 5.77426 62.9519 5.60059 62.8789 5.41145C62.7881 5.20652 62.7439 4.98741 62.7489 4.76699C62.7468 4.55339 62.7875 4.34119 62.8689 4.14042C62.9404 3.95332 63.0563 3.78232 63.2087 3.63917C63.3608 3.4935 63.5451 3.37771 63.7498 3.29913C63.9545 3.22055 64.1752 3.1809 64.3979 3.18267C64.6258 3.17741 64.8517 3.22034 65.0575 3.30798C65.2601 3.37588 65.4392 3.49005 65.5772 3.63917C65.7281 3.78331 65.8438 3.95402 65.917 4.14042C66.007 4.33931 66.0512 4.55242 66.047 4.76699C66.0592 4.98703 66.0183 5.20687 65.927 5.41145Z" fill="#223063"/>
<path d="M72.2632 4.65959C72.4814 4.40294 72.5943 4.08689 72.583 3.7645C72.5898 3.50655 72.5246 3.25117 72.3932 3.02157C72.2702 2.82825 72.0992 2.66286 71.8935 2.53822C71.6764 2.41395 71.436 2.326 71.1839 2.27864C70.9171 2.23221 70.6461 2.20824 70.3744 2.20703H68.1757V7.36278H69.5349V5.32196H70.0146L71.2638 7.37173H72.8929L71.3838 5.16084C71.7283 5.08043 72.036 4.90509 72.2632 4.65959ZM71.1139 4.11358C71.0596 4.19844 70.9752 4.2646 70.8741 4.30155C70.7721 4.35286 70.6602 4.38627 70.5443 4.40001C70.4279 4.40886 70.3109 4.40886 70.1945 4.40001H69.5349V3.20954H70.3244H70.6342C70.7425 3.223 70.8474 3.25329 70.944 3.29905C71.0325 3.33776 71.1082 3.39636 71.1639 3.46911C71.2275 3.55676 71.259 3.66004 71.2538 3.7645C71.2522 3.88067 71.2179 3.99459 71.1539 4.09568" fill="#223063"/>
<path d="M77.4501 2.216H72.8029V3.28117H74.4319V7.37175H75.8211V3.28117H77.4501V2.216Z" fill="#223063"/>
<path d="M80.3184 2.216H78.9892L76.5706 7.37175H78.0897L78.5095 6.35134H80.7381L81.1779 7.37175H82.727L80.3184 2.216ZM78.8993 5.32198L79.6288 3.53179L80.3184 5.32198H78.8993Z" fill="#223063"/>
<path d="M54.6946 2.216H53.2946V2.98578H54.6946V2.216Z" fill="#223063"/>
<path d="M54.6946 3.2901H53.2946V7.37173H54.6946V3.2901Z" fill="#223063"/>
<path d="M34.8557 12.8318C34.5071 13.0242 34.1058 13.1264 33.6964 13.1272C33.448 13.1316 33.2013 13.0894 32.9723 13.0033C32.7432 12.9172 32.5368 12.7891 32.3664 12.6272C32.196 12.4653 32.0654 12.2732 31.9829 12.0633C31.9004 11.8534 31.8679 11.6304 31.8875 11.4086C31.8709 11.1867 31.9058 10.964 31.99 10.7548C32.0742 10.5455 32.2059 10.3541 32.3768 10.1927C32.5477 10.0312 32.754 9.90321 32.9828 9.8167C33.2117 9.7302 33.458 9.68707 33.7064 9.69004C34.0942 9.68212 34.4761 9.77542 34.8057 9.95857V10.6478H34.5958L34.4759 9.94067L34.6758 10.0033V10.1734C34.4013 9.95574 34.0425 9.84325 33.6764 9.86011C33.4588 9.86225 33.2442 9.90569 33.0468 9.98755C32.8494 10.0694 32.6735 10.1878 32.5309 10.335C32.3883 10.4822 32.2822 10.6548 32.2195 10.8414C32.1568 11.028 32.139 11.2244 32.1673 11.4176C32.1673 12.3753 32.747 12.9661 33.6764 12.9661C34.0323 12.9797 34.3833 12.8886 34.6758 12.7065L34.5459 12.8497V12.5991C34.5459 12.2232 34.5459 11.8651 34.5459 11.4981H34.8757C34.8757 11.8293 34.8757 12.1695 34.8757 12.5991V12.8318H34.8557ZM33.9362 11.6324V11.5071H35.2654V11.6324L34.7458 11.6772H34.6558L33.9362 11.6324Z" fill="#00A9BB"/>
<path d="M35.945 12.1873C35.945 12.7154 36.1349 12.9034 36.4847 12.9034C36.6661 12.8929 36.8427 12.8466 37.0017 12.7676C37.1607 12.6887 37.2981 12.5792 37.4042 12.4469H37.4941V12.6259H37.3442H37.4841C37.3775 12.7811 37.2313 12.9115 37.0576 13.0064C36.8839 13.1013 36.6876 13.158 36.4847 13.1719C36.015 13.1719 35.7551 12.9482 35.7551 12.2768V10.8984L35.8451 10.961L35.3154 10.9073V10.782L35.975 10.7373L36.035 10.791V11.4623L35.945 12.1873ZM35.945 9.80638C35.945 9.75177 35.9693 9.69941 36.0124 9.6608C36.0555 9.62219 36.1139 9.6005 36.1749 9.6005C36.2242 9.61079 36.268 9.636 36.299 9.67188C36.3299 9.70776 36.3461 9.7521 36.3448 9.79742C36.3448 9.84965 36.3216 9.89974 36.2804 9.93667C36.2392 9.9736 36.1832 9.99434 36.1249 9.99434C36.0657 9.99439 36.0087 9.97394 35.9658 9.93725C35.923 9.90055 35.8976 9.85046 35.8951 9.79742M37.3942 13.0824L37.3442 12.4827V10.8894L37.4441 10.9521L36.9045 10.8984V10.7641H37.5741L37.634 10.8178V11.4892V13.0287L37.5341 12.9034L38.0438 12.9661V13.0914L37.3942 13.0824ZM36.9844 9.79742C36.9831 9.77082 36.9877 9.74425 36.9982 9.71931C37.0086 9.69438 37.0246 9.6716 37.0452 9.65236C37.0657 9.63311 37.0904 9.6178 37.1178 9.60735C37.1451 9.5969 37.1745 9.59153 37.2043 9.59155C37.234 9.59153 37.2634 9.5969 37.2908 9.60735C37.3181 9.6178 37.3428 9.63311 37.3634 9.65236C37.3839 9.6716 37.3999 9.69438 37.4104 9.71931C37.4208 9.74425 37.4255 9.77082 37.4241 9.79742C37.4241 9.84965 37.401 9.89974 37.3598 9.93667C37.3185 9.9736 37.2626 9.99434 37.2043 9.99434C37.146 9.99434 37.09 9.9736 37.0488 9.93667C37.0076 9.89974 36.9844 9.84965 36.9844 9.79742Z" fill="#00A9BB"/>
<path d="M38.6234 11.883C38.6234 12.5096 39.0232 12.9213 39.6228 12.9213C39.7773 12.9209 39.9298 12.8903 40.0696 12.8315C40.2095 12.7728 40.3333 12.6873 40.4323 12.5812L40.5223 12.6349C40.4317 12.7985 40.2873 12.9333 40.1087 13.0213C39.9301 13.1093 39.7257 13.1463 39.5229 13.1272C39.3537 13.1233 39.1872 13.0878 39.0342 13.023C38.8811 12.9583 38.7448 12.8657 38.6338 12.7512C38.5229 12.6367 38.4398 12.5028 38.3898 12.3579C38.3399 12.2131 38.3241 12.0605 38.3436 11.9099C38.3314 11.7562 38.3541 11.6019 38.4106 11.4563C38.467 11.3108 38.5558 11.177 38.6717 11.0632C38.7876 10.9493 38.9281 10.8578 39.0848 10.794C39.2414 10.7303 39.4109 10.6958 39.5829 10.6926C39.7819 10.6869 39.9777 10.7386 40.1414 10.8402C40.3052 10.9417 40.4282 11.0876 40.4923 11.2565C40.4874 11.2936 40.4673 11.3279 40.436 11.3527C40.4047 11.3774 40.3642 11.391 40.3224 11.3907C40.2752 11.3935 40.2285 11.3803 40.1915 11.3538C40.1545 11.3273 40.1299 11.2894 40.1225 11.2475L39.9726 10.8537L40.1725 11.0327C40.0035 10.9151 39.7968 10.8492 39.5829 10.8447C39.0332 10.8447 38.5835 11.2386 38.5835 11.883" fill="#00A9BB"/>
<path d="M41.3418 12.1873C41.3418 12.7154 41.5317 12.9034 41.8815 12.9034C42.0632 12.8942 42.2403 12.8484 42.3995 12.7693C42.5587 12.6903 42.6959 12.5801 42.8009 12.4469H42.8909V12.6259H42.711H42.8509C42.7425 12.7797 42.5959 12.9089 42.4225 13.0037C42.2492 13.0984 42.0537 13.1559 41.8515 13.1719C41.3718 13.1719 41.1119 12.9482 41.1119 12.2768V10.8984L41.2019 10.961L40.6722 10.9073V10.782L41.3418 10.7373V10.791V11.4623V12.1873ZM41.3418 9.79742C41.3404 9.77082 41.3451 9.74425 41.3556 9.71931C41.366 9.69438 41.382 9.6716 41.4025 9.65236C41.4231 9.63311 41.4478 9.6178 41.4751 9.60735C41.5025 9.5969 41.5319 9.59153 41.5617 9.59155C41.5914 9.59153 41.6208 9.5969 41.6482 9.60735C41.6755 9.6178 41.7002 9.63311 41.7208 9.65236C41.7413 9.6716 41.7573 9.69438 41.7677 9.71931C41.7782 9.74425 41.7829 9.77082 41.7815 9.79742C41.7815 9.84965 41.7584 9.89974 41.7171 9.93667C41.6759 9.9736 41.62 9.99434 41.5617 9.99434C41.5033 9.99434 41.4474 9.9736 41.4062 9.93667C41.365 9.89974 41.3418 9.84965 41.3418 9.79742ZM42.8309 13.0824V12.5096V10.8894L42.9308 10.9521L42.3412 10.8984V10.7641H43.0108V10.8178V11.4892V13.0287L42.9009 12.9034L43.4205 12.9661V13.0914L42.8309 13.0824ZM42.4012 9.79742C42.3998 9.77082 42.4045 9.74425 42.4149 9.71931C42.4254 9.69438 42.4414 9.6716 42.4619 9.65236C42.4825 9.63311 42.5072 9.6178 42.5345 9.60735C42.5619 9.5969 42.5913 9.59153 42.621 9.59155C42.6508 9.59153 42.6802 9.5969 42.7075 9.60735C42.7349 9.6178 42.7596 9.63311 42.7801 9.65236C42.8007 9.6716 42.8167 9.69438 42.8271 9.71931C42.8376 9.74425 42.8422 9.77082 42.8409 9.79742C42.8409 9.84965 42.8177 9.89974 42.7765 9.93667C42.7353 9.9736 42.6793 9.99434 42.621 9.99434C42.5627 9.99434 42.5068 9.9736 42.4656 9.93667C42.4243 9.89974 42.4012 9.84965 42.4012 9.79742Z" fill="#00A9BB"/>
<path d="M43.7904 14.0939L43.7204 14.0044C43.9013 13.9112 44.0558 13.782 44.172 13.6268C44.2882 13.4716 44.3629 13.2945 44.3904 13.1093V13.2346L44.2004 13.1004C44.1579 13.0717 44.1225 13.0354 44.0967 12.9938C44.0709 12.9521 44.0551 12.9061 44.0504 12.8587C44.0503 12.8321 44.0563 12.8057 44.068 12.7812C44.0797 12.7567 44.0968 12.7346 44.1183 12.7162C44.1398 12.6978 44.1652 12.6835 44.1931 12.6741C44.221 12.6648 44.2506 12.6606 44.2804 12.6618C44.3236 12.6615 44.3663 12.6694 44.4059 12.6848C44.4455 12.7002 44.4811 12.7228 44.5104 12.7513C44.5254 12.8403 44.5254 12.9308 44.5104 13.0198C44.498 13.2457 44.4193 13.4647 44.2824 13.6548C44.1455 13.845 43.9551 13.9995 43.7304 14.1029" fill="#00A9BB"/>
<path d="M47.1583 11.8024C47.4432 11.7183 47.7336 11.6495 48.0278 11.5966V11.7219C47.7679 11.7756 47.4381 11.8561 47.2083 11.9278C46.7385 12.0889 46.5886 12.2768 46.5886 12.4827C46.5835 12.5427 46.5935 12.6029 46.6177 12.6589C46.642 12.715 46.68 12.7654 46.7288 12.8066C46.7777 12.8478 46.8363 12.8787 46.9002 12.897C46.9641 12.9153 47.0318 12.9205 47.0983 12.9124C47.3582 12.9124 47.5681 12.796 47.9078 12.5006L47.9878 12.438V12.5454L47.8979 12.6349C47.7934 12.772 47.6554 12.886 47.4943 12.9682C47.3333 13.0505 47.1534 13.0987 46.9684 13.1093C46.88 13.1084 46.7927 13.0911 46.7121 13.0584C46.6315 13.0258 46.5593 12.9786 46.5002 12.9197C46.441 12.8608 46.3961 12.7916 46.3683 12.7163C46.3405 12.6411 46.3305 12.5616 46.3388 12.4827C46.3388 12.1784 46.5886 11.9546 47.1983 11.7666M47.9478 12.5543V11.4892C47.9478 10.97 47.7479 10.8357 47.3382 10.8357C47.121 10.8392 46.9095 10.8982 46.7286 11.0058L46.8885 10.8805L46.7785 11.2475C46.7736 11.2894 46.7514 11.3282 46.7163 11.3563C46.6812 11.3844 46.6357 11.3999 46.5886 11.3996C46.5673 11.4022 46.5457 11.4006 46.5251 11.3951C46.5046 11.3895 46.4856 11.38 46.4695 11.3673C46.4534 11.3545 46.4405 11.3388 46.4317 11.3213C46.423 11.3037 46.4186 11.2846 46.4187 11.2654C46.4771 11.0908 46.5998 10.9392 46.7668 10.8351C46.9337 10.7311 47.1352 10.6808 47.3382 10.6925C47.8779 10.6925 48.1577 10.9163 48.1577 11.4534V12.5364C48.1577 12.8587 48.2476 12.9571 48.3976 12.9571C48.4415 12.9562 48.4847 12.947 48.5243 12.93C48.5639 12.9131 48.5991 12.8887 48.6274 12.8586L48.6974 12.9482C48.6564 13.0046 48.6 13.0506 48.5335 13.082C48.467 13.1133 48.3927 13.1289 48.3176 13.1272C48.0478 13.1272 47.9178 12.9213 47.9078 12.5901" fill="#00A9BB"/>
<path d="M49.9966 12.9392C50.1623 12.9341 50.3239 12.8921 50.467 12.8171C50.61 12.7421 50.73 12.6364 50.8161 12.5095L50.8761 12.608C50.7848 12.7606 50.6495 12.8884 50.4843 12.9782C50.319 13.0679 50.1299 13.1163 49.9366 13.1182C49.297 13.1182 48.8473 12.6259 48.8473 11.9277C48.8473 11.2296 49.337 10.6925 50.0066 10.6925C50.1851 10.7016 50.3582 10.7505 50.5101 10.835C50.662 10.9194 50.7878 11.0366 50.8761 11.1759L50.8161 11.2654C50.7272 11.1504 50.6095 11.0558 50.4724 10.9889C50.3353 10.9221 50.1826 10.8849 50.0266 10.8805C49.5369 10.8805 49.1371 11.2117 49.1371 11.9367C49.1371 12.6617 49.5069 12.9481 49.9966 12.9481M51.5657 12.9481V13.0735H50.7761V9.68105H50.2864V9.55573L50.976 9.43042H51.056V13.0108L50.966 12.8228L51.5657 12.9481Z" fill="#00A9BB"/>
<path d="M52.1756 12.0262V11.8024C52.1756 11.4891 52.1756 11.2296 52.1756 11.0058H51.6956V10.8715L52.4056 10.7194H52.4756V12.0083C52.4756 12.3126 52.4756 12.8139 52.4756 13.0377H52.1756C52.1756 12.796 52.1756 12.2947 52.1756 11.9904M51.7056 12.8855L52.2856 12.8228H52.3356L52.8656 12.8855V13.0108H51.7256V12.9302L51.7056 12.8855Z" fill="#00A9BB"/>
<path d="M53.5744 13.0645C53.5744 12.8407 53.5744 12.3395 53.5744 12.0351V11.8024C53.5744 11.4802 53.5744 11.2296 53.5744 11.0058H53.0947V10.8715L53.7643 10.7194H53.8343V11.2564V12.0083C53.8343 12.3126 53.8343 12.8139 53.8343 13.0377H53.5245L53.5744 13.0645ZM54.334 12.9302V13.0556H53.1347V12.9302L53.7044 12.8676H53.7743L54.334 12.9302ZM55.5832 11.5876V12.071C55.5832 12.3842 55.5832 12.8765 55.5832 13.1003H55.3334C55.3334 12.8765 55.3334 12.3842 55.3334 12.071V11.5876C55.3334 11.1042 55.1435 10.9342 54.8237 10.9342C54.6284 10.9426 54.4376 10.9894 54.2648 11.0714C54.0921 11.1534 53.9417 11.2685 53.8243 11.4086H53.7243V11.2564H53.8942H53.7643C53.8988 11.0913 54.0726 10.9551 54.2731 10.8576C54.4736 10.76 54.6958 10.7037 54.9236 10.6925C55.3334 10.6925 55.5832 10.9521 55.5832 11.5876ZM55.4833 12.9123L56.013 12.975V13.1003H54.8537V12.9302L55.4233 12.8676L55.4833 12.9123Z" fill="#00A9BB"/>
<path d="M57.3922 12.9392C57.5595 12.9355 57.7232 12.8943 57.8682 12.8192C58.0131 12.7441 58.1347 12.6377 58.2217 12.5095V12.608C58.1338 12.7611 58.0006 12.8897 57.8367 12.9797C57.6728 13.0697 57.4845 13.1176 57.2922 13.1182C56.6426 13.1182 56.2029 12.6259 56.2029 11.9277C56.2029 11.2296 56.7525 10.6925 57.4022 10.6925C57.5823 10.6954 57.7582 10.7419 57.9112 10.8269C58.0643 10.912 58.1888 11.0326 58.2716 11.1759V11.2654C58.1818 11.1492 58.0624 11.0538 57.9235 10.9869C57.7845 10.92 57.6298 10.8836 57.4721 10.8805C56.9924 10.8805 56.5827 11.2117 56.5827 11.9367C56.5827 12.6617 56.9724 12.9481 57.4421 12.9481M59.0112 12.9481V13.0735H58.2317V9.68105H57.742V9.55573L58.4315 9.43042H58.5015V13.0108L58.3316 12.8676L59.0112 12.9481Z" fill="#00A9BB"/>
<path d="M59.9606 11.8025C60.245 11.7142 60.5354 11.6424 60.8301 11.5876V11.7129C60.5703 11.7666 60.2404 11.8472 60.0006 11.9188C59.5409 12.0799 59.391 12.2679 59.391 12.4738C59.3859 12.5337 59.3958 12.5939 59.4201 12.65C59.4443 12.706 59.4823 12.7565 59.5312 12.7977C59.58 12.8389 59.6386 12.8698 59.7025 12.8881C59.7665 12.9064 59.8342 12.9116 59.9007 12.9034C60.1605 12.9034 60.3604 12.7871 60.7002 12.4917L60.7901 12.429V12.5364L60.6902 12.6259C60.3504 12.9482 60.1305 13.1003 59.7707 13.1003C59.6801 13.108 59.5887 13.0983 59.5027 13.0719C59.4166 13.0454 59.3378 13.0028 59.2716 12.9468C59.2054 12.8909 59.1532 12.823 59.1187 12.7476C59.0841 12.6722 59.0679 12.591 59.0711 12.5096C59.0711 12.2052 59.321 11.9815 59.9306 11.7935M60.6602 12.5812V11.4892C60.6602 10.97 60.4703 10.8357 60.0606 10.8357C59.8403 10.839 59.6255 10.898 59.4409 11.0058L59.6108 10.8805L59.5009 11.2475C59.5009 11.3549 59.401 11.3997 59.301 11.3997C59.28 11.4009 59.2589 11.3984 59.239 11.3923C59.2191 11.3862 59.2007 11.3766 59.1849 11.3641C59.1691 11.3517 59.1563 11.3365 59.147 11.3196C59.1378 11.3026 59.1324 11.2842 59.1311 11.2654C59.1953 11.0796 59.3309 10.9201 59.5138 10.8153C59.6968 10.7104 59.9152 10.6669 60.1305 10.6925C60.6702 10.6925 60.95 10.9163 60.95 11.4534V12.5364C60.95 12.8587 61.03 12.9571 61.1899 12.9571C61.2328 12.9582 61.2753 12.9498 61.3136 12.9327C61.352 12.9155 61.385 12.8901 61.4097 12.8587L61.4897 12.9482C61.4468 13.0029 61.39 13.0477 61.324 13.0788C61.2579 13.1099 61.1846 13.1265 61.1099 13.1272C60.8401 13.1272 60.7002 12.9213 60.6902 12.5901" fill="#00A9BB"/>
<path d="M61.9294 12.8765C61.932 12.8164 61.9606 12.7595 62.009 12.7177C62.0575 12.676 62.1222 12.6527 62.1894 12.6528C62.2484 12.6633 62.3015 12.6918 62.3397 12.7334C62.3778 12.775 62.3987 12.8272 62.3987 12.881C62.3987 12.9349 62.3778 12.987 62.3397 13.0287C62.3015 13.0703 62.2484 13.0988 62.1894 13.1093C62.1205 13.1093 62.0544 13.0848 62.0056 13.0411C61.9568 12.9975 61.9294 12.9383 61.9294 12.8765Z" fill="#00A9BB"/>
</svg>