<?xml version="1.0" encoding="utf-8"?>
<svg xmlns="http://www.w3.org/2000/svg" fill="none" height="21" viewBox="0 0 77 21" width="77">
<path d="M45.9624 7.18762C45.9539 6.27178 46.1517 5.3638 46.544 4.518C46.9363 3.67219 47.515 2.90593 48.2455 2.26502C48.976 1.62412 49.8434 1.12174 50.7956 0.787932C51.7479 0.454122 52.7655 0.295736 53.7877 0.322245C55.1441 0.272753 56.4886 0.567448 57.6662 1.17239C58.8437 1.77732 59.8066 2.66789 60.4437 3.74151L56.3562 5.83603C56.143 5.35951 55.7743 4.95168 55.2983 4.66583C54.8222 4.37998 54.2609 4.22941 53.6878 4.23381C52.0288 4.23381 50.9394 5.5317 50.9394 7.11601C50.9394 8.82565 52.0688 10.034 53.6878 10.034C54.282 10.0357 54.8633 9.87911 55.358 9.58428C55.8526 9.28945 56.2383 8.86962 56.4661 8.3781L60.5237 10.4279C59.6864 11.7638 58.3817 12.816 56.8107 13.4222C55.2398 14.0284 53.4898 14.155 51.8306 13.7825C50.1714 13.4099 48.6951 12.559 47.6292 11.3607C46.5633 10.1625 45.9671 8.68352 45.9324 7.15182L45.9624 7.18762Z" fill="#F58545"/>
<path d="M60.7436 7.18761C60.7436 5.28134 61.5891 3.45314 63.0941 2.1052C64.5991 0.757264 66.6403 0 68.7687 0C70.8972 0 72.9384 0.757264 74.4434 2.1052C75.9484 3.45314 76.7939 5.28134 76.7939 7.18761C76.7939 9.09389 75.9484 10.9221 74.4434 12.27C72.9384 13.618 70.8972 14.3752 68.7687 14.3752C66.6403 14.3752 64.5991 13.618 63.0941 12.27C61.5891 10.9221 60.7436 9.09389 60.7436 7.18761ZM71.8369 7.18761C71.8598 6.80922 71.7973 6.43058 71.6531 6.07431C71.509 5.71804 71.2861 5.39145 70.9979 5.11406C70.7096 4.83667 70.3619 4.61417 69.9754 4.45985C69.589 4.30553 69.1718 4.22256 68.7488 4.2159C68.331 4.22256 67.919 4.30459 67.5374 4.45711C67.1558 4.60963 66.8125 4.8295 66.5279 5.10357C66.2434 5.37764 66.0234 5.70028 65.8813 6.05221C65.7391 6.40414 65.6777 6.77812 65.7006 7.15181C65.6777 7.5302 65.7402 7.90884 65.8844 8.26511C66.0285 8.62138 66.2514 8.94797 66.5396 9.22536C66.8279 9.50275 67.1756 9.72525 67.5621 9.87957C67.9485 10.0339 68.3657 10.1169 68.7887 10.1235C69.207 10.1181 69.6196 10.0369 70.0019 9.88482C70.3841 9.73273 70.728 9.51289 71.0128 9.23855C71.2977 8.96422 71.5175 8.64107 71.6591 8.28859C71.8008 7.93611 71.8612 7.56159 71.8369 7.18761Z" fill="#F58545"/>
<path d="M0 7.83207V0.563904H4.997V7.77837C4.997 9.40744 5.94643 10.1056 7.26564 10.1056C8.58485 10.1056 9.54427 9.4701 9.54427 7.86788V0.563904H14.5413V7.72466C14.5413 12.2001 11.623 13.9903 7.22567 13.9903C2.8283 13.9903 0 12.2001 0 7.83207Z" fill="#29AAE1"/>
<path d="M16.1003 0.563904H20.6976L25.9344 6.38202V0.563904H30.8015V13.7397H26.4341L20.9674 7.662V13.7397H16.1003V0.563904Z" fill="#29AAE1"/>
<path d="M32.5305 0.563904H37.4475V13.7397H32.5305V0.563904Z" fill="#29AAE1"/>
<path d="M38.8467 3.18655C38.8467 2.41739 39.1879 1.67974 39.7951 1.13586C40.4024 0.591985 41.226 0.286438 42.0848 0.286438C42.9436 0.286438 43.7672 0.591985 44.3744 1.13586C44.9817 1.67974 45.3228 2.41739 45.3228 3.18655C45.3228 3.9557 44.9817 4.69336 44.3744 5.23723C43.7672 5.78111 42.9436 6.08665 42.0848 6.08665C41.226 6.08665 40.4024 5.78111 39.7951 5.23723C39.1879 4.69336 38.8467 3.9557 38.8467 3.18655Z" fill="#29AAE1"/>
<path d="M16.9598 19.7547L17.8893 19.2714C17.9936 19.4597 18.1546 19.6182 18.3542 19.7289C18.5537 19.8396 18.7839 19.8981 19.0186 19.8979C19.4883 19.8979 19.7881 19.6831 19.7881 19.3877C19.7881 19.0923 19.4783 18.9133 18.9586 18.7164L18.6788 18.6C17.8493 18.2867 17.3096 17.8929 17.3096 17.0605C17.3115 16.8711 17.3572 16.6841 17.4439 16.5114C17.5305 16.3386 17.6563 16.1838 17.8131 16.0568C17.97 15.9298 18.1545 15.8333 18.3551 15.7734C18.5558 15.7135 18.7681 15.6915 18.9786 15.7089C19.3089 15.6889 19.6384 15.7564 19.9263 15.9028C20.2141 16.0492 20.4476 16.2681 20.5977 16.5324L19.7082 17.0426C19.6511 16.9115 19.5506 16.7992 19.4202 16.7208C19.2898 16.6424 19.1357 16.6017 18.9786 16.604C18.9098 16.5978 18.8402 16.6044 18.7744 16.6236C18.7086 16.6427 18.6479 16.6739 18.5962 16.7151C18.5445 16.7563 18.503 16.8067 18.4742 16.8631C18.4454 16.9195 18.43 16.9806 18.429 17.0426C18.429 17.3469 18.6388 17.4722 19.1285 17.6602L19.3784 17.7586C20.3778 18.1346 20.8975 18.5105 20.8975 19.3698C20.8975 20.2291 20.088 20.793 18.9986 20.793C18.584 20.8099 18.1725 20.7214 17.8117 20.5377C17.451 20.3539 17.1556 20.0825 16.9598 19.7547Z" fill="#29AAE1"/>
<path d="M23.1961 16.4877C23.1961 16.3215 23.2698 16.1621 23.4011 16.0446C23.5324 15.9271 23.7104 15.8611 23.8961 15.8611C24.0817 15.8611 24.2598 15.9271 24.3911 16.0446C24.5223 16.1621 24.5961 16.3215 24.5961 16.4877C24.5961 16.6538 24.5223 16.8132 24.3911 16.9307C24.2598 17.0482 24.0817 17.1142 23.8961 17.1142C23.7104 17.1142 23.5324 17.0482 23.4011 16.9307C23.2698 16.8132 23.1961 16.6538 23.1961 16.4877ZM23.3761 17.6244H24.4761V20.7304H23.3761V17.6244Z" fill="#29AAE1"/>
<path d="M26.9439 18.251C26.9269 17.9139 26.9884 17.5773 27.1244 17.2626C27.2604 16.9479 27.468 16.662 27.7339 16.4229C27.9998 16.1839 28.3184 15.997 28.6692 15.8741C29.0201 15.7512 29.3957 15.6949 29.7722 15.7089C30.1415 15.6845 30.5122 15.7337 30.8578 15.8528C31.2034 15.972 31.5152 16.1582 31.771 16.3981L31.0014 17.0873C30.8471 16.932 30.6553 16.8101 30.4406 16.731C30.2259 16.6519 29.9939 16.6177 29.7622 16.6308C29.5315 16.6314 29.3035 16.6747 29.0925 16.758C28.8815 16.8414 28.6921 16.9631 28.5363 17.1153C28.3804 17.2675 28.2614 17.447 28.1869 17.6425C28.1123 17.838 28.0838 18.0451 28.1032 18.251C28.0885 18.4703 28.126 18.6899 28.2134 18.8952C28.3007 19.1005 28.4359 19.2868 28.6098 19.4417C28.7837 19.5967 28.9925 19.7167 29.2222 19.7938C29.4519 19.8709 29.6973 19.9034 29.9421 19.889C30.3125 19.8941 30.6801 19.8301 31.0214 19.701V18.976H29.6922V18.0809H32.0808V20.2202C31.4571 20.6096 30.7123 20.8132 29.952 20.802C29.5634 20.8269 29.1732 20.7791 28.8063 20.6616C28.4394 20.5441 28.1039 20.3595 27.8209 20.1196C27.538 19.8796 27.3139 19.5896 27.1629 19.2679C27.0119 18.9462 26.9373 18.5999 26.9439 18.251Z" fill="#29AAE1"/>
<path d="M34.5992 18.251C34.5953 17.7422 34.7601 17.2438 35.0729 16.8189C35.3856 16.3941 35.8322 16.0621 36.3559 15.8649C36.8797 15.6677 37.457 15.6143 38.0147 15.7114C38.5724 15.8085 39.0854 16.0517 39.4885 16.4103C39.8917 16.7688 40.1668 17.2265 40.2791 17.7253C40.3914 18.2241 40.3358 18.7416 40.1193 19.212C39.9028 19.6825 39.5352 20.0847 39.0631 20.3678C38.591 20.6509 38.0357 20.802 37.4675 20.802C37.0903 20.8093 36.7154 20.7484 36.365 20.623C36.0147 20.4976 35.6961 20.3102 35.4284 20.0721C35.1607 19.834 34.9493 19.5501 34.8069 19.2372C34.6644 18.9243 34.5938 18.5889 34.5992 18.251ZM39.1565 18.251C39.1312 17.9557 39.0102 17.6734 38.8084 17.4388C38.6066 17.2041 38.3327 17.0273 38.0203 16.9301C37.708 16.8328 37.3707 16.8193 37.0499 16.8913C36.7291 16.9632 36.4387 17.1174 36.2143 17.335C35.99 17.5526 35.8414 17.8241 35.7868 18.1162C35.7322 18.4084 35.774 18.7084 35.9071 18.9796C36.0401 19.2507 36.2586 19.4812 36.5358 19.6428C36.813 19.8043 37.1368 19.8899 37.4675 19.889C37.7007 19.8871 37.931 19.8425 38.1442 19.7578C38.3574 19.6732 38.549 19.5504 38.7072 19.3969C38.8655 19.2435 38.9869 19.0627 39.0642 18.8656C39.1415 18.6685 39.1729 18.4594 39.1565 18.251Z" fill="#29AAE1"/>
<path d="M47.0218 20.7304H45.7026L44.7931 19.4772H44.4633H44.0736V20.7035H42.9342V15.7715H44.4633C46.0124 15.7715 46.9418 16.4339 46.9418 17.6423C46.969 17.9685 46.8802 18.294 46.6881 18.5722C46.496 18.8504 46.2105 19.0669 45.8725 19.1908L47.0218 20.7304ZM44.4333 18.6538C45.3628 18.6538 45.7725 18.3942 45.7725 17.687C45.7725 16.9799 45.3428 16.7114 44.4333 16.7114H44.0736V18.6538H44.4333Z" fill="#29AAE1"/>
<path d="M50.7496 16.6666H49.1705V15.7715H53.4679V16.6666H51.8889V20.7304H50.7496V16.6666Z" fill="#29AAE1"/>
<path d="M57.1957 15.7268H57.2956L59.8341 20.7304H58.6348L58.355 20.1754H56.1263L55.8565 20.7304H54.7571L57.1957 15.7268ZM57.9652 19.3072L57.5655 18.4121C57.4055 18.063 57.2257 17.517 57.2257 17.517C57.1366 17.8202 57.0299 18.1189 56.9059 18.4121L56.5061 19.3072H57.9652Z" fill="#29AAE1"/>
</svg>